<?xml version="1.0" encoding="utf-8"?>
<!-- Generator: Adobe Illustrator 21.0.2, SVG Export Plug-In . SVG Version: 6.00 Build 0)  -->
<svg version="1.1" id="Capa_1" xmlns="http://www.w3.org/2000/svg" xmlns:xlink="http://www.w3.org/1999/xlink" x="0px" y="0px"
	 viewBox="0 0 316 316" enable-background="new 0 0 316 316" xml:space="preserve">
<path fill="#3FDBB1" d="M275.8,245.9c3.5-4.4,7.4-7.2,12.4-8.1c9.3-1.9,17.5,2.6,19.3,10.6c1.1,5.3-0.1,10.4-0.8,15.5
	c-0.9,7.1-2.1,14.1-2.9,21.1c-0.4,2.8-1,4.6-4.5,4.2c-2.2-0.3-4.4-0.1-6.6,0c-1.6,0.1-2.3-0.5-2-2.2c1.1-7.7,2.2-15.3,3.3-22.9
	c0.5-2.8,0.5-5.7,0.3-8.4c-0.4-4.2-3.1-6.6-7.3-6.6c-7.3-0.1-12.5,5.4-13.4,13.8c-0.9,7.9-2.2,15.9-3.2,23.9c-0.3,1.8-1,2.7-3,2.6
	c-2.7-0.2-5.5-0.1-8.1,0c-1.3,0-1.9-0.4-1.7-1.8c2.3-15.5,4.5-31,6.6-46.6c0.2-1.7,0.9-2.1,2.5-2c2.4,0.1,4.8,0.2,7.2,0
	c2.3-0.2,2.7,0.9,2.4,2.8C275.8,242.7,275.4,244,275.8,245.9z"/>
<path fill="#3FDBB1" d="M200.1,219.4c6.2,0,6.2,0,5.4,6c-2.6,18.5-5.3,37-7.9,55.5c-0.3,2-0.8,4-0.8,5.9c0,2-0.9,2.5-2.7,2.4
	c-2.3-0.1-4.6-0.2-6.9,0c-2.8,0.3-3.4-0.9-3-3.4c1.1-7.8,2.2-15.5,3.3-23.3c1.8-13.2,3.7-26.3,5.5-39.5c0.3-2.5,0.9-4.4,4-3.7
	C198.1,219.5,199.1,219.4,200.1,219.4z"/>
<path fill="#3FDBB1" d="M105,245.6c4.5-5.2,9.8-8.2,16.7-8.1c2.6,0.1,4.5,0.7,3.4,4c-0.2,0.5-0.1,1-0.2,1.5
	c-0.4,2.2-0.1,4.7-1.2,6.4c-1.4,2-3.9,0-6,0c-7.9,0.2-14.2,5.5-15.2,13.4c-1.1,7.9-2.3,15.7-3.2,23.7c-0.3,1.9-0.9,2.7-2.9,2.6
	c-3.3-0.2-6.6-0.1-10.2-0.1c2.3-16.4,4.5-32.4,6.8-48.4c0.2-1.4,0.7-2,2.2-1.9c2.1,0.1,4.2,0,6.2,0c4.7,0,4.7,0,3.9,4.7
	C105.1,244.1,105.1,244.9,105,245.6z"/>
<path fill="#3FDBB1" d="M71.6,289.1c-6.4,0-6.4,0-5.5-6.3c1.9-13.5,3.8-27.2,5.7-40.7c0.3-2.4,0.9-4,3.7-3.4c0.9,0.2,1.9,0,2.8,0
	c6.8,0,6.7,0,5.8,6.9c-1.9,12.9-3.7,25.6-5.4,38.5c-0.7,4.9-0.6,4.9-5.5,4.9C72.6,289.1,72.1,289.1,71.6,289.1z"/>
<path fill="#3FDBB1" d="M84.1,199.1c-4.3,0-7-2.7-6.9-6.7c0.1-4.5,4.4-8.5,9.2-8.4c4.2,0,7.2,2.8,7.2,6.6
	C93.5,195.2,89.2,199.1,84.1,199.1z"/>
<path fill="#3FDBB1" d="M156.2,237.8c-5.4,0.9-10,3.4-13.9,7.9c-0.3-1.8-0.1-2.9,0.3-4.2c0.7-2.3-0.2-3-2.5-2.8
	c-2.3,0.2-4.6,0.1-6.9,0c-1.7-0.1-2.4,0.6-2.6,2.3c-0.5,3.7-1.1,7.5-1.6,11.2c-1.8,13-3.6,25.8-5.4,38.8c-0.9,6.4-1.8,12.9-2.8,19.2
	c-0.3,2.2,0.3,3,2.6,2.9c2.5-0.2,5-0.1,7.6,0c1.7,0.1,2.3-0.5,2.6-2.3c1.2-9.2,2.6-18.4,3.9-27.5c12.6,10.2,25.6,9.5,36.3-2.1
	c5.9-6.3,8.3-14.1,8.2-22.7C181.7,244,170.7,235.6,156.2,237.8z M152,279.1c-7.4-0.1-12.5-5.4-12.4-13.2c0.1-9.5,7.9-17.1,17.2-17
	c7.3,0.1,12.5,5.5,12.4,13C169.1,271.1,161.1,279.2,152,279.1z"/>
<path fill="#3FDBB1" d="M242.2,238.3c-8.6-1.8-16.8-0.7-24.6,3.5c-6,3.2-6,3.5-1.3,8.5c1.2,1.4,2.1,1.7,3.8,0.5
	c4-2.7,8.4-4.1,13.3-3.8c5.6,0.3,9.1,3.7,8.9,8.5c-0.1,1.6-0.7,2.3-2.3,2.2c-4.2-0.2-8.4,0.1-12.6,0.6c-6.8,0.9-13.4,2.4-18.5,7.7
	c-7,7.4-5.8,18.3,2.6,22.4c4.3,2.2,8.8,2.5,13.4,1.7c5.1-0.9,9.4-3.4,13-7.2c0.6,1.2,0.1,2.1-0.1,2.9c-0.6,2.4,0.1,3.5,2.7,3.2
	c2.1-0.2,4.2-0.1,6.2,0c1.4,0,2-0.4,2.2-1.9c0.4-3.6,1.1-7.2,1.5-10.9c0.9-8,2.8-15.9,2.7-23.9C253.4,245.1,249.3,239.7,242.2,238.3
	z M239.2,271.2c-2.1,8.5-11.4,11-17.3,9.2c-2.1-0.7-3.8-1.8-4.3-4.2c-0.5-2.6,0.5-4.7,2.6-6.2c2.4-1.7,5.1-2.3,7.9-2.7
	c2.5-0.4,5-0.5,6.5-0.7C240.1,266.6,240.3,266.9,239.2,271.2z"/>
<path fill="#3FDBB1" d="M49.8,238.2c-8.3-1.7-16.3-0.7-23.8,3.2c-6.6,3.4-6.5,3.6-1.8,9.1c1.2,1.4,1.9,1.5,3.5,0.4
	c4.9-3.3,10.4-4.9,16.4-3.4c4.1,1,6.3,4.1,6.1,8c-0.1,1.6-0.6,2.3-2.3,2.2c-2-0.1-4-0.1-6,0c-7.7,0.5-15.3,1-22,5.5
	c-5.3,3.6-8.5,10.7-7.4,16.3c1.2,6.1,6.5,10.1,14.2,10.8c7.7,0.6,14.2-1.8,19.7-8.2c-0.3,2.1-0.3,3.4-0.7,4.6
	c-0.6,2.1,0.2,2.6,2.2,2.4c2.2-0.1,4.4-0.1,6.6,0c1.8,0.1,2.6-0.4,2.7-2.4c0.4-4.1,1.1-8,1.7-12.1c0.9-7.3,2.6-14.5,2.6-21.9
	C61.4,244.8,57.4,239.8,49.8,238.2z M47,272c-2.2,7-11.1,11.1-17.9,8.1c-4.4-1.9-5-7-1-10c2.3-1.7,5-2.5,7.9-2.8
	c2.4-0.4,4.7-0.5,6.1-0.6C48.4,266.6,48.6,266.8,47,272z"/>
</svg>
