<?xml version="1.0" encoding="utf-8"?>
<!-- Generator: Adobe Illustrator 21.0.2, SVG Export Plug-In . SVG Version: 6.00 Build 0)  -->
<svg version="1.1" id="Capa_1" xmlns="http://www.w3.org/2000/svg" xmlns:xlink="http://www.w3.org/1999/xlink" x="0px" y="0px"
	 viewBox="0 0 316 316" enable-background="new 0 0 316 316" xml:space="preserve">
<g>
	<g>
		<g>
			<path fill="#3FDBB1" d="M152.7,259.8h-30.9c-2.2,0-5.9-1.8-6-5.4l-0.1-123.9h89.6v123.7c-0.2,4.7-1.4,5.8-4.9,5.7l-31.1-0.1
				c-4.5,0.4-7.6,3.7-8.4,7.9C160.1,263.7,156.4,259.8,152.7,259.8z"/>
			<path fill="#FFFFFF" d="M186.3,238.9c1.3,0.2,3.9,2.6,3.8,3.6l0.1,5.7c-6.3,4-17.9,5.5-29.3,5.3c-12.4-0.2-25.3-2.5-30.4-6v-4.7
				c0.2-1.5,1.5-2.8,4.6-4l0.1-36.7c-0.4-0.2-4.2-2.1-4.2-3V193c1.3-0.9,2.6-1.5,4.2-1.8v-15.2c0-0.9-0.5-1.5-1.1-2.2l-0.7,0.3
				l-0.4-3.8l1.1-0.3l-0.1-0.7c1.6,0,13.9-10.7,16.4-13.7l0.4-0.5c-2.4,1.5-13.2,12.7-18.4,12.7c-1.2,4.2-5.4,4.7-6,4.8
				c-2.5,0.5-4.8-0.7-5.7-1.4c-0.2,1-1.7,1.5-2.4,1.7v80.5c0,1.7,1.4,3.3,3,3.3h33.7c1.8,0,4.6,1.7,6,4.1c1.1-2.5,4.6-4.1,6.3-4.1
				H200c1.6,0,2.8-1.5,2.8-3.3v-78.7c-4.1,0-4.7-2.4-5-3.9c-0.4,0.3-6.4,1.8-9.1-4l-17.1-11.4v0.4c1.2,0.4,16.3,11.3,17.1,13.2
				c-0.1,1.4,1.4,0.4,1.4,1.5c0.1,1.1-1.1,1.7-1.7,1.1l-1,2.6l-0.3-0.2l-1,1.7v16l4.2,1.7v5.9c0,1-3.3,2.8-3.9,3v36.6H186.3z"/>
			<path fill="#FFFFFF" d="M202.7,169.4c-0.7,0.8-2.7-0.8-2.7-1.8c0-0.3-1.5-0.4-1.7-0.4c-0.8,1.4-3.4,1.5-3.6,0.4
				c-1.1,0.4-3.6-4-2.1-6.7c-0.2-0.4,0.7-1,0-1.4c-0.7,0.8-3.3,0.3-4.2-0.4c-1.8-1.6-2.6-4.5-2.6-5.7c0.2-0.8,0.3-2.7,1.3-2.7v-0.8
				c-1.8,0-2.8-3.5-2.8-5.1l0.4-0.5c0.1,0.3,1.2,1.3,1.6,1.2c0.8-0.4-0.1,0.9,1.1,1.8c0.9,0.8,3.2,1,3.9-0.1
				c0.4,0.7,2.1,1.7,4.2,0.4c0,0.4-0.7,0-1.8-0.3c-1.2-0.4-2-1.1-2.2-1.6c-0.2,0-0.7,0-0.7,0.3c-0.7,1.3-3,1.1-3.3-0.5
				c0.4,0,0.1-0.7-0.3-0.7c-1,0-2-1.3-2.1-1.3c-0.3,0-0.3-1.4-0.3-1.6c-2.4,0-3.5-3.3-3.5-5.3l0.2-0.5c-0.7-1.1-2.1-0.3-2.7-0.7
				c0-0.3-2-2.1-1.2-2.1h25L202.7,169.4L202.7,169.4z"/>
			<path fill="#FFFFFF" d="M146,134.8c-0.7,0.4-1-0.2-1.7-0.2c0.5,4.7-2,2.4-2.4,3.3c-0.1,4-1.6,4.7-4.5,4.2c-0.3,0-2.1-1.1-2-1.2
				c0,0.3-0.5,1.2-0.9,1.2c1.3,2.7-4.1,7.2-5.4,6.3v0.7c0.2,1.7,7-1.6,6.3-6.5c0.5,0.2,1.4,0.7,2.4,0.5c0,5.1-3.3,6.2-5,7.2
				c2.5,3.4-2.8,6.6-5.8,6.8l-0.2,0.4c1.8,0.5,4,3.2,4.6,6.2c0.7,3-0.2,4.3-1.1,5.7c-0.9,1.2-3.5,2.3-6.2,2.3
				c-1.6,0-3.5-1.4-3.5-1.6c-0.5,1-0.9,1.2-2.3,1.4v-38h29.2C147.8,134.7,146.8,134.5,146,134.8z"/>
			<path fill="#FFFFFF" d="M159.2,144.8c0.1,0.5-0.8,0.8-1.5,0.5c-0.3,0.4-0.4,1.2,0.5,1.8c0,0.7-1.4,1-1.4,1v0.3
				c-0.2,0,0,0.4-0.4,0.4v0.5l0.2,0.4v-0.2l0.2,0.4c-0.4,0-0.7,0-0.7,0.2c-0.7,0.5-1.6,0.5-1.1,1.7c0.4,0.2-0.2,1,0.4,1.2v0.2v0.8
				h0.2c0,0.4,0.3,1-0.1,1.2c-1.3,2.5-6.6,11.2-9,15l-2.1-1l9.9-13.6c-3.4-2.6-4.1-7.1-3.6-10.5c0.2-1.2,1.3-3.6,1.7-3.9l-6.6-5.2
				l1.1-0.4l5.8,5.3c0.3-0.5,0.9-1.2,1.2-1.5l-5.7-4.9l1.2-0.5c0,0,4.1,4.1,4.8,5l1.2-1c-0.2-0.7-3.4-3.8-3.7-4.2l1.1-0.4l3.3,4.2
				c0.2-0.1,1.1-0.5,1.6-0.8c-0.2-0.7-1.2-2.7-1.4-3.2l0.8-0.3l1.1,3.5c0.5-0.2,1-0.3,1.6-0.4l-0.5-3.3l1.2-0.1l-0.1,3.4
				c0.7-0.1,1.3,0,1.8,0.1l0.1-3.4l1,0.1l-0.7,3.3c0.7,0.1,1.3,0.3,1.8,0.7c0.1,0,1-3.3,1.1-3.8c0.4,0.2,0.8,0.3,1.1,0.5
				c-0.2,0.4-1.5,3-1.7,3.5c0.7,0.3,1.4,0.8,1.7,1.1l2.1-4.6l1.1,0.8l-2.8,4c0.5,0.5,1,1,1.3,1.3c0.5-0.8,4.1-6,4.2-6l1.3,1.3
				l-5.1,5.2l0.7,1.1l7.3-5.8l1.1,1.1l-7.9,5.2c0.4,0.8,1.2,3.6,1.2,5.1c0.1,4.3-2.2,7.6-4.7,9.3l-0.4-1.2c0.2-0.2,1.1,0,1.1-0.4
				c0,0,0,0,0-0.3l0.2-0.2l0.2-0.2c0.2-0.4,0-0.8,0-1h0.2c0.2-0.4-0.2-1.2,0.4-1.5c0.3-0.1,0.8-0.5,0.4-0.9
				c-0.4-0.8-1.1-0.1-1.4-0.7c0.4,0,0-0.5,0.2-0.9c0.2-0.2-0.1-0.4-0.3-0.1c-0.2,0.3-0.7,0-0.7,0.4c-0.2,0-0.4-0.9-1-0.7
				c-0.3,0.1,0,0.7-0.7,0.9l-0.4,0.2v0.3l-0.4,0.2c-0.2-0.5-0.2-1-0.5-1.7l-0.2-0.7c-0.2-0.3-0.2-0.5-0.2-0.8c1.1,0,1.1-1.2,1.1-2
				c-0.4,0-2.2,0.2-2.2-0.9c-0.7,0.3-1.1-2-1.1-2.4l0.2-0.3l-0.1-0.3c0.4,0,0.7-0.2,0.7-0.4c0-0.1-0.2-0.2-0.5-0.3l0.2-0.5
				c0-0.5-0.4-1-0.8-1c-0.5,0-0.9,0.4-0.9,1l0.2,0.5c-0.3,0.1-0.5,0.2-0.5,0.3c0,0.2,0.3,0.4,0.8,0.4l-0.2,0.3l0.3,0.3
				C160.3,143.1,159.9,145.5,159.2,144.8z"/>
			<polygon fill="#FFFFFF" points="171.6,143.6 171.4,143.2 180.2,137.5 180.8,138.8 			"/>
			<path fill="#3FDBB1" d="M133,141.4c-0.2,1.8-1.5,2.2-2.9,2.2c0,2.9-2.1,3.2-4,3.2c0,2-0.1,5-3.3,4.5c1.5-0.7,2.6-2.2,2.6-5.7
				c2.7,0,3.7-1.3,4-3.5C130.3,142.4,130.9,142.6,133,141.4z"/>
			<polygon fill="#FFFFFF" points="182.2,142 172.2,144.9 172,144.8 181.7,140.7 			"/>
			<path fill="#FFFFFF" d="M183.3,145.1c0,0-8.6,1-11,1.4l-0.1-0.4l10.5-2.8L183.3,145.1z"/>
			<path fill="#FFFFFF" d="M183.8,147.4l0.2,1.4c-0.9,0-10.5-0.9-11.2-0.9l-0.1-0.3C175.9,147.6,180.3,147.4,183.8,147.4z"/>
			<polygon fill="#FFFFFF" points="149.4,147.7 149.3,148.1 137.8,148.8 137.8,148 			"/>
			<polygon fill="#FFFFFF" points="149.4,149.7 149.5,150.1 134.4,153.5 134.4,152 134.5,152 			"/>
			<path fill="#FFFFFF" d="M184.5,151.1c0,0.2-0.3,1-0.3,1.4l-12.1-2.8l0.2-0.3L184.5,151.1z"/>
			<path fill="#3FDBB1" d="M190.8,153c0.1,2.7,1.7,2.8,3.5,3.3c0,1.8,1.7,2.4,3.8,2c0.8-0.3,0.8,1-0.5,1c-2.5,0.1-4-0.5-3.7-2.4
				c-2,0.3-3.7-1.6-3.7-2.7c-0.7,0.5-2.8-0.5-3.2-1.3c-0.2-0.5,0.2-1.4,0.2-1C187.3,152.4,189.8,153.8,190.8,153z"/>
			<path fill="#3FDBB1" d="M126.2,155.8c-0.4-0.3-0.4-1.3,0.4-0.8c0.9,0.7,2.1-2.5,2.3-3.9h0.7C129.5,152.4,127.8,156.8,126.2,155.8
				z"/>
			<path fill="#FFFFFF" d="M184.7,154.6c0,0.3-0.2,0.9-0.2,1.5c-3.7-1.3-9.7-3.7-12.4-4.5h0.5C173.3,151.7,184.1,154.7,184.7,154.6z
				"/>
			<path fill="#3FDBB1" d="M198.8,154.2v0.2c-0.2,0.9-3.2,1.5-4.7,1.2c-1.1-0.2-0.5-2.3,0.1-2.3c0.1,0,0.3,0,0.8-0.1
				c-0.9,0.8-0.8,1.7-0.2,2C196.6,155.6,198.5,154.2,198.8,154.2z"/>
			<path fill="#FFFFFF" d="M188.9,161.2l-0.3,1.7c-1-0.4-15.8-8.8-16.4-9v-0.3C172.6,153.6,188.8,161.3,188.9,161.2z"/>
			<path fill="#3FDBB1" d="M191.3,158.3c0.5-0.2,0.7,0.7-0.2,0.7c-1.4,0-2.6-0.9-3.2-2.4c-0.3-0.9,0.1-1.6,0.2-0.8
				C188.3,157.4,190.6,158.5,191.3,158.3z"/>
			<path fill="#FFFFFF" d="M184.1,169.3c-0.3,0.2-0.7,0.7-1,0.8c-0.3-0.3-12.6-12.2-13.5-14.1C170.9,156.8,180.4,165.7,184.1,169.3z
				"/>
			<path fill="#FFFFFF" d="M151.5,156.8c-2.8,3.3-7.3,8.6-10.2,12.1c-0.7,0-1.8,0-2.5,0c1.2-1.6,10.1-9.8,12.8-12.7L151.5,156.8z"/>
			<path fill="#FFFFFF" d="M177.6,169.2c-0.5,0.1-0.8,0.5-1.4,0.7c-1.3-2.8-8-12.6-7.6-12.6l0.3,0.1
				C168.8,157.4,177.6,168.2,177.6,169.2z"/>
			<path fill="#FFFFFF" d="M152,182.2c0,1.5-2.2,0.5-1.1,1.7c0.9,0.4,0.9-0.8,1.6-0.8v0.5c-0.5,0-0.3,0.4-0.5,0.7v0.5
				c-0.4,0-0.5,1.4,0,1.4c-0.2,1,0.5,1,0.9,1.4c0,1,1.3,0,1.3,0.8c0,0.3,0.8,0.2,0.4,0.7c-1-0.1-2,0-2.6,0.1v-1.7l-5.9,1v1.4
				l-0.9,0.2v-11.7c1.7,1.5,4.3,3.2,5.4,3.7c0.4,0.2,0.7-0.2,0.9-0.5c1.2-2.9,2-6.6,2.5-10.1c0.8-4.9,1.2-9.8,1.7-13.8l0.3,0.4
				c-0.1,4.1-0.8,10.4-2,16.2C153.5,177.1,152.7,179.9,152,182.2z"/>
			<path fill="#3FDBB1" d="M199.4,163.3c0.7,0.2-0.1,0.5-0.7,0.7c-0.9,0-5.7,0.2-4.6-3.3c0.1-0.4,0.7-0.3,0.7,0.2
				C194.7,162.9,198.4,162.9,199.4,163.3z"/>
			<path fill="#FFFFFF" d="M191.7,160.9c-1.2,2.2,0.1,7.3,2.7,7.3c0,1.5,4.1,0.9,4.1,0.3c0.3,0,0.9-0.3,0.9,0.2
				c0.5,1.3,2.5,2.4,3.3,2.2v3.2c-2,0.1-4.7-2.4-4.6-4.7c-6,2.6-8.2-2.1-8.6-3c-0.5-2-0.2-5.7,1.2-5.3
				C190.6,160.5,191.5,160.7,191.7,160.9z"/>
			<path fill="#3FDBB1" d="M122.6,163v-0.7c1.4,0.1,2.1-0.8,2.6-2.7c0.2,0,0.4,0,0.8,0.2C126.1,160.4,125.1,163.3,122.6,163z"/>
			<path fill="#FFFFFF" d="M165.5,160.9c-0.2,0-0.4-0.2-0.7,0c0,0.8,0.9,0.5,0.7,1.2c0.2,0.3,0.4,0,0.4,0s0-0.2,0.3-0.2
				c0-0.7,0.2-1,0.2-1.4c0,0.2,0.2,0.4,0.2,0.8c-0.4,0.2-0.2,0.9-0.4,1.4h-0.3v0.4l-0.4-0.2c-0.2,0,0.4,0.7-0.1,0.5
				c0.9,3.6,1.8,12.8,2.3,20.3c1.2,0,6.4-3.5,7.3-4.5c0.2-0.3,0.5,0.1,0.3,0.4c-0.4,0.5-0.9,0.9-0.5,1.1c0.2,0.1,0.7-0.2,0.7-0.7
				c0.9,0.5,1.1-0.9,1.2,0.1v10.2c-0.1,0-0.9-0.2-1.4-0.3l0.1-1.6l-5.4-0.9l-0.2,2c-0.5-0.1-1.8-0.3-2.3-0.3c0.5-0.1,1-0.2,1-1.2
				c0.8,0,0.1-0.9,0.7-0.7c0.7,0.3,2-1.6,1.1-2.8c0.2-0.4-0.1-0.9-0.7-1l-0.5,0.2c0,0.4,0.9-0.1,0.5,0.7c0.7,0.3,0.7,2.3-0.2,2.1
				c-0.3-0.1-0.7-0.3-0.5,0.1c-0.5-0.3-0.9,1.1-0.9,1.2c-0.2,0.2-0.2,0.2-0.2,0.5c-0.4,0.2-0.4,0.2-0.9,0.2l-0.4,0.2
				c0-0.4-0.2-0.2-0.4-0.2l-0.2-0.2h-0.2v0.2h-0.4c0-1.2,1.3-1,1.3-2h0.2c0.2-0.4-0.2-0.7,0.2-0.9h-0.4c0,0.2-0.2,0.4-0.4,0.4v0.4
				l-0.7,0.5c-0.5,0-1.3,0.2-1.5-0.3l0.2-0.2v-0.4h0.2c-0.2-0.4,0.7-1,0-1.4c-1.1-0.1-1,1.6-2,0.3c0-1,1.3-1,2-1
				c0.2-0.2,0.5-0.9,1-0.5c0,0.2-0.3,0.7,0,0.7c0.7-0.2,0.7,0.5,1.1,0.3c0,0.4,0.4,0,0.7,0.4l0.5,0.2l0.2-0.4l-0.2-0.2v0.2
				c-0.3,0-0.3-0.5-0.3-0.5l-0.2-0.7c0-6.5-0.8-13.6-1.8-19.9l-0.4-0.9c0-0.5-0.2-0.9-0.2-1.5c0.4,0,0.2-0.5,0.2-0.8
				c0.5,0.2,0.2-0.2,0.2-0.2h0.7L165.5,160.9L165.5,160.9z"/>
			<path fill="#3FDBB1" d="M130.7,162.5c0.1,2.1-1.4,5.2-2.5,5c-0.7,2.3-2,2.5-3,2.4c-1.1-0.1-1.7-1.2-0.8-0.9
				c2,0.7,3.4-0.8,3.3-2.4c2.4,0.1,2.5-3.8,2.7-4.8L130.7,162.5z"/>
			<path fill="#3FDBB1" d="M122.6,167.4c-0.5-0.1-0.2-1.1,0.2-0.9c2,0.8,4.7-1,4.5-3c-0.1-0.4,0.9-0.8,0.8,0
				C127.2,167.3,124.8,167.5,122.6,167.4z"/>
			<path fill="#FFFFFF" d="M174.7,174.3c0.3,2,2,1.1,2,1.3c0,0.7,0,2.3,0,2.7c-0.4,0.3-0.8,0.4-2-0.5c0.7-0.9,0.7-1.1-0.4-1.2
				c-0.5-0.1-0.5-0.9,0-1.4c-0.5,0-0.7-0.8-0.5-1.2c-0.1-1.6-2.4-6.5-2.5-6.7l0.3-0.1C171.5,167.3,174.3,173.7,174.7,174.3z"/>
			<path fill="#FFFFFF" d="M140.9,170.1v0.7c0.7,0,1,0,1.6,0.1l0.1-0.8c0.5,0.1,0.8,0.1,1.1,0.2l-0.1,0.7c0.4,0.1,0.9,0.2,1.2,0.3
				l0.1-0.8l0.8,0.4l-0.4,2c-2.6-1.6-8.9-1.6-11.2,0.2l-0.2-2l1.1-0.3l0.2,0.8c0.3-0.2,0.8-0.3,1.1-0.4l-0.1-0.7
				c0.3-0.1,0.9-0.2,1.3-0.2v0.5c0.5,0,1.3-0.1,2-0.1v-0.7H140.9z"/>
			<path fill="#FFFFFF" d="M155.6,183c0.2,0.4,0.7-0.3,1.1,0.1l-0.3,0.7c-1.4,0-0.5,1.1,0.1,0.5c0.7-0.4,0.7,0.7,1.4,0.1
				c0.8-0.7,0.2,0.7,1.6,0.8c1,0.3,0.1,1.2-0.5,0.8c0-0.8-2.6-0.8-2.6,0.4c-0.9-0.4-0.7,0.9-1.8-0.2c-0.9-0.2-0.4-1.2-0.4-1.7
				l-0.4,0.3c0-0.3,0-0.3,0-0.3c-0.5,0.5-0.5,1-0.2,1.7c0.3,1,2.5,2.1,3.3,0.3c0.7,0.3,1.4-0.3,1.7,0.1v0.4c-0.4,0-0.9-0.2-0.9,0.3
				c0,0.3-0.3,0.8-0.8,0.4c-0.5-0.2-0.2,1-0.5,1c-0.4,0-0.5-0.9-0.8-0.5c-0.4,0.5-0.9,0.3-1-0.5c-0.1-0.5-1.4,0.9-1.8-1.3
				c-0.4,0-0.5-1.1-0.2-1.3c0.8-0.5,1.5-1.6,1.3-1.8C153.4,182.4,155.3,182,155.6,183z"/>
			<polygon fill="#FFFFFF" points="149.8,143 149.7,143.2 142.7,139.9 143.1,139.2 			"/>
			<path fill="#FFFFFF" d="M161.7,147.9c0.3,0.4,0.3,2.1,0.1,2.4c-0.4-0.2-0.8,0.1-0.4,0.2h0.4l0.2,0.4c0,0.2-0.2,0.8,0.2,0.4
				c0,0.3-0.4,0.5-0.4,0.8c-0.2,0.4-0.2,1.2-0.9,1l-0.4,0.4c0.2,0.5,0.9,0.2,1.3,0.2c0,0.5,0,1.2,0.4,1.5c0,0.9-2.3,1.1-2.3-0.4
				l0.7-0.1c0-0.4-0.9-0.4-0.5-1.2c-0.2,0,0.2-0.4-0.2-0.7c0-0.3,0.2-0.8-0.2-0.8v-2h0.4v0.2h0.2c-0.2,0.5,0.3,0.8,0.3,1.3h-0.3
				c0,0.7,0.1,1,0.7,1c0.3,0,0.7-0.3,0.7-1c-0.3,0-0.3,0-0.5,0c0-0.5,0.5-1,0-1.3c0.2-0.4-0.2-0.4-0.2-0.7c-0.5,0-0.9-0.3-1.1-0.5
				c0-0.4-0.1-1,0.1-1.3L161.7,147.9L161.7,147.9z"/>
			<path fill="#FFFFFF" d="M162.7,148.7c0.3,0,0.8,4,1.1,4.7h0.4h0.2v0.2h-0.2v0.3H164l-0.2,0.7c-0.3,0-0.3,0.2-0.3,0.2v0.3
				l-0.4,0.2c0-0.2-0.4-0.2-0.4-0.5c-0.2-2.8,0.3-2.1-0.3-6.1H162.7z"/>
			<polygon fill="#0A3A67" points="164.5,148.9 164.3,148.9 164.5,148.7 			"/>
			<path fill="#FFFFFF" d="M157.8,151c0.2,0.5-0.4,0.5-0.8,0.8h-0.2v-0.2h-0.2v-0.3l0.8-0.2H157.8z"/>
			<path fill="#FFFFFF" d="M167,152.2c0.2,0.3,0.2,1.1-0.1,2c0,0.2-0.2,0.4-0.7,0.7c-0.2-0.2-0.2,0.5-0.4,0.3h-0.2l-0.4-0.8h-0.2
				v-1.2l0.4-0.2c0.4,0,0.2-0.5,0.4-0.5c0.1-0.1-0.5-0.7-0.7-1.1C165.7,150.9,166.9,151.7,167,152.2z"/>
			<path fill="#FFFFFF" d="M157.6,152.7l0.2,0.2c-0.4,0,0,0.7-0.4,0.7c0,0,0,0-0.3,0.3h-0.2c0-0.5,0-1,0.5-1L157.6,152.7z"/>
			<path fill="#FFFFFF" d="M159.1,155.4h-0.2v-0.8C159.3,154.6,159.1,155.1,159.1,155.4z"/>
			<path fill="#FFFFFF" d="M165.1,155.9c-1.4,2.5-1.1,4-2.1,6.3c-0.7-0.5-1.1,0.8-1.5-0.1c0.9-1.4,1.3-4.8,2.4-6.8
				C164.2,155.4,164.4,155.6,165.1,155.9z"/>
			<path fill="#FFFFFF" d="M158.2,156.4v0.9h-0.7v-0.4v-0.2C157.8,156.7,157.9,156.4,158.2,156.4z"/>
			<polygon fill="#FFFFFF" points="162.1,157.5 162.1,158.1 161.9,158.1 			"/>
			<path fill="#FFFFFF" d="M166.4,158.1c0,0.4-0.7,0.2-0.9,0.4v-0.4c0.2,0,0-0.2,0.4-0.2L166.4,158.1z"/>
			<path fill="#FFFFFF" d="M158.5,159.9c-0.5,0.7-0.1,17.7,0.1,20.2c0,0-4.6-0.2-4.6-0.7c1.3-2.6,2.6-18.4,2.7-20.8
				C156.8,159.3,158.8,159.3,158.5,159.9z"/>
			<path fill="#FFFFFF" d="M154.8,158.9c0,2.7-0.5,6.6-1,10.4c-0.7,3.6-1.3,7.7-2.7,11c-0.1,0.1-0.2,0.3-0.4,0.7
				c0-0.2-4.7-2.7-4.7-3.8l0.4-0.2c1.3,1.8,2.7,2.5,4.1,3c0.9-1,2-5.2,2.7-9.6c0.7-4.5,1.2-9.2,1.2-11.3L154.8,158.9z"/>
			<path fill="#FFFFFF" d="M165.5,159.5c0,0.2,0.4,0,0.2,0.4c0-0.4-0.4-0.2-0.7-0.2c-0.3-0.4,0.2-0.2,0-0.7
				C165.5,159,165.3,159.5,165.5,159.5z"/>
			<path fill="#FFFFFF" d="M159.5,159.5c-0.3,3.7,0.3,8.6,0,12.2c-0.2-0.3-0.4-1-0.7-1.3l0.1-5.5c0-0.8,0.2-5,0-5.3H159.5z"/>
			<path fill="#FFFFFF" d="M161.6,160.5h-0.7l0.2-0.8c0.3,0.2,0.3-0.2,0.5-0.2L161.6,160.5L161.6,160.5z"/>
			<path fill="#FFFFFF" d="M151.1,173.4c-1,0-1.7-0.5-2.5-1c-0.4-0.3,4.2-11.3,4.9-11.8C153.4,161.7,151.6,173.2,151.1,173.4z"/>
			<path fill="#FFFFFF" d="M162.8,181.3c-0.5-0.7-0.7,1.5-1.1-0.2c0.4-5.8,0.3-10.8,0.3-16.4l0.5-0.2
				C162.4,165.8,162.9,180,162.8,181.3z"/>
			<path fill="#FFFFFF" d="M168.5,181.5c1,0.1,5.3-2.9,5.8-3.5l0.2,0.5c-1.1,1.3-3.9,3.2-6.4,4.2c-0.1-1.3-0.4-6.3-0.9-11.1
				c-0.4-3-0.9-5.8-0.8-6.4c0.8,2.3,1.4,6.8,2,10.5C168.4,178.4,168.5,180.6,168.5,181.5z"/>
			<path fill="#FFFFFF" d="M164.6,166.2c1,8.6,0.3,8.5,1.1,11.3c-1.1,1.5-1.4-1.8-2.1-0.2c-0.8-6.5,0.4-7.1-0.8-10.8
				C163.6,167,164.2,166.7,164.6,166.2z"/>
			<path fill="#FFFFFF" d="M159.3,181.2c0,0.7-5.2,0.3-5.8-0.4l0.2-0.1c1.1,0.3,4.1,0.7,5.1,0.3c0.1-1.1,0-8.2-0.1-8.8l0.2-0.2
				C159.2,174.5,159.2,178.6,159.3,181.2z"/>
			<path fill="#FFFFFF" d="M146.6,175.6l-0.5-0.1c0.2-0.4,1.1-3,1.4-3.4l-0.2,1.2C147.1,173.6,146.6,175.6,146.6,175.6z"/>
			<path fill="#FFFFFF" d="M164,182.5c0,0.5-0.5,1.4-1.2,1.1c-0.1,0.8-1.5,1.1-1.7,0.7c-1,1-2.1,0.2-2.1-0.5c0.5,0.3,1.1,0.8,2.1,0
				c0.4,0.2,0.9,0.3,1.5-0.5c0.7,0.1,0.9-0.2,0.9-0.7H164z"/>
			<path fill="#FFFFFF" d="M161.4,185.2c0.2,0.3,0.3,0.4-0.3,1.1c0.8,0.3,0.5,0.7,0.1,1.1c-0.5,0-0.7-0.2-1-0.5
				c-0.3-0.7,0.3-0.9,0.3-0.9c0.5,0,0.7-0.1,0.7-0.8H161.4z"/>
			<path fill="#FFFFFF" d="M163.4,189.7c0.9,0,5.9,0.4,7,0.7l0.2-1.7l3.8,0.5v1.7c0.7,0.1,3.5,0.9,4.6,1.2l0.1-1.5l3.8,1.1l-0.2,1.4
				c1.2,0.2,3.2,1,4.2,1.5l0.1-1.7l2.4,1.1l-0.1,4.1c-8.5-3.8-18.2-5.7-27.5-6c-10.1-0.3-20.5,1.3-29.8,5.4v-4.1
				c0.7-0.4,1.5-0.8,2.7-1v1.6c1.1-0.4,2.7-0.9,3.6-1.3v-1.3l3.4-1.1c0.1,0.1,0.1,0.7,0.1,1.4c1.8-0.5,3.5-1,5.1-1.3v-1.4l4.5-0.8
				l0.1,1.6c2.1-0.2,4.3-0.3,6.4-0.2l0.1-1.6c1.6,0,3.6,0,5.5,0v1.6L163.4,189.7L163.4,189.7z"/>
			<path fill="#FFFFFF" d="M137.3,192.2c-0.5,0.1-1.1,0.3-1.6,0.5v-1c0.3-0.1,1.2-0.4,1.5-0.4C137.3,191.6,137.3,191.9,137.3,192.2z
				"/>
			<path fill="#FFFFFF" d="M189,198.6c-0.2,0.4-0.8,0.8-1.3,1c-7-2.7-14.7-4.7-25.5-5.3c-2.3-0.1-9.8-0.2-16.7,1.2
				c-5.1,1.1-10.5,3-12.4,3.9c-0.4-0.1-1-0.7-1-1.1c13.9-5.2,22.2-5.3,29.1-5.3c1.3,0,6.6,0.2,12.5,1.3
				C179.8,195.5,186.7,197.6,189,198.6z"/>
			<path fill="#FFFFFF" d="M166.4,197.9c0,1,0,0.9,0,2.2c-2-0.4-4.3-0.3-5.5-0.4c0-0.7,0-1.4-0.1-2.1
				C161.9,197.5,164.6,197.6,166.4,197.9z"/>
			<path fill="#FFFFFF" d="M159.9,199.6h-4.8c0-0.7,0-1.3,0-2c1.5-0.1,3.3-0.2,4.8-0.1C159.8,198.2,160.1,198.9,159.9,199.6z"/>
			<path fill="#FFFFFF" d="M171.5,198.5l-0.1,1.8c-1.4-0.1-2.2-0.3-4-0.3c0.1-0.9,0-1.6,0-2.1C168.1,198,170.6,198.3,171.5,198.5z"
				/>
			<path fill="#FFFFFF" d="M154.3,199.6c-1.5,0-3.2,0.2-4.2,0.3c0,0,0-1.5,0-1.8c0.8-0.1,2.6-0.4,4.1-0.4
				C154.3,198.4,154.3,199.6,154.3,199.6z"/>
			<path fill="#FFFFFF" d="M176.3,199.5c-0.1,0.5-0.1,0.9-0.2,1.7c-1.5-0.3-2.7-0.7-3.9-0.8l0.2-1.7
				C173.3,198.6,175.6,199.3,176.3,199.5z"/>
			<path fill="#FFFFFF" d="M149,198.2c0,0.4,0,0.9,0,1.8c-1,0-3.5,0.5-4,0.7c0-0.8,0-1.4,0-1.8C145.5,198.6,148,198.2,149,198.2z"/>
			<path fill="#FFFFFF" d="M180.7,200.6c-0.1,0.5-0.2,1.2-0.3,1.6c-0.7-0.2-3-0.8-3.6-0.9l0.3-1.6
				C178,199.7,180.2,200.4,180.7,200.6z"/>
			<path fill="#FFFFFF" d="M144.1,200.8c-0.3,0-2.4,0.5-3.7,1c0-0.5,0-1.2,0-1.7c0,0,2.7-0.9,3.6-1C144,199.6,144.1,200,144.1,200.8
				z"/>
			<path fill="#FFFFFF" d="M184.5,201.7c-0.1,0.4-0.1,1.3-0.2,1.6c-0.4-0.1-2.2-0.8-2.9-1c0.1-0.5,0.1-1.2,0.2-1.6
				C182.1,200.9,184.4,201.7,184.5,201.7z"/>
			<path fill="#FFFFFF" d="M159.8,200.5c0,0,0.1,1.1-0.4,1.3c0.5,0.8-0.8,0.7-0.8,1.3h-0.8c0-0.8,0-2.1,0-2.6H159.8z"/>
			<path fill="#FFFFFF" d="M157.3,203.3c-1.1,1.7-1.5-0.4-2.3-0.4c-1-0.1-2,0.2-2.8,0.4v-2.5c0.4-0.1,4.3-0.4,5-0.2
				C157.2,201.3,157.3,202.4,157.3,203.3z"/>
			<path fill="#FFFFFF" d="M169.6,201.1c-0.1,0.5-0.2,1.6-0.3,2.3c-0.9-0.1-2.8-0.5-3.3,0.2c-0.8,1.2-1.2,1.3-1.8-0.2v-1v-1.8
				C164.5,200.5,167.3,200.8,169.6,201.1z"/>
			<path fill="#FFFFFF" d="M139.6,200.2v1.7c-1.1,0.2-2.2,0.7-2.9,1c0-0.5-0.1-1-0.1-1.7C137.2,200.9,138.5,200.5,139.6,200.2z"/>
			<path fill="#FFFFFF" d="M151.4,200.8v2.8c-1,0-2.6,0.3-3.8,0.7c0-1,0.1-1.8,0.1-2.6C148.3,201.3,150.2,200.9,151.4,200.8z"/>
			<path fill="#FFFFFF" d="M173,201.7v2.4c-1-0.2-2.2-0.4-2.9-0.5c0.2-1.2,0.1-1.6,0.2-2.4C171.1,201.3,172.2,201.4,173,201.7z"/>
			<path fill="#FFFFFF" d="M179.1,202.7c-0.1,0.8-0.1,1.6-0.2,2.3c-0.9-0.1-3.8-0.7-4.9-0.8c0-0.9,0-1.6,0.1-2.6
				C175.5,202,178.1,202.5,179.1,202.7z"/>
			<path fill="#FFFFFF" d="M146.5,204.3c-0.2,0-3.4,0.5-3.9,0.5c0-0.8-0.1-1.7,0-2.3c1-0.3,2.4-0.8,4-1L146.5,204.3z"/>
			<path fill="#FFFFFF" d="M182.9,203.8c0,0.3-0.2,1.6-0.2,2c-1.2-0.2-2.2-0.4-2.9-0.5c0-0.9,0.1-1.6,0.1-2.3
				C180.4,203.1,182.7,203.7,182.9,203.8z"/>
			<path fill="#FFFFFF" d="M141.7,202.7c0,0.5,0.1,1.3,0,2.2c-0.7,0.2-2.8,0.5-3.5,0.9v-2.3C139.4,203.1,140.8,202.7,141.7,202.7z"
				/>
			<path fill="#FFFFFF" d="M159.4,203.3v0.7c-0.4,0-1.1,0.8-1.2,0.1v-0.8L159.4,203.3L159.4,203.3z"/>
			<polygon fill="#FFFFFF" points="167.4,204.1 167.4,204.1 167.4,203.8 			"/>
			<path fill="#FFFFFF" d="M185.5,204.5c0,0.2,0,1.4,0,1.8c-1.1-0.1-1.6-0.3-2.1-0.4c0-0.7,0.1-1.4,0.1-1.8
				C184.1,204.1,184.8,204.4,185.5,204.5z"/>
			<path fill="#FFFFFF" d="M137.4,205.9c-0.3,0.1-0.9,0.3-1.5,0.4c0-0.4,0-1.7-0.1-2.2c0.1,0,0.8-0.3,1.6-0.4
				C137.4,204.3,137.4,205.1,137.4,205.9z"/>
			<path fill="#FFFFFF" d="M155.4,206.8c-1.6,0-3.5,0.1-5.4,0.3c0.1-0.9,0.1-1.8,0.1-2.6c0.9-0.1,2.2-0.3,2.9-0.3
				C153.4,204.3,154.8,205.2,155.4,206.8z"/>
			<path fill="#FFFFFF" d="M171.1,204.8c-0.2,0.7-0.2,1.6-0.3,2.3c-0.3-0.2-2.3-0.2-4.5-0.2c0.4-0.7,1.3-1.7,1.6-2.4
				C169.1,204.5,170.2,204.7,171.1,204.8z"/>
			<path fill="#FFFFFF" d="M174.1,205.2v2.3c-0.9-0.2-1.8-0.3-2.2-0.3c0-0.4,0.1-1.7,0.1-2.3C172.7,205,173.3,205.1,174.1,205.2z"/>
			<path fill="#FFFFFF" d="M148.9,207.3c-0.8-0.1-1.2-0.1-2,0v-2.4c0.7-0.1,1.6-0.2,2.2-0.2L148.9,207.3z"/>
			<path fill="#FFFFFF" d="M180.9,208.5c-0.5-0.1-1-0.2-1.3-0.2v-2c0.4,0,1,0.2,1.3,0.3C180.9,207.3,180.9,208,180.9,208.5z"/>
			<path fill="#FFFFFF" d="M141.7,208.2c-0.4,0.2-1,0-1.6,0.2c0-0.7,0-1.4,0-2.1l1.6-0.2V208.2z"/>
			<path fill="#FFFFFF" d="M184.1,207.3l-0.1,1.8l-2.4-0.5c0-0.4,0-1.4,0-1.8C182.4,206.9,183.1,207.3,184.1,207.3z"/>
			<path fill="#FFFFFF" d="M139.3,208.5c-0.1-0.1-1.6,0.1-2.6,0.2l-0.1-2c0.5,0,1.5-0.2,2.6-0.4L139.3,208.5z"/>
			<path fill="#FFFFFF" d="M185.4,207.5v2c-0.4-0.1-0.5-0.1-0.7-0.2c0-0.4,0-1.5,0-1.8L185.4,207.5z"/>
			<rect x="165.1" y="207.5" fill="#FFFFFF" width="2" height="0.4"/>
			<path fill="#FFFFFF" d="M174.1,208.4v2c-1.1,0-2.1,0-3.2,0c-0.2-0.3-0.5-0.7-1-0.8c-0.1-0.7-0.1-1.1-0.1-1.6
				C171.3,208.1,172.7,208.4,174.1,208.4z"/>
			<path fill="#FFFFFF" d="M151,209.3c-0.8,0.4-1.8,0.9-2,1.3c-0.5-0.1-1.8-0.1-2.1-0.1V208c0.5,0,3.2,0,4,0.1V209.3z"/>
			<path fill="#FFFFFF" d="M153.9,208.7c0.4,0,0.5,0.5,0.2,1h-0.4c0.3-0.5-0.1-0.8-0.5-0.7c-0.3,0-0.9,0.3-1,0.5
				c-0.7,0.9-0.9,1.7-0.7,2.8c0.3,1.1,1.2,2.2,2.6,3.4c0.5,0.4,3.3,2.4,5.1,3.5v0.7c-0.8-0.7-3.6-2.4-5.9-4.2c-1.1-1-2-2.2-2.3-3.2
				c-0.2-0.8-0.2-1.8,0-2.4C151.3,210,152,208.5,153.9,208.7z"/>
			<path fill="#FFFFFF" d="M182.8,209.9c0,0.4-0.2,1.2-0.2,1.7c-0.3-0.2-2.5-0.5-2.9-0.5v-1.8C180.3,209.4,182,209.8,182.8,209.9z"
				/>
			<path fill="#FFFFFF" d="M141.7,211.6c-1.1,0-3.5,0.2-3.5,0.2c-0.1-0.7,0-1.7,0-2.1c0,0,3.2-0.3,3.5-0.4V211.6z"/>
			<path fill="#FFFFFF" d="M185.2,210.6l-0.1,1.8c-0.2,0-1.2-0.3-1.7-0.4l0.1-1.7C183.8,210.2,184.7,210.6,185.2,210.6z"/>
			<path fill="#FFFFFF" d="M137.2,211.8l-1.3,0.1c-0.1-0.5-0.1-1.3-0.1-2l1.4-0.1V211.8z"/>
			<path fill="#FFFFFF" d="M171.7,211.6c-0.1,0.5-0.1,1.2-0.2,2c-0.4-0.1-0.8,0-1.2-0.1c0.2-0.5,0.2-1.3,0.1-2
				C170.8,211.4,171.1,211.6,171.7,211.6z"/>
			<path fill="#FFFFFF" d="M176.3,211.9l-0.1,2c-1.5-0.1-2.7-0.3-3.8-0.4c0-0.8,0.1-1.4,0.1-1.8
				C173.4,211.7,174.9,211.7,176.3,211.9z"/>
			<path fill="#FFFFFF" d="M149.1,213.4c-0.3,0.1-3.7,0.2-4.3,0.2c0-0.4-0.1-1.4-0.1-1.8c0.3-0.1,3.5-0.3,4.5-0.4
				C149.2,211.9,149.2,213,149.1,213.4z"/>
			<path fill="#FFFFFF" d="M150.8,213.5h-1v-2.2h0.5C150.3,212.2,150.5,213.1,150.8,213.5z"/>
			<path fill="#FFFFFF" d="M180.4,212.3c0,0.7,0,1.5,0,2.2c-0.5-0.1-3-0.4-3.5-0.5c0-0.7,0.2-1.4,0.2-2.1L180.4,212.3z"/>
			<path fill="#FFFFFF" d="M143.8,213.8c-1.5,0.1-2.7,0.3-3.5,0.4c0-0.5-0.1-1.1-0.1-2c0.4,0,2.1-0.3,3.5-0.4
				C143.6,212.5,143.8,213.1,143.8,213.8z"/>
			<path fill="#FFFFFF" d="M184.1,213.1c0,0.9,0,1.1,0,2c-0.7-0.1-2.3-0.4-2.9-0.4c0.1-1,0.1-1.6,0.1-2.2
				C181.7,212.5,183.1,213.1,184.1,213.1z"/>
			<path fill="#FFFFFF" d="M139.5,214.4c-0.3,0-1.7,0.2-2.2,0.2l-0.1-1.7c0.4-0.1,2.2-0.2,2.2-0.2
				C139.4,213,139.5,213.7,139.5,214.4z"/>
			<path fill="#FFFFFF" d="M185.5,215.2c0,0-0.8,0-1-0.1c0-0.5,0.1-2.1,0.1-2.1l0.9,0.2L185.5,215.2L185.5,215.2z"/>
			<path fill="#FFFFFF" d="M174.1,214.5c0,0.8,0,1.5-0.1,2.1c-1.7,0-4.8,0-6.3,0c1.1-0.7,2.1-1.8,2.3-2.4
				C170.4,214.3,174.1,214.5,174.1,214.5z"/>
			<polygon fill="#FFFFFF" points="136.5,214.6 135.6,214.7 135.6,213 136.5,213 			"/>
			<path fill="#FFFFFF" d="M151.1,214.1c0.3,1,1.4,2.1,2,2.6c-2,0.1-4.3,0-6.1,0c0-0.8,0-1.6,0-2.4
				C148,214.3,149.7,214.1,151.1,214.1z"/>
			<path fill="#FFFFFF" d="M178.3,215.1L178.3,215.1v2c-1.1-0.2-2-0.2-3.4-0.4c0.1-0.4,0-2,0-2.1
				C175.7,214.7,177.3,214.9,178.3,215.1z"/>
			<path fill="#FFFFFF" d="M145.9,216.8c-0.7,0-2.4,0.1-3.4,0.1c0-0.4,0-1.5-0.1-2.2c0.7,0,2.8-0.1,3.5-0.1L145.9,216.8L145.9,216.8
				z"/>
			<path fill="#FFFFFF" d="M182.6,215.8l-0.1,1.7c-0.9-0.1-2.6-0.3-3.3-0.3c0-0.4,0-1.2,0-2C180.2,215.5,181,215.6,182.6,215.8z"/>
			<path fill="#FFFFFF" d="M185.4,216.1c0,0.4,0,1,0,1.6c-0.7,0.1-1.5,0-2,0c0-0.4,0-1.4,0-1.8C183.9,216,184.6,216,185.4,216.1z"/>
			<path fill="#FFFFFF" d="M141.7,216.8c-0.9,0-2.2,0.4-3.6,0.4c0-0.8,0-1.4,0-2c-0.1,0,3-0.4,3.6-0.4
				C141.7,215.5,141.7,216.4,141.7,216.8z"/>
			<path fill="#FFFFFF" d="M137.2,217.3h-1.5c0-0.7-0.1-1.4-0.1-2c0.7-0.1,1-0.1,1.6-0.1C137.2,215.8,137.2,216.9,137.2,217.3z"/>
			<path fill="#FFFFFF" d="M171.5,217.6c0,0.8-0.1,1.7,0,2.4c-1.4,0-3.3,0-4.6,0c0-0.7,0-1.5,0-2.4
				C168.1,217.6,169.6,217.5,171.5,217.6z"/>
			<path fill="#FFFFFF" d="M153.9,217.5l0.1,2.6c-0.9,0-2.6,0-4-0.1c-0.1-0.7-0.2-1.8-0.2-2.6C150.2,217.6,153.4,217.5,153.9,217.5z
				"/>
			<path fill="#FFFFFF" d="M176,217.9c0,0.8,0.1,1.4,0.1,2.2c-0.8-0.1-2.4-0.2-3.5-0.1c0-0.7-0.1-1.6-0.1-2.2
				C173.8,217.7,174.8,217.9,176,217.9z"/>
			<path fill="#FFFFFF" d="M148.5,220.1c-1.1,0-2-0.1-3.2-0.1v-2.4c0.9,0,2.2,0,3.4,0C148.8,217.7,148.6,218.6,148.5,220.1z"/>
			<path fill="#FFFFFF" d="M180.7,218.4c0,0.7-0.1,1.4-0.2,2.1c-1.1-0.1-2.6-0.3-3.6-0.4l-0.1-2.1
				C177.3,218,180.2,218.3,180.7,218.4z"/>
			<path fill="#FFFFFF" d="M184.6,218.7c-0.1,0.4-0.2,1.2-0.2,2.1c-0.5-0.1-2.5,0-3.2-0.2c0-1,0.1-1.4,0.2-2.2
				C182.7,218.5,183.5,218.6,184.6,218.7z"/>
			<path fill="#FFFFFF" d="M144.1,217.9v2.5c-0.8,0-2.1-0.1-3.7,0.1c0-0.8-0.1-1.5,0-2.4C141.3,218.1,142.8,217.9,144.1,217.9z"/>
			<path fill="#FFFFFF" d="M157.3,219.4v0.8c-0.5,0.1-2-0.1-2.2,0c0-0.3,0-1.6-0.1-2.2C155.8,218.7,156,218.7,157.3,219.4z"/>
			<path fill="#FFFFFF" d="M139.4,220.5c-0.9,0.1-1.5-0.1-2.1-0.1v-2c0.4,0,1.6-0.1,2.1,0C139.5,219.1,139.3,219.7,139.4,220.5z"/>
			<path fill="#FFFFFF" d="M161,219.3c0,0.3,0,1,0,1.2c0,1.1-1.3,1.2-1.4,0v-1.2H161z"/>
			<path fill="#FFFFFF" d="M136.7,220.5c-0.2,0-0.4-0.1-0.8-0.2v-1.7h0.8V220.5z"/>
			<path fill="#FFFFFF" d="M169.3,223.2c-0.3,0-1.4,0.2-2,0.1c-0.4-0.2-1.2-0.8-1.8-1v-1.6l3.8-0.1
				C169.3,221,169.3,221.6,169.3,223.2z"/>
			<path fill="#FFFFFF" d="M164.5,222.7c-0.4-0.2-0.8-0.7-1.7-0.8c0-0.4,0-1.1,0-1.3c0.7,0,1.1,0,1.7,0V222.7z"/>
			<path fill="#FFFFFF" d="M174.1,220.9v2.4c-1.1,0-2.6-0.1-3.7-0.1c0-0.7,0-1.6,0-2.5C171.5,220.7,173,220.8,174.1,220.9z"/>
			<path fill="#FFFFFF" d="M154.6,223.5c-1,0.1-2.3,0-2.7,0c0-0.9,0.1-2,0.1-2.6c2.1,0.1,0.7,0.1,2.5,0
				C154.5,221.7,154.6,222.6,154.6,223.5z"/>
			<path fill="#FFFFFF" d="M178.6,221.2c0,0.5,0,1.3,0,2.2l-3.6-0.1c-0.1-0.8-0.1-1.5,0-2.3C176,221,177.7,221.1,178.6,221.2z"/>
			<path fill="#FFFFFF" d="M151.1,220.9v2.5c-1.4,0-2.8,0.1-4.2,0.1v-2.3C147.9,220.9,150.4,220.9,151.1,220.9z"/>
			<path fill="#FFFFFF" d="M161.9,222.3c-0.3,0-0.5,2.6-0.7,2.8c-0.5-0.1-1.1-0.1-1.5,0c0.1-0.4-0.3-2.6-0.8-2.6
				c0-0.1-0.1-1.4-0.1-1.8l0.4,0.1c0.2,1.5,2,1.5,2.1,0h0.5L161.9,222.3L161.9,222.3z"/>
			<path fill="#FFFFFF" d="M182.8,221.6c0,0.4,0,1.5,0,2.2l-3.2-0.2c0-0.8-0.1-1.2,0-2.2C179.9,221.3,182,221.4,182.8,221.6z"/>
			<path fill="#FFFFFF" d="M146,221.3c0,0.7-0.1,1.6-0.1,2.2c-0.9,0-2.2,0.1-3.5,0.1c0-0.7,0.1-1.5,0-2.3
				C142.9,221.3,144.8,221.2,146,221.3z"/>
			<path fill="#FFFFFF" d="M185.2,221.7c0,0.7,0,1.4,0,2.1h-1.7c0-0.8,0.1-1.4,0.1-2.2L185.2,221.7z"/>
			<path fill="#FFFFFF" d="M141.5,221.7c0,0.5-0.2,1.3-0.1,2.1c-1.1,0-2.2,0-3.3,0c0-0.7,0-1.6,0-2.1
				C138.4,221.7,140.8,221.4,141.5,221.7z"/>
			<path fill="#FFFFFF" d="M137.2,221.9c0,0.5,0.1,1,0.1,1.8c-0.9-0.1-1.1-0.1-1.5-0.1v-1.7C136.4,221.9,136.8,221.9,137.2,221.9z"
				/>
			<path fill="#FFFFFF" d="M164.1,223.8c-0.2,0.4-0.9,1.5-1.3,2.1c-0.2-0.2-0.5-0.4-1-0.5c0.2-0.5,0.7-1.8,0.9-2.3
				C163.1,223.2,163.6,223.6,164.1,223.8z"/>
			<path fill="#FFFFFF" d="M159.2,225.2c-0.4,0.1-0.8,0.2-1.2,0.5c-0.2-0.5-1.2-1.8-1.4-2.1c0.4-0.4,0.8-0.7,1.8-1
				C158.4,223.2,159.1,224.8,159.2,225.2z"/>
			<path fill="#FFFFFF" d="M164.2,227.4c0-0.3-0.5-1.1-0.7-1.2l2.1-2.8c0.2,0,1.1,1,1.5,1.3C166.5,225.1,165.6,226.2,164.2,227.4z"
				/>
			<path fill="#FFFFFF" d="M171.3,224.3v2.8c-0.5,0-2.1,0-3.2,0c-0.2-0.4-0.5-0.9-0.7-1.1c0.2-0.1,0.5-0.3,0.8-0.5l-0.9-1.3h3.9
				V224.3z"/>
			<path fill="#FFFFFF" d="M157.3,226.1c-0.3,0.2-0.7,0.5-0.9,0.9c-0.7-0.4-1.7-1.8-2.2-2.1c0.4-0.4,0.8-0.9,1-1.3
				C156.1,224.7,156.6,225.4,157.3,226.1z"/>
			<path fill="#FFFFFF" d="M176,224.2v2.8c-0.7-0.1-2.5,0.1-3.7,0c0-0.5,0.1-2.7,0-2.8C173.6,224.2,174.7,224.2,176,224.2z"/>
			<path fill="#FFFFFF" d="M180.4,226.8c-0.9,0.1-2.4,0.1-3.3,0.1c-0.1-1-0.1-1.6-0.1-2.7c0.8,0,2.5,0.1,3.4,0.2
				C180.3,225.1,180.4,225.9,180.4,226.8z"/>
			<path fill="#FFFFFF" d="M153.6,224.4c-0.1,1-0.2,2.6-0.2,2.7c0-0.3-3.4,0-3.6-0.1c0-0.5,0.1-1.8,0.1-2.6
				C151,224.4,152.4,224.4,153.6,224.4z"/>
			<path fill="#FFFFFF" d="M184,224.4c0,0.5,0.1,1.5,0.1,2.3l-2.7,0.1c0-1.3-0.1-2.5-0.1-2.5L184,224.4z"/>
			<path fill="#FFFFFF" d="M148.8,224.3c-0.1,0,0,2.2,0,2.7c-1.8,0.1-2.8,0.1-4-0.1l0.1-2.5C145.9,224.4,146.5,224.4,148.8,224.3z"
				/>
			<path fill="#FFFFFF" d="M185.2,224.4l0.1,2.3l-0.5-0.1c0-0.5,0-1.5-0.1-2.2H185.2z"/>
			<path fill="#FFFFFF" d="M143.9,226.8c-0.5,0.1-2.1,0.1-3.2,0c0-0.8,0-1.8,0-2.4c0.7-0.1,2.4,0,3.2,0
				C143.8,225.1,143.9,225.8,143.9,226.8z"/>
			<path fill="#FFFFFF" d="M139.6,226.8c-0.3,0.3-2.7,0.1-3.2,0c0-0.5,0.2-1.6,0.1-2.4c0.7,0,2.1,0,2.9,0L139.6,226.8z"/>
			<path fill="#FFFFFF" d="M155.9,227.6l-0.5,0.8c-0.2-0.1-1.1-0.5-2-0.9c0.3-0.4,0.5-1.1,0.7-1.4
				C154.5,226.4,155.4,227.2,155.9,227.6z"/>
			<path fill="#FFFFFF" d="M167.3,227.9c-0.4,0.2-1.1,0.4-1.6,0.7l-0.7-1.1c0.5-0.3,1.1-0.7,1.4-1C166.9,227,167,227.4,167.3,227.9z
				"/>
			<path fill="#FFFFFF" d="M185.3,229.4c-0.5,0.1-1.1,0.1-1.6,0.1c-0.1-0.7-0.1-1.4-0.1-2.1c0.5,0,1.3,0,1.7,0V229.4z"/>
			<path fill="#FFFFFF" d="M182.8,227.6c0,0.7,0,1.5,0,2.2c-1.1,0.1-2.3,0.1-3.3,0.3c-0.1-0.7-0.1-1.7-0.1-2.3
				C181,227.7,181.9,227.6,182.8,227.6z"/>
			<path fill="#FFFFFF" d="M178.4,227.9c0,0.7,0.2,2,0.2,2.4c-0.7,0.1-3.3,0.2-3.5,0.2c0-0.7-0.1-1.6-0.1-2.5
				C176.3,228,177.6,227.9,178.4,227.9z"/>
			<path fill="#FFFFFF" d="M174,230.5l-3.7-0.1c0-0.3,0-1.4,0-2.3c1.4-0.1,2.4,0,3.6-0.1C174,228.8,174,229.8,174,230.5z"/>
			<path fill="#FFFFFF" d="M137.4,228c0,0.7,0,1.4,0,2.1c-0.4,0-0.8,0-1.3,0c-0.1-0.8-0.1-1.4,0-2.1
				C136.8,227.9,137,227.9,137.4,228z"/>
			<path fill="#FFFFFF" d="M141.7,228.1v0.1c-0.1,0.5-0.2,1.1-0.2,2.1l-3.2-0.1c-0.2-0.4,0-1.3,0-2.2
				C139,228.1,141.4,228,141.7,228.1z"/>
			<path fill="#FFFFFF" d="M165.1,228.4c0.3,0.8,0.3,1.4,0.4,2.2h-0.7c-0.1-1.1-0.3-2.2-0.5-2.6C164.4,228,164.7,228.2,165.1,228.4z
				"/>
			<path fill="#FFFFFF" d="M169.2,228.2c0,0.8,0.1,1.5,0.1,2.4h-3.2c-0.1-0.3-0.2-0.7-0.3-1c0.4-0.2,2.5-0.9,2.6-1.5
				C168.6,228.1,168.9,228.2,169.2,228.2z"/>
			<path fill="#FFFFFF" d="M146,228.3L146,228.3c0.1,1,0,1.6,0,2.1c-1.1,0-2.3,0-3.4,0c-0.1-0.8-0.2-1.6-0.1-2.2
				C142.9,228.2,146,228.2,146,228.3z"/>
			<path fill="#FFFFFF" d="M150.8,228.5c-0.1,0.3-0.1,2-0.1,2.1l-3.6-0.1c-0.2-0.8-0.1-1.2-0.1-2
				C147.2,228.1,150.1,228.2,150.8,228.5z"/>
			<path fill="#FFFFFF" d="M155.1,229.4c-0.1,0.2-0.1,0.8-0.1,1.2h-3.2c0-0.3,0.2-2.4,0.2-2.4C152.6,228.3,154.7,229.2,155.1,229.4z
				"/>
			<polygon fill="#FFFFFF" points="184.9,231 184.9,231 184.9,231.4 			"/>
			<path fill="#FFFFFF" d="M139.1,231v0.2v1.7c-0.3,0-1.6,0-2.5-0.1c0-0.5,0-1.2,0-1.8C137.2,230.9,138.4,231,139.1,231z"/>
			<path fill="#FFFFFF" d="M144,231.3c0,0.8,0.1,1.1,0.1,1.8c-1.2,0-2.5-0.1-3.8-0.1c0-0.7,0.1-1.2,0.1-2
				C141.6,231.3,142.8,231.2,144,231.3z"/>
			<path fill="#FFFFFF" d="M168,233.8c-0.5,0.1-1.1,0.1-2-0.1c0-0.9,0.1-1.5,0-2.3c0.7,0.1,1.4,0,2,0C168,231.9,168,233.3,168,233.8
				z"/>
			<path fill="#FFFFFF" d="M148.8,233.4L148.8,233.4c-1.3,0.1-2.3,0-3.5,0c0-0.9,0-1.3,0-2.1c1.4,0.2,2.2,0,3.5,0
				C148.8,231.9,148.8,232.9,148.8,233.4z"/>
			<path fill="#FFFFFF" d="M151.6,233.5c-0.5,0-1.3-0.1-1.7-0.1l-0.1-2.1c0.8,0,1.3,0.1,1.8,0.1
				C151.7,231.4,151.6,233.2,151.6,233.5z"/>
			<path fill="#FFFFFF" d="M154.9,231.7v2.3c-0.4,0-2-0.1-2.5-0.2c0-0.8,0.1-1.6,0.1-2.4C153.2,231.4,154.2,231.6,154.9,231.7z"/>
			<polygon fill="#FFFFFF" points="165.5,233.8 165.1,233.6 165.1,231.3 165.5,231.3 			"/>
			<path fill="#FFFFFF" d="M137.7,234.1v2.3c-0.7,0-1,0-1.5-0.2c0-0.7,0-2,0-2.1C136.7,234.1,137.1,234.1,137.7,234.1z"/>
			<path fill="#FFFFFF" d="M141.7,236.7c-1-0.1-2.6-0.1-3.3-0.3c0-1.1,0-1.6,0-2.4c1,0,2.1,0.2,3.3,0.2V236.7z"/>
			<path fill="#FFFFFF" d="M145.9,234.6c0-0.3-0.1,1.1-0.1,2.5c-0.8,0-2-0.1-3.2-0.3c0-1,0-1.7,0-2.6
				C143.4,234.3,145.4,234.6,145.9,234.6z"/>
			<path fill="#FFFFFF" d="M169.5,234.8v2.7c-0.9,0.1-2,0.1-3.3,0.1v-2.8C167.1,234.9,168.4,234.8,169.5,234.8z"/>
			<path fill="#FFFFFF" d="M150.7,234.7L150.7,234.7c0,0.8,0,2-0.1,2.4c-1.5,0.2-3,0.1-3.7-0.1v-2.3
				C148,234.5,149.4,234.7,150.7,234.7z"/>
			<path fill="#FFFFFF" d="M154.9,237.3c-0.4,0-1.6,0.1-3.2-0.2c-0.1-0.9-0.1-1.6,0-2.5l3.2,0.3V237.3z"/>
			<polygon fill="#FFFFFF" points="165.6,237.3 165.1,237.1 165.1,237 165.1,234.6 165.6,234.8 			"/>
			<path fill="#FFFFFF" d="M144.1,238c-0.1,0.9,0,1.4-0.1,2c-0.4,0.2-2.7-0.2-3.4-0.3v-2C140.8,237.6,143.8,238.1,144.1,238z"/>
			<path fill="#FFFFFF" d="M148.8,238.2c0,0.5,0.1,1.2,0,2.2c-1.5,0-2.5,0-3.7-0.1l-0.1-2.3C146.3,238.1,147.4,238.3,148.8,238.2z"
				/>
			<path fill="#FFFFFF" d="M168.4,238.5c0,0.8,0,1.4,0,2.2c-0.9,0.1-1.8,0.1-2.2,0.1l-0.1-2.2C166.8,238.6,167.2,238.6,168.4,238.5z
				"/>
			<path fill="#FFFFFF" d="M165.6,240.8l-0.5-0.2l-0.1-2.3l0.5,0.1C165.6,238.9,165.6,239.6,165.6,240.8z"/>
			<path fill="#FFFFFF" d="M151.6,238.4c-0.1,1,0,2,0,2.3c-0.5-0.1-1.2,0-2-0.2l-0.1-2.2C150.1,238.4,151,238.4,151.6,238.4z"/>
			<path fill="#FFFFFF" d="M154.9,240.8c-0.4,0-1.7,0-2.3-0.1c0-0.5,0-1.6,0-2.3c0.8,0.1,1.5,0.1,2.3,0.1V240.8z"/>
			<path fill="#FFFFFF" d="M187.8,240.7c-0.2,0-1.2-0.2-1.5-0.2v-0.7C186.8,240,187.6,240.4,187.8,240.7z"/>
			<path fill="#FFFFFF" d="M137.2,241.6c-0.4-0.1-1.2-0.3-1.5-0.4v-1.2c0.5,0.2,1.1,0.3,1.6,0.4
				C137.2,240.9,137.2,241.1,137.2,241.6z"/>
			<path fill="#FFFFFF" d="M135.1,240.6c-0.7-0.1-1.6,0-2.1,0.5l-0.3-0.4c0.8-0.8,1.8-0.8,2.4-1
				C135.1,239.8,135.1,240.2,135.1,240.6z"/>
			<path fill="#FFFFFF" d="M141.7,240.8c-0.1,0.5-0.1,0.9-0.2,1.6c-0.7,0-2.6-0.3-3.2-0.4c-0.1-0.5,0-1.2,0-1.6
				C139.4,240.5,140.5,240.8,141.7,240.8z"/>
			<path fill="#FFFFFF" d="M174.5,242.7c0,0-2.9,0.5-3.9,0.5c-0.1-0.8-0.1-1.3-0.1-2c0.7,0,3.6-0.4,3.9-0.4L174.5,242.7z"/>
			<path fill="#FFFFFF" d="M145.9,241.3c-0.1,0.5-0.1,1.3-0.1,1.7c-0.5,0-2.5-0.2-3.3-0.4l0.1-1.6L145.9,241.3z"/>
			<path fill="#FFFFFF" d="M189.3,242.4c-0.3,0.5-1,0.8-1.6,0.9c-1.3-0.4-3.3-1.1-3.6-1.4c0.5,0,2.1-0.4,2.1-0.5
				C186.5,241.8,189.1,242.3,189.3,242.4z"/>
			<path fill="#FFFFFF" d="M169.4,243.5c-1.3,0.1-2,0.2-3,0.1v-1.8c0.9,0,2.1-0.1,3-0.3C169.4,242.1,169.4,242.9,169.4,243.5z"/>
			<path fill="#FFFFFF" d="M150.5,243.6c-0.8,0-2.3-0.1-3.6-0.3c0-0.3,0-1.2,0-1.8c1,0,2.7,0.2,3.7,0.2L150.5,243.6z"/>
			<path fill="#FFFFFF" d="M165.8,243.6l-0.8-0.2l-0.1-2l0.8,0.3C165.8,242.3,165.8,242.9,165.8,243.6z"/>
			<path fill="#FFFFFF" d="M155.2,243.8c-1.4,0-2.7,0-3.5-0.1v-2c1.1,0,2.4,0,3.5,0V243.8z"/>
			<path fill="#FFFFFF" d="M182.8,242.4c0.4,0.3,2.5,0.9,3.5,1.2c0,0.2-3.2,0.9-3.7,0.9l-2.9-1.5
				C180.4,242.9,181.8,242.6,182.8,242.4z"/>
			<path fill="#FFFFFF" d="M135.1,242.3c-0.2,0.2-1.3,0.7-1.7,1c-0.5-0.2-1.2-0.3-1.5-0.7c0.3-0.2,1.4-0.8,1.7-0.9
				C134,242,134.3,242.1,135.1,242.3z"/>
			<path fill="#FFFFFF" d="M178.5,243.4c0.7,0.4,2.3,1.3,2.6,1.3c-1,0.2-4,0.5-6,0.8c-0.3-0.1-1.6-1.1-2-1.4
				C174.6,243.9,177.1,243.5,178.5,243.4z"/>
			<path fill="#FFFFFF" d="M189.5,247.5c-0.2,0.2-0.8,0.5-1.2,0.7c0-1.2-0.1-2.8-0.2-3.9c0.4-0.2,0.9-0.4,1.3-0.7L189.5,247.5z"/>
			<path fill="#FFFFFF" d="M132.7,244.1c0,1.1,0,2.8,0,3.9c-0.5-0.3-1-0.7-1.4-1.1l0.1-0.3v-3.2
				C131.6,243.5,132.2,243.9,132.7,244.1z"/>
			<path fill="#FFFFFF" d="M187.2,244.5c0.2,1.3,0.1,2.8,0.3,4.1l-4.5,1.4c0-1.8-0.1-3-0.2-4.6C183.4,245.5,186.3,244.8,187.2,244.5
				z"/>
			<path fill="#FFFFFF" d="M172.2,244.4l1.7,1.4c-0.7,0.2-6.8,0.5-7.5,0.4l-1.5-1.3C167.2,244.9,170.3,244.5,172.2,244.4z"/>
			<path fill="#FFFFFF" d="M138.1,245.6L138.1,245.6v4c-0.4,0.1-3.3-0.8-4.6-1.3c0-1.4,0-2.6,0-3.9
				C134.3,244.7,137.4,245.5,138.1,245.6z"/>
			<path fill="#FFFFFF" d="M182.1,250.3c-0.9,0.2-5.5,1-6.4,0.9l-0.2-4.6c1.2-0.2,5.4-0.7,6.4-0.9
				C181.9,246.8,182,248.9,182.1,250.3z"/>
			<polygon fill="#FFFFFF" points="155.4,246.2 155.4,250.7 154.5,251.6 154.5,247.4 			"/>
			<path fill="#FFFFFF" d="M145.8,246.9c0,1.3,0,2.7,0,4.3c-0.4,0-6-1-6.8-1.3v-4.2C139.6,245.9,144.8,246.7,145.8,246.9z"/>
			<path fill="#FFFFFF" d="M174.6,246.7c-0.1,1.2,0.1,3.7,0.1,4.7c-1.4,0.5-8,1-8.2,0.7c-0.1-1.8,0-3.4,0-4.8
				C168.4,247.2,172.9,246.9,174.6,246.7z"/>
			<path fill="#FFFFFF" d="M153.6,247.5c-0.1,1.1,0,2.3,0,4c-1.7,0-5.5-0.2-7-0.4v-4.2C147.1,247,152.4,247.4,153.6,247.5z"/>
			<polygon fill="#FFFFFF" points="165.8,251.3 164.9,250.5 164.9,246.7 165.7,247.3 			"/>
			<path fill="#FFFFFF" d="M164.4,251c0.2,0.2,0.5,0.7,0.8,0.9c-1.3,0.3-8.4,0.4-9.7,0l0.8-1C157.9,251.1,161.9,251.2,164.4,251z"/>
			<polygon fill="#FFFFFF" points="149.3,151.2 149.5,151.7 130.9,159.9 129.6,158.3 			"/>
			<polygon fill="#FFFFFF" points="150.4,152.9 150.7,153.4 132.7,164.5 132.1,162.5 			"/>
			<path fill="#FFFFFF" d="M149.3,146l-0.1,0.2l-10.1-0.9c0-0.3,0-0.7,0-0.9L149.3,146z"/>
			<polygon fill="#FFFFFF" points="149.4,144.4 149.3,144.5 140.7,143.2 141.4,142.1 			"/>
			<polygon fill="#FFFFFF" points="150.7,141.5 150.6,141.7 144.6,137.9 144.9,137.2 			"/>
			<path fill="#FFFFFF" d="M142.3,172.7l-0.1,0.5c-0.7-0.1-1.2-0.2-1.8-0.1v-0.7C141,172.5,142.1,172.7,142.3,172.7z"/>
			<path fill="#FFFFFF" d="M139.3,173.3c-0.4-0.1-1.6,0.1-2,0.1l-0.2-0.7c0.7-0.1,1.2-0.2,2.1-0.2L139.3,173.3z"/>
			<path fill="#FFFFFF" d="M135.1,174.3l-0.4-0.7l1.5-0.8l0.3,0.8C136,173.7,135.4,174,135.1,174.3z"/>
			<path fill="#FFFFFF" d="M142,175.5h-1.7c0-0.2,0-0.8,0.1-1.3c0.5,0,1,0,1.7,0.1C142.1,174.8,142.1,174.9,142,175.5z"/>
			<path fill="#FFFFFF" d="M139.4,175.2c-0.5,0.1-1.2,0.1-1.7,0.2c0-0.3-0.1-0.9-0.2-1.1c0.5-0.1,1.3-0.3,2-0.2V175.2z"/>
			<path fill="#FFFFFF" d="M137,175.6c-0.3,0.1-0.9,0.3-1.2,0.5c-0.1-0.3-0.2-0.8-0.3-1c0.3-0.2,0.5-0.3,1.1-0.5
				C136.8,174.8,136.9,175.1,137,175.6z"/>
			<path fill="#FFFFFF" d="M137.4,176.4c0,0.1,0.1,1,0.2,1.4c-0.7,0-1.3,0.3-1.8,0.3c0-0.7,0-1-0.1-1.4
				C136.1,176.7,137,176.4,137.4,176.4z"/>
			<path fill="#FFFFFF" d="M138.1,178.9L138.1,178.9v1.5c-0.7,0-1.5,0.1-2.1,0.3V179C136.8,178.9,137.1,178.9,138.1,178.9z"/>
			<path fill="#FFFFFF" d="M144.8,174c-0.4-0.2-1.4-0.5-1.5-0.5l0.1-0.5c0.7,0,1,0.2,1.6,0.4L144.8,174z"/>
			<path fill="#FFFFFF" d="M144.3,176.1c-0.2-0.1-0.9-0.3-1.5-0.4c0-0.4,0.1-1,0.2-1.3c0.4,0.1,1.2,0.3,1.6,0.5
				C144.4,175.5,144.4,175.8,144.3,176.1z"/>
			<path fill="#FFFFFF" d="M143.4,179v1.3c-0.3,0-1-0.1-1.7-0.1V179C142,179,142.9,179,143.4,179z"/>
			<path fill="#FFFFFF" d="M137.2,190.4c-0.3,0-1.1,0.3-1.4,0.3c0-0.4-0.1-1.1-0.1-1.6l1.5-0.2L137.2,190.4L137.2,190.4z"/>
			<path fill="#FFFFFF" d="M139.6,189.8c-0.4,0-0.7,0.1-1.4,0.2c0-0.4,0-1,0-1.4l1.3-0.2L139.6,189.8z"/>
			<path fill="#FFFFFF" d="M141.9,189.4c-0.3,0.1-0.9,0.1-1.3,0.2c-0.1-0.5-0.1-0.9-0.1-1.3l1.5-0.1L141.9,189.4z"/>
			<path fill="#FFFFFF" d="M144.3,189.4c-0.3,0-0.9-0.1-1.4,0c0-0.4,0-1-0.1-1.3h1.6L144.3,189.4z"/>
			<path fill="#FFFFFF" d="M138,187.9c-0.3,0-0.9,0.1-1.5,0.1c-0.1-0.3-0.1-0.9-0.1-1.5l1.5-0.1L138,187.9z"/>
			<path fill="#FFFFFF" d="M140.5,187.5c-0.3,0.1-1.1,0.1-1.5,0.2v-1.5l1.5-0.1V187.5z"/>
			<path fill="#FFFFFF" d="M142.9,187.3c-0.3,0-0.7,0.1-1.4,0.1c-0.1-0.5-0.1-1-0.1-1.3l1.5-0.1L142.9,187.3L142.9,187.3z"/>
			<path fill="#FFFFFF" d="M144.6,187.2l-1,0.1c0-1.8,0-0.8,0-1.4l1,0.1V187.2z"/>
			<path fill="#FFFFFF" d="M137.2,185.2c-0.4,0-0.8,0.1-1.5,0.1v-1.5l1.4-0.1L137.2,185.2z"/>
			<path fill="#FFFFFF" d="M139.5,185.1c-0.4,0-0.8,0-1.5,0v-1.5h1.5V185.1z"/>
			<path fill="#FFFFFF" d="M142.1,185c-0.4-0.1-0.9,0-1.7-0.1v-1.5l1.6,0.1L142.1,185z"/>
			<path fill="#FFFFFF" d="M144.4,185c-0.3,0-1.2-0.1-1.6-0.1l-0.1-1.4h1.8L144.4,185z"/>
			<path fill="#FFFFFF" d="M138.1,182.7c-0.3,0-0.7,0.1-1.2,0.1l-0.1-1.5l1.3-0.1L138.1,182.7L138.1,182.7z"/>
			<path fill="#FFFFFF" d="M144.6,183.1c-0.3-0.1-0.1,0-0.7,0v-1.5h0.7V183.1z"/>
			<path fill="#FFFFFF" d="M142.9,182.9c-0.3,0-0.7,0-1.3-0.1v-1.5l1.3,0.1V182.9z"/>
			<path fill="#FFFFFF" d="M140.7,182.7c-0.4,0-0.8,0-1.5,0l-0.1-1.5h1.6V182.7z"/>
			<polygon fill="#FFFFFF" points="144.6,180.4 143.9,180.4 143.9,179 144.6,179.2 			"/>
			<path fill="#FFFFFF" d="M139.9,176.2c0,0.2,0.1,1.1,0.1,1.5c-0.7,0-1,0.1-1.6,0.1c0.1-0.7,0-1.1,0-1.4
				C138.8,176.3,139.6,176.3,139.9,176.2z"/>
			<path fill="#FFFFFF" d="M142.6,176.4c0,0.1-0.1,1-0.1,1.4c-0.7-0.1-1.1,0-1.6-0.1c0.1-0.7,0-1,0.1-1.4
				C141.3,176.3,142.2,176.3,142.6,176.4z"/>
			<path fill="#FFFFFF" d="M144.7,176.8c0,0.2,0,1,0,1.4c-0.5-0.2-0.7-0.1-1.1-0.2c0.1-0.7,0-1,0.1-1.3
				C144,176.7,144.4,176.8,144.7,176.8z"/>
			<path fill="#FFFFFF" d="M136.1,183.1c-0.3,0-0.1,0.1-0.7,0v-1.5h0.7V183.1z"/>
			<polygon fill="#FFFFFF" points="136,188 135.5,188.1 135.5,186.6 135.9,186.4 			"/>
			<path fill="#FFFFFF" d="M187,200.2c-0.1,0.2-0.8,0.7-1.1,0.9c-7-2.7-12.9-3.9-23.9-4.6c-2.3-0.1-9.8-0.3-16.7,1.1
				c-5.1,1.1-8.5,2.4-10.3,3.2c-0.5-0.1-1.2-0.4-1.4-0.8c14-5.2,20.5-4.9,27.5-4.8c1.3,0,6.6,0.2,12.5,1.3
				C179.8,197.5,184.7,199.3,187,200.2z"/>
			<path fill="#FFFFFF" d="M182.1,170.7v0.7c0.5,0,0.9-0.1,1.6,0.1l0.1-0.8c0.5,0.1,0.9,0.2,1.1,0.2l-0.1,0.7
				c0.4,0.1,1.1,0.4,1.3,0.5l0.3-0.8l0.9,0.4l-0.7,1.7c-2.7-1.6-8.7-1.7-11.1,0l-0.5-1.8l1.1-0.4l0.4,0.8c0.3-0.1,0.8-0.2,1.1-0.2
				l-0.1-0.8c0.4,0,0.9-0.1,1.3-0.2l0.1,0.7c0.4,0,0.9-0.1,1.5-0.1v-0.7L182.1,170.7L182.1,170.7z"/>
			<path fill="#FFFFFF" d="M183.9,173.4l-0.2,0.7c-0.5-0.1-1.2-0.3-1.8-0.3l0.1-0.7C182.4,173.2,183.5,173.4,183.9,173.4z"/>
			<path fill="#FFFFFF" d="M181,173.7c-0.3-0.1-1.6,0-2,0.1c0.1-0.3,0-0.5-0.1-0.8c0.7-0.1,1.3-0.1,2.2,0L181,173.7z"/>
			<path fill="#FFFFFF" d="M176.8,174.5l-0.2-0.7c0.1-0.2,1.2-0.5,1.5-0.5l0.2,0.7C178,174,177.1,174.3,176.8,174.5z"/>
			<path fill="#FFFFFF" d="M183.6,176.3l-1.6-0.2c0-0.3,0-0.7,0.1-1.2c0.5,0,1,0.1,1.6,0.2C183.8,175.7,183.8,175.8,183.6,176.3z"/>
			<path fill="#FFFFFF" d="M181,176c-0.5,0-1.2-0.1-1.7,0c-0.1-0.3,0-0.8,0-1.1c0.5-0.1,1.2-0.1,1.8,0L181,176z"/>
			<path fill="#FFFFFF" d="M178.4,176c-0.3,0-0.8,0.2-1.2,0.3c0-0.4,0-0.9,0-1.1c0.3-0.1,0.8-0.2,1.2-0.2
				C178.3,175.2,178.4,175.6,178.4,176z"/>
			<path fill="#FFFFFF" d="M178.1,176.8c0,0.2,0,0.8,0.1,1.3c-0.4,0-0.7,0-1.1,0.2c0-0.4-0.1-1-0.1-1.3
				C177.3,176.9,177.7,176.8,178.1,176.8z"/>
			<path fill="#FFFFFF" d="M179.9,179.4L179.9,179.4v1.5c-0.7-0.1-1.4-0.1-2.1,0v-1.4C178.8,179.3,179,179.4,179.9,179.4z"/>
			<path fill="#FFFFFF" d="M185.9,174.8c-0.5-0.3-1.3-0.5-1.4-0.5l0.1-0.5c0.7,0.1,0.9,0.1,1.6,0.4L185.9,174.8z"/>
			<path fill="#FFFFFF" d="M185.5,176.7c-0.2-0.1-0.8-0.1-1.2-0.2c0.1-0.4,0.1-1,0.2-1.2c0.2,0.1,0.7,0.1,1,0.2
				C185.5,175.9,185.5,176.2,185.5,176.7z"/>
			<path fill="#FFFFFF" d="M184.4,179.7l0.1,1.4c-0.3-0.1-0.8-0.1-1.6-0.1v-1.3C183.3,179.7,184,179.6,184.4,179.7z"/>
			<path fill="#FFFFFF" d="M180.2,190c-0.3-0.1-0.8,0.1-1.4-0.1c0-0.4,0.1-0.5,0-1l1.4,0.1V190z"/>
			<path fill="#FFFFFF" d="M182.8,190.4c-0.4,0-1.1-0.2-1.6-0.2c-0.1-0.5,0-0.5,0-1l1.7,0.2L182.8,190.4z"/>
			<path fill="#FFFFFF" d="M185.3,190.7c-0.3-0.1-1.1-0.1-1.5-0.2c0-0.4,0-0.8,0-1.1l1.6,0.3L185.3,190.7z"/>
			<path fill="#FFFFFF" d="M178.6,188.3c-0.3,0-1,0.1-1.6,0c-0.1-0.3-0.1-0.8-0.1-1.4h1.6L178.6,188.3z"/>
			<path fill="#FFFFFF" d="M181.1,188.4c-0.3,0-1.4-0.1-1.8-0.1l-0.1-1.5l1.8,0.1L181.1,188.4z"/>
			<path fill="#FFFFFF" d="M183.8,188.3c-0.3,0-1,0-1.7,0c-0.1-0.5-0.1-1,0-1.3l1.7-0.1V188.3z"/>
			<path fill="#FFFFFF" d="M185.5,188.5c-0.3-0.1-0.9-0.1-1.1-0.1c-0.1-1.7-0.1-0.8-0.1-1.4l1.1,0.2L185.5,188.5z"/>
			<path fill="#FFFFFF" d="M179.7,185.8c-0.4-0.1-1.1-0.1-1.7-0.1v-1.5l1.6,0.1L179.7,185.8z"/>
			<path fill="#FFFFFF" d="M181.7,185.9c-0.3,0-0.8,0-1.5-0.1v-1.5l1.5,0.1V185.9z"/>
			<path fill="#FFFFFF" d="M184.1,186.1c-0.4-0.1-1-0.1-1.8-0.2v-1.5l1.8,0.2V186.1z"/>
			<path fill="#FFFFFF" d="M185.4,186.2c-0.3-0.1-0.1-0.1-0.7-0.1v-1.5h0.7V186.2z"/>
			<path fill="#FFFFFF" d="M185.5,178.5c-0.3,0,0,0.1-0.7,0l0.1-1.3l0.5,0.1V178.5z"/>
			<path fill="#FFFFFF" d="M180.2,176.7c-0.1,0.2,0,0.9,0,1.3c-0.5,0-0.8,0-1.4,0c0-0.7,0-0.9,0-1.3
				C179,176.7,179.7,176.7,180.2,176.7z"/>
			<path fill="#FFFFFF" d="M182.4,176.8c0,0.2,0,1,0,1.4c-0.5-0.1-1,0-1.5-0.1c0-0.7-0.1-1-0.1-1.4
				C181.3,176.7,182.1,176.8,182.4,176.8z"/>
			<path fill="#FFFFFF" d="M184.6,177.2c0,0.1-0.1,0.9-0.1,1.3c-0.5-0.2-1-0.1-1.5-0.3c0.1-0.5,0.1-0.9,0.2-1.3
				C183.5,177,184.3,177.1,184.6,177.2z"/>
			<path fill="#FFFFFF" d="M178.3,183.4c-0.3,0-0.8,0-1.3,0.1V182l1.3-0.1V183.4z"/>
			<path fill="#FFFFFF" d="M180.7,183.5c-0.4-0.1-1.2,0-2-0.1v-1.5l2,0.1V183.5z"/>
			<path fill="#FFFFFF" d="M183.3,183.8c-0.4-0.1-1.1-0.2-2-0.3V182l1.8,0.2L183.3,183.8z"/>
			<path fill="#FFFFFF" d="M185.5,183.9c-0.3-0.1-0.9-0.2-1.5-0.2v-1.5l1.5,0.1V183.9z"/>
			<polygon fill="#FFFFFF" points="177.6,180.9 177,180.9 176.9,179.7 177.6,179.6 			"/>
			<path fill="#FFFFFF" d="M148.3,244.6c-0.4,0.4-0.9,1.1-1.3,1.6c2.2,0.1,4.6,0.4,6.7,0.5c0.3-0.5,0.5-1.1,0.9-1.5
				C152.7,244.9,150.3,244.8,148.3,244.6z"/>
			<path fill="#FFFFFF" d="M141.6,243.6c-0.5,0.4-1.5,1.1-2.1,1.4c1.8,0.4,4.1,0.8,6.5,1c0.3-0.4,1-1.1,1.3-1.5
				C145.3,244.2,143.5,243.9,141.6,243.6z"/>
			<path fill="#FFFFFF" d="M135.9,242.6c-0.5,0.4-1.3,0.9-2,1.2c1,0.4,2.7,0.7,4.1,1c0.4-0.3,1.4-0.9,2-1.3
				C138.4,243.3,136.6,242.9,135.9,242.6z"/>
			<path fill="#FFFFFF" d="M179,242.2c-0.1,0-2.5,0.4-3.6,0.4c0-0.8,0-1.2,0-2c0.7,0,3.2-0.3,3.5-0.4L179,242.2z"/>
			<path fill="#FFFFFF" d="M182.8,241.4c0,0-2,0.5-3.2,0.5c0-0.9,0-1.3,0-2c0.7,0,2.6-0.4,3-0.5L182.8,241.4z"/>
			<path fill="#FFFFFF" d="M185.3,240.7c0,0-0.5,0.4-1.6,0.4c0-0.9-0.1-1.3-0.1-2c0.7,0,1.3-0.2,1.7-0.3V240.7z"/>
			<path fill="#FFFFFF" d="M171.8,238.2c0,0.8,0,1.4,0,2.2c-0.9,0-2.2,0.2-2.6,0.2l-0.1-2.2C169.8,238.4,170.7,238.2,171.8,238.2z"
				/>
			<path fill="#FFFFFF" d="M176.5,237.5c0.1,0.8,0.1,1.5,0.1,2.3c-1,0-3.3,0.3-3.7,0.3l-0.1-2.3C173.5,238,175.5,237.5,176.5,237.5z
				"/>
			<path fill="#FFFFFF" d="M180.4,237c0,0.8,0.1,1.4,0.1,2.2c-0.9,0.1-2.5,0.3-2.9,0.3v-2.3C178.2,237.3,179.4,237.1,180.4,237z"/>
			<path fill="#FFFFFF" d="M184.2,236.4c0,0.8,0,1.2,0,2c-0.9,0.1-2.2,0.4-2.6,0.4l-0.1-2.1C182.2,236.8,183.2,236.6,184.2,236.4z"
				/>
			<path fill="#FFFFFF" d="M174,234.5v2.6c-0.7,0-2.4,0.3-3.7,0.3l-0.1-2.6C171.1,234.9,173,234.6,174,234.5z"/>
			<path fill="#FFFFFF" d="M178.8,234.1l0.1,2.5c-0.8,0.1-2.5,0.3-3.8,0.3v-2.6C176,234.4,177.8,234.1,178.8,234.1z"/>
			<path fill="#FFFFFF" d="M182.7,233.7v2.3c-0.7,0.2-1.7,0.3-3,0.3v-2.4C180.6,234.1,181.6,233.7,182.7,233.7z"/>
			<path fill="#FFFFFF" d="M185.4,233.5v2.2c-0.4,0.2-1.1,0.1-1.7,0.2v-2.2C184.1,233.7,184.6,233.6,185.4,233.5z"/>
			<path fill="#FFFFFF" d="M171.6,233.7c-0.5,0.1-1.8,0.2-2.6,0c0-0.9,0-1.5,0-2.4c0.7,0.1,2.1,0,2.6,0
				C171.6,231.8,171.6,233.2,171.6,233.7z"/>
			<path fill="#FFFFFF" d="M176.1,233.4c-0.5,0.1-2.7,0.4-3.5,0.2c-0.1-0.9,0-1.5,0-2.3c0.5,0,2.9-0.2,3.4-0.2
				C176,231.4,176.1,232.9,176.1,233.4z"/>
			<path fill="#FFFFFF" d="M180.6,233.1c-0.5,0.1-2.7,0.4-3.5,0.2c0-1,0.1-1.6,0-2.4c0.7,0.1,2.9-0.2,3.5-0.2
				C180.5,231.1,180.6,232.5,180.6,233.1z"/>
			<path fill="#FFFFFF" d="M184.9,232.7c-0.5,0-2.6,0.3-3.4,0.1c-0.1-0.9,0-1.5,0-2.3c0.5,0.1,2.9-0.2,3.4-0.2
				C184.8,230.7,184.9,232.1,184.9,232.7z"/>
			<path fill="#FFFFFF" d="M139.6,237.3c0,0.9,0,1.4-0.1,2.1c-0.4,0.1-2.7-0.3-3.4-0.4v-2L139.6,237.3z"/>
			<path fill="#FFFFFF" d="M177.7,189.9c-0.3,0-0.5,0-0.9,0c0-0.4,0.1-0.5,0-1.1l0.9,0.1V189.9z"/>
			<path fill="#FFFFFF" d="M185.5,181.1c-0.3,0-0.2,0.1-0.9,0l0.1-1.3l0.8,0.1V181.1z"/>
			<path fill="#FFFFFF" d="M155.5,223.1c0.5-0.3,1.4-0.9,1.8-1c0-0.4,0-0.9,0-1.3c-0.5,0-1.3,0.1-1.8,0.1V223.1z"/>
			<path fill="#3FDBB1" d="M162.8,141.8c0,0.2-0.7,1.3-1,2.4l-0.4-0.2c0.7-1.1,1-1.6,1.2-2.3L162.8,141.8z"/>
			<polygon fill="#3FDBB1" points="162.4,141.4 162.1,140.9 162.8,141.2 163.2,140.8 163.1,141.4 163.5,141.8 163,141.9 
				162.9,142.5 162.6,141.9 161.9,141.9 			"/>
			<path fill="#3FDBB1" d="M156.7,143.1c0,0.2,0.8,1.2,1.4,2.1l0.3-0.3c-0.8-0.9-1.3-1.3-1.6-1.8L156.7,143.1z"/>
			<polygon fill="#3FDBB1" points="157,142.7 157.1,142.1 156.6,142.5 156,142.2 156.4,142.7 155.9,143.3 156.6,143.2 156.7,143.8 
				156.9,143.2 157.6,143.1 			"/>
			<path fill="#3FDBB1" d="M158.3,141.9c0,0.2,0.7,1.4,1,2.4l0.4-0.2c-0.5-1.1-1-1.6-1.2-2.3L158.3,141.9z"/>
			<polygon fill="#3FDBB1" points="158.6,141.5 159,141 158.3,141.3 157.9,140.9 158,141.5 157.6,141.9 158.1,142 158.2,142.6 
				158.5,142 159.2,142 			"/>
			<path fill="#3FDBB1" d="M155.5,144.7c0.1,0.1,0.9,1,1.5,1.6l0.2-0.3C156.6,145.4,156,145,155.5,144.7L155.5,144.7z"/>
			<polygon fill="#3FDBB1" points="155.7,144.5 155.7,143.8 155.4,144.3 154.8,144.2 155.2,144.6 154.8,145 155.4,144.8 
				155.6,145.4 155.7,144.7 156.3,144.6 			"/>
			<path fill="#3FDBB1" d="M154.7,146.4c0.1,0.1,0.9,0.4,1.5,0.8l0.1-0.2c-0.7-0.3-1.2-0.4-1.6-0.7V146.4z"/>
			<polygon fill="#3FDBB1" points="154.7,146.2 154.6,145.8 154.4,146.2 154,146.2 154.4,146.4 154.2,146.9 154.6,146.7 154.9,147 
				154.8,146.4 155.2,146.2 			"/>
			<path fill="#3FDBB1" d="M164.3,143.1c-0.1,0.2-0.8,1.2-1.4,2.1l-0.3-0.3c0.7-0.9,1.2-1.3,1.6-1.8L164.3,143.1z"/>
			<polygon fill="#3FDBB1" points="164,142.7 163.9,142.1 164.3,142.5 164.8,142.2 164.6,142.7 165.1,143.3 164.4,143.2 
				164.3,143.8 164.1,143.2 163.4,143.1 			"/>
			<path fill="#3FDBB1" d="M165.5,144.7c-0.1,0.1-0.9,1-1.5,1.6l-0.2-0.3C164.4,145.4,164.9,145,165.5,144.7L165.5,144.7z"/>
			<polygon fill="#3FDBB1" points="165.3,144.5 165.3,143.8 165.6,144.3 166.1,144.2 165.8,144.6 166.1,145 165.7,144.8 
				165.4,145.4 165.3,144.7 164.7,144.6 			"/>
			<path fill="#3FDBB1" d="M166.3,146.4c-0.1,0.1-0.9,0.4-1.5,0.8l-0.1-0.2c0.7-0.3,1.2-0.4,1.6-0.7V146.4z"/>
			<polygon fill="#3FDBB1" points="166.3,146.2 166.4,145.8 166.5,146.2 167,146.2 166.6,146.4 166.7,146.9 166.4,146.7 166,147 
				166.1,146.4 165.8,146.2 			"/>
			<rect x="156.6" y="208" fill="#FFFFFF" width="2.3" height="1.8"/>
			<rect x="162" y="208" fill="#FFFFFF" width="2.2" height="1.8"/>
			<rect x="162" y="212.3" fill="#FFFFFF" width="2.2" height="1.8"/>
			<rect x="156.6" y="212.3" fill="#FFFFFF" width="2.2" height="1.8"/>
			<rect x="159.2" y="210" fill="#FFFFFF" width="2.3" height="2"/>
			<rect x="159.2" y="214.4" fill="#FFFFFF" width="2.3" height="2"/>
			<path fill="#FFFFFF" d="M167.1,208.7c-0.5,0-0.7,0.5-0.2,1h0.4c-0.3-0.5,0-0.8,0.5-0.7c0.3,0,0.8,0.3,1,0.5
				c0.7,0.9,0.9,1.7,0.5,2.8c-0.4,1.1-1.2,2.2-2.6,3.4c-0.5,0.4-3.6,2.5-5.5,3.6v0.7c0.8-0.7,4-2.5,6.1-4.3c1.2-1,2-2.2,2.4-3.2
				c0.2-0.8,0.2-1.8,0-2.4C169.6,210,169,208.5,167.1,208.7z"/>
			<path fill="#FFFFFF" d="M163.8,219.2c0,0.1,0,0.4,0,0.8c0.5,0.1,2-0.1,2.2,0c0-0.3,0-1.6,0-2.2
				C165.2,218.5,164.9,218.5,163.8,219.2z"/>
			<path fill="#FFFFFF" d="M185.7,202.2v1.5c-0.3,0-0.3-0.1-0.5-0.1c0-0.4,0.1-1.3,0.1-1.6L185.7,202.2z"/>
			<path fill="#FFFFFF" d="M160.8,202.1c-0.1,0.3,0.4,0.5,0.7,0.5v0.2h-0.7v1.4c0.7-0.7,2.1,1.7,2.5-0.1h0.4
				c0.5,1.3,1.6,1.5,2.6-0.3l1.8-0.1c-0.7,0.1-2.1,1.8-2.8,2.8c-1.2-0.5-2.7-1.4-4.5-1.4s-4.3,1.2-4.9,1.5c-0.3-1.1-1.3-2.6-2.7-2.9
				h1.7c0.5,1,2,1.8,2.5,0.4h0.4c0.1,1.6,1.8-0.4,2.3,0.1l-0.1-1.4l-0.8,0.1v-0.4c0.2,0,0.8,0,0.8-0.4c-0.1-0.4,0.2-0.4,0.2-1.2h0.5
				C160.7,201.8,160.9,201.7,160.8,202.1z"/>
			<path fill="#FFFFFF" d="M161.4,200.5c0,0-0.1,1.1,0.4,1.3c-0.5,0.8,0.8,0.7,0.8,1.3h0.8c0-0.8,0-2.1,0-2.6H161.4z"/>
			<path fill="#FFFFFF" d="M161.8,203.3v0.7c0.4,0,1.1,0.8,1.2,0.1v-0.8L161.8,203.3L161.8,203.3z"/>
			<path fill="#FFFFFF" d="M162,216.8h2.2v0.4c-0.7,0.5-1.4,1.1-2.2,1.5V216.8z"/>
			<path fill="#FFFFFF" d="M158.9,216.8h-2.2v0.4c0.8,0.5,1.4,1.1,2.2,1.5V216.8z"/>
			<path fill="#FFFFFF" d="M154,210.2c0.3-0.3,1.2-0.7,2.2-0.2c-2.5,0.3-2.2,1.7,0,2c-0.7,0.3-1.5,0.3-2.2,0
				C153.5,211.7,153.3,210.8,154,210.2z"/>
			<rect x="154.1" y="207.5" fill="#FFFFFF" width="2" height="0.4"/>
			<rect x="162.1" y="206.2" fill="#FFFFFF" width="2" height="0.5"/>
			<rect x="156.8" y="206.2" fill="#FFFFFF" width="1.8" height="0.5"/>
			<path fill="#FFFFFF" d="M167,210.2c-0.3-0.3-1.2-0.7-2.2-0.2c2.4,0.3,2.2,1.7,0,2c0.7,0.3,1.5,0.3,2.1,0
				C167.4,211.7,167.7,210.8,167,210.2z"/>
			<path fill="#FFFFFF" d="M154.7,214.6c0.2-0.2,0.9-0.4,1.5-0.1c-1.6,0.3-1.5,1.4,0,1.5c-0.5,0.2-1,0.3-1.4,0
				C154.4,215.8,154.3,215.1,154.7,214.6z"/>
			<path fill="#FFFFFF" d="M152.6,213.6c-0.2-0.2-0.3-1,0-1.6c0.1,1.7,1.1,1.7,1.4,0.1c0.2,0.5,0.2,1.1-0.1,1.5
				C153.5,213.9,152.9,214.2,152.6,213.6z"/>
			<path fill="#FFFFFF" d="M166.4,214.6c-0.2-0.2-0.8-0.4-1.4-0.1c1.6,0.3,1.4,1.4-0.1,1.5c0.5,0.2,1,0.3,1.5,0
				C166.7,215.8,166.9,215.1,166.4,214.6z"/>
			<path fill="#FFFFFF" d="M168.5,213.6c0.2-0.2,0.4-1,0-1.6c-0.1,1.7-1.1,1.7-1.4,0.1c-0.1,0.5-0.1,1.1,0.2,1.5
				C167.6,213.9,168.2,214.2,168.5,213.6z"/>
			<path fill="#FFFFFF" d="M159.9,206.8c-0.2,0.1-0.4,0.9-0.2,1.5c0.3-1.7,1.3-1.5,1.4,0c0.2-0.4,0.3-1.1,0-1.5
				C160.9,206.4,160.4,206.2,159.9,206.8z"/>
			<path fill="#FFFFFF" d="M177.6,185.8c-0.3-0.1,0,0-0.7-0.1v-1.5l0.7,0.1V185.8z"/>
			<rect x="156.6" y="210" fill="#35C49B" width="2.3" height="2.1"/>
			<rect x="156.6" y="214.4" fill="#35C49B" width="2.3" height="2.1"/>
			<rect x="159.3" y="212.2" fill="#35C49B" width="2.3" height="2.1"/>
			<rect x="159.3" y="216.9" fill="#35C49B" width="2.3" height="2.2"/>
			<rect x="162" y="210" fill="#35C49B" width="2.3" height="2.1"/>
			<rect x="162" y="214.4" fill="#35C49B" width="2.3" height="2.1"/>
			<polygon fill="#3FDBB1" points="166.9,153.1 167,153.3 166.7,153.2 166.6,153 			"/>
			<polygon fill="#3FDBB1" points="165.8,153.9 165.6,153.9 165.7,153.6 165.9,153.6 			"/>
			<path fill="#3FDBB1" d="M200,150.4c0.5-0.1,0.7,0.7-0.2,0.7c-1.4,0-2.6-0.8-3.3-2.3c-0.3-1,0.1-1.7,0.2-0.9
				C197.1,149.6,199.3,150.6,200,150.4z"/>
			<path fill="#3FDBB1" d="M194.7,143.2c0.7-0.2,0.7,0.5-0.1,0.5c-1.5,0-2.7-0.8-3.3-2.2c-0.4-0.9,0-1.7,0.2-0.8
				C191.9,142.3,194.2,143.4,194.7,143.2z"/>
		</g>
		<g>
			<path fill="#3FDBB1" d="M48.1,300.8h-4.3L42,296h-7.9l-1.6,4.8h-4.2l7.8-21.2h4.2L48.1,300.8z M40.7,292.4l-2.7-7.8l-2.7,7.8
				H40.7z"/>
			<path fill="#3FDBB1" d="M50.3,300.8v-21.2h3.8v21.2H50.3z"/>
			<path fill="#3FDBB1" d="M70.6,290l-3.8,0.8c-0.1-0.8-0.4-1.4-0.9-1.8c-0.4-0.4-1-0.7-1.7-0.7c-1,0-1.7,0.3-2.3,1.1
				c-0.5,0.7-0.9,1.8-0.9,3.5c0,1.8,0.3,3.2,0.9,3.9s1.3,1.1,2.3,1.1c0.8,0,1.3-0.2,1.7-0.7c0.4-0.4,0.8-1.2,1-2.3l3.8,0.7
				c-0.4,1.8-1.2,3.3-2.3,4.1c-1.1,1-2.6,1.4-4.5,1.4c-2.1,0-3.8-0.7-5-2.2c-1.3-1.4-1.8-3.4-1.8-5.9s0.7-4.6,1.8-6
				c1.3-1.4,2.9-2.2,5.1-2.2c1.7,0,3.2,0.4,4.2,1.2C69.4,287.1,70.2,288.3,70.6,290z"/>
			<path fill="#3FDBB1" d="M76.4,290.1l-3.5-0.7c0.4-1.5,1.1-2.6,2.1-3.3c1-0.8,2.4-1.1,4.2-1.1c1.7,0,2.9,0.2,3.8,0.7
				c0.9,0.4,1.4,1,1.7,1.6c0.3,0.7,0.5,1.8,0.5,3.7v4.8c0,1.3,0.1,2.3,0.2,2.9c0.1,0.7,0.3,1.3,0.7,2.1h-3.8
				c-0.1-0.3-0.2-0.7-0.3-1.2c-0.1-0.2-0.1-0.4-0.1-0.4c-0.7,0.7-1.3,1.2-2.1,1.5c-0.8,0.3-1.5,0.5-2.4,0.5c-1.5,0-2.7-0.4-3.5-1.3
				c-0.9-0.9-1.3-2-1.3-3.3c0-0.9,0.2-1.6,0.5-2.3c0.4-0.7,1-1.2,1.6-1.5c0.7-0.3,1.7-0.7,3-1c1.7-0.3,3-0.7,3.7-1v-0.4
				c0-0.8-0.2-1.3-0.5-1.6c-0.3-0.3-1.1-0.5-2.1-0.5c-0.7,0-1.2,0.1-1.6,0.4C76.9,288.9,76.6,289.4,76.4,290.1z M81.5,293.4
				c-0.5,0.2-1.3,0.3-2.3,0.7c-1.1,0.2-1.7,0.4-2.1,0.7c-0.5,0.3-0.8,0.9-0.8,1.4s0.2,1.1,0.5,1.5c0.4,0.4,0.9,0.7,1.5,0.7
				s1.3-0.2,2-0.8c0.4-0.3,0.8-0.9,0.9-1.3c0.1-0.3,0.1-1,0.1-2L81.5,293.4L81.5,293.4z"/>
			<path fill="#3FDBB1" d="M89,300.8v-21.2h3.8v21.2H89z"/>
			<path fill="#3FDBB1" d="M110.1,300.8h-3.6v-2.3c-0.5,0.9-1.3,1.5-2.1,2c-0.8,0.4-1.6,0.7-2.4,0.7c-1.6,0-3-0.8-4.2-2.2
				c-1.2-1.4-1.7-3.4-1.7-6s0.5-4.6,1.7-6c1.2-1.4,2.6-2.1,4.3-2.1c1.6,0,3,0.8,4.2,2.2v-7.6h3.8L110.1,300.8L110.1,300.8z
				 M99.8,292.8c0,1.6,0.2,2.8,0.7,3.6c0.7,1.1,1.5,1.6,2.6,1.6c0.9,0,1.6-0.4,2.3-1.2s1-2,1-3.6c0-1.7-0.3-3-0.9-3.8
				c-0.7-0.8-1.4-1.2-2.3-1.2s-1.6,0.4-2.3,1.2C100.2,290.1,99.8,291.2,99.8,292.8z"/>
			<path fill="#3FDBB1" d="M113.5,283.6l1.8-4.3h4.2l-3.8,4.3H113.5z M113.7,300.8v-15.3h3.8v15.3H113.7z"/>
			<path fill="#3FDBB1" d="M124.4,290.1l-3.5-0.7c0.4-1.5,1.1-2.6,2.1-3.3c1-0.8,2.4-1.1,4.2-1.1c1.7,0,2.9,0.2,3.8,0.7
				c0.9,0.4,1.4,1,1.7,1.6s0.5,1.8,0.5,3.7v4.8c0,1.3,0.1,2.3,0.2,2.9s0.3,1.3,0.7,2.1h-3.8c-0.1-0.3-0.2-0.7-0.3-1.2
				c-0.1-0.2-0.1-0.4-0.1-0.4c-0.7,0.7-1.3,1.2-2.1,1.5c-0.8,0.3-1.5,0.5-2.4,0.5c-1.5,0-2.6-0.4-3.5-1.3c-0.9-0.9-1.3-2-1.3-3.3
				c0-0.9,0.2-1.6,0.5-2.3c0.4-0.7,1-1.2,1.6-1.5c0.7-0.3,1.7-0.7,3-1c1.7-0.3,3-0.7,3.7-1v-0.4c0-0.8-0.2-1.3-0.5-1.6
				c-0.3-0.3-1.1-0.5-2.1-0.5c-0.7,0-1.2,0.1-1.6,0.4C124.9,288.9,124.6,289.4,124.4,290.1z M129.5,293.4c-0.4,0.2-1.3,0.3-2.3,0.7
				c-1.1,0.2-1.7,0.4-2.1,0.7c-0.5,0.3-0.8,0.9-0.8,1.4s0.2,1.1,0.7,1.5c0.4,0.4,0.9,0.7,1.5,0.7c0.7,0,1.3-0.2,2-0.8
				c0.4-0.3,0.8-0.9,0.9-1.3c0.1-0.3,0.1-1,0.1-2L129.5,293.4L129.5,293.4z"/>
			<path fill="#3FDBB1" d="M158.1,300.8h-3.6v-2.3c-0.5,0.9-1.3,1.5-2.1,2c-0.8,0.4-1.6,0.7-2.4,0.7c-1.6,0-3-0.8-4.2-2.2
				c-1.2-1.4-1.7-3.4-1.7-6s0.5-4.6,1.7-6s2.6-2.1,4.3-2.1c1.6,0,3,0.8,4.2,2.2v-7.6h3.8v21.3H158.1z M147.9,292.8
				c0,1.6,0.2,2.8,0.7,3.6c0.7,1.1,1.5,1.6,2.6,1.6c0.9,0,1.6-0.4,2.3-1.2s1-2,1-3.6c0-1.7-0.3-3-0.9-3.8c-0.7-0.8-1.4-1.2-2.3-1.2
				s-1.6,0.4-2.3,1.2C148.2,290.1,147.9,291.2,147.9,292.8z"/>
			<path fill="#3FDBB1" d="M170.2,295.9l3.8,0.7c-0.4,1.5-1.3,2.6-2.3,3.4c-1.1,0.8-2.4,1.2-4,1.2c-2.5,0-4.3-0.9-5.5-2.6
				c-1-1.4-1.4-3.2-1.4-5.3c0-2.5,0.7-4.6,1.8-6c1.3-1.4,2.8-2.2,4.8-2.2c2.2,0,3.8,0.8,5.1,2.3c1.2,1.5,1.8,3.8,1.7,7h-9.6
				c0,1.2,0.3,2.2,1,2.8c0.5,0.7,1.3,1,2.2,1c0.7,0,1.1-0.2,1.5-0.5C169.7,297.3,170.1,296.7,170.2,295.9z M170.4,291.8
				c0-1.2-0.3-2.1-0.9-2.7c-0.5-0.7-1.2-0.9-2-0.9c-0.9,0-1.5,0.3-2.1,1c-0.5,0.7-0.8,1.5-0.8,2.6H170.4z"/>
			<path fill="#3FDBB1" d="M185.1,300.8v-21.2h6.1l3.6,14.5l3.6-14.5h6.1v21.2h-3.7v-16.7l-3.9,16.7h-3.9l-3.9-16.7v16.7H185.1z"/>
			<path fill="#3FDBB1" d="M216.7,295.9l3.8,0.7c-0.4,1.5-1.3,2.6-2.3,3.4c-1.1,0.8-2.4,1.2-4,1.2c-2.5,0-4.3-0.9-5.5-2.6
				c-1-1.4-1.4-3.2-1.4-5.3c0-2.5,0.7-4.6,1.8-6c1.3-1.4,2.8-2.2,4.8-2.2c2.2,0,3.8,0.8,5.1,2.3c1.2,1.5,1.8,3.8,1.7,7h-9.6
				c0,1.2,0.3,2.2,1,2.8c0.5,0.7,1.3,1,2.2,1c0.7,0,1.1-0.2,1.5-0.5C216.1,297.3,216.5,296.7,216.7,295.9z M216.9,291.8
				c0-1.2-0.3-2.1-0.9-2.7c-0.5-0.7-1.2-0.9-2-0.9c-0.9,0-1.5,0.3-2.1,1s-0.8,1.5-0.8,2.6H216.9z"/>
			<path fill="#3FDBB1" d="M237.1,300.8h-3.6v-2.3c-0.5,0.9-1.3,1.5-2.1,2c-0.8,0.4-1.6,0.7-2.4,0.7c-1.6,0-3-0.8-4.2-2.2
				c-1.2-1.4-1.7-3.4-1.7-6s0.5-4.6,1.7-6s2.6-2.1,4.3-2.1c1.6,0,3,0.8,4.2,2.2v-7.6h3.8v21.3H237.1z M226.9,292.8
				c0,1.6,0.2,2.8,0.7,3.6c0.7,1.1,1.5,1.6,2.6,1.6c0.9,0,1.6-0.4,2.3-1.2s0.9-2,0.9-3.6c0-1.7-0.3-3-0.9-3.8
				c-0.7-0.8-1.4-1.2-2.3-1.2s-1.6,0.4-2.3,1.2C227.2,290.1,226.9,291.2,226.9,292.8z"/>
			<path fill="#3FDBB1" d="M249.2,295.9l3.8,0.7c-0.5,1.5-1.3,2.6-2.3,3.4c-1.1,0.8-2.4,1.2-4,1.2c-2.5,0-4.3-0.9-5.5-2.6
				c-1-1.4-1.4-3.2-1.4-5.3c0-2.5,0.7-4.6,1.8-6c1.3-1.4,2.8-2.2,4.8-2.2c2.2,0,3.8,0.8,5.1,2.3c1.2,1.5,1.8,3.8,1.7,7h-9.6
				c0,1.2,0.3,2.2,1,2.8c0.5,0.7,1.3,1,2.2,1c0.7,0,1.1-0.2,1.5-0.5C248.8,297.3,249.1,296.7,249.2,295.9z M249.5,291.8
				c0-1.2-0.3-2.1-0.9-2.7c-0.5-0.7-1.2-0.9-2-0.9c-0.9,0-1.5,0.3-2.1,1s-0.8,1.5-0.8,2.6H249.5z"/>
			<path fill="#3FDBB1" d="M256.4,300.8v-21.2h3.8v21.2H256.4z"/>
			<path fill="#3FDBB1" d="M264.1,300.8v-21.2h3.8v21.2H264.1z"/>
			<path fill="#3FDBB1" d="M271.6,283.6l1.8-4.3h4.2l-3.7,4.3H271.6z M271.9,300.8v-15.3h3.8v15.3H271.9z"/>
			<path fill="#3FDBB1" d="M292.8,300.8H289V293c0-1.6-0.1-2.7-0.2-3.3c-0.2-0.4-0.4-0.9-0.8-1.1c-0.3-0.3-0.8-0.4-1.3-0.4
				c-0.7,0-1.3,0.2-1.7,0.5c-0.5,0.4-0.9,0.9-1.1,1.5c-0.2,0.7-0.3,1.8-0.3,3.6v7h-3.8v-15.3h3.6v2.3c1.3-1.7,2.8-2.6,4.8-2.6
				c0.9,0,1.6,0.2,2.3,0.4c0.7,0.3,1.2,0.8,1.6,1.2c0.3,0.5,0.7,1.1,0.8,1.7c0.1,0.7,0.2,1.5,0.2,2.7v9.6L292.8,300.8L292.8,300.8z"
				/>
		</g>
	</g>
</g>
</svg>
