<?xml version="1.0" encoding="utf-8"?>
<!-- Generator: Adobe Illustrator 21.0.2, SVG Export Plug-In . SVG Version: 6.00 Build 0)  -->
<svg version="1.1" id="Capa_1" xmlns="http://www.w3.org/2000/svg" xmlns:xlink="http://www.w3.org/1999/xlink" x="0px" y="0px"
	 viewBox="0 0 316 316" enable-background="new 0 0 316 316" xml:space="preserve">
<g>
	<polygon fill="#3FDBB1" points="4.4,295.9 38.5,229.7 72.5,295.9 50.8,295.9 38.5,273.1 26.4,295.9 	"/>
	<polygon fill="#3FDBB1" points="48.6,245.6 48.5,229.7 89.8,229.7 89.8,244.7 65.1,244.7 65.3,256.9 89.8,256.9 89.8,270.7 
		65.7,270.7 65.9,277.1 	"/>
	<polygon fill="#3FDBB1" points="68.4,283.3 75.5,296.7 89.8,296.7 89.8,283.3 	"/>
</g>
<g>
	<path fill="#3FDBB1" d="M117.9,257.4l-3.3-8.5h-10.8l-3.3,8.5h-3.1l10.6-26.9h2.6l10.5,26.9H117.9z M113.6,246l-3.1-8.3
		c-0.4-1-0.9-2.4-1.2-3.9c-0.3,1.1-0.7,2.5-1.1,3.9L105,246H113.6z"/>
	<path fill="#3FDBB1" d="M138.1,257.4v-13c0-1.6-0.4-2.9-1.1-3.6c-0.8-0.8-1.9-1.2-3.5-1.2c-2.1,0-3.6,0.6-4.6,1.7
		c-1,1.1-1.4,3-1.4,5.6v10.5h-3v-20h2.5l0.5,2.8h0.2c0.7-1,1.5-1.7,2.6-2.3c1.1-0.6,2.4-0.9,3.7-0.9c2.4,0,4.2,0.6,5.4,1.7
		c1.2,1.1,1.8,3,1.8,5.6v13H138.1z"/>
	<path fill="#3FDBB1" d="M161,254.7h-0.2c-1.4,2-3.5,3-6.3,3c-2.7,0-4.7-0.9-6.1-2.7c-1.4-1.8-2.2-4.4-2.2-7.6
		c0-3.3,0.8-5.9,2.2-7.7s3.5-2.8,6.1-2.8c2.8,0,4.8,1,6.3,3h0.2l-0.1-1.4l-0.1-1.4v-8.2h3v28.5h-2.5L161,254.7z M155,255.2
		c2.1,0,3.6-0.6,4.5-1.7c1-1.1,1.4-3,1.4-5.4v-0.7c0-2.9-0.5-4.9-1.4-6.1c-1-1.2-2.5-1.8-4.6-1.8c-1.8,0-3.1,0.7-4.1,2.1
		c-1,1.4-1.4,3.3-1.4,5.9s0.5,4.5,1.4,5.8C151.7,254.6,153.1,255.2,155,255.2z"/>
	<path fill="#3FDBB1" d="M182.7,257.4l-0.6-2.9h-0.2c-1,1.2-2,2.1-3,2.6c-1,0.5-2.2,0.7-3.7,0.7c-2,0-3.5-0.5-4.7-1.5
		c-1.1-1-1.7-2.5-1.7-4.4c0-4,3.2-6.2,9.7-6.4l3.4-0.1v-1.2c0-1.6-0.4-2.8-1-3.5c-0.7-0.8-1.7-1.1-3.2-1.1c-1.7,0-3.5,0.5-5.7,1.5
		l-1-2.3c1-0.6,2.1-1,3.2-1.2c1.1-0.3,2.4-0.5,3.5-0.5c2.4,0,4.2,0.6,5.3,1.6c1.1,1,1.7,2.8,1.7,5.1v13.7L182.7,257.4L182.7,257.4z
		 M175.8,255.3c1.9,0,3.3-0.5,4.5-1.5c1-1,1.6-2.5,1.6-4.4v-1.8l-3,0.1c-2.4,0.1-4.2,0.5-5.2,1.1c-1,0.7-1.6,1.7-1.6,3.1
		c0,1.1,0.3,1.9,1,2.5C173.6,255,174.6,255.3,175.8,255.3z"/>
	<path fill="#3FDBB1" d="M216.7,257.4v-13c0-1.6-0.4-2.8-1-3.6c-0.7-0.8-1.7-1.2-3.1-1.2c-1.9,0-3.2,0.6-4.2,1.6
		c-0.9,1-1.3,2.8-1.3,5v11.2h-3v-13c0-1.6-0.4-2.8-1-3.6c-0.7-0.8-1.7-1.2-3.2-1.2c-1.9,0-3.3,0.6-4.2,1.7c-0.9,1.1-1.3,3-1.3,5.6
		v10.5h-3v-20h2.5l0.5,2.8h0.2c0.6-1,1.3-1.7,2.4-2.3c1-0.6,2.2-0.9,3.5-0.9c3.1,0,5.1,1.1,6.2,3.4h0.2c0.6-1,1.4-1.9,2.6-2.5
		c1.1-0.6,2.4-1,3.9-1c2.3,0,4,0.6,5,1.7c1.1,1.1,1.7,3,1.7,5.6v13L216.7,257.4L216.7,257.4L216.7,257.4z"/>
	<path fill="#3FDBB1" d="M225.7,231.9c0-0.7,0.2-1.2,0.5-1.5c0.4-0.3,0.8-0.5,1.2-0.5s1,0.2,1.2,0.5c0.4,0.3,0.6,0.9,0.6,1.5
		c0,0.7-0.2,1.2-0.6,1.5c-0.4,0.4-0.8,0.5-1.2,0.5s-1-0.2-1.2-0.5C225.9,233.1,225.7,232.6,225.7,231.9z M229,257.4h-3v-20h3V257.4z
		"/>
	<path fill="#3FDBB1" d="M252.7,247.4c0,3.2-0.9,5.8-2.5,7.6s-3.9,2.8-6.9,2.8c-1.8,0-3.4-0.4-4.8-1.2c-1.4-0.9-2.5-2.1-3.2-3.6
		c-0.8-1.5-1.1-3.4-1.1-5.5c0-3.2,0.9-5.8,2.5-7.6c1.6-1.8,3.9-2.8,6.8-2.8c2.8,0,5,1,6.7,2.8S252.7,244.1,252.7,247.4z
		 M237.5,247.4c0,2.6,0.5,4.5,1.5,5.8s2.6,2,4.5,2s3.5-0.7,4.6-2c1-1.3,1.5-3.3,1.5-5.9c0-2.6-0.5-4.5-1.5-5.8c-1-1.3-2.6-2-4.6-2
		c-2,0-3.5,0.7-4.5,2C238,242.8,237.5,244.8,237.5,247.4z"/>
	<path fill="#3FDBB1" d="M271,251.9c0,1.9-0.7,3.3-2.1,4.3c-1.4,1-3.3,1.5-5.8,1.5c-2.7,0-4.8-0.4-6.2-1.2v-2.9c1,0.5,2,0.9,3.1,1.1
		c1.1,0.3,2.2,0.4,3.2,0.4c1.6,0,2.8-0.3,3.6-0.8c0.9-0.5,1.2-1.2,1.2-2.3c0-0.8-0.4-1.4-1-2c-0.7-0.6-2-1.2-4-2
		c-1.9-0.7-3.2-1.3-4-1.8c-0.8-0.5-1.3-1.1-1.7-1.8c-0.4-0.7-0.6-1.4-0.6-2.4c0-1.6,0.7-3,2-3.9c1.3-1,3.1-1.4,5.4-1.4
		c2.2,0,4.3,0.5,6.3,1.3l-1,2.5c-2-0.9-3.8-1.2-5.4-1.2c-1.4,0-2.6,0.2-3.2,0.7c-0.8,0.5-1.1,1-1.1,1.9c0,0.6,0.1,1,0.4,1.3
		c0.3,0.4,0.8,0.8,1.3,1c0.6,0.4,1.8,0.9,3.5,1.5c2.4,0.9,4,1.7,4.9,2.6C270.6,249.5,271,250.6,271,251.9z"/>
	<path fill="#3FDBB1" d="M310.6,257.4h-6.9l-2.1-2.1c-2.3,1.6-5,2.5-7.9,2.5c-3,0-5.3-0.7-7-2.1c-1.7-1.4-2.6-3.2-2.6-5.5
		c0-1.7,0.4-3,1.1-4.3c0.8-1.1,2-2.3,3.8-3.3c-1-1-1.6-2.1-2-3c-0.4-1-0.7-2-0.7-3.1c0-1.8,0.7-3.3,2.1-4.5c1.4-1.1,3.3-1.7,5.7-1.7
		c2.3,0,4.1,0.6,5.4,1.6c1.3,1,2,2.5,2,4.2c0,1.4-0.4,2.8-1.2,4c-0.9,1.2-2.2,2.4-4.1,3.4l5.2,5c0.9-1.4,1.6-3.2,2.3-5.5h5.8
		c-0.5,1.6-1,3.2-1.8,4.9c-0.8,1.5-1.6,3-2.6,4.2L310.6,257.4z M289.8,249.7c0,1,0.4,1.9,1.1,2.5c0.8,0.7,1.8,1,3,1
		c1.5,0,3-0.4,4.2-1.1l-6.1-6c-0.7,0.6-1.2,1.1-1.7,1.7C290,248.2,289.8,248.9,289.8,249.7z M296.4,236.7c0-0.7-0.2-1.1-0.7-1.5
		c-0.5-0.4-1-0.6-1.7-0.6c-0.9,0-1.4,0.2-1.9,0.6c-0.5,0.4-0.7,1-0.7,1.6c0,1,0.6,2.3,1.7,3.5c1-0.6,1.8-1.1,2.4-1.7
		C296.1,238,296.4,237.4,296.4,236.7z"/>
	<path fill="#3FDBB1" d="M117,296.3h-16v-27.8h16v4.9h-10.1v6.1h9.4v4.9h-9.4v7.1H117V296.3z"/>
	<path fill="#3FDBB1" d="M141.9,296.3h-5.8v-12.4c0-1.5-0.3-2.7-0.9-3.4c-0.6-0.8-1.4-1.1-2.6-1.1c-1.6,0-2.8,0.6-3.5,1.6
		c-0.8,1-1,2.9-1,5.4v9.9h-5.8v-21.2h4.4l0.8,2.8h0.3c0.7-1,1.5-1.8,2.7-2.3c1.1-0.6,2.4-0.8,3.9-0.8c2.5,0,4.4,0.7,5.6,2
		c1.2,1.3,1.9,3.2,1.9,5.8L141.9,296.3L141.9,296.3z"/>
	<path fill="#3FDBB1" d="M156.5,296.7c-6.6,0-9.9-3.6-9.9-10.9c0-3.6,0.9-6.4,2.7-8.3c1.8-1.9,4.4-2.9,7.7-2.9
		c2.5,0,4.7,0.5,6.6,1.4l-1.7,4.5c-1-0.4-1.7-0.7-2.6-0.9c-0.8-0.2-1.5-0.4-2.4-0.4c-3,0-4.5,2.1-4.5,6.4c0,4.2,1.5,6.2,4.5,6.2
		c1.1,0,2.2-0.2,3.1-0.5c1-0.3,1.9-0.8,2.9-1.4v5c-1,0.6-1.9,1-2.9,1.2C159.1,296.5,157.9,296.7,156.5,296.7z"/>
	<path fill="#3FDBB1" d="M187.1,285.7c0,3.4-1,6.2-2.8,8.1c-1.8,1.9-4.4,3-7.6,3c-2,0-3.8-0.5-5.4-1.3c-1.5-0.9-2.8-2.2-3.6-3.8
		c-0.9-1.7-1.2-3.6-1.2-5.8c0-3.4,1-6.2,2.8-8.1c1.8-1.9,4.4-2.9,7.6-2.9c2,0,3.8,0.5,5.4,1.3c1.5,0.9,2.8,2.2,3.6,3.8
		C186.8,281.5,187.1,283.4,187.1,285.7z M172.5,285.7c0,2.1,0.4,3.7,1,4.8c0.7,1,1.8,1.6,3.3,1.6s2.7-0.6,3.3-1.6c0.7-1,1-2.7,1-4.8
		c0-2.1-0.4-3.7-1-4.8s-1.8-1.6-3.3-1.6s-2.7,0.5-3.3,1.5C172.8,281.9,172.5,283.5,172.5,285.7z"/>
	<path fill="#3FDBB1" d="M203.6,279.4h-5v17h-5.8v-16.9h-3.2v-2.8l3.2-1.5v-1.7c0-2.4,0.6-4.2,1.8-5.3c1.1-1.1,3.1-1.7,5.7-1.7
		c2,0,3.8,0.3,5.3,0.9l-1.5,4.3c-1.1-0.4-2.3-0.6-3.2-0.6c-0.9,0-1.4,0.3-1.8,0.8c-0.4,0.5-0.6,1.1-0.6,1.9v1.3h5L203.6,279.4
		L203.6,279.4L203.6,279.4z"/>
	<path fill="#3FDBB1" d="M218.8,274.6c0.8,0,1.4,0.1,2,0.2l-0.5,5.4c-0.5-0.1-1-0.2-1.7-0.2c-1.8,0-3.3,0.5-4.3,1.4
		c-1,1-1.5,2.3-1.5,4v10.9H207v-21.2h4.4l0.9,3.5h0.3c0.7-1.1,1.5-2.2,2.7-2.9C216.3,275,217.5,274.6,218.8,274.6z"/>
	<path fill="#3FDBB1" d="M238.1,296.3l-1.1-2.9h-0.2c-1,1.2-2,2.1-3,2.6c-1,0.5-2.4,0.7-4,0.7c-2,0-3.6-0.6-4.9-1.7
		c-1.1-1.1-1.7-2.9-1.7-5c0-2.3,0.8-3.9,2.4-5s4-1.6,7.1-1.8l3.7-0.1v-1c0-2.2-1.1-3.2-3.3-3.2c-1.7,0-3.7,0.5-6,1.5l-1.9-3.9
		c2.5-1.2,5.1-1.9,8.1-1.9c2.9,0,5,0.7,6.6,1.9c1.5,1.2,2.3,3.1,2.3,5.6v14.1H238.1z M236.4,286.4l-2.3,0.1c-1.7,0.1-3,0.4-3.7,1
		c-0.8,0.6-1.2,1.4-1.2,2.6c0,1.6,1,2.5,2.9,2.5c1.3,0,2.4-0.4,3.2-1.1c0.8-0.8,1.2-1.8,1.2-3L236.4,286.4L236.4,286.4z"/>
	<path fill="#3FDBB1" d="M254.8,296.7c-2.5,0-4.5-1-5.9-3c-1.4-1.9-2.1-4.7-2.1-8.1c0-3.5,0.8-6.2,2.2-8.1c1.4-1.9,3.4-3,6-3
		c2.7,0,4.7,1,6.1,3.1h0.2c-0.3-1.6-0.5-3-0.5-4.2v-6.8h5.8v29.5h-4.5l-1.1-2.8h-0.2C259.5,295.7,257.5,296.7,254.8,296.7z
		 M256.8,292c1.5,0,2.6-0.5,3.2-1.3c0.7-0.9,1-2.3,1.1-4.4v-0.7c0-2.3-0.4-3.9-1-4.9c-0.7-1-1.8-1.5-3.4-1.5c-1.3,0-2.3,0.6-3,1.6
		c-0.8,1.1-1,2.7-1,4.8c0,2.1,0.4,3.6,1,4.7C254.5,291.6,255.5,292,256.8,292z"/>
	<path fill="#3FDBB1" d="M292.1,285.7c0,3.4-1,6.2-2.8,8.1c-1.8,1.9-4.4,3-7.6,3c-2,0-3.8-0.5-5.4-1.3c-1.5-0.9-2.8-2.2-3.6-3.8
		c-0.9-1.7-1.2-3.6-1.2-5.8c0-3.4,1-6.2,2.8-8.1c1.8-1.9,4.4-2.9,7.6-2.9c2,0,3.8,0.5,5.4,1.3c1.5,0.9,2.8,2.2,3.6,3.8
		S292.1,283.4,292.1,285.7z M277.3,285.7c0,2.1,0.4,3.7,1,4.8c0.7,1,1.8,1.6,3.3,1.6c1.5,0,2.7-0.6,3.3-1.6c0.7-1,1-2.7,1-4.8
		c0-2.1-0.4-3.7-1-4.8c-0.7-1-1.8-1.6-3.3-1.6c-1.5,0-2.7,0.5-3.3,1.5C277.7,281.9,277.3,283.5,277.3,285.7z"/>
	<path fill="#3FDBB1" d="M311.6,289.9c0,2.2-0.8,3.8-2.3,5c-1.5,1.1-3.8,1.7-6.8,1.7c-1.5,0-2.9-0.1-3.9-0.3c-1-0.2-2.1-0.5-3-1
		v-4.8c1,0.5,2.3,1,3.6,1.2c1.3,0.4,2.6,0.5,3.5,0.5c2.1,0,3.1-0.6,3.1-1.8c0-0.5-0.1-0.9-0.4-1.1c-0.3-0.3-0.8-0.6-1.4-1
		s-1.6-0.8-2.8-1.2c-1.6-0.7-2.9-1.3-3.6-1.9c-0.8-0.6-1.3-1.2-1.7-2c-0.4-0.8-0.5-1.7-0.5-2.8c0-1.9,0.8-3.3,2.2-4.4
		c1.4-1,3.5-1.5,6.2-1.5c2.6,0,5,0.6,7.4,1.7l-1.7,4.2c-1-0.5-2.1-0.9-3-1.1c-1-0.3-1.9-0.5-2.9-0.5c-1.7,0-2.6,0.5-2.6,1.4
		c0,0.5,0.3,1,0.9,1.3s1.7,1,3.6,1.7c1.6,0.7,2.9,1.3,3.6,1.9s1.3,1.2,1.7,2C311.4,288,311.6,288.9,311.6,289.9z"/>
</g>
</svg>
