<?xml version="1.0" encoding="utf-8"?>
<!-- Generator: Adobe Illustrator 21.0.2, SVG Export Plug-In . SVG Version: 6.00 Build 0)  -->
<svg version="1.1" id="Capa_1" xmlns="http://www.w3.org/2000/svg" xmlns:xlink="http://www.w3.org/1999/xlink" x="0px" y="0px"
	 viewBox="0 0 316 316" enable-background="new 0 0 316 316" xml:space="preserve">
<g>
	<path fill="#3FDBB1" d="M148.8,242.5c-1.7-0.3-2.7-1.4-3.5-2.8c-1.6-3-3.4-5.9-5.1-8.9c-0.1-0.4,0.1-0.6,0.3-0.9
		c3.4-5.2,6.8-10.4,10.1-15.6c1.3-2.1,2.6-4.1,4-6.1c1.1-1.7,2.3-3.4,3.3-5.1c0.2-0.3,0.3-0.6,0.7-0.8c0.5,0,0.8,0.3,1.2,0.5
		c3.1,2,6.1,4,9.2,6c2.3,1.5,4.5,3,6.8,4.4c2.1,1.4,4.2,2.7,6.2,4.1c1.5,0.9,3,2,4.5,2.9c0.2,0.1,0.5,0.3,0.5,0.6
		c-1.9,1.3-4,2.4-6,3.6c-4.8,2.8-9.7,5.7-14.5,8.5c-0.3,0.2-0.6,0.3-1.1,0.6c0.9-3.3,1.7-6.4,2.5-9.6c-1.8,1-3.4,2-5.1,3
		c-1.5,0.9-1.5,0.9-2-0.8c-1.2-4.3-2.5-8.5-3.8-12.8c-0.1-0.2-0.1-0.5-0.3-0.6c-0.2,8.1-0.5,16.2-0.7,24.4c0.8-0.2,1.4-0.7,2.1-1.1
		c1-0.5,1.9-1.1,2.9-1.7c0.5-0.3,0.7-0.4,0.8,0.3c0.2,0.8-0.1,1.2-0.8,1.6c-3.2,1.8-6.4,3.7-9.6,5.6c-0.6,0.4-1.2,0.5-1.8,0.8
		C149.4,242.5,149.1,242.5,148.8,242.5z"/>
	<path fill="#35C49B" d="M198,209.1c-1-1.7-2-3.5-3-5.2c-0.3-0.6-0.5-0.6-1-0.2c-3,2.4-5.7,4.9-8.6,7.4c-0.6,0.5-0.8,0.4-1.1-0.2
		c-0.3-0.6-0.7-1.1-1-1.7c-0.1-0.3-0.3-0.5-0.2-0.9c0.7-2.6,1.3-5.3,2-8l0,0c0.1-0.1,0.1-0.3,0.2-0.4c0.3-1.2,0.3-1.2-0.9-1.5
		c-2.4-0.6-4.9-1.3-7.4-1.9c-1-0.2-1.6-0.7-2.1-1.6c-0.9-1.7-0.9-1.7,0.9-2.4c3.2-1.1,6.4-2.2,9.6-3.4c0.5-0.2,0.7-0.3,0.4-0.9
		c-2.9-4.8-5.7-9.7-8.5-14.5c-0.7,1-1.3,2-2,2.9c-2,3.1-4.1,6.2-6.1,9.3c-0.3,0.2-0.5,0.5-0.7,0.8c-2.7,4.3-5.5,8.5-8.3,12.7
		c-0.6,0.8-1.3,1.6-1.5,2.7v0.1c0.4,0.3,0.8,0.5,1.3,0.8c3,1.9,6,3.9,9,5.8l0,0c2.2,1.5,4.5,2.9,6.7,4.4c2.1,1.3,4.2,2.7,6.2,4
		c1.7,1.1,3.4,2.3,5,3.4c0.3,0,0.6-0.2,0.9-0.4c2.9-1.7,5.8-3.4,8.7-5.1C199.1,213.8,199.6,211.6,198,209.1z"/>
	<path fill="#35C49B" d="M158.8,202.1c-0.3-0.4-0.7-0.6-1.1-0.8c-2.7-1.7-5.4-3.5-8-5.3c-1.9-1.2-3.8-2.5-5.7-3.7
		c-4.3-2.8-8.5-5.6-12.7-8.3c-0.3-0.2-0.5-0.4-0.9-0.3c-2.9,1.7-5.9,3.5-8.9,5.1c-1.5,0.8-2.6,1.8-2.9,3.5c0,0.2,0,0.5,0,0.7
		c0.2,1.2,0.9,2.2,1.5,3.2c0.7,1.3,0.7,1.3,1.8,0.2c0.2-0.2,0.4-0.4,0.6-0.5c1.2-0.9,2.6-1.2,4-0.5s2.2,1.8,2.1,3.5
		c0,0.3-0.2,0.7,0,1.1c1.9-1.3,3.7-2.6,5.6-3.9c1.2,2,2.4,4.1,3.6,6.1c0.2,0.3,0.2,0.5-0.2,0.6c-0.7,0.3-1.5,0.6-2.2,1
		c-1.7,0.8-3.4,1.5-5.2,2.3c0.3,0.6,0.6,1.1,0.9,1.5c0.3,0.4,0.4,0.9,1,1.1c3.8,1.8,7.6,3.6,11.4,5.4c-0.9,2.2-2.2,4.2-3.3,6.3
		c-0.3,0.5-0.5,0.1-0.7-0.1c-1.6-1.3-3.1-2.5-4.7-3.8c-1-0.8-1.9-1.6-3-2.4c0.1,1.5,0.4,2.7,1.1,3.9c2.6,4.3,5.1,8.6,7.6,12.9
		c2.7-4.2,5.5-8.5,8.2-12.7c2.1-3.3,4.3-6.5,6.4-9.8l0,0c1.3-2,2.6-3.9,3.9-5.9C158.8,202.3,158.8,202.2,158.8,202.1z"/>
	<path fill="#3FDBB1" d="M171.4,163.7c-1-1.7-3.3-2.2-5.2-1.1c-3,1.8-6,3.6-9,5.4c-0.6,0.4-1.2,0.8-1.6,1.4
		c-0.6,0.9-0.3,1.9,0.8,2.2c1.6,0.4,3.2,0.7,4.7,1.4c1.1,0.5,2,1.1,2.6,2.2c1.1,2.4,0.7,4.6-0.9,6.6c-1.8,2.2-4.1,3.5-6.6,4.6
		c-1.4,0.6-2.9,1-4.5,0.9c-2.3-0.1-5.2-2-4.7-5.3c0.3-2,0.9-3.9,1.3-5.8c0.2-0.9-0.2-1.5-1.1-1.5c-0.7,0-1.4,0.2-2,0.5
		c-1.7,0.8-3.3,1.8-4.9,2.7c-3.3,1.9-6.7,3.9-10,5.8c2.3,1.5,4.5,2.9,6.8,4.4c4.1,2.7,8.3,5.4,12.4,8.1l0,0l0,0c3,2.1,6.1,4,9.2,6
		c1.6-2.4,3.1-4.7,4.7-7.1c1.9-3,3.8-5.9,5.8-8.9l0,0c0.5-0.2,0.7-0.6,0.9-0.9c2.2-3.3,4.4-6.7,6.6-10c0.3-0.4,0.6-0.9,0.7-1.4
		C175.4,170.4,173.4,167,171.4,163.7z"/>
</g>
<g>
	<path fill="#3FDBB1" d="M120.4,294.1c0.4-2.1,0.7-4,1.1-5.9c1.4-6.5,2.8-13,4.2-19.5c0.1-0.6,0.3-1.3,0.4-1.9
		c0.3-0.9,0.8-1.3,1.7-1.2c1.8,0.2,3.7,0.5,5.5,0.7c0.7,0.1,1.1,0.4,0.9,1.2c-3.3,11.9-6.4,23.9-9.9,35.8c-0.6,1.9-1.3,3.8-2.6,5.4
		c-1.8,2.2-4.2,3.3-7,3.5c-3.1,0.2-6-0.4-8.7-1.8c-1.4-0.7-1.5-1-0.8-2.3c0.6-1.2,1.1-2.4,1.7-3.6c0.4-0.8,0.7-0.9,1.5-0.5
		c1.6,0.8,3.2,1.4,5.1,1.4c1.8,0,3.1-0.9,4-2.5c0.7-1.3,1-2.7,1.4-4c0.1-0.4,0-0.5-0.4-0.5c-0.7,0-1.4,0-2.1,0
		c-0.7,0-1.1-0.2-1.3-0.9c-1.9-5.5-3.7-11-5.6-16.6c-1.5-4.4-3-8.8-4.5-13.1c-0.4-1.1-0.2-1.4,1-1.6c2.1-0.2,4.2-0.4,6.3-0.7
		c1.1-0.1,1.2,0.6,1.4,1.3c1.3,4.7,2.5,9.4,3.8,14.1C118.6,285.2,119.5,289.5,120.4,294.1z"/>
	<path fill="#3FDBB1" d="M84.5,269.5c2-1.9,4.1-3.3,6.7-4c1.7-0.4,3.5-0.6,5.3-0.2c3.6,0.7,5.9,3.6,6.3,7.5c0.1,0.9,0.1,1.9,0.1,2.8
		c0,7.1,0,14.2,0,21.4c0,1.5,0,1.5-1.5,1.5c-1.9,0-3.8,0-5.8,0c-0.9,0-1.1-0.3-1.1-1.1c0-6.7,0-13.5,0-20.2c0-0.6-0.1-1.3-0.2-1.9
		c-0.3-2.3-2-3.5-4.3-3.1c-1.8,0.3-3.3,1.2-4.6,2.4c-0.3,0.3-0.2,0.6-0.2,1c0,7.2,0,14.5,0,21.7c0,1.3,0,1.3-1.3,1.3
		c-1.9,0-3.8,0-5.7,0c-1.4,0-1.4,0-1.4-1.4c0-3.9,0-7.9,0-11.8c0-3.4,0-6.8,0-10.2c0-2.2-0.3-4.4-1-6.5c-0.4-1-0.2-1.4,0.9-1.7
		c1.5-0.5,3.1-1,4.6-1.5c1.4-0.4,1.6-0.3,2.2,1C84,267.3,84.2,268.4,84.5,269.5z"/>
	<path fill="#3FDBB1" d="M138,276.1c0-6.8,0-13.7,0-20.5c0-1.6,0.2-1.9,1.8-1.9c1.8,0,3.6,0,5.4,0c1.4,0,1.7,0.2,1.7,1.6
		c0,11.4,0,22.8,0,34.2c0,0.8,0.2,1,1,1c4.9,0,9.8,0,14.6,0c1.2,0,1.5,0.3,1.2,1.5c-0.4,1.8-0.9,3.5-1.3,5.3c-0.2,0.7-0.6,1-1.3,1
		c-7.2,0-14.4,0-21.6,0c-1.1,0-1.4-0.3-1.4-1.6C138,289.9,138,283,138,276.1z"/>
	<path fill="#3FDBB1" d="M255,282.8c0,1.6,0.1,3.1,0.3,4.6c1,5.6,6.1,6.5,9.7,4.6c0.6-0.3,1.2-0.7,1.7-1.1c0.6-0.4,1-0.3,1.3,0.5
		c0.5,1.2,1,2.5,1.4,3.7c0.4,1.1,0.4,1.5-0.6,2.2c-1.1,0.8-2.4,1.3-3.8,1.6c-3.3,0.9-6.6,0.8-9.9-0.3c-4.1-1.4-6.8-4.2-8-8.3
		c-1.7-5.5-1.6-11,0.5-16.4c2.1-5.5,7-8.8,12.9-8.9c3-0.1,5.7,0.5,8.3,2c0.4,0.2,0.7,0.5,1.1,0.8c0.6,0.6,0.8,1.2,0.3,2
		c-0.7,1.1-1.3,2.4-2,3.5c-0.5,1-0.7,1-1.6,0.3c-0.7-0.5-1.4-1-2.2-1.4c-3.8-1.9-7.5-0.4-8.7,3.7c-0.2,0.6-0.3,1.2-0.4,1.8
		C255,279.6,254.9,281.2,255,282.8z"/>
	<path fill="#3FDBB1" d="M241.7,282.3c0,4.9,0,9.8,0,14.6c0,1.5,0,1.5-1.5,1.5c-1.9,0-3.8,0-5.7,0c-0.9,0-1.1-0.3-1.1-1.1
		c0-8,0-16.1,0-24.1c0-0.8-0.2-0.9-0.9-0.9c-1.3,0.1-2.7,0-4,0c-0.8,0-1.1-0.3-1.1-1c0-1.4,0-2.7,0-4.1c0-0.7,0.3-1,1-1
		c4.1,0,8.2,0,12.3,0c0.7,0,0.9,0.3,0.9,1C241.7,272.3,241.7,277.3,241.7,282.3z"/>
	<path fill="#3FDBB1" d="M242.9,256.6c0,2.9-2.4,5.4-5.3,5.4c-2.9,0-5.4-2.4-5.4-5.4s2.4-5.3,5.4-5.3
		C240.5,251.2,242.9,253.6,242.9,256.6z"/>
	<path fill="#3FDBB1" d="M224.9,267c-1.6-0.6-3.2-1.2-4.8-1.8c-0.7-0.3-1.3-0.1-1.8,0.5c-0.5,0.7-0.9,1.5-1.3,2.3
		c-0.6-0.4-1.1-0.9-1.7-1.3c-5.6-3.6-13.2-1.5-16.2,4.7c-2.9,6.1-2.9,12.5-1,18.8c1.9,6.2,7.2,8.9,13.4,7.3c1.5-0.4,2.9-1.1,4.4-2
		c0.2,2.2,0.3,4.2,0.1,6.3c-0.2,1.6-1.1,2.6-2.6,3.1c-0.7,0.2-1.4,0.3-2.2,0.3c-3.6,0.1-6.9-0.8-10.1-2.3c-1.1-0.5-1.4-0.3-1.7,0.8
		c-0.4,1.2-0.7,2.4-1.1,3.5c-0.5,1.6-0.4,1.9,1.1,2.5c4.8,1.8,9.7,2.7,14.8,2.2c6.2-0.7,9.9-4.7,9.8-10.9
		c-0.1-7.8-0.3-15.5-0.3-23.3c0-3.3,0.3-6.5,1.7-9.6C225.8,267.6,225.5,267.3,224.9,267z M215.4,289.8c-1.6,1.2-3.4,1.8-5.4,1.6
		c-1.9-0.2-3.1-1.3-3.8-3s-0.9-3.5-0.9-5.4c-0.1-2.2,0-4.4,0.6-6.6c1.5-5.6,6.8-5.3,9.9-2.7c0.3,0.3,0.3,0.6,0.3,0.9
		c0,2.3,0,4.7,0,7s0,4.6,0,6.9C216,289.1,215.8,289.5,215.4,289.8z"/>
	<path fill="#3FDBB1" d="M73.3,296.9c-1.1-3.8-2.3-7.6-3.4-11.3c-3.1-10.2-6.2-20.4-9.3-30.6c-0.3-0.9-0.7-1.2-1.6-1.2
		c-2.2,0.1-4.4,0.1-6.6,0c-0.9,0-1.3,0.3-1.6,1.2c-0.7,2.5-1.5,5.1-2.3,7.6c-3.5,11.4-7,22.8-10.5,34.2c-0.4,1.4-0.2,1.7,1.3,1.7
		c2.1,0,4.2,0,6.3,0c0.9,0,1.3-0.3,1.5-1.1c0.8-3.4,1.7-6.8,2.6-10.2c0.1-0.5,0.3-0.6,0.8-0.6c1.7,0,3.3,0,5,0c1.3,0,2.6,0,3.9,0
		c1.7,0,1.7,0,2.1,1.6c0.8,3,1.7,6.1,2.5,9.1c0.2,0.9,0.7,1.2,1.6,1.2c2.2-0.1,4.5,0,6.7,0C73.5,298.4,73.7,298.1,73.3,296.9z
		 M58.8,280.6c-2.4,0-4.9,0-7.4,0c-0.8,0-0.5-0.4-0.4-0.8c1.1-4.2,2.1-8.4,3.2-12.7c0.4-1.7,0.7-3.5,0.8-5.3
		c0.1-0.1,0.1-0.3,0.3-0.2c0.5,4.7,1.7,9.2,2.7,13.8c0.4,1.5,0.7,3,1.1,4.5C59.3,280.4,59.3,280.6,58.8,280.6z"/>
	<path fill="#3FDBB1" d="M191.7,272.5c-2.2-4.7-6.2-7.2-11.4-7.4c-5.6-0.2-9.9,2-12.6,6.9c-1.8,3.2-2.2,6.7-2.3,9
		c0,4.1,0.3,6.9,1.4,9.6c2.2,5.6,6.3,8.6,12.3,8.9c5.5,0.3,10.4-2.6,12.7-7.7C194.6,285.4,194.6,278.9,191.7,272.5z M184.3,288.8
		c-0.4,1.7-1.2,3.2-3,3.9c-2.7,1-5.2-0.3-6.2-3c-0.8-2.3-0.8-4.8-0.9-7.2c0.1-2.3,0-4.7,0.7-6.9c0.6-2.1,1.7-3.6,4.1-3.9
		c2-0.2,3.7,0.6,4.6,2.4c0.7,1.4,1,2.9,1.1,4.5C185,282,185.1,285.5,184.3,288.8z"/>
	<g>
		<path fill="#3FDBB1" d="M275.4,255.6c-2.7,0-4.8,2-4.8,4.7c0,2.6,2.1,4.7,4.7,4.7s4.8-2.1,4.8-4.7S278,255.6,275.4,255.6z
			 M275.3,264c-1.9,0-3.5-1.8-3.5-3.8c0.1-2,1.7-3.6,3.7-3.5c1.9,0.1,3.5,1.8,3.4,3.7C278.8,262.4,277.2,264,275.3,264z"/>
		<path fill="#3FDBB1" d="M276.8,261.3c-0.3-0.4-0.4-0.6,0.1-1.1c0.9-0.8,0.4-2.3-0.7-2.5c-0.7-0.1-1.4-0.1-2.1-0.1
			c-0.4,0-0.4,0.3-0.4,0.6c0,1.3,0,2.7,0,4c0,0.5,0.2,0.7,0.7,0.7s0.7-0.2,0.6-0.7c0-0.4,0-0.9,0-1.3c0.1,0,0.1,0,0.2-0.1
			c0.3,0.6,0.6,1.1,0.9,1.7s0.8,0.4,1.2,0.2c0.5-0.3,0-0.5-0.1-0.8C277.1,261.7,276.9,261.5,276.8,261.3z M275.3,259.9
			c-0.5,0-0.3-0.4-0.3-0.6c0-0.3-0.1-0.7,0.4-0.7c0.4,0,0.6,0.2,0.6,0.6C275.9,259.6,275.7,259.9,275.3,259.9z"/>
	</g>
</g>
</svg>
