<?xml version="1.0" encoding="utf-8"?>
<!-- Generator: Adobe Illustrator 21.0.2, SVG Export Plug-In . SVG Version: 6.00 Build 0)  -->
<svg version="1.1" id="Capa_1" xmlns="http://www.w3.org/2000/svg" xmlns:xlink="http://www.w3.org/1999/xlink" x="0px" y="0px"
	 viewBox="0 0 316 316" enable-background="new 0 0 316 316" xml:space="preserve">
<path id="path24-2" fill="#3FDBB1" d="M138.2,248.5c-13.5-8.1-22.4-22.8-22.4-39.4c0-22.3,16.1-41,37.5-45.3
	C153.3,163.7,138.2,248.5,138.2,248.5z M163.5,162.8v-55.9l9.2,56.9c21.3,4.4,37.4,23,37.4,45.3c0,25.4-20.8,46-46.5,46.3v-92.6"/>
<path id="path26-4" fill="#3FDBB1" d="M89.3,289.8l4.6-9.9l4.8,9.9H89.3z M93.9,267.9l-16.3,33.3h6.1l3.4-7.6l12.7,0.1l3.8,7.5h6.8
	L93.9,267.9"/>
<path id="path28-5" fill="#3FDBB1" d="M121,283.5v-12c0,0,1.7,0,2.7,0c9.4,0,8.9,12,0,12H121z M128.4,285.7
	c13.5-3.9,10.3-17.6-4.2-17.6c0,0-8.1,0-9.6,0v32h6.3c0,0,0-9.5,0-13.7c9.4,10.5,13.7,13.7,13.7,13.7h7.4
	C142,300.1,132.1,290.7,128.4,285.7"/>
<path id="path30-5" fill="#3FDBB1" d="M174.8,268.3c-8.9-3.4-28,0-28,16.2c0,17.1,21.9,19.3,29.8,14.1c0-4.2,0-14.7,0-14.7h-5.8
	c0,0,0,10,0,11.8c-5.7,3-17.1,0.3-17.1-11.4c0-12.7,12.5-16,21.1-10.6C174.8,271.8,174.8,268.3,174.8,268.3"/>
<path id="path32-1" fill="#3FDBB1" d="M198.2,295.6c-5.8,0-10.6-5.7-10.6-12.7s4.7-12.7,10.6-12.7c5.8,0,10.6,5.7,10.6,12.7
	S204.1,295.6,198.2,295.6z M198.2,265.6c-9.8,0-17.8,7.8-17.8,17.3c0,9.6,8,17.3,17.8,17.3s17.8-7.8,17.8-17.3
	C216,273.3,208,265.6,198.2,265.6"/>
<path id="path34-7" fill="#3FDBB1" d="M241.7,268.3c-6.3-2.8-20.4-1.9-20.4,7.5s16.6,9.8,16.6,15.9c0,6-8.9,6.3-16.1,2.5
	c0,2.5,0,5.7,0,5.7c8.3,1.5,22.1,2.5,22.1-8.9s-16.3-9.5-16.3-16.1c0-6.7,13-2.7,13.9-1.4C241.7,270.9,241.7,268.3,241.7,268.3"/>
</svg>
