<?xml version="1.0" encoding="utf-8"?>
<!-- Generator: Adobe Illustrator 21.0.2, SVG Export Plug-In . SVG Version: 6.00 Build 0)  -->
<svg version="1.1" id="Capa_1" xmlns="http://www.w3.org/2000/svg" xmlns:xlink="http://www.w3.org/1999/xlink" x="0px" y="0px"
	 viewBox="0 0 316 316" enable-background="new 0 0 316 316" xml:space="preserve">
<g>
	<path fill="#3FDBB1" d="M28.9,265.7c4.1-11.6,16.2-17.8,28-14.2c1.1,0.3,3,0.9,3,0.9s0.1,1.9,0,3.1c-0.2,3-0.1,6-0.1,9.2
		c-8-4.7-13.8-4.6-17.8,0.1c-3.6,4.2-3.6,11.1-0.1,15.3c3.9,4.7,9.9,4.8,18,0.2c0,3.3-0.1,6.5,0,9.6c0,0.9,0,2.5,0,2.5
		s-1.6,0.5-2.6,0.9c-12,3.8-24.7-2.5-28.6-14.4c-0.1-0.4-1.1-3.3-1.1-6.3C27.7,269.3,28.7,266.2,28.9,265.7z"/>
	<path fill="#4FC9A3" d="M195.6,178.9c-1.1-4.6-3.5-6.5-8.6-6.9c-6.8-0.5-13.2,1.4-19.4,4.1c-10.2,4.5-19.3,10.6-26.3,19.4
		c-2.2,2.9-5.2,2.3-8.4,2.7c1-3.9,3.2-6.8,5.6-9.4c9.9-10.8,21.8-18.1,36.2-21c1.8-0.4,3.4-1,4.2-2.7c4.3-9.3,12.3-11.7,21.6-12.5
		c6-0.5,11.8-0.7,17.7,0.9c10.2,2.9,14.5,10.8,11.8,21.1c-2.7,10-8.5,18-15.6,25.2c-21.6,22-47.2,36.5-77.6,42.2c-1.7,0-3.3,0-5,0
		c0-2.3,2-3.3,2.5-5.1c29.1-6,53.8-20.1,74.8-40.9c3.4-3.4,6.4-7.2,9.2-11c1-1.4,1.8-2.9,2.8-4.4c-1.5-1.2-2.9-0.1-4.3-0.3
		c0.2-1.4,1.7-2.3,1.3-4.3C210.4,176.8,202.9,177.8,195.6,178.9z"/>
	<path fill="#3FDBB1" d="M236.3,265.2c2-0.1,4.8-0.2,6.8-0.2c2.3-0.1,4.7-0.3,3.1,4.5c3.6-3.8,6.9-5.9,10.6-4.7
		c2.6,0.9,0.3,4.2,1.5,6.5c2.7-3.2,5.4-6.4,9.8-7c0.9-0.1,1.7-0.2,2.6-0.2c3.2-0.2,7.3,3.1,8.3,2.2c2.9-2.3,5.8-0.7,8.4-1.3
		c1.8-0.4,2,1,2,2.3c0,7.8-0.1,15.7,0,23.5c0,2-1,2.7-2.6,2.2c-2.5-0.6-5.8,2.1-7.3-2c-0.5,0.2-1.1,0.3-1.5,0.6
		c-4.9,3.4-9.9,3.1-14.6,0.1c-4.8-3-6.6-7.8-6.8-13.3c-0.1-1.7,2.3-4.4-1.5-5.1c-3.5-0.6-7.2,1.1-8,4.3c-1,3.7-0.2,7.5-0.5,11.3
		c-0.1,1.4,1,3.7-1.1,4.1c-2.8,0.5-5.8,0.7-8.5-0.2c-1-0.3-0.4-1.8-0.5-2.8c-0.1-5.7-0.1-11.3-0.2-17
		C236.3,268.5,236.3,268.2,236.3,265.2z M280.1,278.9c-0.1-3.7-2.7-6.2-6.4-6.2c-3.8,0-6.6,3-6.4,6.6c0.2,3.6,2.9,6,6.7,5.9
		C277.7,285.2,280.2,282.6,280.1,278.9z"/>
	<path fill="#35C49B" d="M217.8,175.8c-7.4,1.1-14.8,2-22.2,3.1c-2.1,1.5-4.8,0.4-7,1.5c-2.3,0.2-4.4,1.2-6.2,2.9
		c0.2,2.2-1.7,3.1-3,4.4c-4.7,4.9-10.5,8.3-16.2,12c-0.3,1.1-1.1,1.2-2,1.1c-0.5,0.2-1,0.4-1.5,0.6l0,0c-4.4,1.4-8.4,3.6-13,3.9
		c-4.9,1.2-9.7,1.8-14.2-1.3c-4.2-3-3.4-6.9-1.8-10.8c2-5,5.9-8.8,9.4-12.7c9.3-7.8,19.3-14,31.4-16.5c1.6-0.3,3.4-0.2,4.6-2
		c4.2-6,8.4-11.8,12.6-17.7c-0.5,0-1.2,0-1.7,0c-2,0.9-2.8,1.2-4.3,1.6c-16.9,4.7-47.5,23.4-47.5,23.4
		c-11.3,7.5-20.8,16.7-28.4,27.8c-3.5,5.2-6.3,10.8-7.3,17.1c-1.2,7.6,2.1,13.9,9.2,17c3.1,1.4,6.3,2,9.7,2.2
		c18.3,0.9,34.7-5.2,50.5-13.6c-2.1-3.5-4.3-7.2-6.4-10.7c2.2,3.5,4.3,7.2,6.4,10.7c18.8-9.7,35.1-22.4,47.8-39.5
		C216.7,178.6,218.2,177.6,217.8,175.8z"/>
	<path fill="#3FDBB1" d="M134,236.6c-0.4,1.8-2.5,2.8-2.5,5.1c1.7,0,3.4,0,5,0c-0.9,1.5-1.7,2.9-2.9,4.8c6.9,1,13.1-1.2,19.1-3
		c27.9-8.8,51.8-23.6,70.3-46.4c1.8-2.2,2.6-2.5,7.3-2.1c-5.6,9.5-12.7,17.3-20.9,24.2c-19.4,16.2-41.1,28.2-66.4,32.3
		c-7.4,1.2-14.7,1.4-21.9-1.3c-6-2.2-9.9-7.2-10-12.4c0-1.2-0.5-2.9,1.8-2.1C119.8,237.9,126.9,237.4,134,236.6z"/>
	<path fill="#3FDBB1" d="M97,279c0-2.9,0.1-5.8,0.1-8.6c0-4.4-0.2-5.6-0.2-5.6s0.6,0,1.3,0c2.1-0.1,8.5,0,8.5,0s-0.1,1,0.4,1.9
		c1,1.6,1.3,0.2,1.8-0.2c3.9-3.2,8.3-3.2,12.7-1.3c4.5,1.9,5.2,6.2,5.2,10.6c0,4.8-0.1,9.6,0.1,14.3c0.1,2.5-0.6,3.5-3.2,3.1
		c-0.7-0.1-1.5-0.1-2.1,0c-3.6,0.6-5.2-0.5-4.8-4.6c0.4-3.7,0.1-7.5,0-11.3c-0.1-2.9-1-5.2-4.5-5.2c-3.4-0.1-5,1.9-5.1,5.1
		c-0.1,4.2-0.2,8.4-0.1,12.6c0.1,2.7-0.6,3.7-3.4,3.4c-1-0.1-2-0.1-3,0c-3,0.4-4.1-0.6-3.8-3.7C97.3,285.9,97,282.5,97,279z"/>
	<path fill="#3FDBB1" d="M185.7,278.8c0-3.5,0.2-6.9-0.1-10.5c-0.2-3,1.1-4.1,3.6-3.4c2.2,0.5,5.7-2.1,6.6,2.3
		c0.1,0.5,1.2-0.4,1.7-0.9c3.9-3.3,8.3-3.2,12.7-1.3c4.3,1.9,5.2,6,5.2,10.1c0.1,4.9-0.1,9.8,0.1,14.7c0.1,2.6-0.9,3.3-3.2,3
		c-0.9-0.1-1.7-0.1-2.6,0c-3.3,0.5-4.6-0.6-4.3-4.2c0.3-4.1,0.1-8.1,0-12.2c-0.1-2.8-1.2-4.8-4.4-4.8c-3,0-4.8,1.5-5,4.4
		c-0.3,4.5-0.4,9-0.3,13.4c0.1,2.7-0.6,3.7-3.4,3.4c-1.2-0.2-2.3-0.1-3.5,0c-2.3,0.3-3.3-0.5-3.2-3.1
		C186,286.4,185.7,282.6,185.7,278.8z"/>
	<path fill="#3FDBB1" d="M151.3,273.6c-4.3-1.7-8.1-2.5-10.9,1.7c-1.7,2.6-1.7,5.3,0.1,7.8c2.8,3.9,6.6,3.3,10.5,1.7
		c0.9,8.6-1.1,10.6-9.4,9.2c-5.9-1-10.2-4.3-12-10c-1.7-5.7-0.6-11,3.6-15.3c4.4-4.4,9.8-5.3,15.7-3.9c1.6,0.3,2.6,1.2,2.3,3
		C151.2,269.5,151.3,271.3,151.3,273.6z"/>
	<path fill="#3FDBB1" d="M235.8,272.9c-4.7-0.6-5.8,1.7-5.3,6c0.4,3.7-0.1,7.6,0.1,11.3c0.1,2.6-0.7,3.4-3.2,3.1
		c-0.9-0.1-1.7-0.1-2.6,0c-3.3,0.5-4.7-0.6-4.3-4.2c0.3-3.2,0.3-6.4,0-9.5c-0.3-2.3,2-5.7-2.8-6.9c-1.3-0.3-1.3-6.6,0-6.9
		c3.7-1.2,2.9-3.5,2.8-5.8c-0.2-3,1-3.8,3.7-3.5c1.2,0.1,2.3,0.1,3.4,0c2.2-0.3,3.3,0.6,2.9,2.9c-0.7,4.3,0.7,6.5,5.3,6
		C235.8,267.8,235.8,270.4,235.8,272.9z"/>
	<path fill="#3FDBB1" d="M188.5,180.3c-2.3,0.2-4.4,1.2-6.2,2.9c-14.3,3.5-26.4,10.6-35.7,22.1c-4.9,1.2-9.7,1.8-14.2-1.3
		c7.4,0,12.1-4.2,17-9.3c7.9-8.3,17.9-13.6,28.9-16.8c2.8-0.9,5.7-0.7,8.5-0.9C190.5,177,188.9,178.8,188.5,180.3z"/>
	<path fill="#0999DC" d="M135.1,169.1"/>
	<path fill="#FCFCFC" d="M146.7,205.3c9.3-11.5,21.5-18.6,35.7-22.1c0.2,2.2-1.7,3.1-3,4.4c-4.7,4.9-10.5,8.3-16.2,12
		c-0.6,0.3-1.3,0.7-2,1.1c-0.5,0.2-1,0.4-1.5,0.6C155.4,202.6,151.4,204.8,146.7,205.3z"/>
	<path fill="#0999DC" d="M161.2,200.7c0.6-0.3,1.3-0.7,2-1.1C162.9,200.6,162.1,200.7,161.2,200.7z"/>
	<path fill="#3FDBB1" d="M88.9,266.9c-6.1-4.1-16-3.8-21.8,0.3c-5.1,3.6-7.2,10.1-5.2,16.2c2,6.5,8.2,10.5,16.3,10.6
		c8.5,0,14.8-4.2,16.7-11.2C96.5,276.7,94.2,270.5,88.9,266.9z M78.1,285.3c-3.7,0-6.3-2.6-6.3-6.2c0-3.7,2.6-6.3,6.3-6.3
		c3.7-0.1,6.5,2.5,6.6,6.1C84.9,282.5,82.1,285.3,78.1,285.3z"/>
	<path fill="#3FDBB1" d="M165.8,280.8c5.1-0.1,10.1-0.1,15.3,0c2.7,0.1,3.2-0.9,2.9-3.3c-1.2-9.9-8.9-15.2-19.5-13.1
		c-7.3,1.4-11.7,7.2-11.6,15c0.1,7.8,5,13.3,12.9,14.4c8.9,1.3,15.2-2,17.6-9.5c-4.3,0.3-8.2-0.9-12,1.9c-2.2,1.7-5.3,0.9-7.4-1.6
		c-0.7-1-1.3-2-0.9-3.2S164.9,280.8,165.8,280.8z M164.5,272.2c3-3,7.4-2,9.9,2.7c-3.3,0-6.2,0-9.1,0c-0.6,0-1.5,0.3-1.9-0.5
		C163.1,273.3,163.9,272.7,164.5,272.2z"/>
	<path fill="#35C49B" d="M96.9,265.3"/>
</g>
</svg>
