<?xml version="1.0" encoding="utf-8"?>
<!-- Generator: Adobe Illustrator 21.0.2, SVG Export Plug-In . SVG Version: 6.00 Build 0)  -->
<svg version="1.1" id="Capa_1" xmlns="http://www.w3.org/2000/svg" xmlns:xlink="http://www.w3.org/1999/xlink" x="0px" y="0px"
	 viewBox="0 0 316 316" enable-background="new 0 0 316 316" xml:space="preserve">
<path fill="#3FDBB1" d="M28,244.4c2.8,0,6.7,1.1,9.1,4l0.5,0.7l7.1-5.4l-0.5-0.7c-4.2-5.4-10.4-8.4-17-8.4c-11.9,0-21.6,9.9-21.6,22
	c0,12.1,9.7,22,21.6,22c6.6,0,12.9-3.1,16.9-8.4l0.5-0.7l-7.1-5.4l-0.5,0.8c-1.9,2.9-6,4-9,4c-6,0-10.7-5.4-10.7-12.3
	C17.4,249.8,22,244.4,28,244.4L28,244.4z"/>
<path fill="#3FDBB1" d="M76.7,234.7c-12.4,0-22.6,9.9-22.6,22c0,12.1,10.2,22,22.6,22s22.5-9.9,22.5-22
	C99.2,244.6,89.1,234.7,76.7,234.7L76.7,234.7z M76.7,268.9c-6,0-10.8-5.5-10.8-12.3c0-6.7,4.8-12.3,10.8-12.3s10.8,5.5,10.8,12.3
	S82.7,268.9,76.7,268.9L76.7,268.9z"/>
<path fill="#3FDBB1" d="M173.7,234.7c-12.4,0-22.6,9.9-22.6,22c0,12.1,10.1,22,22.6,22c12.4,0,22.6-9.9,22.6-22
	C196.3,244.6,186.1,234.7,173.7,234.7L173.7,234.7z M173.7,268.9c-5.9,0-10.8-5.5-10.8-12.3c0-6.7,4.8-12.3,10.8-12.3
	s10.8,5.5,10.8,12.3S179.7,268.9,173.7,268.9L173.7,268.9z"/>
<path fill="#3FDBB1" d="M229.6,235.3c-0.2,0.1,0.6-0.2,0.6-0.2c1.5-0.3,2.6-0.4,3.8-0.5c0.7,0,1.4,0,2,0.1
	c10.2,0.8,17.2,8.8,17.2,20.1v23h-11.3v-22.7c0-7.2-4.5-10.5-9-10.5c-4.7,0-9.9,3.7-9.9,8.8v24.4h-11.3v-42.2l1.5,1
	c1.9,1.1,3.9,1.7,6.2,1.7c1.9,0,3.9-0.5,5.5-1.2C224.9,237,228.3,235.7,229.6,235.3L229.6,235.3z"/>
<path fill="#3FDBB1" d="M297.7,276.1c1.5-0.7,3.1-1,4.9-1c2.9,0,5.8,1.1,7.8,2.8v-42.3l-1.5,1c-1.9,1.1-3.9,1.7-6.2,1.7
	c-1.9,0-3.9-0.5-5.5-1.2c0,0-0.3-0.1-0.7-0.4c-0.4-0.1-2.2-0.9-2.7-1.1c-0.1,0-0.9-0.3-1.2-0.3c0,0-2.2-0.5-3.3-0.6
	c-0.4,0-0.7,0-1.1,0h-0.2c0.1,0,0.1,0,0.1,0s-0.1,0-0.2,0c-11.2,0-20.4,9.9-20.4,22c0.2,12.3,9.2,22,20.4,22c2.8,0,5.6-0.7,8-1.9
	L297.7,276.1L297.7,276.1z M289.2,268.9c-5.4,0-9.8-5.5-9.8-12.3c0-6.7,4.4-12.3,9.8-12.3c5.5,0,9.9,5.5,9.9,12.3
	S294.6,268.9,289.2,268.9L289.2,268.9z"/>
<path fill="#3FDBB1" d="M125.5,253.4c0-3.4,2.5-6.5,5.9-7c0.4-0.1,5.3-0.9,8.2,2.8V235c0,0-1.8-0.3-3.6-0.3c-2.6,0-5.4,0.7-7.9,1.9
	l-1.1,0.5c-1.6,0.7-3.3,1.2-5.2,1.2c-2.2,0-4.4-0.6-6.3-1.8l-1.5-1v42.2h11.3L125.5,253.4L125.5,253.4L125.5,253.4z"/>
</svg>
