<?xml version="1.0" encoding="utf-8"?>
<!-- Generator: Adobe Illustrator 21.0.2, SVG Export Plug-In . SVG Version: 6.00 Build 0)  -->
<svg version="1.1" id="Capa_1" xmlns="http://www.w3.org/2000/svg" xmlns:xlink="http://www.w3.org/1999/xlink" x="0px" y="0px"
	 viewBox="0 0 316 316" enable-background="new 0 0 316 316" xml:space="preserve">
<g>
	<path fill="#3FDBB1" d="M130.8,251.5c0.8,4.9,2.6,9.4,5.6,13.3c0.4,0.6,0.9,1.1,1.2,1.7c-2.3,1.7-4.6,3.5-7,4.8
		c-4.7,2.7-9.7,4.2-14.9,4.9c-8.8,1.2-17.2,0-25-4C80.3,266.9,73,258.9,70,247.5c-3.1-11.7-1-22.6,6.1-32.3
		c6-8.2,14.3-13.3,24.2-15.3c7-1.4,14.2-1.2,21.2,0.4c0.8,0.2,1,0.6,1,1.3c0,4.9,0,9.8,0,14.7c0,0.9,0,1-1,0.7
		c-10.5-4-20.5-3-29.4,4c-4.6,3.6-7,8.4-7.6,14.2c-1.1,12,6.8,21.8,18.3,24.7c7.5,1.9,14.7,1,21.5-2.8
		C126.8,255.8,128.8,253.6,130.8,251.5z"/>
	<path fill="#3FDBB1" d="M253.3,262.1c-0.1-8.7-0.3-17.3-0.7-26c-0.2-3.9-0.8-7.6-2.1-11.3c-3.8-10.1-10.7-17.3-20.4-22
		c-8.4-4-17.1-5.2-26.2-3.7c-9.4,1.7-17.2,6.2-23.5,13.3c-6.5,7.2-9.8,15.7-9.9,25.4c-0.1,6.4,1.4,12.3,4.6,17.8
		c0.2,0.4,0.4,0.8-0.2,1.2c-5.4,3.5-11.1,5.1-17.5,3.9c-6.8-1.3-11.3-6.7-11.4-13.6c-0.2-10.6,0-21.3-0.1-31.9c0-0.8,0.2-1,1-1
		c2.5,0,5,0,7.5-0.1c6.6-0.4,13.3-6.6,13.8-14c0.1-0.8-0.1-1.1-1-1.1c-6.4,0-12.7,0-19.1,0c-2.1,0-2.1,0-2.1-2.1
		c0.1-5.1,0.6-10.3-0.3-15.4c-0.4-3-1.4-5.8-3.5-8.1c-2.8-3.2-6.6-4.6-10.7-5.1c-1-0.1-1,0.3-1,1.1c0,14.7-0.1,29.3-0.1,44
		c0,9.4,0,18.6,0.1,28c0,3.3,0.1,6.7,0.3,10.1c-0.1,0.3-0.1,0.7-0.1,1.1c0.9,5,2.9,9.5,6.2,13.4c0.2,0.2,0.4,0.4,0.7,0.6
		c1.2,1.2,2.5,2.5,3.8,3.5c7.5,5.7,15.8,7.7,25.1,6c6.4-1.1,11.6-4.3,16.7-7.9c0.8-0.6,1.2-0.8,2,0c0.6,0.6,1.2,1,1.8,1.3
		c9.6,6.1,20.2,7.7,31.3,5.9c7-1.1,13.4-4,19.2-8.1c0.6-0.4,0.8-0.3,1,0.3c0.9,1.9,2,3.6,3.7,4.9c2.9,2.5,6.4,3.5,10.1,3.8
		c0.8,0.1,0.9-0.2,0.9-0.9C253.3,270.9,253.3,266.5,253.3,262.1z M216.7,260.7c-7.7,1.1-14.8,0.1-21.2-4.5
		c-10.6-7.5-12.5-22.7-4-32.7c4.8-5.7,10.9-8.7,18.3-9.4c9.6-1,17.1,2.8,22.9,10.1c2.6,3.3,3.7,7.8,3.7,13.4
		C236.5,248.3,228.7,258.9,216.7,260.7z"/>
</g>
<g>
	<path fill="#3FDBB1" d="M9.5,295.4c-1.2,0-2.1,0.4-2.8,1.2s-1,1.9-1,3.2c0,1.4,0.4,2.5,1,3.3c0.7,0.8,1.6,1.1,2.8,1.1
		c0.8,0,1.6-0.1,2.6-0.4v1.1c-0.8,0.3-1.7,0.4-2.8,0.4c-1.6,0-2.8-0.5-3.7-1.4s-1.3-2.4-1.3-4.2c0-1.1,0.2-2.1,0.7-2.9
		c0.4-0.9,1-1.5,1.8-1.9c0.8-0.5,1.7-0.7,2.8-0.7c1.1,0,2.1,0.2,2.9,0.7l-0.6,1C11.1,295.6,10.4,295.4,9.5,295.4z"/>
	<path fill="#3FDBB1" d="M17.7,305.4c-1.2,0-2.2-0.4-2.8-1.1c-0.7-0.8-1-1.7-1-3c0-1.3,0.3-2.4,0.9-3.1c0.7-0.8,1.5-1.1,2.6-1.1
		s1.8,0.4,2.4,1c0.6,0.7,0.9,1.5,0.9,2.7v0.8h-5.6c0,0.9,0.3,1.7,0.8,2.2c0.5,0.5,1.1,0.8,1.9,0.8c0.9,0,1.7-0.2,2.6-0.6v1.1
		c-0.5,0.2-0.9,0.3-1.2,0.4C18.7,305.4,18.3,305.4,17.7,305.4z M17.4,298c-0.7,0-1.1,0.2-1.5,0.7c-0.4,0.4-0.6,1-0.7,1.8h4.3
		c0-0.8-0.2-1.3-0.5-1.8C18.5,298.2,18,298,17.4,298z"/>
	<path fill="#3FDBB1" d="M28.3,305.3v-5.2c0-0.7-0.2-1.1-0.5-1.5c-0.3-0.3-0.8-0.5-1.4-0.5c-0.9,0-1.5,0.2-1.9,0.7
		c-0.4,0.5-0.6,1.2-0.6,2.3v4.3h-1.2v-8.2h1l0.2,1.1H24c0.3-0.4,0.6-0.7,1-0.9c0.5-0.2,0.9-0.3,1.5-0.3c0.9,0,1.7,0.2,2.2,0.7
		c0.5,0.5,0.8,1.2,0.8,2.3v5.3L28.3,305.3L28.3,305.3z"/>
	<path fill="#3FDBB1" d="M34.8,304.3c0.2,0,0.5,0,0.7-0.1c0.2,0,0.4-0.1,0.5-0.1v0.9c-0.1,0.1-0.3,0.1-0.6,0.2
		c-0.3,0.1-0.5,0.1-0.7,0.1c-1.6,0-2.4-0.9-2.4-2.5v-4.8h-1.1v-0.6l1.1-0.5l0.5-1.7h0.7v1.9h2.4v0.9h-2.4v4.7c0,0.5,0.1,0.9,0.4,1.1
		C34,304.3,34.3,304.3,34.8,304.3z"/>
	<path fill="#3FDBB1" d="M41.2,296.9c0.4,0,0.7,0,0.9,0.1l-0.2,1.1c-0.4-0.1-0.7-0.1-0.9-0.1c-0.7,0-1.2,0.3-1.7,0.8
		c-0.5,0.5-0.7,1.2-0.7,2v4.4h-1.2V297h1l0.1,1.5h0.1c0.3-0.6,0.7-0.9,1-1.2C40.2,297.1,40.7,296.9,41.2,296.9z"/>
	<path fill="#3FDBB1" d="M50.7,301.2c0,1.3-0.4,2.4-1,3.1s-1.6,1.1-2.8,1.1c-0.8,0-1.3-0.2-1.9-0.5c-0.6-0.3-1-0.9-1.3-1.4
		c-0.3-0.7-0.5-1.4-0.5-2.3c0-1.3,0.3-2.4,0.9-3.1s1.6-1.1,2.8-1.1c1.1,0,2,0.4,2.8,1.1C50.3,298.8,50.7,299.9,50.7,301.2z
		 M44.5,301.2c0,1,0.2,1.8,0.7,2.4c0.5,0.6,1,0.9,1.8,0.9c0.8,0,1.4-0.3,1.8-0.9c0.4-0.6,0.7-1.3,0.7-2.4c0-1-0.2-1.8-0.7-2.4
		c-0.4-0.6-1-0.8-1.8-0.8s-1.4,0.3-1.8,0.8C44.7,299.3,44.5,300.2,44.5,301.2z"/>
	<path fill="#3FDBB1" d="M62.3,304.2L62.3,304.2c-0.7,0.9-1.5,1.2-2.7,1.2c-1,0-1.9-0.4-2.5-1c-0.6-0.8-0.9-1.8-0.9-3.1
		s0.3-2.4,0.9-3.1s1.4-1.1,2.5-1.1c1.1,0,2,0.4,2.6,1.2h0.1l-0.1-0.6V297v-3.3h1.2v11.6h-1L62.3,304.2z M59.8,304.3
		c0.9,0,1.4-0.2,1.8-0.7c0.4-0.5,0.6-1.2,0.6-2.2v-0.3c0-1.1-0.2-2-0.6-2.5c-0.4-0.5-0.9-0.8-1.8-0.8c-0.8,0-1.2,0.3-1.6,0.9
		c-0.4,0.6-0.6,1.3-0.6,2.4s0.2,1.8,0.6,2.4C58.6,304.1,59.2,304.3,59.8,304.3z"/>
	<path fill="#3FDBB1" d="M69.5,305.4c-1.2,0-2.2-0.4-2.8-1.1c-0.7-0.8-1-1.7-1-3c0-1.3,0.3-2.4,0.9-3.1c0.7-0.8,1.5-1.1,2.6-1.1
		s1.8,0.4,2.4,1c0.6,0.7,0.9,1.5,0.9,2.7v0.8h-5.6c0,0.9,0.3,1.7,0.8,2.2c0.5,0.5,1.1,0.8,1.9,0.8c0.9,0,1.7-0.2,2.6-0.6v1.1
		c-0.5,0.2-0.9,0.3-1.2,0.4C70.6,305.4,70.1,305.4,69.5,305.4z M69.2,298c-0.7,0-1.1,0.2-1.5,0.7c-0.4,0.4-0.6,1-0.7,1.8h4.3
		c0-0.8-0.2-1.3-0.5-1.8C70.4,298.2,69.8,298,69.2,298z"/>
	<path fill="#3FDBB1" d="M83.4,295.4c-1.2,0-2.1,0.4-2.8,1.2c-0.8,0.9-1,1.9-1,3.2c0,1.4,0.4,2.5,1,3.3c0.7,0.8,1.6,1.1,2.8,1.1
		c0.8,0,1.6-0.1,2.6-0.4v1.1c-0.8,0.3-1.7,0.4-2.8,0.4c-1.6,0-2.8-0.5-3.7-1.4c-0.9-0.9-1.3-2.4-1.3-4.2c0-1.1,0.2-2.1,0.7-2.9
		c0.4-0.9,1-1.5,1.8-1.9c0.8-0.5,1.7-0.7,2.8-0.7c1.1,0,2.1,0.2,2.9,0.7l-0.6,1C85.1,295.6,84.2,295.4,83.4,295.4z"/>
	<path fill="#3FDBB1" d="M88,295c0-0.3,0.1-0.5,0.2-0.7c0.1-0.1,0.3-0.2,0.5-0.2s0.4,0.1,0.5,0.2c0.2,0.1,0.2,0.4,0.2,0.6
		s-0.1,0.5-0.2,0.7c-0.2,0.1-0.3,0.2-0.5,0.2s-0.4-0.1-0.5-0.2C88.1,295.4,88,295.2,88,295z M89.3,305.3h-1.2v-8.2h1.2V305.3z"/>
	<path fill="#3FDBB1" d="M95.4,305.4c-1.2,0-2.2-0.4-2.8-1.1c-0.7-0.8-1-1.7-1-3c0-1.3,0.3-2.4,0.9-3.1c0.7-0.8,1.5-1.1,2.6-1.1
		s1.8,0.4,2.4,1c0.6,0.7,0.9,1.5,0.9,2.7v0.8h-5.6c0,0.9,0.3,1.7,0.8,2.2c0.5,0.5,1.1,0.8,1.9,0.8c0.9,0,1.7-0.2,2.6-0.6v1.1
		c-0.5,0.2-0.9,0.3-1.2,0.4C96.5,305.4,96,305.4,95.4,305.4z M95,298c-0.7,0-1.1,0.2-1.5,0.7c-0.4,0.4-0.6,1-0.7,1.8h4.3
		c0-0.8-0.2-1.3-0.5-1.8C96.2,298.2,95.7,298,95,298z"/>
	<path fill="#3FDBB1" d="M106.1,305.3v-5.2c0-0.7-0.2-1.1-0.5-1.5c-0.3-0.3-0.8-0.5-1.4-0.5c-0.9,0-1.5,0.2-1.9,0.7
		c-0.4,0.5-0.6,1.2-0.6,2.3v4.3h-1.2v-8.2h1l0.2,1.1h0.1c0.3-0.4,0.6-0.7,1-0.9c0.5-0.2,0.9-0.3,1.5-0.3c0.9,0,1.7,0.2,2.2,0.7
		c0.5,0.5,0.8,1.2,0.8,2.3v5.3L106.1,305.3L106.1,305.3z"/>
	<path fill="#3FDBB1" d="M113.1,305.4c-1.1,0-2.1-0.4-2.8-1c-0.7-0.7-0.9-1.7-0.9-3s0.3-2.4,0.9-3.1s1.6-1.1,2.8-1.1
		c0.4,0,0.8,0,1.1,0.1c0.4,0.1,0.7,0.2,0.9,0.3l-0.4,1c-0.3-0.1-0.6-0.2-0.9-0.3c-0.3-0.1-0.6-0.1-0.9-0.1c-1.6,0-2.5,1-2.5,3.1
		c0,1,0.2,1.8,0.6,2.3c0.4,0.6,1,0.8,1.8,0.8c0.7,0,1.3-0.2,2.1-0.5v1C114.6,305.3,113.9,305.4,113.1,305.4z"/>
	<path fill="#3FDBB1" d="M117,295c0-0.3,0.1-0.5,0.2-0.7c0.1-0.1,0.3-0.2,0.5-0.2s0.4,0.1,0.5,0.2c0.2,0.1,0.2,0.4,0.2,0.6
		s-0.1,0.5-0.2,0.7c-0.2,0.1-0.3,0.2-0.5,0.2s-0.4-0.1-0.5-0.2C117.1,295.4,117,295.2,117,295z M118.3,305.3h-1.2v-8.2h1.2V305.3z"
		/>
	<path fill="#3FDBB1" d="M125.9,305.3l-0.3-1.1h-0.1c-0.4,0.5-0.9,0.9-1.2,1c-0.4,0.2-0.9,0.3-1.5,0.3c-0.8,0-1.4-0.2-1.9-0.7
		c-0.5-0.4-0.7-1-0.7-1.8c0-1.6,1.3-2.5,3.9-2.6h1.4V300c0-0.7-0.1-1.1-0.4-1.4c-0.3-0.3-0.8-0.5-1.3-0.5c-0.7,0-1.4,0.2-2.3,0.7
		l-0.4-0.9c0.4-0.2,0.9-0.4,1.3-0.5c0.5-0.1,0.9-0.2,1.4-0.2c0.9,0,1.7,0.2,2.2,0.7c0.5,0.5,0.7,1.1,0.7,2.1v5.5L125.9,305.3
		L125.9,305.3z M123.1,304.3c0.8,0,1.3-0.2,1.8-0.7c0.5-0.5,0.7-1,0.7-1.8v-0.8l-1.2,0.1c-0.9,0-1.7,0.2-2.1,0.5
		c-0.5,0.3-0.7,0.7-0.7,1.2c0,0.5,0.1,0.8,0.4,1C122.3,304.3,122.7,304.3,123.1,304.3z"/>
	<path fill="#3FDBB1" d="M132,297.1h1.3l1.8,4.7c0.4,1,0.7,1.8,0.8,2.3h0.1c0.1-0.3,0.2-0.7,0.4-1.3c0.2-0.6,0.9-2.5,2-5.6h1.3
		l-3.5,9.3c-0.4,0.9-0.8,1.5-1.2,2c-0.5,0.4-1,0.6-1.7,0.6c-0.4,0-0.8,0-1.1-0.1V308c0.3,0.1,0.6,0.1,0.9,0.1c0.9,0,1.4-0.5,1.8-1.4
		l0.5-1.1L132,297.1z"/>
	<path fill="#3FDBB1" d="M148.4,305.3h-1.2v-9.7h-3.4v-1.1h8.2v1.1h-3.4L148.4,305.3L148.4,305.3z"/>
	<path fill="#3FDBB1" d="M156.7,305.4c-1.2,0-2.2-0.4-2.8-1.1c-0.7-0.8-1-1.7-1-3c0-1.3,0.3-2.4,0.9-3.1s1.5-1.1,2.6-1.1
		c1,0,1.8,0.4,2.4,1c0.6,0.7,0.9,1.5,0.9,2.7v0.8H154c0,0.9,0.3,1.7,0.8,2.2c0.5,0.5,1.1,0.8,1.9,0.8c0.9,0,1.7-0.2,2.6-0.6v1.1
		c-0.5,0.2-0.9,0.3-1.2,0.4C157.8,305.4,157.3,305.4,156.7,305.4z M156.4,298c-0.7,0-1.1,0.2-1.5,0.7c-0.4,0.4-0.6,1-0.7,1.8h4.3
		c0-0.8-0.2-1.3-0.5-1.8C157.5,298.2,157,298,156.4,298z"/>
	<path fill="#3FDBB1" d="M165.1,305.4c-1.1,0-2.1-0.4-2.8-1c-0.7-0.7-0.9-1.7-0.9-3s0.3-2.4,0.9-3.1c0.7-0.8,1.6-1.1,2.8-1.1
		c0.4,0,0.8,0,1.1,0.1c0.4,0.1,0.7,0.2,0.9,0.3l-0.4,1c-0.3-0.1-0.6-0.2-0.9-0.3c-0.3-0.1-0.6-0.1-0.9-0.1c-1.6,0-2.5,1-2.5,3.1
		c0,1,0.2,1.8,0.6,2.3c0.4,0.6,1,0.8,1.8,0.8c0.7,0,1.3-0.2,2.1-0.5v1C166.6,305.3,165.9,305.4,165.1,305.4z"/>
	<path fill="#3FDBB1" d="M174.6,305.3v-5.2c0-0.7-0.2-1.1-0.5-1.5c-0.3-0.3-0.8-0.5-1.4-0.5c-0.9,0-1.5,0.2-1.9,0.7
		c-0.4,0.5-0.6,1.2-0.6,2.3v4.3H169v-8.2h1l0.2,1.1h0.1c0.3-0.4,0.6-0.7,1-0.9c0.5-0.2,0.9-0.3,1.5-0.3c0.9,0,1.7,0.2,2.2,0.7
		c0.5,0.5,0.8,1.2,0.8,2.3v5.3L174.6,305.3L174.6,305.3z"/>
	<path fill="#3FDBB1" d="M185.4,301.2c0,1.3-0.4,2.4-1,3.1c-0.7,0.8-1.6,1.1-2.8,1.1c-0.8,0-1.3-0.2-1.9-0.5c-0.6-0.3-1-0.9-1.3-1.4
		c-0.3-0.7-0.5-1.4-0.5-2.3c0-1.3,0.3-2.4,0.9-3.1s1.6-1.1,2.8-1.1c1.1,0,2,0.4,2.8,1.1C185,298.8,185.4,299.9,185.4,301.2z
		 M179.1,301.2c0,1,0.2,1.8,0.7,2.4s1,0.9,1.8,0.9c0.8,0,1.4-0.3,1.8-0.9s0.7-1.3,0.7-2.4c0-1-0.2-1.8-0.7-2.4
		c-0.4-0.6-1-0.8-1.8-0.8s-1.4,0.3-1.8,0.8C179.4,299.3,179.1,300.2,179.1,301.2z"/>
	<path fill="#3FDBB1" d="M188.7,305.3h-1.2v-11.6h1.2V305.3z"/>
	<path fill="#3FDBB1" d="M198.4,301.2c0,1.3-0.4,2.4-1,3.1c-0.7,0.8-1.6,1.1-2.8,1.1c-0.8,0-1.3-0.2-1.9-0.5c-0.6-0.3-1-0.9-1.3-1.4
		s-0.5-1.4-0.5-2.3c0-1.3,0.3-2.4,0.9-3.1s1.6-1.1,2.8-1.1c1.1,0,2,0.4,2.8,1.1C198.1,298.9,198.4,299.9,198.4,301.2z M192.2,301.2
		c0,1,0.2,1.8,0.7,2.4s1,0.9,1.8,0.9c0.8,0,1.4-0.3,1.8-0.9s0.7-1.3,0.7-2.4c0-1-0.2-1.8-0.7-2.4s-1-0.8-1.8-0.8s-1.4,0.3-1.8,0.8
		C192.5,299.3,192.2,300.2,192.2,301.2z"/>
	<path fill="#3FDBB1" d="M207.2,297.1v0.8l-1.5,0.2c0.1,0.2,0.3,0.4,0.4,0.7c0.1,0.3,0.2,0.6,0.2,0.9c0,0.8-0.3,1.4-0.9,1.9
		c-0.6,0.5-1.3,0.8-2.3,0.8c-0.3,0-0.5,0-0.7-0.1c-0.6,0.3-0.8,0.7-0.8,1c0,0.2,0.1,0.4,0.3,0.5c0.2,0.1,0.5,0.2,0.9,0.2h1.4
		c0.9,0,1.5,0.2,2,0.6s0.7,0.9,0.7,1.6c0,0.9-0.4,1.6-1,2.1s-1.8,0.7-3.1,0.7c-1,0-1.9-0.2-2.5-0.6c-0.6-0.4-0.9-0.9-0.9-1.7
		c0-0.5,0.2-0.9,0.5-1.3s0.8-0.6,1.3-0.8c-0.2-0.1-0.4-0.3-0.6-0.5c-0.2-0.2-0.2-0.5-0.2-0.7c0-0.3,0.1-0.6,0.2-0.8s0.4-0.5,0.8-0.7
		c-0.4-0.2-0.8-0.5-1-0.9s-0.4-0.9-0.4-1.4c0-0.9,0.3-1.6,0.8-2.1c0.5-0.5,1.3-0.8,2.3-0.8c0.4,0,0.9,0.1,1.1,0.2L207.2,297.1
		L207.2,297.1z M200.7,306.6c0,0.5,0.2,0.8,0.6,1c0.4,0.3,0.9,0.4,1.6,0.4c1,0,1.8-0.2,2.3-0.5c0.5-0.3,0.8-0.8,0.8-1.2
		c0-0.5-0.1-0.8-0.4-0.9c-0.3-0.2-0.8-0.3-1.5-0.3h-1.5c-0.6,0-0.9,0.1-1.3,0.4S200.7,306.2,200.7,306.6z M201.4,299.7
		c0,0.6,0.2,1,0.5,1.3c0.3,0.3,0.8,0.5,1.3,0.5c1.2,0,1.8-0.6,1.8-1.7c0-1.2-0.6-1.8-1.8-1.8c-0.6,0-1,0.2-1.3,0.5
		C201.5,298.7,201.4,299.1,201.4,299.7z"/>
	<path fill="#3FDBB1" d="M208.8,295.9c0.2-0.3,0.5-0.7,0.8-1.1c0.3-0.5,0.5-0.9,0.7-1.1h1.5v0.2c-0.2,0.3-0.6,0.8-0.9,1.1
		s-0.8,0.9-1.1,1L208.8,295.9L208.8,295.9L208.8,295.9z M210.1,305.3h-1.2v-8.2h1.2V305.3z"/>
	<path fill="#3FDBB1" d="M217.7,305.3l-0.3-1.1h-0.1c-0.4,0.5-0.9,0.9-1.2,1s-0.9,0.3-1.5,0.3c-0.8,0-1.4-0.2-1.9-0.7
		c-0.5-0.5-0.7-1-0.7-1.8c0-1.6,1.3-2.5,3.9-2.6h1.4V300c0-0.7-0.1-1.1-0.4-1.4c-0.3-0.3-0.8-0.5-1.3-0.5c-0.7,0-1.4,0.2-2.3,0.7
		l-0.4-0.9c0.4-0.2,0.9-0.4,1.3-0.5c0.5-0.1,0.9-0.2,1.4-0.2c0.9,0,1.7,0.2,2.2,0.7c0.5,0.5,0.7,1.1,0.7,2.1v5.5L217.7,305.3
		L217.7,305.3z M214.9,304.3c0.8,0,1.3-0.2,1.8-0.7c0.5-0.5,0.7-1,0.7-1.8v-0.8l-1.2,0.1c-0.9,0-1.7,0.2-2.1,0.5
		c-0.4,0.3-0.7,0.7-0.7,1.2c0,0.5,0.1,0.8,0.4,1C214.1,304.3,214.4,304.3,214.9,304.3z"/>
	<path fill="#3FDBB1" d="M230.6,304.2L230.6,304.2c-0.7,0.9-1.5,1.2-2.7,1.2c-1,0-1.9-0.4-2.5-1c-0.6-0.7-0.9-1.8-0.9-3.1
		s0.3-2.4,0.9-3.1s1.4-1.1,2.5-1.1c1.1,0,2,0.4,2.6,1.2h0.1l-0.1-0.6V297v-3.3h1.2v11.6h-1L230.6,304.2z M228.2,304.3
		c0.9,0,1.4-0.2,1.8-0.7c0.4-0.5,0.6-1.2,0.6-2.2v-0.3c0-1.1-0.2-2-0.6-2.5c-0.4-0.5-0.9-0.8-1.8-0.8c-0.8,0-1.2,0.3-1.6,0.9
		c-0.4,0.6-0.6,1.3-0.6,2.4s0.2,1.8,0.6,2.4C227,304.2,227.5,304.3,228.2,304.3z"/>
	<path fill="#3FDBB1" d="M237.8,305.4c-1.2,0-2.2-0.4-2.8-1.1s-1-1.7-1-3c0-1.3,0.3-2.4,0.9-3.1s1.5-1.1,2.6-1.1c1,0,1.8,0.4,2.4,1
		c0.6,0.7,0.9,1.5,0.9,2.7v0.8H235c0,0.9,0.3,1.7,0.8,2.2c0.5,0.5,1.1,0.8,1.9,0.8c0.9,0,1.7-0.2,2.6-0.6v1.1
		c-0.5,0.2-0.9,0.3-1.2,0.4C238.7,305.4,238.4,305.4,237.8,305.4z M237.5,298c-0.7,0-1.1,0.2-1.5,0.7c-0.4,0.5-0.6,1-0.7,1.8h4.3
		c0-0.8-0.2-1.3-0.5-1.8C238.8,298.2,238.2,298,237.5,298z"/>
	<path fill="#3FDBB1" d="M253.8,305.3l-1.3-3.4h-4.4l-1.3,3.4h-1.2l4.3-10.9h1l4.3,10.9H253.8z M252.1,300.6l-1.2-3.3
		c-0.2-0.4-0.3-0.9-0.5-1.5c-0.1,0.5-0.3,0.9-0.5,1.5l-1.2,3.3H252.1z"/>
	<path fill="#3FDBB1" d="M262,305.3v-5.2c0-0.7-0.2-1.1-0.5-1.5c-0.3-0.4-0.8-0.5-1.4-0.5c-0.9,0-1.5,0.2-1.9,0.7
		c-0.4,0.5-0.6,1.2-0.6,2.3v4.3h-1.1v-8.2h1l0.2,1.1h0.1c0.3-0.4,0.6-0.7,1-0.9c0.5-0.3,0.9-0.3,1.5-0.3c0.9,0,1.7,0.2,2.2,0.7
		c0.5,0.5,0.8,1.2,0.8,2.3v5.3L262,305.3L262,305.3z"/>
	<path fill="#3FDBB1" d="M268.5,304.3c0.2,0,0.5,0,0.7-0.1c0.2-0.1,0.4-0.1,0.5-0.1v0.9c-0.1,0.1-0.3,0.1-0.6,0.2
		c-0.3,0.1-0.5,0.1-0.7,0.1c-1.6,0-2.4-0.9-2.4-2.5v-4.8h-1.1v-0.6l1.1-0.5l0.5-1.7h0.8v1.9h2.4v0.9h-2.4v4.7c0,0.5,0.1,0.9,0.4,1.1
		C267.9,304.3,268,304.3,268.5,304.3z"/>
	<path fill="#3FDBB1" d="M271,295c0-0.3,0.1-0.5,0.2-0.7c0.1-0.2,0.3-0.2,0.5-0.2s0.4,0.1,0.5,0.2c0.1,0.1,0.2,0.4,0.2,0.6
		s-0.1,0.5-0.2,0.7c-0.1,0.2-0.3,0.2-0.5,0.2s-0.4-0.1-0.5-0.2C271.1,295.4,271,295.2,271,295z M272.3,305.3h-1.2v-8.2h1.2V305.3z"
		/>
	<path fill="#3FDBB1" d="M282,301.2c0,1.3-0.4,2.4-1,3.1s-1.6,1.1-2.8,1.1c-0.8,0-1.3-0.2-1.9-0.5c-0.6-0.3-1-0.9-1.3-1.4
		c-0.3-0.6-0.5-1.4-0.5-2.3c0-1.3,0.3-2.4,0.9-3.1c0.7-0.8,1.6-1.1,2.8-1.1c1.1,0,2,0.4,2.8,1.1S282,299.9,282,301.2z M275.9,301.2
		c0,1,0.2,1.8,0.7,2.4c0.5,0.6,1,0.9,1.8,0.9s1.4-0.3,1.8-0.9c0.4-0.6,0.7-1.3,0.7-2.4c0-1-0.2-1.8-0.7-2.4c-0.5-0.6-1-0.8-1.8-0.8
		s-1.4,0.3-1.8,0.8C276.1,299.3,275.9,300.2,275.9,301.2z"/>
	<path fill="#3FDBB1" d="M287.1,305.4c-1,0-1.9-0.4-2.5-1.1s-0.9-1.8-0.9-3c0-1.3,0.3-2.4,0.9-3.1s1.4-1.1,2.5-1.1
		c1.1,0,2,0.4,2.6,1.2h0.1l0.2-1.1h0.9v11.8h-1.2v-3.5c0-0.5,0-0.9,0.1-1.2h-0.1C289.1,305,288.2,305.4,287.1,305.4z M287.3,304.3
		c0.9,0,1.4-0.2,1.8-0.7c0.4-0.5,0.6-1.1,0.6-2.2v-0.3c0-1.1-0.2-2-0.6-2.5c-0.4-0.5-0.9-0.8-1.8-0.8c-0.8,0-1.2,0.3-1.6,0.9
		s-0.6,1.3-0.6,2.4s0.2,1.8,0.6,2.4S286.5,304.3,287.3,304.3z"/>
	<path fill="#3FDBB1" d="M294.7,297.1v5.3c0,0.7,0.2,1.1,0.5,1.5c0.3,0.4,0.8,0.5,1.4,0.5c0.9,0,1.5-0.2,1.9-0.7
		c0.4-0.5,0.6-1.2,0.6-2.3v-4.3h1.2v8.2h-1l-0.2-1h-0.1c-0.3,0.4-0.6,0.7-1,0.9c-0.5,0.3-0.9,0.3-1.5,0.3c-0.9,0-1.7-0.2-2.2-0.7
		c-0.5-0.5-0.8-1.2-0.8-2.3v-5.3h1.2L294.7,297.1L294.7,297.1z"/>
	<path fill="#3FDBB1" d="M302.7,295c0-0.3,0.1-0.5,0.2-0.7s0.3-0.2,0.5-0.2s0.4,0.1,0.5,0.2c0.1,0.1,0.2,0.4,0.2,0.6
		s-0.1,0.5-0.2,0.7c-0.1,0.2-0.3,0.2-0.5,0.2s-0.4-0.1-0.5-0.2C302.8,295.4,302.7,295.2,302.7,295z M304.1,305.3h-1.2v-8.2h1.2
		V305.3z"/>
	<path fill="#3FDBB1" d="M311.6,305.3l-0.3-1.1h-0.1c-0.4,0.5-0.9,0.9-1.2,1s-0.9,0.3-1.5,0.3c-0.8,0-1.4-0.2-1.9-0.7
		c-0.5-0.5-0.7-1-0.7-1.8c0-1.6,1.3-2.5,3.9-2.6h1.4V300c0-0.7-0.1-1.1-0.4-1.4c-0.3-0.3-0.8-0.5-1.3-0.5c-0.7,0-1.4,0.2-2.3,0.7
		l-0.4-0.9c0.4-0.2,0.9-0.4,1.3-0.5c0.5-0.1,0.9-0.2,1.4-0.2c0.9,0,1.7,0.2,2.2,0.7c0.5,0.5,0.7,1.1,0.7,2.1v5.5L311.6,305.3
		L311.6,305.3z M308.9,304.3c0.8,0,1.3-0.2,1.8-0.7c0.5-0.5,0.7-1,0.7-1.8v-0.8l-1.2,0.1c-0.9,0-1.7,0.2-2.1,0.5
		c-0.4,0.3-0.7,0.7-0.7,1.2c0,0.5,0.1,0.8,0.4,1C308,304.3,308.4,304.3,308.9,304.3z"/>
</g>
</svg>
