<?xml version="1.0" encoding="utf-8"?>
<!-- Generator: Adobe Illustrator 21.0.2, SVG Export Plug-In . SVG Version: 6.00 Build 0)  -->
<svg version="1.1" id="Capa_1" xmlns="http://www.w3.org/2000/svg" xmlns:xlink="http://www.w3.org/1999/xlink" x="0px" y="0px"
	 viewBox="0 0 316 316" enable-background="new 0 0 316 316" xml:space="preserve">
<g>
	<path fill="#35C49B" d="M132.7,256.8c8.2,0,13.2,5.6,13.2,12.4c0,6.9-5,12.4-13.2,12.4h-8.1v11.9h-9.5v-36.7H132.7z M124.7,264.7
		v9.2h8.1c2.6,0,4.2-2.1,4.2-4.7c0-2.6-1.5-4.7-4.1-4.7L124.7,264.7L124.7,264.7z"/>
	<path fill="#35C49B" d="M157.1,278.4c0.3,5.4,4.5,8.3,9.2,8.3c3.3,0,6.8-1.4,8.9-4.3l5.8,4.7c-3.3,4.3-7.6,7.3-15.8,7.3
		c-11.1,0-17.3-8.9-17.3-19.4c0-9.8,6-19.1,17.2-19.1c7.7,0,16.2,5.4,16.2,19.6c0,1-0.1,1.9-0.2,2.9L157.1,278.4L157.1,278.4
		L157.1,278.4z M157.2,271.1h14.4c0-5.8-4.3-8-7.2-8C160.7,263.1,157.2,266.3,157.2,271.1z"/>
	<path fill="#35C49B" d="M211.2,256.8v8.1h-9.6v28.7H192v-28.7h-9.6v-8.1H211.2z"/>
	<g>
		<path fill="#35C49B" d="M227.6,280.2h-3.4v13.3h-9.5v-36.7h17.6c8.2,0,13.2,5.2,13.2,11.7c0,4.9-2.8,9-7.6,10.8l8.8,14.2h-11
			L227.6,280.2z M224,264.5v8.5h8.1c2.6,0,4.2-1.9,4.2-4.2c0-2.4-1.5-4.3-4.1-4.3H224z"/>
		<path fill="#35C49B" d="M247.9,275c0-9.8,6.3-19.1,17.9-19.1c11.5,0,18.1,8.9,18.1,19.4c0,9.8-6.2,19.1-17.9,19.1
			C254.4,294.4,247.9,285.5,247.9,275z M257.3,274.9c0,9,4.8,11.8,8.9,11.8c5,0,8.3-4.7,8.3-11.2c0-8.6-4.7-11.8-8.7-11.8
			C260.5,263.7,257.3,268.2,257.3,274.9z"/>
		<path fill="#35C49B" d="M288.3,256.8h9.5v28.6h14.1v8.1h-23.6V256.8z"/>
	</g>
	<path fill="#3FDBB1" d="M13.5,278.4c0.3,5.4,4.5,8.3,9.2,8.3c3.3,0,6.8-1.4,8.9-4.3l5.8,4.7c-3.3,4.3-7.6,7.3-15.8,7.3
		c-11.1,0-17.3-8.9-17.3-19.4c0-9.8,6-19.1,17.2-19.1c7.7,0,16.2,5.4,16.2,19.6c0,1-0.1,1.9-0.2,2.9L13.5,278.4L13.5,278.4z
		 M13.6,271.1H28c0-5.8-4.3-8-7.2-8C17.2,263.1,13.6,266.3,13.6,271.1z"/>
	<path fill="#3FDBB1" d="M74.7,275c0-9.8,6.2-19.1,17.9-19.1c11.5,0,18.1,8.9,18.1,19.4c0,9.8-6.2,19.1-17.9,19.1
		C81.2,294.4,74.7,285.5,74.7,275z M84.1,274.9c0,9,4.8,11.8,8.9,11.8c5,0,8.3-4.7,8.3-11.2c0-8.6-4.7-11.8-8.7-11.8
		C87.4,263.7,84.1,268.2,84.1,274.9z"/>
	<path fill="none" d="M92.7,263.7c-5.2,0-8.5,4.6-8.5,11.2c0,9,4.8,11.8,8.9,11.8c1.6,0,3.1-0.5,4.3-1.4l-1.8-0.9l2.5-7.4l3.2,0.6
		c0.1-0.7,0.1-1.3,0.1-2.1C101.3,266.9,96.7,263.7,92.7,263.7z"/>
	<path fill="#3FDBB1" d="M72.6,285.8c-2.8,5.1-7.7,8.6-14.6,8.6c-11.1,0-17.3-8.9-17.3-19.4c0-9.8,6-19.1,17.2-19.1
		c7.1,0,12.2,3.7,15,9.2l-7.2,3.6c-1.7-3.5-4.7-5-7.4-5c-5.1,0-8.3,4.6-8.3,11.2c0,9,4.7,11.8,8.7,11.8c3.1,0,5.6-1.7,7-4.7
		L72.6,285.8z"/>
	<path fill="#3FDBB1" d="M93,286.7c-4.1,0-8.9-2.9-8.9-11.8c0-6.7,3.3-11.2,8.5-11.2c4,0,8.7,3.2,8.7,11.8c0,0.7,0,1.4-0.1,2.1
		l9.2,1.5c0.2-1.2,0.3-2.5,0.3-3.8c0-10.5-6.6-19.4-18.1-19.4c-11.7,0-17.9,9.2-17.9,19.1c0,10.5,6.6,19.4,18.1,19.4
		c5.6,0,9.9-2.1,13-5.4l-8.4-3.7C96.1,286.2,94.7,286.7,93,286.7z"/>
	<g>
		<g>
			
				<path opacity="0.7" fill="none" stroke="#FFFFFF" stroke-width="0.8165" stroke-linecap="round" stroke-linejoin="bevel" enable-background="new    " d="
				M124.8,284.1"/>
			
				<path opacity="0.7" fill="none" stroke="#FFFFFF" stroke-width="0.8165" stroke-linecap="round" stroke-linejoin="bevel" enable-background="new    " d="
				M124.7,284.7"/>
			
				<path opacity="0.7" fill="none" stroke="#FFFFFF" stroke-width="0.8165" stroke-linecap="round" stroke-linejoin="bevel" enable-background="new    " d="
				M114.7,281.8"/>
			<path fill="#35C49B" d="M172.4,206.1c-3.3,0.1-7.6,0-9.3,1.6c-1,1.4,1.6,2-0.1,3.5c-1.6,0.7-3-0.7-5.4,0.5
				c-1.3,1,1.6,2.4,0.8,3.4c-1.9,0.8-3.8-0.6-6.2,0.7c-1.1,1.9,2.1,2,0.8,3.3c-1.3,0.9-4.6-1-6.3,0.1c-1.9,1.4,2.1,2.9,0.6,3.9
				c-0.7,1-4.2-0.8-5.9-0.1c-1.8,1.7,1.7,2.8,0.6,3.8c-1,1-4.9-1.3-5.8-0.3c-1.3,1.7,2.2,2.1,0.8,3.2c-1.6,0.6-3.7-1.3-5.2,0
				c-0.7,0.6,2,1.8-0.1,3.3c-1,0.7-3.4-0.1-4.1,0.6c-1.4,1,1.7,0.8-4.2,3.2c-4.2,1.5-7.3,2.8-11.7,4.2c4-0.4,8-1.1,11.9-1.5
				c13.5-6.4,27.2-12.7,40.8-19.1c2.9-4.1,5.7-8.1,8.6-12.2C171.1,208.3,173.7,207.8,172.4,206.1z"/>
			<g>
				<path fill="#35C49B" d="M181.1,233c0,0,1.9,11.6,2,12.8c0,0,1.8,6.4,3.6,7.1c0,0,1,1,4.7,1.3c0,0,6.2,0.1,10.8,4c0,0,2.7,2,0,1
					c0,0-4.2-2.2-5.3-2.2c0,0,2.3,1.5,2.4,2.7c0,0,0.4,2.1-1.1,0.9c0,0-1.6-3.7-4.6-3.8c0,0,2.6,3.3,0.5,4.2c0,0-0.5,0.5-1-1.9
					c0,0-0.9-2.6-6-2.3c0,0-5.9,1-9.2-7c0,0-3.6-7.1-5-12.4L181.1,233z"/>
			</g>
			<path fill="#3FDBB1" d="M180.7,221.4c0,0,1.1,13.4-0.4,17.1c-1.5,3.6-12.5,12.4-18,13.6c-7.6,1.6-26.9,4.9-26.9,4.9l-10.6-0.2
				c-4.7,0.1-9.6,0.1-13.7-0.2c-4.7-0.3-15.3-1.4-28.4-0.8c-12.9,0.7-17.5,9-16.8,15c0.7,5.3,5.7,8.1,9.3,8.2c2.2,0,17.7-1,27.8-0.7
				c10.1,0.5,22.4,3.7,24,4.7c1.6,0.9,1,1.4-0.6,1.6c-0.7,0.1-3.1-0.8-6.9-1.9c-5-1.4-10-2.6-22.5-2.2c-8.7,0.2-10.5,0.9-24.6,2.7
				c-4,0.5-11.3-1.8-14.3-7.5c-6.5-12.6,4.1-21,5.5-22.2c6.4-5.7,16.1-8.8,22.5-9.6c2.9-0.4,25.5-2.5,30-3.7
				c4.6-1.2,15.5-6.3,19.1-7.5c3.5-1.2,25.9-16.8,28.8-19.2c2.9-2.5,9.1-8.1,10.4-8.7c1.3-0.6,7.7-6.8,12-7.5
				c4.3-0.8,6.3,1.5,8.9,1.6c2.6,0.1,6.7,0.8,6.7,0.8h0.2l0.2,0.1c0,0,2.7,1.9,2.7,3.8c0,0.2-0.2,0.5-0.3,0.8
				c-0.8,2.8-2.5,4.9-5.1,6.7c-2.1,1.4-6.9,8.6-11.3,9.7c-2.9,0.8-7.8,0.5-7.8,0.5"/>
			<path opacity="0.56" fill="#1F2A15" enable-background="new    " d="M191,201.8c0,0-2.4-2.6-4-2.2c-1.7,0.4-2.4,1.1-2.2,1.4
				l0.3,0.2c0,0-0.1,1.5,0.8,1.7c0.9,0.2,1,0,1,0s-1.1-0.1-1.2-0.6c-0.1-0.4-0.6-1.4-0.2-1.8c0.4-0.3,0.8-0.6,1.8-0.6
				C188.3,200.1,191,201.8,191,201.8z"/>
			
				<ellipse transform="matrix(0.9992 -3.969273e-02 3.969273e-02 0.9992 -7.8632 7.6209)" fill="#CFD4DD" cx="188" cy="201.8" rx="1.5" ry="1.5"/>
			<path fill="#35C49B" d="M179,231.7c0,0,0.1-11.7-0.2-13.2c0,0,6.4,2.1,9.8,1.2c3.9-1.9,4-1.9,10.3-10.4
				c-4.9,9.3-5.1,9.3-6.3,14.3c-1,4.2-3.9,6.6-5.7,7.1c-2.9,1-7.4,1.3-8,0.7"/>
			
				<ellipse transform="matrix(0.9992 -4.098147e-02 4.098147e-02 0.9992 -8.1018 7.8973)" fill="#1F2A15" cx="188.6" cy="201.6" rx="0.7" ry="0.9"/>
			
				<ellipse transform="matrix(0.9992 -4.098147e-02 4.098147e-02 0.9992 -8.1018 7.8973)" fill="#506085" cx="188.6" cy="201.6" rx="0.7" ry="0.9"/>
			<path fill="#35C49B" d="M203,202.4c-0.2,0.2-1.1,0.8-0.6,1.1c0.6,0.4,0.9,0.2,1-0.3C203.5,202.8,203.2,202.2,203,202.4z"/>
			<g>
				<path opacity="0.58" fill="#35C49B" enable-background="new    " d="M188.4,209.8l-0.6-0.1c0.3,0.3,0.6,0.4,0.7,0.5
					c0.2,0.1,1.2,0.6,3.3,0.2c3.3-0.7,10.8-3.6,11.8-4.8c1-1,1.1-1.3,1.1-1.3l0.1-0.3l0.3-0.5v-0.3c0,0-1,1-1.8,1.9
					c-1,0.9-8,4.2-11.5,4.7c-1.8,0.3-2.5,0.2-2.9,0.1C188.9,209.9,188.7,209.9,188.4,209.8z"/>
			</g>
			<path fill="#35C49B" d="M164.9,222.5c-4.8,2.6-23.2,16.1-20.4,22.2c1.2,3.9,4.9,7.7,11.2,11.8c5.2,2.6,8.2-2.4,15.3,4.1
				c0.8,0.3,0.9,0.1,1-0.1c0.2-0.9-2.1-2.6-4.2-3.5c1.1-1,2.8-0.4,3.8,0.2c1.1,0.7,1.8,2.1,2.6,1.6c0-1.4-2-2.7-4.4-3.2
				c1.1-0.2,2.5-0.2,3.9-0.1c1.6,0.2,2.9,1,3.2,1c0.5,0,0.3-1.3-2.5-2c-4.6-1.1-9.9,1.4-14.1-0.6c-3-1-6.8-5.5-7.7-9.2
				c-0.8-4.6,12.7-9.7,18.8-12C178.8,230.1,173.9,218.9,164.9,222.5z"/>
			
				<ellipse transform="matrix(0.9991 -4.264947e-02 4.264947e-02 0.9991 -8.4368 8.2218)" fill="#FCFCF5" cx="188.5" cy="201.8" rx="0.5" ry="0.5"/>
			<path fill="#35C49B" d="M182.4,214.1c0.6-1.7,2.4-2.7,3.9-2.1s2.4,2.4,1.7,4.1c-0.6,1.7-2.4,2.7-3.9,2.1
				C182.5,217.8,181.7,215.8,182.4,214.1z"/>
			<path fill="#35C49B" d="M66.8,273.9c-2.9-4.7-9.4,1-6.5,4.6c1.8,2.2,6.3,5,12.2,4.7c-2.2-1-1.2-3.8,2.9-4.2
				C69.1,278.8,66.8,273.9,66.8,273.9z"/>
			<g>
				<path fill="#35C49B" d="M98.2,278.3c-1.3,0.1-2.2,1.5-0.9,2.5c3.7-0.3,8.8,0,13.3,0.5c4.5,0.6,8.1,1.1,14.6,3.5
					c5.1,1.1,3.1-1.4,1.6-1.9C119.5,280.1,110.7,278.5,98.2,278.3"/>
			</g>
			<path fill="#35C49B" d="M105.3,241.7c-6.4,0.7-11.5,1.2-16.2,1.7c1,1.2,3.6,5.3,0.7,12.3c5.5,0.2,7.2,0.2,14,0.5
				C111.2,248,105.6,241.4,105.3,241.7z"/>
			<path fill="#35C49B" d="M75.7,246.5c-7.9,2.9-13.7,7.6-16.5,11.8c4.1-1.9,9,3.2,7.2,7.4c2.6-6.5,8.1-8.2,10.6-9
				C79.6,256,78.5,246.9,75.7,246.5z"/>
			<g>
				<path fill="#35C49B" d="M120.5,250.3c0,0-1,1.1-4,1c-2.9,0-6-2.9-6-6.1c0-1.7,1.2-2.8,2.5-3.4l1.7-0.8c0,0,10-3.2,13.6-2.4
					c3.6,1,2.7,3.9,3.1,6.3c0.4,2.3-3,10.7-3.5,11.1c-0.6,0.4-0.2,1,1.9,0.9c2.1-0.1,5.5-3.8,7.2-3.9c1.7,0-4.3,4.3-4.3,4.3
					s7.2-2.2,9.1-2.2c1.9-0.1-1.5,1.8-4.1,2.6c-2.6,0.8-3.4,1.4-3.4,1.4s12.2-2.1,13.5-2.2c1.3-0.1,1.9,0.6,0.1,1.5
					c-1.7,1-11.4,1.3-11.4,1.3s7.8,1.5,9.2,2.1c2.9,1.2,3.8,2.1,1,2.2c-2.3,0.1-7.1-1.5-10.3-1.7c-3.1-0.1-9-0.2-9-0.2
					s2.6,1.7,4.1,3c2.1,1.7,0.8,1.8,0.8,1.8s-5.1-2.2-6.9-3.6c-1.7-1.4-1.7-4.5-1.7-4.5s-1.8,0.2-2.5-0.9c-0.9-1.3-0.8-3.6-1-7.6"/>
			</g>
			
				<radialGradient id="SVGID_1_" cx="105.1741" cy="708.8741" r="11.561" gradientTransform="matrix(0.9992 -4.010000e-02 4.010000e-02 0.9992 -6.548 -453.3735)" gradientUnits="userSpaceOnUse">
				<stop  offset="5.618000e-03" style="stop-color:#1F2A15"/>
				<stop  offset="0.809" style="stop-color:#FFFFFF"/>
			</radialGradient>
			<path fill="url(#SVGID_1_)" d="M121.2,245.4c1-1,3.6-2.4,5.3-3.5c3.5-3.4-8.8-2-9.7,3.8c0,0-1.4,7.6,3.5,4.7
				C120.3,248.6,119.2,246.9,121.2,245.4z"/>
			<path fill="#35C49B" d="M196,215.8c0,0-1.3,1.4-1.9,3c-1.1,3.2-1,3-1.3,4.3c-1,4.6-3.5,7.7-7.8,8.2c-3.7,0.5-5.1,0.9-5.5,0
				c-0.5-1-0.6-1.1-0.6-1.1l0.1,0.3c0,0-0.2-10.1-0.6-11.8c0,0,6.2,2.6,10.3,1.6C188.7,220,193.5,218.8,196,215.8z"/>
			<path opacity="0.8" fill="#FFFFFF" stroke="#FFFFFF" stroke-width="0.7084" enable-background="new    " d="M125.2,282"/>
			<path opacity="0.8" fill="#FFFFFF" stroke="#FFFFFF" stroke-width="0.7084" enable-background="new    " d="M114.7,279.5"/>
			
				<path opacity="0.59" fill="none" stroke="#FFFFFF" stroke-width="0.6888" stroke-linecap="round" enable-background="new    " d="
				M115.2,282.1c0,0,4.6,0.8,9.7,2.7"/>
			
				<path opacity="0.59" fill="#6E6E6E" stroke="#FFFFFF" stroke-width="0.6888" stroke-linecap="round" enable-background="new    " d="
				M115.2,279.5c8.1,1.7,8.1,1.8,9.5,2.3"/>
		</g>
	</g>
</g>
</svg>
