<?xml version="1.0" encoding="utf-8"?>
<!-- Generator: Adobe Illustrator 21.0.2, SVG Export Plug-In . SVG Version: 6.00 Build 0)  -->
<svg version="1.1" id="Capa_1" xmlns="http://www.w3.org/2000/svg" xmlns:xlink="http://www.w3.org/1999/xlink" x="0px" y="0px"
	 viewBox="0 0 316 316" enable-background="new 0 0 316 316" xml:space="preserve">
<g>
	<path fill="#3FDBB1" d="M135.6,253.3c0-11.6,0-23.4,0-35c0-1.7,0.3-2.1,2.1-2.1c17.4,0.1,34.8,0.1,52.1,0c1.7,0,2.3,0.5,2.1,2.1
		c-0.1,1.7-0.1,3.4,0,5.1c0.1,1.5-0.5,1.8-1.8,1.8c-5.2-0.1-10.4,0-15.6,0c-9.4,0-18.7,0-28.1,0c-1.5,0-1.9,0.3-1.9,1.9
		c0.1,6.7,0.1,13.4,0,20.1c0,1.7,0.6,2,2,1.9c12.9-0.1,25.6,0,38.5-0.1c1.7,0,2.5,0.3,2.3,2.1c-0.2,2.1,0.7,5-0.3,6.2
		c-1.2,1.5-4.2,0.5-6.3,0.5c-11.3,0-22.6,0-33.9,0c-1.6,0-2.3,0.2-2.3,2.1c0.1,6.5,0.1,13.1,0,19.6c0,1.8,0.6,2,2.1,2
		c14.3-0.1,28.7,0,43-0.1c1.8,0,2.5,0.5,2.3,2.3c-0.2,2.1,0.7,5-0.5,6.2c-1.2,1.5-4.2,0.5-6.3,0.5c-15.7,0-31.3,0-46.9,0.1
		c-2.5,0-2.8-0.7-2.8-2.9C135.8,276.2,135.6,264.8,135.6,253.3z"/>
	<path fill="#3FDBB1" d="M124.1,216.2c-2.4,3.7-4.5,7-6.5,10.4c-0.6,1-1.5,0.6-2.3,0.3c-16.6-3.6-33.1,5.2-39.3,21
		c-0.6,1.6-1,3.2-1.7,5.3c-1.2-6-3.8-10.7-7.3-14.8c-8.8-10.4-20-14-33.2-11.5c-1.5,0.2-2.4,0.1-3.2-1.2c-1.5-2.6-3.2-5.2-4.9-7.7
		c-0.9-1.4-0.7-1.8,1-1.7c1,0.1,2,0,2.9,0c30.5,0,60.9,0,91.3,0C121.9,216.2,122.7,216.2,124.1,216.2z"/>
	<path fill="#3FDBB1" d="M216,253.2c0,11.7,0,23.5,0,35.2c0,1.7-0.3,2.4-2.1,2.1c-1.9-0.1-3.8-0.1-5.8,0c-1,0-1.5-0.3-1.4-1.4
		c0-0.3,0-0.8,0-1.1c0-23.1,0-46.4,0-69.5c0-1.9,0.5-2.6,2.4-2.4c1.6,0.1,3.2,0.1,4.9,0c1.6-0.1,2,0.5,2,2c-0.1,10.9,0,21.8,0,32.7
		C216,251.6,216,252.4,216,253.2z"/>
	<path fill="#3FDBB1" d="M98.9,265.7c-7-0.2-12.2-5.8-12-12.9c0.2-6.5,6-11.8,12.8-11.6c6.7,0.2,12.1,5.9,12,12.5
		C111.5,260.6,105.7,265.9,98.9,265.7z"/>
	<path fill="#3FDBB1" d="M61.8,253.5c0,6.9-5.4,12.3-12.3,12.3s-12.4-5.5-12.4-12.3c0-6.7,5.5-12.1,12.3-12.2
		C56.3,241.2,61.8,246.6,61.8,253.5z"/>
	<path fill="#3FDBB1" d="M74.4,272c1.5,3.2,3.6,5.5,6,7.6c1,0.9,1,1.4,0.2,2.4c-1.8,2.4-3.6,5-5.3,7.4c-0.7,1-1.1,1-1.8,0
		c-1.7-2.5-3.5-5-5.3-7.4c-0.8-1-0.6-1.6,0.3-2.5C70.9,277.4,73,275.2,74.4,272z"/>
	<path fill="#3FDBB1" d="M63.9,193.4c0-4.5,0-8.4,0-12.2c0-0.8-0.2-1.7,1.1-1.7c1.4,0,1.1,0.9,1.1,1.7c0,4.6,0,9.1,0,13.8
		c0,0.7,0.6,1.8-0.8,2c-1,0.1-2,0.1-2.7-1c-2.3-3.8-4.7-7.6-7.2-11.4c-0.2-0.3-0.5-0.6-1-1.4c0,4.4,0,8.2,0,12
		c0,0.8,0.5,1.9-1.1,1.9c-1.6,0-1.1-1.1-1.1-1.9c0-4.6,0-9.1,0-13.8c0-0.7-0.6-1.7,0.7-1.8c1-0.1,2-0.3,2.8,0.9
		c2.3,3.8,4.7,7.7,7.1,11.4C63,192.1,63.2,192.5,63.9,193.4z"/>
	<path fill="#3FDBB1" d="M123,187.9c0-2.4,0-4.7,0-7.1c0-1.1,0.3-1.5,1.5-1.5c3.4,0.1,6.7,0,10,0c0.7,0,1.4-0.2,1.4,0.9
		s-0.6,1.2-1.5,1.2c-2.5,0-4.9,0.1-7.3,0c-1.4-0.1-2,0.3-1.8,1.8c0.1,0.7,0.1,1.4,0,2c-0.1,1.1,0.2,1.5,1.4,1.5c2.3-0.1,4.4,0,6.7,0
		c0.8,0,1.7-0.3,1.7,1.1c0,1.2-0.9,1-1.6,1c-2.1,0-4.3,0.1-6.4,0c-1.2,0-1.7,0.2-1.7,1.6c0,4.2-0.1,4.2,4.2,4.2c1.8,0,3.5,0,5.3,0
		c0.8,0,1.2,0.1,1.2,1.1c0,1-0.6,1-1.4,1c-3.4,0-6.9,0-10.3,0c-1.1,0-1.5-0.3-1.5-1.5C123,193,123,190.4,123,187.9z"/>
	<path fill="#3FDBB1" d="M183.2,197.4c-4.1,0-6.5-1.7-7.1-4.6c-0.1-0.6-0.6-1.2,0.5-1.5c0.7-0.1,1.4-0.2,1.8,0.8
		c1.2,3,3.9,4.1,7,2.8c1.1-0.5,1.9-1.2,1.9-2.6s-0.7-2.1-1.9-2.5c-1.8-0.5-3.5-0.9-5.3-1.4c-2-0.6-3.6-1.7-3.5-4.1
		c0-2.5,1.2-4.2,3.6-5c3.4-1.1,7.4,0.1,8.6,2.7c0.3,0.8,1,1.8-0.1,2.4c-1,0.5-1.7-0.1-2.1-1.2c-0.8-2.3-5-2.8-6.7-1.2
		c-1.5,1.4-1.1,3.5,0.8,4.2c1.5,0.6,3,0.8,4.6,1.2c3.3,0.8,4.5,2.1,4.4,4.9c0,2.7-1.6,4.4-4.6,5.1
		C184.3,197.3,183.5,197.3,183.2,197.4z"/>
	<path fill="#3FDBB1" d="M36.2,185.9c0-1.8,0-3.5,0-5.3c0-1,0.5-1.2,1.4-1.2c0.9,0,1.2,0.3,1.1,1.2c-0.1,3.8,0.3,7.8-0.3,11.6
		c-0.6,3.4-2.8,5-6.5,5.1c-3.9,0-6.2-1.6-6.8-5.1c-0.7-3.9-0.2-7.9-0.3-11.8c0-1,0.7-1,1.4-1c0.9,0,1.1,0.3,1.1,1.2
		c0,3.4-0.1,6.8,0,10c0.1,3.5,2.1,5,5.4,4.4c2-0.3,3.2-1.5,3.4-3.5c0.1-1.9,0-3.8,0-5.8C36.1,185.9,36.2,185.9,36.2,185.9z"/>
	<path fill="#3FDBB1" d="M95.4,179.7c2-0.7,2.8,0.1,3.4,1.8c1.2,4.1,2.7,8,4.3,12.6c1.6-4.6,3-8.7,4.3-12.8c0.6-1.8,1.4-2.4,3.4-1.8
		c-1.4,3.8-2.8,7.6-4.2,11.4c-0.6,1.6-1.2,3.2-1.7,4.7c-0.3,1-0.9,1.1-1.9,1.2c-0.9,0-1.4-0.3-1.6-1.2
		C99.3,190.4,97.3,185,95.4,179.7z"/>
	<path fill="#3FDBB1" d="M203.4,188.1c0-2.5,0-4.9,0-7.3c0-1,0.3-1.4,1.4-1.4c1,0,1.2,0.5,1.2,1.4c0,5,0,9.9,0,14.8
		c0,1-0.3,1.4-1.4,1.4s-1.2-0.5-1.2-1.4C203.4,193,203.4,190.5,203.4,188.1z"/>
	<path fill="#3FDBB1" d="M82.8,188.3c0,2.4,0,4.7,0,7.1c0,0.9,0,1.6-1.2,1.6c-1.1,0-1.1-0.6-1.1-1.5c0-4.9,0-9.7,0-14.7
		c0-0.8,0-1.4,1.1-1.5c1.2,0,1.2,0.7,1.2,1.6C82.7,183.4,82.8,185.8,82.8,188.3z"/>
	<path fill="#3FDBB1" d="M287.9,262.8c0-8.4,0-16.6,0-24.9c0-10.2-5.6-17.9-15.3-21.2c-6.9-2.4-14-2.5-21-1.1
		c-13.2,2.6-20.3,11.4-20.3,24.7c0,14.4,0,29,0,43.4c0,2.3-1,5.2,0.5,6.5s4.4,0.2,6.7,0.5c1.7,0.1,2-0.6,2-2c-0.1-9.5,0-19-0.1-28.4
		c0-1.6,0.5-2,2-2c11.4,0.1,22.8,0.1,34.1,0c2.1,0,2.5,0.6,2.5,2.5c-0.1,9.3,0,18.6-0.1,27.9c0,1.6,0.5,2.1,2,2c1.5-0.1,3-0.1,4.6,0
		c1.9,0.2,2.6-0.3,2.6-2.5C287.8,279.7,287.9,271.2,287.9,262.8z M276.9,249.2c-5.8-0.1-11.6,0-17.4,0c-5.8,0-11.6,0-17.4,0
		c-1.5,0-2-0.3-1.9-1.8c0.1-2.9,0-5.8,0-8.7c0-6.4,3-11.2,9.1-13.3c6.9-2.5,13.9-2.5,20.8-0.1c5.6,2,8.6,6.4,8.6,12.4
		c0,3.2-0.1,6.4,0,9.6C278.9,248.8,278.5,249.2,276.9,249.2z"/>
	<path fill="#3FDBB1" d="M162.8,194c-0.2-1.9,0.5-4.1-1.6-5.4c-0.6-0.5,0.1-0.7,0.5-1c1.7-1.6,1.8-3.5,1-5.4c-0.8-2-2.6-2.6-4.6-2.7
		c-2.4-0.1-4.7,0.1-7.1-0.1c-1.5-0.1-1.8,0.5-1.7,1.8c0.1,4.5,0,9,0,13.4c0,0.9-0.7,2.3,1.2,2.3c1.8,0,1.1-1.4,1.1-2.1
		c0.1-5.8,0.1-5.8,6-5.3c1.7,0.1,2.5,0.9,2.6,2.5c0,0.8,0.2,1.6,0.1,2.3c-0.2,2.4,0.9,3.2,3.2,2.5C163.2,195.8,163,194.9,162.8,194z
		 M158.1,187.3c-1,0.1-1.9,0-3.5,0c-0.6-0.1-2.3,0.7-2.6-0.3c-0.6-1.4-0.2-3.2-0.2-4.7c0-0.6,0.5-0.8,0.9-0.8c1.8,0,3.6,0,5.4,0.1
		c1.6,0.1,2.4,1.1,2.4,2.8C160.6,186,159.8,187.2,158.1,187.3z"/>
	<path fill="#3FDBB1" d="M283.8,180c-0.8-0.3-1.8-0.6-2.6-0.6c-2-0.1-4.1,0-6.2-0.1c-1.1,0-1.5,0.3-1.5,1.5c0.1,2.4,0,4.7,0,7.1
		c0,0.8,0,1.6,0,2.3c0.1,2.1-1,5.2,0.5,6.3c1.4,1.1,4.2,0.3,6.4,0.3c4.1,0,6.3-2,7.2-6.4C288.7,185.9,287.1,181.5,283.8,180z
		 M284.3,192.8c-1,1.7-6,2.9-7.8,2c-0.7-0.3-0.5-0.9-0.5-1.4c0-1.8,0-3.6,0-5.5c0-0.8-0.1-1.7,0-2.5c0.2-1.4-0.9-3.2,0.7-3.8
		c2.4-1,6.7,0.2,7.7,2.1C286,186.7,286,189.9,284.3,192.8z"/>
	<path fill="#3FDBB1" d="M228.8,179.7c-0.5-0.1-0.9-0.2-1.4-0.2c-2.1,0-4.3,0-6.4,0c-1.1,0-1.4,0.5-1.4,1.5c0.1,2.5,0,4.9,0,7.3
		c0,0.6,0,1.2,0,1.8c0,2.1-0.8,5.3,0.3,6.4c1.5,1.5,4.5,0.5,6.8,0.5c3.9,0,6.5-2.6,7.1-6.9C234.6,184.6,232.7,180.7,228.8,179.7z
		 M229.9,193.5c-1.1,1.1-6.1,2-7.3,1.4c-0.7-0.5-0.5-1.1-0.5-1.7c0-2.9,0-5.8,0-8.7c0-3.3-0.5-2.9,2.9-2.9c2.5,0,4.7,0.2,5.9,2.8
		C232.1,187.3,231.7,191.6,229.9,193.5z"/>
	<path fill="#3FDBB1" d="M255.5,180.7c-0.3-0.9-0.7-1.4-1.8-1.4c-1,0-1.6,0.3-2,1.4c-1.9,5.3-3.9,10.5-6,15.9c1.8,0.7,2.7,0,3.2-1.7
		c0.3-1.1,0.3-2.9,1.5-3.2c1.9-0.5,4.2-0.3,6.1,0c1.2,0.2,1.2,1.9,1.6,3c0.5,1.9,1.5,2.4,3.3,1.7C259.4,191.3,257.4,186,255.5,180.7
		z M250.9,189.5c0.8-2.3,1.6-4.5,2.7-7.3c0.6,1.5,0.9,2.3,1.1,3.2C256.4,190.1,256.4,190.1,250.9,189.5z"/>
</g>
</svg>
