<?xml version="1.0" encoding="utf-8"?>
<!-- Generator: Adobe Illustrator 21.0.2, SVG Export Plug-In . SVG Version: 6.00 Build 0)  -->
<svg version="1.1" id="Capa_1" xmlns="http://www.w3.org/2000/svg" xmlns:xlink="http://www.w3.org/1999/xlink" x="0px" y="0px"
	 viewBox="0 0 316 316" enable-background="new 0 0 316 316" xml:space="preserve">
<g>
	<g>
		<path fill="#3FDBB1" d="M34.7,265.5h2.7v-14.3c0.1-12.3,12.9-11.1,16.8-9c-0.1,2.9-0.3,5.8-0.6,8.6c-1.7-2.4-8.1-3.8-7.7,3.9v10.8
			h8.3v7.3h-8.3v27.3c-2.9,0-5.8,0-8.6,0v-27.3h-2.7L34.7,265.5L34.7,265.5z"/>
		<path fill="#3FDBB1" d="M81.1,265.5v4.5c-2.8-3.1-6.7-5-10.9-5c-8.6,0-15.6,8-15.6,17.7s7.1,17.6,15.6,17.6c4.3,0,8.1-1.9,10.9-5
			v4.5h7.5v-34.2H81.1z M72,292.9c-5,0-9.1-4.7-9.1-10.5c0-5.8,4-10.5,9.1-10.5c5,0,9.1,4.7,9.1,10.5S77,292.9,72,292.9z"/>
		<path fill="#3FDBB1" d="M111.5,264.8c-4.1,0-8,1.9-10.8,5v-28.2h-7.8v57.8h7.8v-4.5c2.7,3.1,6.5,5,10.8,5c8.5,0,15.3-8,15.3-17.6
			S120.1,264.8,111.5,264.8z M109.9,292.9c-4.9,0-8.9-4.7-8.9-10.5s3.9-10.5,8.9-10.5c4.8,0,8.9,4.8,8.9,10.5
			C118.7,288.2,114.8,292.9,109.9,292.9z"/>
		<path fill="#3FDBB1" d="M219.9,265.5v4.5c-2.8-3.1-6.7-5-10.9-5c-8.6,0-15.7,8-15.6,17.7c0,9.7,7.1,17.6,15.6,17.6
			c4.3,0,8.1-1.9,10.9-5v4.5h7.5v-34.2H219.9z M210.8,292.9c-5,0-9.1-4.7-9.1-10.5c-0.1-5.8,4-10.5,9.1-10.5c5,0,9.1,4.7,9.1,10.5
			S215.8,292.9,210.8,292.9z"/>
		<path fill="#3FDBB1" d="M267.4,264.6c-10.2,0-18.5,8-18.5,17.8s8.3,17.8,18.5,17.8s18.5-8,18.5-17.8
			C285.8,272.6,277.6,264.6,267.4,264.6z M267.4,292c-5.3,0-9.5-4.6-9.5-10.2c0-5.6,4.3-10.2,9.5-10.2s9.5,4.6,9.5,10.2
			C276.9,287.5,272.7,292,267.4,292z"/>
		<path fill="#3FDBB1" d="M182.7,264.6c3.2,0,6.4,0.8,9.2,2.4V277h-0.8c-1.7-3.2-4.8-5.5-8.4-5.5c-5.3,0-9.5,4.6-9.5,10.2
			c0,5.7,4.3,10.2,9.5,10.2c3.5,0,6.5-2,8.2-4.9h1v10.6c-2.7,1.5-5.8,2.4-9.2,2.4c-10.2,0-18.5-8-18.5-17.8
			C164.2,272.5,172.5,264.6,182.7,264.6z"/>
		<polygon fill="#3FDBB1" points="236,254.1 244.4,254.1 244.4,266 250.1,266 250.1,273.5 244.4,273.5 244.4,300.1 236,300.1 
			236,273.5 230.3,273.5 230.3,266 236,266 		"/>
		<rect x="153.9" y="265.7" fill="#3FDBB1" width="8.4" height="34.5"/>
		<circle fill="#3FDBB1" cx="158.1" cy="256" r="5.2"/>
		<path fill="#3FDBB1" d="M130,265.6h8.5v3.7c3.1-5,9.3-6.8,13.9-1.7c-1.7,2.2-3.4,4.4-5.2,6.6c-1.7-4.8-8.3-2.5-8.9,4.3v21.6h-8.5
			v-34.5H130z"/>
	</g>
	<path fill="#3FDBB1" d="M106.4,144.5c-0.4,0.4-1,1-1.6,1.6c39.2,35.7,77.9,72,115.7,109.2c0.6-0.6,1.1-1.1,1.7-1.7
		C184.7,216.6,146.3,180,106.4,144.5z"/>
	<path fill="#3FDBB1" d="M101.5,168.4c-0.4,0.4-1,1-1.6,1.6c33.6,30.6,66.7,61.7,98.9,93.8c0.6-0.6,1.1-1.1,1.7-1.7
		C168.6,230.2,135.7,198.7,101.5,168.4z"/>
	<path fill="#3FDBB1" d="M130,139.9c-0.4,0.4-1,1-1.6,1.6c33.6,30.6,66.7,61.7,98.9,93.8c0.6-0.6,1.1-1.1,1.7-1.7
		C197.1,201.6,164.3,170.2,130,139.9z"/>
	<path fill="#3FDBB1" d="M129.6,249.2c26.4-27.6,52.8-53.8,78.8-78.8c0.4,0.4,0.8,0.8,1.1,1.1c-25.3,25.3-51.6,51.6-78.8,78.8
		C130.5,250,130,249.7,129.6,249.2z"/>
	<path fill="#3FDBB1" d="M146,248.8c25.5-26.6,50.9-51.9,76-76c0.4,0.4,0.8,0.8,1.1,1.1c-24.4,24.4-49.7,49.7-76,76
		C146.7,249.5,146.4,249.2,146,248.8z"/>
	<path fill="#3FDBB1" d="M168.3,253.6c17.7-19.5,36.4-38,55.5-55.5c0.4,0.4,0.8,0.8,1.1,1.1c-18.5,18.2-37,36.6-55.5,55.5
		C169.1,254.3,168.8,253.9,168.3,253.6z"/>
	<path fill="#3FDBB1" d="M105.6,204.1c17.7-19.5,36.4-38,55.5-55.5c0.4,0.4,0.8,0.8,1.1,1.1c-18.5,18.2-37,36.6-55.5,55.5
		C106.4,204.8,105.9,204.4,105.6,204.1z"/>
	<path fill="#3FDBB1" d="M106.4,215.8c23.6-24.6,47.2-48.2,70.6-70.6c0.4,0.4,0.8,0.8,1.1,1.1c-22.6,22.6-46.2,46.2-70.6,70.6
		C107.2,216.6,106.8,216.2,106.4,215.8z"/>
	<path fill="#3FDBB1" d="M105.9,232.7c28.8-31,57.4-59.8,85.6-85.6c0.4,0.4,0.8,0.8,1.1,1.1c-27.8,26.1-56.4,54.7-85.6,85.6
		C106.7,233.5,106.4,233.1,105.9,232.7z"/>
	<polygon fill="#3FDBB1" points="181,141 132.6,187.9 204.6,257.2 206.8,255.4 166.3,215.8 212.4,169.7 210.5,167.8 164.3,213.9 
		137.3,187.5 182.7,142.7 	"/>
</g>
</svg>
