<?xml version="1.0" encoding="utf-8"?>
<!-- Generator: Adobe Illustrator 21.0.2, SVG Export Plug-In . SVG Version: 6.00 Build 0)  -->
<svg version="1.1" id="Capa_1" xmlns="http://www.w3.org/2000/svg" xmlns:xlink="http://www.w3.org/1999/xlink" x="0px" y="0px"
	 viewBox="0 0 316 316" enable-background="new 0 0 316 316" xml:space="preserve">
<g>
	<path fill="#3FDBB1" d="M159.3,286.3c49.9,0,99.8,0,149.8,0c0.4,0,1.1,0,1.5,0.1c0.2,0,0.4,0.3,0.4,0.4c0.1,0.4-0.2,0.4-0.4,0.4
		c-0.4,0-0.7,0-1.1,0c-5.4,0-10.7,0-16.1,0c-94.6,0-189.1,0-283.7,0c-0.4,0-1.1,0-1.5,0c-0.2,0-0.5-0.3-0.5-0.4
		c-0.1-0.4,0.3-0.4,0.6-0.5c0.4,0,0.9,0,1.4,0C59.5,286.3,109.3,286.3,159.3,286.3z"/>
	<path fill="#3FDBB1" d="M109.4,120.8c33.6,0,66.8,0,100.4,0c0,0.9,0.2,2.1,0.2,3c0,25.3,0,50.5,0,76c0,3.7,0,7.1-0.7,10.8
		c-2.1,10.1-7,18.1-14.8,24.9c-8.9,7.5-19.5,11.5-31,12.4c-12.5,0.7-24.1-2.3-34.5-9.2c-9.6-6.4-16-15.2-18.5-26.5
		c-0.7-2.8-0.9-5.8-0.9-8.7c0-26.7,0-53.3,0-80C109.4,122.7,109.4,122,109.4,120.8z M110.6,122c0,0.7-0.2,1.6-0.2,2.3
		c0,26.3,0,52.5,0,78.6c0,2.3,0.2,4.2,0.5,6.4c1.6,10.1,6.8,18.5,14.6,25.1c10.1,8.5,21.6,12.4,34.9,12.2
		c10.8-0.2,20.9-3.1,29.8-9.4c9.6-6.8,16-15.9,18-27.4c0.7-3.3,0.7-6.8,0.7-10.1c0-25.1,0-50,0-75.3c0-0.7,0-1.9-0.2-2.8
		C175.9,122,143.3,122,110.6,122z"/>
	<path fill="#3FDBB1" d="M40.6,267.5c0.1,0,0.1-0.1,0.2-0.1c2.5,0,5,0,7.6,0.1c1.5,0.1,2.7,0.8,3.2,2.4s0.2,3.1-1.2,4.2
		c-0.1,0.1-0.2,0.2-0.3,0.4c0.2,0.1,0.3,0.3,0.4,0.4c1.5,0.8,2,2.2,1.9,3.9c-0.1,1.7-0.8,3.1-2.4,3.8c-0.7,0.4-1.7,0.5-2.5,0.5
		c-2.1,0.1-4.1,0-6.2,0c-0.2,0-0.4-0.1-0.5-0.1C40.3,282.1,40.3,268.7,40.6,267.5z M42.9,275.7c-0.4,1.4-0.3,4.3,0,5.2
		c1.6,0,3.1,0.1,4.7,0c1.4-0.1,2.2-1.1,2.2-2.3c0.1-1.5-0.4-2.3-2.1-2.5C46.2,275.7,44.6,275.8,42.9,275.7z M42.7,273.7
		c1.7,0,3.3,0.1,4.9,0c1.2-0.1,1.7-0.9,1.7-2.1s-0.4-1.8-1.5-2.1c-1.6-0.4-3.3-0.2-5-0.2C42.7,270.9,42.7,272.2,42.7,273.7z"/>
	<path fill="#3FDBB1" d="M275.1,281.3c0.4,0.4,1.1,0.9,1.6,1.5c-0.3,0.4-0.6,0.8-1.1,1.4c-0.4-0.4-0.9-0.6-1.3-0.9
		c-0.5-0.5-1.3-0.7-2-0.4c-1.5,0.6-3.1,0.6-4.7,0.4c-3.1-0.5-5.1-2.8-5.6-6.2c-0.2-1.6-0.2-3.2,0.2-4.7c0.7-3.2,3.1-5.2,6.3-5.4
		c0.9-0.1,1.9,0,2.7,0.2c2.9,0.5,4.9,2.9,5.4,6C277.1,276.1,276.8,278.8,275.1,281.3C275.1,281.1,275.1,281.2,275.1,281.3z
		 M273.2,279.9c0.3-0.6,0.6-1.2,0.8-1.7c0.6-1.9,0.6-3.9,0.1-5.8c-0.7-2.2-2.3-3.4-4.6-3.4c-2.3,0-4,1.2-4.6,3.4
		c-0.5,1.8-0.5,3.7,0,5.6c0.3,0.9,0.7,1.7,1.4,2.3c1.3,1.3,3.6,1.6,5.2,0.6c-0.4-0.4-0.9-0.7-1.5-1.2c0.4-0.5,0.7-1.1,1.2-1.5
		C271.7,278.7,272.4,279.2,273.2,279.9z"/>
	<path fill="#3FDBB1" d="M21.4,272.2c-0.4,0-0.8,0-1.3,0.1c-0.6,0.1-0.9-0.2-1.3-0.8c-0.5-1.5-1.7-2.2-3.3-2.3
		c-3.1-0.3-5.2,1.3-5.8,4.3c-0.3,1.4-0.3,2.9,0.2,4.3c0.8,2.9,3.7,4.4,6.6,3.3c1.8-0.6,2.9-2.3,2.7-4.5c-0.7,0-1.5,0-2.3,0
		c-0.7,0-1.5,0-2.2-0.1c0-0.6,0-1.3,0-1.8c2.2,0,4.5,0,6.7,0c0.1,0.3,0.2,0.5,0.2,0.8c0,2.2,0,4.4,0,6.7c0,0.8-0.4,1.2-1.2,0.9
		c-0.2-0.1-0.4-0.3-0.5-0.4c-0.2-0.4-0.2-0.7-0.4-1.3c-0.2,0.1-0.4,0.2-0.4,0.3c-4.5,3.8-10.6,1.4-11.7-4.3
		c-0.3-1.8-0.3-3.6,0.3-5.3c0.8-2.9,3.2-4.8,6.2-5.1c1.3-0.1,2.7-0.1,4,0.5C20,268.4,21.1,269.8,21.4,272.2z"/>
	<path fill="#3FDBB1" d="M93.8,283c-0.4,0-0.9,0-1.3,0.1c-0.7,0.1-1.3-0.3-1.7-0.9c-1.7-2.7-3.5-5.4-5.2-8c-0.5-0.8-1.2-1.8-1.9-2.9
		c-0.1,0.5-0.1,0.9-0.1,1.3c0,3.1,0,5.9,0,9c0,0.4-0.1,0.9-0.1,1.5c-0.6,0-1.3,0-1.9,0c-0.3-1.1-0.3-14.4,0-15.6
		c0.5,0,1.3-0.1,1.8,0c0.4,0.1,0.7,0.4,0.9,0.8c1.3,1.8,2.3,3.7,3.6,5.6c0.9,1.4,1.9,2.9,2.7,4.3c0.2,0.3,0.4,0.5,0.8,0.7
		c0-0.4,0.1-0.8,0.1-1.3c0-2.9,0-5.9,0-8.8c0-0.4,0.1-0.8,0.1-1.3c0.6,0,1.3,0,2,0c0.1,0.4,0.2,0.7,0.2,1.2c0,4.4,0,9,0,13.4
		C93.9,282.2,93.8,282.5,93.8,283z"/>
	<path fill="#3FDBB1" d="M158.3,283c-0.5,0-1.3,0.1-1.8,0c-0.5,0-0.7-0.4-1.1-0.9c-1.9-2.9-3.8-5.8-5.8-8.8c-0.4-0.6-0.8-1.3-1.5-2
		c0,1.3,0,2.4,0,3.7c0,1.3,0,2.6,0,4c0,1.3,0,2.5,0,3.9c-0.4,0.1-0.5,0.2-0.8,0.2c-1.2,0.1-1.3-0.1-1.3-1.3c0-3.8,0-7.6,0-11.3
		c0-0.5,0-1.3,0-1.8c0-0.4,0.1-0.7,0.1-1.3c0.6,0,1.3-0.1,2,0c0.5,0,0.7,0.4,1.1,0.9c2,3.1,3.9,6,5.8,9.1c0.4,0.5,0.7,1.2,1.3,1.9
		c0.1-0.5,0.1-0.8,0.1-1.2c0-3.1,0-6.1,0-9.3c0-0.4,0.1-0.9,0.1-1.5c0.7,0,1.3,0,1.9,0C158.6,268.5,158.6,281.6,158.3,283z"/>
	<path fill="#3FDBB1" d="M224.7,267.4c0.7,0,1.4,0,2,0c0.3,0.9,0.4,13.8,0.1,15.5c-0.5,0.4-1.3,0.3-2,0.2c-0.4-0.1-0.6-0.4-0.9-0.8
		c-1.3-2-2.6-4-3.9-6c-0.9-1.4-1.8-2.8-2.7-4.2c-0.2-0.2-0.3-0.4-0.6-0.5c0,3.9,0,7.6,0,11.6c-0.7,0-1.3,0-2,0
		c-0.4-1.1-0.4-14.4,0-15.6c0.5,0,1.2,0,1.7,0s0.7,0.4,1.1,0.7c0.7,1.3,1.6,2.4,2.3,3.7c1.4,2.2,2.7,4.2,4.1,6.4
		c0.2,0.3,0.4,0.4,0.6,0.7C224.7,275.1,224.6,271.4,224.7,267.4z"/>
	<path fill="#3FDBB1" d="M167.2,267.4c0.4-0.1,0.6-0.1,0.8-0.1c1.8,0,3.6-0.1,5.4,0c3.5,0.1,5.7,2,6.3,5.4c0.3,1.7,0.3,3.5-0.1,5.2
		c-0.7,3.1-2.7,4.8-5.8,5.1c-1.9,0.2-3.8,0.1-5.8,0.1c-0.7,0-0.8-0.1-0.9-0.9c0-0.4,0-0.7,0-1.3c0-4,0-8,0-12.1
		C167.1,268.5,167.1,268,167.2,267.4z M169.6,280.9c1.4,0,2.7,0.1,4,0c1.4-0.1,2.5-0.9,3.1-2.2c0.9-2.2,0.9-4.5,0-6.8
		c-0.4-1.1-1.3-1.8-2.2-2.2c-1.7-0.5-3.4-0.3-5-0.3C169.4,270.6,169.4,279.7,169.6,280.9z"/>
	<path fill="#3FDBB1" d="M253.3,283.4c-4,0-6.4-2.1-7.3-5.9c-0.4-1.7-0.3-3.5,0.1-5.2c0.7-3.1,3.1-5.1,6.2-5.3
		c0.9-0.1,1.9-0.1,2.8,0.1c2.6,0.5,4.2,2.2,5,4.7c0.5,2,0.6,4,0.2,6C259.6,281.3,257,283.6,253.3,283.4z M258.5,275.2
		c-0.3-1.2-0.4-2.2-0.7-3.2c-0.6-1.9-2.2-2.9-4.3-2.9c-2.2-0.1-3.8,0.8-4.5,2.8c-0.9,2.2-0.9,4.5,0,6.7c0.7,2,2.4,2.9,4.6,2.8
		c2.1-0.1,3.6-1.2,4.2-3.1C258,277.4,258.2,276.3,258.5,275.2z"/>
	<path fill="#3FDBB1" d="M38.4,275.2c-0.1,1.4-0.3,2.8-0.8,4c-1.1,2.4-3.1,3.9-5.7,4c-0.9,0.1-1.9,0.1-2.7-0.1
		c-2.7-0.4-4.4-2.2-5.3-4.8c-0.6-2.2-0.6-4.3-0.1-6.5c0.8-3.1,3.1-4.8,6.2-5c0.9-0.1,1.9-0.1,2.7,0.1c2.8,0.5,4.5,2.4,5.2,5.3
		C38.2,273.3,38.3,274.3,38.4,275.2z M25.6,275.2c0.3,1.2,0.4,2.2,0.7,3.2c0.7,2,2.3,2.9,4.5,2.9s3.7-1.1,4.4-3.1
		c0.7-2.2,0.7-4.3,0-6.4c-0.7-2-2.2-3.1-4.4-3.1s-3.9,0.9-4.5,3.1C26,273,25.9,274.1,25.6,275.2z"/>
	<path fill="#3FDBB1" d="M129,275.1c0.3-1.3,0.4-2.6,0.8-3.8c0.9-2.5,2.9-4,5.7-4.2c0.9-0.1,2-0.1,2.9,0.1c2.6,0.5,4.3,2.2,5.1,4.8
		c0.6,2.2,0.6,4.4,0,6.6c-0.8,3.1-3.3,4.9-6.4,4.9c-0.8,0-1.7,0-2.4-0.2c-3.1-0.6-5.1-3.1-5.5-6.6c0-0.4,0-1.1,0-1.5
		C129.2,275.1,129.1,275.1,129,275.1z M141.8,275.2c-0.2-1.3-0.4-2.5-0.8-3.7c-0.8-1.7-2.2-2.5-4.2-2.6c-2,0-3.6,0.6-4.4,2.5
		c-1.2,2.4-1.2,5,0,7.4c0.8,1.9,2.4,2.5,4.5,2.5c2-0.1,3.4-0.9,4.1-2.7C141.5,277.6,141.6,276.4,141.8,275.2z"/>
	<path fill="#3FDBB1" d="M77.4,275.3c1.1,0.6,1.3,1.7,1.3,2.8c0,0.4,0.1,0.9,0.1,1.4c0,1.1,0.1,2.2,0.7,3.1
		c-0.8,0.5-1.7,0.4-2.4,0.2c-0.3-0.1-0.4-0.6-0.4-0.9c-0.1-0.9-0.2-2-0.3-3.1c0-0.3,0-0.6-0.1-0.9c-0.2-1.1-0.5-1.4-1.6-1.5
		c-1.6-0.1-3.2,0-4.9,0c0,2.2,0,4.2,0,6.2c-0.8,0.4-1.5,0.4-2.2,0.1c0-5.1,0-10.3,0-15.5c0.4,0,0.8-0.1,1.3-0.1c1.7,0,3.4,0,5.1,0
		c0.4,0,1.1,0.1,1.5,0.1c1.6,0.2,2.8,1.1,3.3,2.6c0.4,1.7,0.4,3.2-0.9,4.5c-0.1,0.2-0.3,0.3-0.4,0.4
		C77.5,275.1,77.5,275.1,77.4,275.3z M69.9,274.4c1.8,0.1,3.5,0.2,5.2-0.2c1.3-0.3,1.7-1.2,1.7-2.6c-0.1-1.3-0.5-1.9-1.9-2.1
		s-2.7-0.1-4.1-0.2c-0.3,0-0.5,0.1-0.8,0.2C69.9,271.1,69.9,272.6,69.9,274.4z"/>
	<path fill="#3FDBB1" d="M193.1,267.5c0,0.6,0,1.3,0,1.9c-2.9,0.2-5.8,0-8.5,0.1c-0.4,0.7-0.3,1.6-0.3,2.3c0,2.2-0.1,2,2,2
		c1.6,0,3.2,0,4.8,0c0.4,0,0.8,0,1.4,0.1c0,0.5,0.1,1.2,0.1,1.8c-2.7,0.4-5.4,0-8.1,0.2c-0.3,1.6-0.2,3.1,0,4.8c3.1,0,5.8,0,9,0
		c0,0.7,0.1,1.3,0.1,2.1c-0.4,0.1-0.8,0.2-1.2,0.2c-3.1,0-6,0-9.1,0c-1.2,0-1.3-0.1-1.3-1.3c0-4.4,0-9,0-13.4c0-0.3,0.1-0.6,0.1-0.9
		C182.9,267.2,191.6,267.2,193.1,267.5z"/>
	<path fill="#3FDBB1" d="M54.2,282.8c0-5.1,0-10.2,0-15.4c0.4,0,0.7-0.1,1.2-0.1c2.9,0,5.9,0,8.8,0c1.2,0,1.6,0.8,1.2,1.8
		c-0.2,0.4-0.6,0.4-1.1,0.4c-2.2,0-4.3,0-6.4,0c-0.4,0-0.8,0-1.3,0.1c0,1.4,0,2.7,0,4.2c0.4,0,0.8,0.1,1.3,0.1c1.8,0,3.7,0,5.5,0
		c0.4,0,0.8,0.1,1.3,0.1c0,0.6,0,1.2,0,1.8c-2.7,0.2-5.4,0-8.2,0.2c-0.1,1.6-0.1,3.2,0,4.9c3.1,0,5.9,0,9,0c0,0.7,0,1.4,0,2
		C64.3,283.1,55.2,283.1,54.2,282.8z"/>
	<path fill="#3FDBB1" d="M278.9,267.4c0.7,0,1.4,0,2.2,0c0,0.5,0.1,1.2,0.1,1.6c0,2.5,0,5.1,0,7.6c0,0.6,0,1.3,0.2,2
		c0.3,1.4,1.3,2.2,2.7,2.4c0.1,0,0.2,0,0.3,0c3.1,0.3,4.5-1.1,4.6-4.1c0-2.7,0-5.5,0-8.2c0-0.4,0-0.8,0.1-1.4c0.7,0,1.4,0,2.2,0
		c0,0.4,0.1,0.8,0.1,1.3c0,2.9,0,5.8,0,8.6c0,0.4,0,0.7-0.1,1.3c-0.3,2.4-1.8,4.1-4.2,4.7c-1.4,0.3-2.8,0.3-4.2-0.1
		c-1.7-0.4-2.8-1.5-3.3-3.2c-0.3-0.7-0.4-1.6-0.4-2.4c-0.1-3.1,0-6.3,0-9.4C278.8,268,278.9,267.8,278.9,267.4z"/>
	<path fill="#3FDBB1" d="M120.7,277.2c0.6,0,1.3,0,2.1,0c0,1.6-0.4,2.9-1.4,4c-0.9,1.3-2.2,1.9-3.8,2.1c-0.9,0.1-2,0.2-3.1,0
		c-2.1-0.4-3.7-1.5-4.5-3.5c-1.3-2.8-1.4-5.8-0.4-8.5c1.1-2.6,3.1-4,5.8-4.2c1.5-0.1,3.1,0,4.4,0.7c1.6,0.9,2.5,2.3,2.7,4.3
		c-0.4,0-0.8,0.1-1.3,0.1s-0.9-0.1-1.2-0.7c-0.9-3.1-5.8-3.2-7.6-0.7c-0.3,0.4-0.4,0.7-0.6,1.2c-0.8,2.2-0.8,4.4,0,6.7
		c0.8,2.1,2.5,3.1,4.7,2.9c1.7-0.2,3.1-1.3,3.6-2.9C120.5,278.1,120.6,277.6,120.7,277.2z"/>
	<path fill="#3FDBB1" d="M94.8,283c0.2-0.4,0.3-0.8,0.4-1.3c1.6-4.4,3.3-8.7,4.9-13.2c0.2-0.4,0.4-0.9,0.6-1.1c0.6-0.2,1.3-0.2,2,0
		c0.3,0.1,0.4,0.5,0.6,0.9c1.1,2.6,2,5.2,2.9,7.8c0.6,1.8,1.3,3.7,2.1,5.5c0.1,0.4,0.3,0.7,0.4,1.2c-0.6,0.4-1.3,0.4-2,0.2
		c-0.3-0.1-0.5-0.4-0.6-0.7c-0.4-0.9-0.7-2-1.1-2.9c-0.2-0.6-0.5-0.9-1.3-0.9c-1.4,0.1-2.8,0-4.1,0c-0.6,0-0.9,0.3-1.2,0.8
		c-0.3,0.9-0.6,1.8-0.9,2.7c-0.4,1.2-0.4,1.3-1.7,1.2C95.5,283,95.3,283,94.8,283z M102,270.5c-1.3,2.1-2.2,5-2.1,5.8
		c1.3,0,2.6,0,4.1,0C103.3,274.2,102.6,272.3,102,270.5z"/>
	<path fill="#3FDBB1" d="M213.4,283c-0.7,0-1.3,0-2,0c-0.4,0-0.6-0.4-0.7-0.7c-0.4-0.9-0.6-2-1.1-2.9c-0.4-0.9-0.4-0.9-1.4-0.9
		c-1.3,0-2.5,0-3.9,0c-1.1,0-1.1,0-1.4,0.9c-0.3,0.8-0.6,1.7-0.9,2.5c-0.4,1.2-0.4,1.3-1.7,1.2c-0.2,0-0.4,0-0.5-0.1
		c-0.1,0-0.1-0.1-0.3-0.2c0.1-0.3,0.1-0.6,0.3-0.9c1.7-4.5,3.3-9,5-13.5c0.2-0.4,0.4-0.9,0.6-1.1c0.6-0.2,1.3-0.1,2,0
		c0.3,0.1,0.4,0.6,0.5,0.9c1.7,4.4,3.3,9,5,13.4C213.2,282.1,213.2,282.5,213.4,283z M208.5,276.3c-0.6-2.1-1.3-4-2.1-5.9
		c-0.1,0-0.2,0-0.3,0c-0.6,1.9-1.4,3.9-2.1,5.9C205.7,276.3,207,276.3,208.5,276.3z"/>
	<path fill="#3FDBB1" d="M311.1,283c-0.4,0.1-0.5,0.1-0.7,0.2c-1.6,0.1-1.6,0.1-2.2-1.4c-0.3-0.8-0.6-1.7-0.9-2.5
		c-0.2-0.4-0.4-0.6-0.9-0.6c-1.5,0-2.9,0-4.4,0c-0.5,0-0.8,0.2-1.1,0.7c-0.3,0.9-0.6,1.8-0.9,2.7c-0.4,1.3-0.4,1.3-1.8,1.3
		c-0.3,0-0.5-0.1-0.8-0.2c0.1-0.4,0.2-0.7,0.3-1.1c1.7-4.4,3.3-9,5-13.4c0.2-0.4,0.4-0.9,0.6-1.1c0.6-0.2,1.3-0.1,2,0
		c0.3,0.1,0.4,0.5,0.5,0.9c1.3,3.5,2.6,7,4,10.4c0.4,0.9,0.7,2,1.1,2.9C310.9,282.1,311,282.5,311.1,283z M306.2,276.3
		c-0.3-1.5-1.6-5.2-2.2-5.9c-0.7,2-1.4,3.9-2.1,5.9C303.5,276.3,304.8,276.3,306.2,276.3z"/>
	<path fill="#3FDBB1" d="M240,267.4c0.1,0.4,0.1,0.5,0.2,0.8c0,1.2-0.1,1.3-1.3,1.3c-0.7,0-1.6,0-2.3,0c-0.4,0-0.7,0.1-1.3,0.1
		c0,4.5,0,8.8,0,13.4c-0.8,0-1.5,0-2.3,0c0-4.5,0-8.8,0-13.4c-0.6,0-1.2-0.1-1.6-0.1c-0.5,0-1.3,0-1.8,0c-1.6,0-1.8-0.4-1.3-2.1
		C232.1,267.4,236,267.4,240,267.4z"/>
	<path fill="#3FDBB1" d="M204,304.1c-0.5,0-1.1,0-1.5,0c0-2.9,0-5.8,0-8.6c0.2-0.1,0.4-0.1,0.5-0.2c0.2,0,0.4,0,0.6,0
		c0.1,0.3,0.2,0.5,0.4,0.9c1.9-1.6,3.6-1.8,5.4,0.2c0.3-0.3,0.5-0.4,0.8-0.7c1.9-1.5,4.3-0.7,4.9,1.5c0.1,0.4,0.2,0.9,0.2,1.4
		c0,1.5,0,2.9,0,4.4c0,0.3-0.1,0.6-0.1,1.1c-0.4,0-0.8,0-1.4,0c0-0.4-0.1-0.8-0.1-1.3c0-1.3,0-2.3,0-3.6c0-0.4-0.1-1.1-0.2-1.5
		c-0.2-0.7-0.6-1.3-1.5-1.3c-0.7-0.1-1.4,0.3-1.8,0.9c-0.3,0.5-0.4,1.3-0.4,2c-0.1,1.3,0,2.3,0,3.6c0,0.4-0.1,0.6-0.1,1.3
		c-0.4,0-0.8,0-1.4,0.1c0-0.5-0.1-0.9-0.1-1.4c0-1.2,0-2.3,0-3.5c0-0.5-0.1-1.3-0.3-1.8c-0.4-1.3-1.7-1.5-2.7-0.7
		c-0.6,0.5-0.9,1.3-0.9,2.1c0,1.3,0,2.5,0,3.9C204.1,303.1,204,303.5,204,304.1z"/>
	<path fill="#3FDBB1" d="M65.8,304.1c-0.6,0-1.2,0-1.6,0c0-0.4-0.1-0.8-0.1-1.3c0-3.3,0-6.5,0-9.8c0-1.3,0.1-1.4,1.3-1.4
		s2.5,0,3.8,0.2s2.2,1.1,2.4,2.4c0.3,1.3-0.1,2.5-1.2,3.4c-0.2,0.2-0.4,0.4-0.7,0.5c1.7,1.6,1.6,3.8,2.2,5.8c-1.5,0.4-1.6,0.3-2-0.9
		c-0.2-0.5-0.3-1.2-0.4-1.7c-0.5-2.2-1.5-2.7-4-2.2C65.8,300.7,65.8,302.3,65.8,304.1z M65.8,295.3L65.8,295.3c0,0.4,0,1.1,0,1.5
		s0.2,0.8,0.6,0.7c0.7-0.1,1.6-0.1,2.3-0.4c0.9-0.3,1.4-1.3,1.3-2.2c-0.1-0.9-0.5-1.7-1.5-1.9c-0.6-0.2-1.4-0.2-2.1-0.2
		c-0.4,0-0.7,0.3-0.7,0.7C65.8,294.3,65.8,294.7,65.8,295.3z"/>
	<path fill="#3FDBB1" d="M217.8,304.1c-0.3-1.1-0.2-11.9,0.1-12.8c0.4,0,0.8,0,1.4,0c0,1.6,0.1,3.1,0.1,4.9c0.4-0.3,0.6-0.4,0.9-0.5
		c2-1.3,4.5-0.4,5.4,1.7c0.7,1.7,0.6,3.4-0.1,5.1c-1.2,2.3-4,2.8-5.9,1.3c-0.1-0.1-0.2-0.2-0.4-0.3c-0.1,0.3-0.3,0.5-0.4,0.9
		C218.6,304.1,218.2,304.1,217.8,304.1z M219.4,299.5c0.1,0.6,0,1.2,0.1,1.5c0.2,1.2,1.2,2,2.2,2.1s2-0.4,2.4-1.5
		c0.4-1.3,0.5-2.4,0-3.7c-0.4-0.9-1.3-1.5-2.2-1.5s-1.9,0.6-2.2,1.7C219.5,298.5,219.5,299.1,219.4,299.5z"/>
	<path fill="#3FDBB1" d="M149.8,303.3c-0.7,0.5-1.5,1.1-2.5,1.2c-1.7,0-2.8-0.6-3.5-2.2c-0.7-1.7-0.7-3.5,0.1-5.2
		c1.1-2.1,3.4-2.7,5.4-1.5c0.2,0.1,0.4,0.2,0.6,0.4c0-1.6,0.1-3.1,0.1-4.6c0.5,0,0.9,0,1.3,0c0.3,0.8,0.4,11.2,0.2,12.7
		C150.6,304.3,150.6,304.3,149.8,303.3z M150,299.8c-0.1-0.5-0.1-1.2-0.2-1.6c-0.3-1.1-0.9-1.6-2-1.8c-0.9-0.2-1.9,0.4-2.3,1.3
		c-0.6,1.3-0.6,2.7-0.1,4.1c0.4,0.9,1.3,1.3,2.2,1.3s1.8-0.6,2.1-1.7C149.9,300.8,150,300.3,150,299.8z"/>
	<path fill="#3FDBB1" d="M105.6,303.3c-0.5,0.8-0.5,0.8-1.6,0.7c0-4.2,0-8.5,0-12.8c0.5,0,0.9-0.1,1.4-0.1c0.4,1.6,0,3.2,0.3,4.9
		c0.3-0.2,0.5-0.4,0.7-0.4c2.1-1.3,4.6-0.4,5.6,1.8c0.5,1.4,0.5,2.9,0.1,4.3c-0.9,2.6-3.8,3.6-6.1,1.9
		C105.9,303.5,105.8,303.5,105.6,303.3z M105.6,299.9L105.6,299.9c0.1,0.3,0,0.6,0.1,0.9c0.1,1.3,0.9,2.1,2.1,2.3
		c1.2,0.2,2.2-0.4,2.6-1.6c0.4-1.3,0.5-2.4,0-3.7c-0.4-0.9-1.4-1.5-2.3-1.4c-1.1,0.1-2,0.9-2.2,2.1
		C105.6,298.9,105.6,299.3,105.6,299.9z"/>
	<path fill="#3FDBB1" d="M84.8,303.4c0,1.5,0,2.8,0,4.2c-0.5,0-1.1,0.1-1.4,0.1c-0.3-0.9-0.4-11.1-0.2-12.2c1.2-0.3,1.2-0.3,1.5,0.7
		c0.3-0.2,0.4-0.4,0.7-0.5c2-1.4,4.5-0.7,5.6,1.4c0.8,1.7,0.7,3.5,0,5.2c-0.9,2.1-3.5,2.8-5.5,1.6C85.4,303.8,85.3,303.7,84.8,303.4
		z M84.7,299.9L84.7,299.9c0.1,0.4,0.1,0.7,0.2,1.1c0.2,1.3,1.1,2.1,2.2,2.2s2.1-0.4,2.5-1.6c0.4-1.3,0.4-2.4-0.1-3.7
		c-0.4-0.9-1.2-1.4-2.2-1.5c-1.1,0-1.8,0.4-2.2,1.4C85,298.4,84.9,299.1,84.7,299.9z"/>
	<path fill="#3FDBB1" d="M124.8,267.4c0.7,0,1.3,0,2.1,0c0,0.4,0.1,0.8,0.1,1.3c0,4.3,0,8.6,0,13c0,0.3,0.1,0.4,0,0.6
		c-0.1,0.3-0.4,0.4-0.5,0.5c-0.2,0.1-0.5,0-0.8,0c-0.5,0-0.9-0.2-0.8-0.8c0-0.2,0-0.3,0-0.4c0-4.3,0-8.6,0-13
		C124.8,268.3,124.8,267.8,124.8,267.4z"/>
	<path fill="#3FDBB1" d="M243.6,282.9c-0.2,0.1-0.3,0.2-0.4,0.2c-1.6,0.3-1.8,0-1.8-1.6c0-4.1,0-8.4,0-12.5c0-0.4,0.1-1.1,0.1-1.6
		c0.7,0,1.3,0,2.1,0c0.1,0.3,0.2,0.6,0.2,0.9c0,4.6,0,9.3,0,13.8C243.7,282.4,243.6,282.6,243.6,282.9z"/>
	<path fill="#3FDBB1" d="M175.8,302.6c0.4,1.2,0.4,1.3-0.4,1.6c-1.4,0.4-2.9,0.4-4.3,0c-2-0.5-3.3-1.9-3.9-3.9
		c-0.4-1.4-0.4-2.9,0-4.3c0.9-3.1,3.9-4.8,7.4-4.3c0.3,0,0.5,0.1,0.8,0.2c0.9,0.3,1.1,0.4,0.4,1.6c-2.4-0.5-4.8-0.7-6.4,1.7
		c-1.3,1.9-1.3,4,0,6C170.9,303.3,173.4,303.1,175.8,302.6z"/>
	<path fill="#3FDBB1" d="M200.6,299.8c-0.1,0.6-0.2,1.3-0.4,2c-0.6,2-2.6,3.1-4.9,2.7c-1.9-0.3-3.3-1.8-3.4-3.8
		c-0.1-0.8-0.1-1.7,0.2-2.4c0.5-2.2,2.3-3.4,4.8-3.2c2,0.2,3.5,1.7,3.7,3.9C200.6,299.1,200.6,299.4,200.6,299.8
		C200.5,299.8,200.6,299.8,200.6,299.8z M193.5,299.5c0.2,0.7,0.2,1.3,0.4,1.9c0.4,1.2,1.3,1.7,2.3,1.7c1.2,0,1.9-0.6,2.2-1.7
		c0.5-1.3,0.5-2.7-0.2-4c-0.9-1.6-3.2-1.6-4.1,0C193.7,298.2,193.6,298.9,193.5,299.5z"/>
	<path fill="#3FDBB1" d="M181.6,304.4c-2.1,0-3.7-1.2-4-3.1c-0.2-0.8-0.2-1.8-0.1-2.7c0.3-2.2,2.2-4.1,5.6-3.5
		c0.4,0.1,0.7,0.3,1.2,0.4c1.7,1.1,2.4,3.4,1.8,5.8C185.4,303.3,183.7,304.4,181.6,304.4z M184.5,299.8c-0.3-0.8-0.4-1.6-0.7-2.2
		c-0.8-1.5-2.9-1.6-4-0.2c-0.9,1.3-0.9,3.6,0,4.8c1.1,1.4,2.9,1.4,3.9,0C184,301.4,184.2,300.6,184.5,299.8z"/>
	<path fill="#3FDBB1" d="M161.5,300c-2.1,0-4,0-5.9,0c-0.2,1.6,0.6,2.7,2.2,2.8c0.9,0.1,2,0,3.1-0.1c0.5,0.7,0.4,1.1-0.4,1.3
		c-1.2,0.3-2.3,0.4-3.5,0.1c-1.5-0.4-2.4-1.3-2.9-2.8c-0.4-1.3-0.3-2.4,0.2-3.6c0.7-2.1,2.7-3.1,4.9-2.6c1.1,0.2,1.7,0.8,2.2,1.7
		C161.6,297.8,161.7,298.8,161.5,300z M159.8,298.8c0-1.6-0.6-2.4-2-2.5c-1.3,0-2.2,0.9-2.3,2.5
		C156.9,298.8,158.3,298.8,159.8,298.8z"/>
	<path fill="#3FDBB1" d="M80.5,302.8c0.4,0.8,0.4,1.1-0.4,1.3c-1.2,0.3-2.3,0.4-3.5,0.1c-1.5-0.4-2.4-1.4-2.9-2.8
		c-0.4-1.3-0.3-2.4,0.2-3.6c0.7-2.1,2.7-3.1,4.9-2.6c1.1,0.2,1.7,0.8,2.2,1.7c0.4,0.9,0.6,2,0.4,3.1c-2,0.3-4,0-5.9,0.2
		c-0.1,1.5,0.6,2.6,2.2,2.8C78.3,303,79.3,302.8,80.5,302.8z M79.5,298.8c0-1.7-0.7-2.5-2-2.5s-2.2,1.1-2.2,2.5
		C76.6,298.8,78.1,298.8,79.5,298.8z"/>
	<path fill="#3FDBB1" d="M237.2,298.3c0-1.4-0.4-2-1.7-2.1c-0.4,0-0.8,0-1.3,0.1c-0.4,0.1-0.7,0.2-1.2,0.3c-0.5-0.8-0.5-1.1,0.3-1.3
		c1.2-0.4,2.2-0.4,3.4-0.3c0.9,0.2,1.6,0.7,1.9,1.6c0.2,0.4,0.3,0.7,0.3,1.2c0,2,0,4,0,6.1c-0.6,0.3-1.3,0.3-1.5-0.3
		c-0.9,0.3-1.9,0.6-2.7,0.6c-1.3,0.1-2.2-0.5-2.6-1.8c-0.4-1.3,0-2.5,1.2-3.1c0.7-0.4,1.6-0.6,2.4-0.8
		C236,298.5,236.6,298.4,237.2,298.3z M237.3,299.9c-1.3-0.2-2.3,0-2.9,0.4c-0.6,0.4-0.8,1.3-0.5,2c0.3,0.5,0.9,0.9,1.7,0.7
		c0.8-0.1,1.7-0.7,1.8-1.7C237.3,300.9,237.3,300.4,237.3,299.9z"/>
	<path fill="#3FDBB1" d="M137.6,304.1c-0.6,0.2-1.3,0.3-1.5-0.4c-0.9,0.3-1.9,0.6-2.7,0.6c-1.3,0.1-2.2-0.5-2.6-1.8
		c-0.4-1.3,0-2.5,1.2-3.1c0.7-0.4,1.6-0.6,2.4-0.8c0.5-0.2,1.1-0.2,1.6-0.3c0-1.4-0.4-2-1.7-2.1c-0.4,0-0.8,0-1.3,0.1
		c-0.4,0.1-0.7,0.2-1.2,0.3c-0.5-0.8-0.5-1.1,0.2-1.3c1.2-0.4,2.3-0.5,3.5-0.3c0.8,0.2,1.5,0.7,1.8,1.6c0.2,0.4,0.3,0.7,0.3,1.2
		C137.6,299.9,137.6,301.9,137.6,304.1z M135.9,299.8c-1.2-0.1-2,0-2.8,0.4c-0.7,0.4-1.1,1.3-0.6,2.1c0.3,0.6,1.1,1.1,1.9,0.7
		c0.8-0.3,1.5-0.8,1.6-1.7C136,300.8,135.9,300.4,135.9,299.8z"/>
	<path fill="#3FDBB1" d="M99.7,295.3c0.5,0,0.9,0,1.3,0c0.3,0.8,0.4,7.6,0.1,8.6c-1.1,0.3-1.1,0.3-1.6-0.6c-0.7,0.5-1.6,1.2-2.6,1.2
		c-1.6,0-2.5-0.7-2.9-2.2c-0.1-0.4-0.2-0.7-0.2-1.2c0-1.7,0-3.3,0-5c0-0.2,0.1-0.4,0.1-0.6c0.4,0,0.9,0,1.4,0c0,0.4,0.1,0.8,0.1,1.3
		c0,1.2,0,2.3,0,3.5c0,0.4,0,0.8,0.1,1.3c0.3,1.2,0.7,1.6,1.6,1.6c1.1,0.1,1.9-0.4,2.2-1.4c0.2-0.4,0.2-0.9,0.2-1.4
		c0-1.2,0-2.3,0-3.5C99.7,296.3,99.7,295.9,99.7,295.3z"/>
	<path fill="#3FDBB1" d="M296,283c-0.7,0-1.3,0-2.1,0c0-5.2,0-10.3,0-15.6c0.7,0,1.4,0,2,0C296.2,268.4,296.3,281.4,296,283z"/>
	<path fill="#3FDBB1" d="M129,302.7c0.4,0.9,0.4,1.3-0.4,1.3c-0.7,0.2-1.6,0.3-2.3,0.2c-2-0.2-3.2-1.4-3.7-3.4
		c-0.4-2.1,0.4-4.1,2-5.1c1.4-0.8,3.2-0.9,4.9-0.2c-0.1,0.4-0.2,0.6-0.3,1.2c-1.5-0.2-2.9-0.5-4,0.5c-0.6,0.6-1.1,1.5-0.9,2.4
		c0.1,0.7,0.3,1.5,0.6,2.1c0.4,0.7,1.2,1.2,2,1.2C127.5,302.9,128.3,302.8,129,302.7z"/>
	<path fill="#3FDBB1" d="M189.5,304.1c-0.2,0-0.4,0.1-0.5,0.1s-0.4,0-0.6-0.1c-0.3-0.8-0.4-11.3-0.1-12.8c0.4,0,0.8,0,1.3,0
		C189.8,292.3,189.8,302.9,189.5,304.1z"/>
	<path fill="#3FDBB1" d="M114.5,291.2c0.4,0,0.8,0,1.4,0c0.1,4.3,0.1,8.5,0,12.8c-0.5,0-0.9,0-1.4,0
		C114.2,303.2,114.1,292.8,114.5,291.2z"/>
	<path fill="#3FDBB1" d="M228.5,295.3c0.4,0,0.8,0,1.4,0c0.1,2.9,0.1,5.8,0,8.7c-0.5,0-0.9,0-1.4,0
		C228.2,303.2,228.1,296.7,228.5,295.3z"/>
	<path fill="#3FDBB1" d="M120.3,304.1c-0.4,0-0.8,0-1.3,0c-0.3-1.1-0.3-7.6,0-8.7c0.2,0,0.4-0.1,0.5-0.1s0.4,0,0.6,0.1
		C120.5,296.2,120.5,302.5,120.3,304.1z"/>
	<path fill="#3FDBB1" d="M135,266.1c0.7-1.3,1.4-2.3,2.1-3.5c0.1-0.2,0.4-0.3,0.7-0.3c0.4-0.1,0.9,0,1.6,0c-0.2,0.4-0.3,0.6-0.4,0.8
		c-0.6,0.8-1.3,1.6-2,2.3C136.4,266.2,136.4,266.2,135,266.1z"/>
	<path fill="#3FDBB1" d="M99.9,291.7c-0.5,0.6-1.2,1.3-1.7,2c-0.4,0.4-0.7,0.4-1.3,0.3c0.2-0.8,0.7-1.6,1.3-2.2
		c0.4-0.5,1.2-0.2,1.6-0.3C99.8,291.5,99.9,291.6,99.9,291.7z"/>
	<path fill="#3FDBB1" d="M230.1,292.8c0,0.5-0.4,1.1-1.1,1.1c-0.6,0-0.9-0.4-0.9-1.1c0-0.5,0.4-1.1,1.2-1.1
		C229.6,291.9,230.1,292.2,230.1,292.8z"/>
	<path fill="#3FDBB1" d="M119.5,293.8c-0.5,0-0.9-0.4-0.9-0.9s0.4-1.1,1.1-1.1s1.1,0.4,0.9,1.2C120.4,293.4,120.1,293.8,119.5,293.8
		z"/>
	<path fill="#3FDBB1" d="M205.4,125.2c0,1,0,2.3,0,3.1c0,23.2,0,46.2,0,69.4c0,3.7,0.2,7.1-0.7,10.8c-1.9,8.5-6.3,15.9-12.7,21.4
		c-18,16.2-47.6,16-65.4-0.5c-7.1-6.8-11.5-14.8-12.7-24.6c-0.2-1.2-0.2-2.6-0.2-3.8c0-24.2,0-48.8,0-73c0-0.7,0-1.6,0-2.6
		c0.9,0,1.6-0.2,2.4-0.2c28.8,0,57.9,0,86.5,0C203.5,125.2,204.2,125.2,205.4,125.2z M163.6,184.8c0.3,0,0.5-0.7,0.9-1
		c-1.6,0-2.1-0.7-2.4-2.1c-0.5-1.2-0.3-2.3-0.2-3.7c0.5-3.7,0.7-3.8,4.5-3.8h0.2c3,0,3.8,0.7,4,3.8c0,0.7,0.2,1.2,0.3,2.1
		c0.7,2.1,1.4,3.8,2.3,6.1c0.2,0.7,0.2,1.4,0,2.1c-0.5,0.9-0.3,1.9-0.2,2.8c0.2,0.7,0.2,1.4,0.3,2.3c0.3,4,0.7,8.2,0.9,12.2
		c0.2,0.9,0.5,2.1,0.7,2.8c-0.2,0.5-0.3,1-0.5,1.6c0.7-1.2,2.3-0.7,3.3-0.9c-0.2,0.5-0.3,0.7-0.3,0.9l0,0c-0.3,0-0.7-0.2-1-0.2
		c-0.7,0.2-0.7,0.7-0.2,1.2c0.3,0.2,0.5,0.3,0.7,0.5c-0.7,0.2-1.4,0.2-2.3,0.3c0.2,1,0.2,2.3,0.3,3.5c0.2,1.2,0.2,2.4-1,3.3
		c0.3,0.9,0.7,2.1-0.5,2.6c-0.9-0.5-1.9-1.4-3.3-0.7c0.2-0.5,0.2-0.7,0.3-0.9c-0.5-0.2-0.9-0.3-1.2-0.3c-1-0.3-2.3-0.7-3.3-1
		c0.2,0.7,0.2,1.2,0.3,1.9c0.2,0.5,0.5,0.9,0.7,1.4c0.3,0.2,0.7,0.3,0.7,0.5c0,0.9,0.2,2.1,0.2,3.1c0.9,0.2,1.6,0.3,2.4,0.3
		c-0.2,0.3-0.3,0.7-0.5,0.7c-0.7-0.2-1.6-0.3-2.4-0.7c-0.7-0.3-0.7,0.3-1,0.7c0,0.5,0,0.7,0,1.2c0.2,0,0.3,0,0.5-0.2
		c-0.2-0.3-0.3-0.7-0.5-1c2.3,0.7,4.5,1.2,7,2.1c1,0.3,2.3,0.7,2.8,2.1c0.7,0.9,1.4,1.6,2.8,1.2c0.3-0.2,0.7,0,1,0.3
		c1.6,0.7,3.3,1.9,4.7,2.8c0.2,0,0.3,0,0.5-0.2c9.2-5.9,15.7-13.8,18.1-24.6c0.7-3.7,0.7-7.3,0.7-11.2c0-22.8,0-45.8,0-68.7
		c0-0.9-0.2-2.1-0.2-3c-0.7,0-1.6-0.2-2.3-0.2c-28.2,0-56.3,0-84.5,0c-0.7,0-1.4,0.2-2.3,0.2c-0.5,2.6-0.3,16.9,0.2,18.3
		c1,0.2,2.1-0.3,2.3-1.4c0.5,0.2,1,0.7,1.9,0c0.3,0,0.7,0,0.9,0.2c0.9,0.3,2.3,0.3,2.8,0.7c0.9,1,2.4,1.2,3.8,2.4
		c0.3-0.7,0.7-1.4,0.9-2.3c-1.9-0.7-2.8-2.8-5.1-1.6c-1.2-0.9-2.4-0.3-3.5,0.7c-0.7,0-1,0-1.9,0c-0.9,0-1.2-0.7-1.9-1.2
		c0.5-0.9,1-1.4,2.3-1.6c0.7-0.2,1.6-0.7,2.3-1c0.5-0.5,0.7-0.7,1.4-0.7c1.2-0.3,2.4-0.9,3.8-0.3c0.2,0.2,0.7,0,0.7-0.2
		c0.7-0.7,1.4-0.5,2.1,0.3c0.3-0.3,0.7-0.7,0.7-0.7c3.3,1.2,4.2,3.8,4.2,7c0,0.5,0.2,1,0.3,1.9c0.5-0.2,0.7-0.3,0.9-0.5
		c2.3-0.9,4-2.3,6.6-1.6c0.9,0.2,1.9,0.5,2.6,1.2c0.7,0.7,2.1,0.7,2.6,1.4c0.5,0.5,0.7,1.2,1,2.1c0.7,1.4,1.2,2.8,2.1,4.2
		c0.3,0.7,0.3,1.2,0.5,2.1c-1.4,0.5-2.4-0.3-3.1-1c-1.9-2.6-4.7-3.3-7-4.5c-0.9,0.7-1.9,1.2-2.6,1.9c0,0.5,0,0.9,0,1.4
		c1.2,0.2,2.4,0,3.7,1.2c0.7,0.9,2.3,1.4,3.7,1.6c2.3,0.3,4.4,0.2,6.6,0.5c2.1,0.2,3.3-0.3,4.4-2.1c0.3-0.7,1-1,1.6-1.6
		c0.3-0.5,0.7-0.9,0.9-1.4c1-2.1,2.3-3.8,3.1-5.8c0.9-1.9,2.3-3.7,3.3-5.6c0.9-1.9,2.3-3.1,4.4-3.3c1.2-0.2,2.3-0.7,3.1-1.4
		c0.7-0.7,1.9-1.6,2.8-2.3c1.9-1,3.3-0.9,4.9,0.5c0.7,0.7,1.2,1.2,2.1,2.1c0.5,0.5,0.9,0.7,1.6,1c0.9-2.1,0.2-4,1.4-6.1
		c0.5,0.7,0.7,1.2,0.9,1.9s0.2,1.9,0.3,2.6c0.3,4.9,0.9,6.1,4.5,8.9l0.2,0.2c0.7,0.5,1.2,0.9,2.3,0.7c0.9-0.3,1.9,0.2,2.3,0.9
		c0.3,0.5,0.7,1,0.7,1.6c0.2,1.2,0.9,2.3,2.3,3c1.2,0.9,2.4,2.1,3.8,3c-0.3,0.5-0.7,0.9-0.7,1.2c-0.9-0.3-2.1-0.7-2.8-0.9
		c0.2-0.3,0.2-0.5,0.3-0.7c-0.5-0.2-0.9-0.2-2.1-0.5c0.7,2.1,1.4,3.8,2.3,5.4c0.7,1.6,2.1,3.1,2.8,4.7c-0.3,0.2-0.5,0.3-0.5,0.3
		c-2.6-0.9-5.1-1.9-6.6-4.4c-0.2-0.3-0.5-0.7-0.9-0.9c-0.9-0.7-1-1.9-0.7-3c0.2-0.9,0.5-1.9,0.5-3.1c-1.4,2.8-2.8,5.4-4.2,8
		c3.8-0.9,6.4,1.9,9.6,3.1c0.3,0.2,0.5,0.5,0.7,0.7c0.9,1.2,2.1,2.6,2.8,3.8c0.5,0.7,0.9,1.2,0.3,2.3c-1.6-0.3-2.8-0.7-3.8-1.4
		c-2.3-2.3-5.4-3-8.4-3.8c3.8,4.7,7.5,9.6,11.3,14.5c-3.3,0.7-7.1-0.7-9.9-3.7c-1.9,0.2-1.9,0.2-2.8-1.2c-0.3-0.3-0.7-0.7-1-0.9
		c-0.2,0-0.3,0.2-0.5,0.2c0,1.2-0.2,2.8,0,4c0.2,10.1,0.3,20,0.3,30c0,3.3,0.5,6.1,2.6,8.4c0,0.2,0.2,0.3,0.2,0.5
		c-0.7,0-1.4-0.5-1.9-0.2c-0.7,0.7-1.2,0.2-2.1,0c-0.5-0.2-0.9-0.3-1.9-0.5c0,0.9,0,2.1,0,3.1c-1.4-0.9-2.6-1-3.8-0.5
		c-0.3,0.2-0.7,0-1-0.2c-0.3-0.2-0.5-0.5-0.5-0.7c0-0.2,0.5-0.7,0.7-0.7c0.9,0.2,1.2-0.7,1.6-1.2c1-1.9,2.1-3.8,1.9-6.1
		c-0.2-1.2,0.2-2.4,0-3.8c-0.2-2.4,0.7-4.9-0.3-7.3c-0.2-0.3,0.2-0.9,0.2-1.2c0.2-0.7,0.3-1.2,0.3-2.1c0-5.9,0-11.9,0-18
		c0-0.7-0.2-1.4-0.2-2.3c-3.7-0.9-7-1.9-10.5-3c-3.5-1-7.1-1.4-10.5-3.8c4.4-1.6,8.9-1.2,13.2-1.4c-0.3-0.5-0.3-0.9-0.7-1
		c-0.7-0.2-1.9-0.5-2.6-0.3c-2.4,0.5-4.9,0-7-0.9c-1.4-0.7-2.8-1.4-4.2-2.1c-1-0.3-1.9-1.2-2.1-2.6c3.3,0,6.6,0.5,9.6-0.2
		c3.8-0.7,7,0.3,9.9,2.4c0.5,0.5,1,0.7,1.9,1c0.3,0.2,0.7,0.3,1,0.7c-0.7-1.2-1.2-2.6-2.3-3.7c-1.9-1.9-3.1-4-4.2-6.3
		c-0.3-0.5-0.7-0.7-0.9-1c-1.4-1.2-2.6-3-2.4-5.1c0-1.6-0.7-2.8-2.1-3.7c-0.7-0.5-1.4-0.9-2.3-1.6c-2.3,2.3-5.4,3.7-5.4,7.3
		c-2.1-0.3-1,1.9-2.3,2.3c0.5,0.2,0.7,0.2,1.2,0.3c-0.7,0.3-1,0.5-1.4,0.9c-0.2,0.3-0.2,0.7-0.2,0.9c-0.7,0.7-1.9,1-1.9,1.4
		c0,1-0.9,0.7-1.2,1.4c-0.7,1-1.2,2.6-2.3,3.1c-1.2,0.7-1,1.4-1,2.3c0,1.6-1.9,1.9-2.3,3.1c-0.2-0.2-0.3-0.2-0.7-0.5
		c0,2.4,0.5,4.5-0.2,6.8c-0.9-0.3-1.9-0.7-2.4-0.9c0,0.2,0,0.2-0.2,0.3c0.2,0.2,0.3,0.3,0.7,0.9c-0.9-0.7-0.9,0.9-2.1,0.3
		c0.2-0.9,0.2-0.9-0.7-1.2c0.2,0.5,0.5,0.7,0.7,1.2c-0.7,0.5-0.7,1.2-1.4,1.9c-0.7,0.5-1.6,1.9-0.9,3.1c0,0-0.2,0.2-0.7,0.7
		c-0.2-0.5-0.3-0.7-0.5-1c-0.7,1,0.7,1.2,0.7,1.6c-0.7,0.5-1.2,0.9-1.6,1.4c-0.5,0.7-0.7,1.2-2.1,1c0.5,0.3,0.7,0.3,1,0.3
		c0.5,0,0.7,0,1.9,0c-0.7,0.5-0.9,0.7-1,0.9c-0.7,0.5-1.9,0.7-2.4,1.2c-0.3,0.3-1.2,1-0.3,2.1l-0.3,0.7c0.5,0.7,1,1.2,1.6,2.1
		c-0.5,0.3-0.9,0.7-1.2,0.9l0,0c-0.7,0.7-0.7-0.3-1.2-0.3c-0.5,0.3-0.9,0.7-1.6,1c0.7,0.3,0.9,0.5,1.2,0.7c-2.3,0.5-3,2.8-5.1,2.3
		c-0.2,1.2-0.3,2.3-0.5,3.5c0,1.2-0.2,2.4,0.2,3.8c0.2,0.9,0.7,1.9,1,2.8c-0.7,0.7-1,1.9-0.7,3.1c0.5,0.2,0.7,0.2,1.2,0.3
		c-0.3,0.7-0.7,1.4-1,2.3c-0.2-0.3-0.3-0.5-0.5-0.7c-0.2-0.9-0.2-2.3-0.5-3.1c-0.2-0.5-0.7-1-0.9-1c-0.2,0-0.9,0.5-1,0.7
		c-0.2,0.5-0.2,1-0.3,1.6c-0.2,0.7-0.2,1.9-0.5,2.6s-0.9,1.2-1.4,1.9c-0.5-0.5-0.7-0.7-0.9-1c-0.5,0.3-0.9,0.7-1.2,0.9
		c-1.4-0.3-2.3-1-2.3-2.4c-0.2,0.7-0.3,1.2-0.5,1.9c2.4,2.1,5.1,2.3,7,0.9c0.7,0.7,1.6,1.2,2.3,2.1c1,1.2,2.6,2.3,4.2,2.8
		c2.4,1,5.4,2.3,7.1,4.4c0.5,0.7,1.4,0.7,2.4,1c1.2-2.1,3.8-2.3,5.1-4c-0.5-0.3-0.9-0.5-1.6-0.7c0.5-0.3,0.7-0.3,1.2-0.7
		c-0.5-0.5-0.7-0.7-1-1c0.3-0.2,0.5-0.3,1-0.7c-0.7,0-1,0-1.4,0v-1.6c1-0.9,1.9-2.3,1.6-3.5c-0.2-2.1,0.7-3.7,0.5-5.4
		c0.5-0.3,0.7-0.5,1.2-0.7c2.8-1.2,5.8-2.6,8.5-3.8c0.9-0.5,2.1-1.2,2.1-2.4c0-1-0.3-2.3-0.9-3.1c-1-1-1.4-2.4-0.7-4
		c-1.6-0.2-3-0.3-4.2-0.5c-2.3-0.2-3-0.7-3-3.5c0-2.1,0-3.8,0.3-5.8c0.3-2.3-0.7-3.8-2.3-5.4c-0.3-0.3-0.5-0.7-0.9-0.9
		c0.5-0.7,1-1.2,1.6-1.9c2.4-2.8,6.3-2.4,8.4-0.7c1.2,0.9,1.2,2.3,0.2,3.1c-0.7,0.7-1.4,1.4-2.3,1.9c-1.2,0.7-1.6,1.9-1.9,3.1
		 M179.1,149.7c-0.2-1.6-0.3-3.3-0.7-4.7c-0.3-1.2-0.7-1.4-2.8-1C176.3,145.9,177.7,147.8,179.1,149.7c0.7,2.3,2.4,3.5,3.8,5.4
		c1.2-1,1.4-1.4,0.7-2.4c-0.5-0.7-1.2-1-2.1-1.9C180.8,149.9,179.9,149.6,179.1,149.7z M127.3,202.2c-0.9,0.3,0,1-0.5,1.4
		c-0.3,0-0.7,0.2-1,0.2c0.3,0.3,0.7,0.7,0.9,0.9c-0.5,0.3-0.7,0.7-1.2,0.7c0.2,0.3,0.3,0.7,0.5,0.9c-0.3,0.2-0.5,0.3-0.9,0.7
		c1.9,0.7,3.5,0.5,3.8-0.3c-0.2-0.2-0.3-0.3-0.3-0.3c0.5-1,1.4-2.1,1.4-3.1c0-0.7,0.3-2.3-1.4-2.4
		C127.8,201.5,127.7,201.8,127.3,202.2L127.3,202.2z M176.3,148c-0.7-1.4-1.4-3.1-2.3-4.5c-0.7-1.4-1.9-2.1-3.8-1.9
		c0.2,0.2,0.5,0.3,0.7,0.5c1.4,0.9,2.3,2.3,2.3,4c-0.2,1.4,0.7,2.6,1.6,3.8C175.4,149.4,175.9,148.5,176.3,148
		c0,0.7,0.2,1.2,0.2,2.1c-0.2,1.2,0.2,2.4,0.9,3.5c0,0.2,0.2,0.2,0.3,0.2c0.3-0.3,0.5-0.5,0.9-0.9c0.5,1.6-0.5,3.7,1.4,4.5
		c0.2-0.3,0.3-0.5,0.5-0.7c0.2-0.2,0.3-0.2,0.9-0.5c-0.7,2.8,0,4.9,2.4,6.6c-0.2-1-0.2-2.1-0.3-2.4c-0.7-1.9-1.6-3.8-2.8-5.6
		C179.6,152.2,178,150.3,176.3,148z M140.4,177.6c2.1-3.5,3.8-6.8,5.9-10.1c-1.4-0.5-0.7-2.6-2.3-2.8c-0.3-1-0.7-2.1-2.1-2.6
		c0-1.6-1.4-1.9-2.4-2.4c-0.7-0.7-1.2-2.3-2.8-2.3c0.7,1.4,1.6,3,2.4,4.2c0.7,1,1,2.3,0.9,3.7c0,0.3,0,0.7,0.2,0.9
		c0.2,2.4,0.3,4.9,0,7.3C140.2,175,140.4,176.4,140.4,177.6c-0.3-0.2-0.7-0.3-1-0.7c-0.7-1.2-1.4-2.6-2.1-4s-0.7-3.1-1-4.7
		c-0.5-1.9-1.9-3.5-2.6-5.4c-0.5-0.7-0.9-0.7-1.6-0.3c0.2,0.7,0.3,1.6,0.3,2.4c0.2,2.8,0.2,5.6,0.3,8.5c0,1,0.3,1.9,1.2,2.3
		c2.1,0.9,3.8,2.3,5.9,3.3C139.9,178.3,140,178,140.4,177.6z M167.2,232.3c-0.9,0.7-1.6,2.1-3,1.2c-3.8-1.9-7.7-1.9-11.7-1.9
		c-0.7,0-1-0.2-1.9-0.2c0-0.2,0-0.3,0-0.5c1,0,2.3,0,3.5,0c1-0.2,2.4,0.7,3.7-0.2c-0.5-1-1.2-1-2.3-1c-1.9,0-3.7,0.2-5.4,0.2
		c-0.7,0-1,0-1.9,0.2c0-0.2,0-0.3,0-0.5c2.4-0.2,4.9-0.3,7.3-0.3c0-0.2,0-0.3,0.2-0.5c-2.1-1.2-3.8-2.4-5.8-3.8
		c-0.7-0.5-1.6-0.7-2.4-0.3c-0.7,0.2-2.1,0.3-2.6,0c-2.3-1-4.5-0.9-7-0.9c-1,0-2.3,0-3.5,0c0-0.2,0-0.3,0-0.5c2.3,0,4.2,0,6.6,0
		c-0.7-1.2-1.6-2.3-2.8-3c-1.6-0.7-3.1-1.6-4.7-2.4c-0.7-0.3-1.9-0.7-2.8-0.7c-3.8,0-7.5,0-11.2,0c-0.3,0-0.7,0.2-0.9,0.2
		c0.7,2.6,0.7,2.6,3.3,2.6c0.7,0,1.2,0,1.9,0c2.4,0,4.9,0,7.3,0c0,0.2,0,0.3,0,0.3c-3.7,0.2-7.1-0.2-10.8,0.3c0.3,1.4,1,2.1,2.3,1.9
		c2.1-0.2,3.8-0.2,5.8-0.3c0,0,0.2,0.2,0.3,0.3c-0.5,0-0.9,0.2-1.4,0.2c0.3,0.2,0.5,0.3,0.9,0.7c-2.3,0.5-3.8-0.2-6.1,0.5
		c1,1.2,2.1,2.3,3,3.5c0.7,0.7,1.4,1,2.8,1c3.8,0,7.8,0,11.7,0.2c0.5,0,0.7,0.2,1.2,0.2c0,0.2,0,0.3,0,0.5c-2.3,0-4.5,0-6.8,0
		c-2.3,0-4.4-0.7-6.8,0c0.5,1,1.4,1.4,2.4,1.2c2.3,0,4.2,0,6.3,0c0,0.2,0,0.3,0,0.3c-0.9,0-2.1,0-3.1,0c-0.9,0-2.3-0.3-3.3,0.5
		c0.3,0.3,0.7,0.7,0.7,0.7c6.1,4.5,12.9,7.1,20.4,8.5c0.7,0.2,1.2,0,1.9,0c2.8-0.3,5.6,0,8.2-0.2c0,0.2,0,0.3,0,0.5
		c-2.3,0-4.2,0-6.4,0c2.1,0.3,3.8,0.5,6.1,0.3c2.3-0.2,4.2,0.2,6.1-0.7c1.9-0.7,3.8-0.2,5.9-1.2c-0.7,0-1,0-1.6-0.2
		c-0.3,0-0.7-0.2-0.9-0.2c3.3,0,6.6,0,9.4-2.3c-0.7-0.9-1.4-1.4-2.6-1.6c-0.7-0.2-1.6-0.3-2.3-0.9c-1-1-2.6-1.2-4-1.2
		C169.7,232.5,168.4,232.3,167.2,232.3c0.9,0,2.1,0,3.1-0.2C168.8,230.6,168.4,230.8,167.2,232.3z M124.7,196.6c0-0.2,0-0.2,0-0.3
		c0.7,0,1.6,0,2.4,0c1.6,0,2.6-0.7,2.6-2.3c0-2.4,0-4.9,0-7.5c0-0.9-0.7-1.4-1.6-1.4c-1.4,0-3,0-4.4,0c-0.3,0-0.7-0.2-1-0.2
		c0-0.2,0-0.3,0-0.5c2.3,0,4.4,0,6.8,0c0.2-2.1,0.3-3.7,0.3-5.4c0-1.6-0.2-1.9-1.9-1.9c-1,0-2.4,0-3.7,0c1.6-0.7,3.7,0,5.4-0.7
		c-0.7-1.6-2.4-1.9-3.7-2.6c-0.7,0.7-0.7,2.3-2.3,2.4c-0.5-1-0.9-2.3-1-3.5c-0.2-1-0.7-1.6-1.9-1.6c-0.9-0.2-2.1-0.2-2.8-0.2v-0.2
		c0.3-0.2,0.7-0.2,1.2-0.3c-0.7-1-1.6-0.7-2.1-0.2c-0.5,0.9-1,1-2.3,0.7c-0.7,2.3-0.2,4,2.1,5.1c0.7,0.5,1.6,0.9,2.3,1.6
		c1.9,1.4,1.9,3,0.2,4.5c-1.4,1.4-2.8,3.1-3.8,5.4c1.6,0,3.1,0.2,4.4,0.2c1.2,0,2.6-0.2,3.8,0c0,0.2,0,0.3,0,0.5c-3,0-5.9,0-9.1,0
		c0,1.2,0,2.4,0,3.8c3.8,0.2,7.3,0.3,11,0.5c-0.3,0.3-0.7,0.3-1,0.3c-2.6-0.2-5.4-0.2-7.8-0.3c-0.7,0-1.9-0.3-2.1,0.7
		c-0.2,0.7,0.3,0.9,1.9,0.9c2.1,0,4,0,6.1,0c1.6,0,3.3,0,4.9,0c0,0.2,0,0.3,0,0.3c-4,0.2-8.4-0.2-12.7,0.2c0,1,0,2.1,0,3.1
		c2.4,0,4.9,0,7.1,0c0,0.2,0,0.3,0,0.5c-1.4,0-3,0-4.4,0c0,0.2,0,0.3,0,0.5c2.3,0,4.2,0,6.6,0c0,0.2,0,0.3,0,0.5c-3.1,0-6.1,0-9.4,0
		c-0.5,2.8,0,5.4,0.5,7.8c0.2,0.9,0.7,1.2,1.6,1c0.7-0.2,1-0.2,1.9-0.2c0,0.2,0,0.3,0,0.3c-0.7,0.2-1.9,0.3-2.6,0.5
		c0,0.2,0,0.2,0,0.3c0.5,0.2,0.7,0.3,1.2,0.5c-0.5,0.2-0.9,0.3-1.4,0.7c0.5,1.4,0.9,2.8,1.4,4c0.3,1,1,1.4,2.3,1.4
		c3.3,0,6.6,0,9.9,0c0.5,0,0.9,0,1.6-0.2c-3.7-2.6-7.7-1.6-11.5-2.1c0-0.2,0-0.3,0-0.5c1.4,0,2.8,0,4.2,0c-1.2-0.7-2.8-1-2.6-3.1
		c0.2-1.2,0.3-2.6,0.5-3.8c-0.7,0-1.4-0.2-2.3-0.2c0.7-0.3,1.6-0.5,2.4-0.7c0.9-0.2,1.6-0.3,1.4-1.6c-2.3,0-4.4,0-6.8,0
		c0.7-0.3,1.2-0.5,2.1-0.5c1.2,0,2.4,0,3.8-0.2c1,0,2.1-0.5,2.6-1.6c0.7-1.2,1.4-2.4,2.3-3.8c0.2-0.3,0.3-0.7,0.5-1.2
		C126.6,196.6,125.7,196.6,124.7,196.6z M166.9,139.3c0,0.2,0.2,0.3,0.2,0.3c1.6,0.2,3.5,0.3,5.1,0.3c2.6,0,4.9,0.9,6.4,3.3
		c0.5,0.7,0.9,1.9,1.2,2.8c0.7,2.3,2.3,3.8,3.8,4.4c-0.7-4.4-0.2-8.9-0.2-13.4c-0.2,0-0.5-0.2-0.7,0c-0.2,0-0.5,0.2-0.7,0.2
		c-0.5-2.4-3-2.8-4-4.5c-0.3,0.7-0.7,1-1.2,0.5c-0.2,0.3-0.2,0.5-0.3,0.7c-0.2,0.2-0.3,0.7-0.3,0.7c-2.1,0.2-2.1,0.2-3.1,1.4
		c-0.2,0.2-0.5,0.2-0.7,0.2c-1.2,0.2-1.9,0.7-1.9,1.9c0,0.2-0.2,0.2-0.2,0.3c-0.3-0.2-0.5-0.3-0.7-0.5c-0.2,0.3-0.5,0.7-0.7,0.9
		c-0.2-0.7-0.2-0.9-0.2-1.4C167.9,138.2,167.4,138.9,166.9,139.3z M159.2,205.3c-0.7,0.7-1.2,1.2-2.1,2.3c-2.3,2.3-2.3,2.4-0.3,5.1
		c0.2,0.2,0.3,0.3,0.3,0.5c1.9,2.3,3.5,4.4,5.4,6.6c1.4,1.9,1.6,3.7,0.7,5.6c-0.3,0.7-0.7,1.6-0.9,2.4c0.7,0.5,1.6,0.7,2.3-0.2
		c0.7-1.6,1.4-3.3,2.3-5.1c-1.2-0.5-1.6-1.4-2.3-2.4c-0.9-3-2.3-5.8-4.9-7.8c-0.5-0.3-0.7-0.9-1.4-1.6c0.7-0.3,1-0.7,1.4-0.7
		c2.6-1.4,5.4-2.8,8-4.2c1.9-0.7,2.6-2.3,2.3-4c-0.2-0.3-0.2-0.7-0.3-1.2c-1.6,0.7-3.1,1.4-4.2,2.6c-0.9,0.9-1.9,2.1-2.8,3
		C161.8,206.9,160.8,206.7,159.2,205.3z M168.6,189.6c0.2,0,0.3-0.2,0.3-0.2c0.2,0.3,0.5,0.7,0.7,1c0.3,0.9,0.3,2.3,0.7,3
		c0.3,0.9,0.2,1.9-0.7,2.4c-2.3,2.1-4,3.8-6.3,5.8c-0.3,0.3-0.7,0.5-0.9,0.7c-0.2,0.5,0,0.9,0,1.4c0.5,0,0.9,0,1.2-0.2
		s0.7-0.7,0.9-0.9c0.7-1.2,1.9-1.9,3-2.4c0.7-0.3,1.2-0.7,2.1-1c3.1-2.3,3.1-2.3,2.8-5.8c-0.2-1.9-0.5-3.7-0.7-5.4
		c-0.3-1.9-0.9-2.1-2.4-0.9c-0.3,0.2-0.7,0.5-0.7,0.5c-1.2,0-2.1,0.7-2.8,1.4c-0.5,0.5-1,0.9-1.9,1.4c-0.3-0.7-0.5-1.4-0.7-2.4
		c-0.7,2.1-2.1,3.7,0,5.1c0.2,0.2,0.2,0.7,0.3,0.9c0.7,2.3,0.7,2.3,3,2.3c0.5,0,1,0,1.6-0.2c1.4-0.2,2.3-0.9,1.9-2.6
		C169.3,192.3,169,191,168.6,189.6z M154.3,215.8c0.2,0,0.3,0,0.7,0c0.5-1.9,0.3-3.5,0-5.4c-0.2-0.7,0-1.6,0.5-2.3
		c2.3-2.6,4.4-5.4,7.5-7c1.2-0.7,2.3-1.6,3.1-3c-0.7,0-1.2,0-2.1,0.3c-0.9,0.5-2.3,1-3.1,1.6c-2.3,1-4.7,2.3-7,3.5
		c-1.2,0.7-2.1,1.6-2.3,3.1c-0.2,2.1-0.3,3.8-0.5,5.8c0,0.9,0,2.3,0.7,3.1c0.2-1.4,0.5-3.1,0.7-4.5c0.2,0,0.2,0,0.3,0
		C153.8,212.5,154.2,214,154.3,215.8z M177.3,168.6c0.2,0,0.3,0,0.5,0c0.3,0.7,0.5,1.2,0.7,1.9c0.2,0.3,0.5,0.9,0.9,0.9
		c1.4,0.5,3,0.7,4.4,1c0.2-0.7,0.3-1.2,0.7-1.9c0.3,0.2,0.7,0.3,1,0.5c-0.2-0.7-0.2-1.2-0.3-2.1c-0.9,0.2-1.6,0.2-2.3,0.3
		c-0.9-0.3-1.2-2.1-2.6-1.2c-0.2,0-0.5-0.3-0.7-0.5c-0.7-1-1.9-1.4-2.8-1.4c-3.1,0-6.4,0.2-9.6,0.2c-0.5,0-0.7,0.2-1.2,0.3
		c0,0.2,0,0.3,0,0.5c1.9,0.5,3.5,1,5.1,1.6c0.5-0.7,0.7-0.9,1.2-1.6c0.5,2.3,2.1,3.1,4,3C176.6,169.9,177.2,169.2,177.3,168.6z
		 M184.8,167c-0.3-1.9-1.2-2.3-2.3-3c-2.1-1.2-4-2.6-6.1-3.8c-1.6-1-3.3-1-5.1-0.9c-2.6,0.3-5.4,0.3-8,0.5c-0.5,0-0.7,0.2-1.6,0.2
		c2.1,0.7,3.7,1.6,5.4,2.3c0.3-0.5,0.7-0.9,1.4-1.9c0.2,0.9,0.3,1.9,0.3,2.4c2.8,1,4.7-0.2,6.8-2.4c0,0.9,0,1.4,0,1.6
		c1.4,0.7,3,1.6,4.2,2.4C181.3,165.2,182.9,165.9,184.8,167z M195.5,173.6c0.5,0.7,0.7,1.2,1.2,2.1c0.7-1.4,0.3-2.3-0.5-3.3
		c-1.2-1.6-2.4-3.5-3.8-5.1c-0.7-0.7-1.4-1.6-2.4-2.3c-2.1-0.9-3.8,0-3.8,2.3c0,0.9,0.3,2.1,0.5,3.1c2.3-1.6,3.1,0.5,4.4,0.9
		c0.3-0.5,0.7-0.7,0.9-1c1.6,1.2,0.7,3.8,2.6,4.7C194.9,174.8,195.1,174.3,195.5,173.6z M154,174.7c1,3,1,3,0.9,6.6
		c-0.2,1.9,0,3.7,0,5.4c0,0.9,0.5,1.6,1.4,1.9c1.9,0.3,3.7,0.5,5.4,0.7c0.7-1,1-2.3,1.6-3.1c-2.3,0-4,0-5.9,0
		c-0.3-3.3-1-6.4-0.2-9.6c-0.7-0.2-1-0.2-1.6-0.3C155.2,175.5,154.7,175,154,174.7z M133.9,185.6c2.4,0,2.6-1.6,3.1-3.1
		c-1-0.2-2.1-0.3-3.1-0.5c1.2-0.5,2.8,0.2,3.8-1c-0.9,0-2.1-0.2-3-0.2v-0.2c0.7-0.2,1.4-0.2,2.6-0.5c-1.2-0.7-2.3-1.6-3-2.3
		c-1.2-0.7-2.1-0.2-2.1,1.2c0.2,2.6,0.2,5.4,0.3,8c0,0.7,0,1.9,0,2.6c0.2,0,0.3,0.2,0.5,0.2c0.5-0.5,0.7-1,1.2-1.6
		c-0.3-0.3-0.7-0.5-0.9-0.7c0.5-0.3,1.4,0,1.4-1C134.8,186.3,134.5,186,133.9,185.6z M115.5,149.9c0-0.9,0-1.9,0-2.6
		c-0.3,2.8-0.3,5.4-0.3,8.4c0.7-0.7,1.2-1.4,1.9-1.4c1.9-0.3,3.7-0.7,5.4,0c0.7,0.3,1.4,0.7,2.3,0.9c0.3,0.2,0.7,0,1.2-0.2
		c0-0.2,0-0.3,0.2-0.3c-1.4-0.9-3-2.1-4.4-3.1c-0.5,0-1.6,0.2-2.1-0.2C118.6,149.9,117,149.9,115.5,149.9z M152.4,173.6
		c2.1,0.7,3.8,1,5.6,1.6c0.3,0.2,0.7-0.2,1-0.3c0.7-0.5,1.2-0.9,2.1-1.6c0.7-0.5,0.7-1.2,0-1.9c-1.4-1-3-1.6-4.9-1
		C154.5,170.8,153.5,171.7,152.4,173.6z M150,162.3c1.6-1.4,3-3.7,3.5-5.6c-2.8,0-5.6,0-8.2,0c0.2,0.7,0.2,1.4,0.5,2.1
		c0.5,0.7,1.2,0.9,2.1,1.4c0.2,0.2,0.3,0.3,0.3,0.5C148.1,162.1,149.1,162.1,150,162.3z M152.8,220.5c0,0.2,0,0.3-0.2,0.7
		c2.8,2.4,5.8,4.9,8.9,7.1c0.3-1,0.7-2.1,0.7-2.8c0.2-1.9-0.2-2.3-2.1-2.3c-0.7,0-1.4,0-2.3,0c0.2-1.6-1.4-1.6-2.3-2.3
		C154.9,220.3,153.8,220.5,152.8,220.5z M115.1,175.7c0,2.1,0,3.3,0,4.7s-0.2,3,0.2,4.5c1.4-1.4,2.8-2.6,3.8-3.8
		c0.9-1,0.9-1.9-0.2-2.8C117.7,177.4,116.5,176.7,115.1,175.7z M171.2,206.4c-0.9,1-1.9,1.6-1.9,2.8c0,1.6,0.2,3.3-0.2,4.9
		c-0.2,2.1,0.9,2.8,2.8,3.7C172.3,213.9,172.3,210.4,171.2,206.4z M182.9,215.3c0.2,0.2,0.2,0.3,0.3,0.3c0.5-0.3,1-0.7,1.4-1
		c0.7-1,1.9-1.4,3.5-1.2c-0.3-1.9-0.7-3.5-1-5.1c-0.2-0.7-0.5-1.6-0.7-2.6c-0.2-0.9-0.3-1.9-1.4-2.3c-0.2,2.3-0.3,4.4,1,6.1
		c-0.5,0.5-1,0.7-1.2,1C184.1,212,183.6,213.5,182.9,215.3z M122.4,169.4c0.2-0.5,0.3-0.9,0.3-1.2c-0.2-1.2,0.5-2.6,1.2-3.3
		c1-1,0.9-2.4,1.2-3.8c-1.6,1.2-3.3,2.8-5.1,4.2c0,0.2,0,0.7,0,1C120,168.6,119.8,168.6,122.4,169.4z M199.5,160c0-0.3,0-0.5,0-0.5
		c-2.3-3.3-3.3-7-3.7-10.6c-0.2-1-0.3-2.3-1.2-3.1c0,2.4,0,4.7,0,6.6c0.5,0.9,0.7,1.6,1,2.3s0.7,1.9,1,2.3c0.7,0.7,1,1.2,1.2,2.3
		C198.4,159.5,198.6,160.2,199.5,160z M148.1,220.3c0.3,0.7,0.7,1.4,1.6,0.9c1.4-0.7,3-1.4,4.4-2.3c0.7-0.3,0.7-1.4,0-2.3
		c-0.5-0.7-0.9-0.5-1.6,0C151.2,218.1,149.8,219.1,148.1,220.3z M185.5,192.8c-0.2,0-0.3,0.2-0.5,0.2c0,2.1,0,3.8,0,5.8
		c0,2.1,0.9,3.3,2.4,4.5c-0.3-1.2-0.7-2.8-1-4c0.3-0.3,0.7-0.5,0.9-0.7C186.6,196.4,186.2,194.5,185.5,192.8z M188,142.4
		c-0.3,0.9-0.7,1.9-0.7,2.6c0,0.9,0.2,2.3,0.3,3.1c0.2,0.7,0,1.9,0.3,2.8c0.9-1.9,1.6-3.3,2.4-4.7C189.4,145,188.7,143.6,188,142.4z
		 M189,162.8c1.4,0,0.7-1.4,1.4-2.1c0.5-0.2,0.9-0.3,1.4-0.5c1,0.7-0.2,1.4,0.2,2.4c0.7,0.2,1.4,0.3,2.3,0.5c0-1,0-2.1,0-2.8
		c-1.4-0.7-3.1-1.4-4.5-0.7C189.7,160.7,189.4,161.8,189,162.8z M129.4,165.6c-0.2,0-0.5,0-0.7-0.2c-0.7,2.3-1,4.2-1.4,6.6
		c0.7,0.3,1.4,0.7,2.3,0.9C129.4,170.6,129.4,168.2,129.4,165.6z M163.7,182.5c1.9-0.2,2.3-0.3,1.9-2.3c-0.2-0.7-0.2-1.4-0.3-2.3
		c-0.2-1.2-0.7-1.6-2.3-0.9c0.7,0.3,1.2,0.7,2.3,1.2c-1,0.5-2.1,0.7-2.8,1C162.7,180.4,163.2,181.3,163.7,182.5z M185.2,185.8
		c-0.2,2.3-0.9,4.7,1.4,6.6C188.3,189.6,186.2,187.9,185.2,185.8z M187.8,156.2c1.2-3,2.1-6.1,4.2-8.5c0.5,0,1,0.2,2.1,0.2
		c-1.2-0.9-2.8-1-3.5-0.2c-1.6,2.3-2.4,5.1-3.1,7.8C187.4,155.5,187.6,155.7,187.8,156.2z M199.5,165.2c0.5,0.7,0.5,2.3,1.9,2.1
		c-0.9-3-3.1-5.1-5.4-5.4C197,165.1,197.2,165.2,199.5,165.2z M115.1,161.6c1.6-2.3,3-3.7,5.4-3.8c-0.5-0.3-0.9-0.5-1.2-0.3
		c-0.7,0.2-1.4,0.5-2.3,0.5c-2.3,0.3-2.3,0.3-2.3,2.3C115.1,160.5,115.1,160.7,115.1,161.6z M186.2,184.8c0.9-2.1,0.5-3.8-1.2-5.4
		C185.2,181.3,184.1,183.2,186.2,184.8z M192.7,149.2c-0.2,0-0.3-0.2-0.5-0.2c-0.7,0.9-1.4,2.1-1.9,3.1c-0.3,0.9-1.2,2.3-0.5,3.5
		c0.5-0.9,0.7-2.1,1-2.4C192.3,151.8,192.3,150.6,192.7,149.2z M185.9,147.8c-0.3-2.3,0-3.8-1.2-5.8c-0.2,1-0.2,2.1-0.5,2.8
		C184,146.2,184.7,146.9,185.9,147.8z M166.4,182.5c-1.4,0.7-2.1,2.1-1.2,3.8C166.9,185.1,167.1,184.9,166.4,182.5z M184.7,148.3
		c0.3,3.3,0.9,5.4,1.9,5.6c-0.2-0.7-0.5-1.6-0.3-2.3C186.6,150.3,186.1,149.4,184.7,148.3z M130.3,191.9c1.6,0,2.3-0.7,1.9-2.3
		c-0.2-0.3-0.5-0.7-0.7-0.7c-0.3,0-0.9,0.3-0.9,0.7C130.1,190.3,130.3,191.2,130.3,191.9z M130.4,196.6c1.6,0,2.3-0.7,1.9-2.3
		c-0.2-0.3-0.5-0.7-0.7-0.7c-0.3,0-0.9,0.3-0.9,0.7C130.3,195,130.4,195.7,130.4,196.6z M185.2,173.6c-0.3,1.9,0,3.3,1.6,4.7
		C186.7,176.4,185.9,175,185.2,173.6z M132.5,182c-0.5-0.7-0.7-1.2-1.2-1.2c-0.9-0.2-0.7,0.7-0.9,1.4c-0.2,0.7,0.2,1,0.7,1
		C131.3,183,131.7,182.7,132.5,182z M115.3,166.3c0.7-0.7,1.4-1,2.1-1.6c0.9-0.9,0.9-0.9,0.9-1.6c-0.7,0.5-1.6,0.9-2.6,1.4
		C114.9,164.7,114.9,165.2,115.3,166.3z M131,187.2c0.7,0,0.9-0.3,0.9-0.9c0-0.7,0-1.2-0.9-1.2c-0.7,0-0.9,0.5-0.9,1.2
		C130.3,186.7,130.4,187.2,131,187.2z M132.7,199.8c-0.5-0.5-0.9-0.9-1.2-1.2c-0.3,0.5-0.7,0.7-0.7,1.2c-0.2,0.7,0,1.2,0.7,1
		C131.8,201.1,132.4,200.3,132.7,199.8z M173.2,209.9c0-2.3,0.5-4.7-0.7-7C172.8,205.3,173.2,207.6,173.2,209.9z M185.2,138.9
		c-0.2,0-0.3,0.2-0.5,0.2c0,1.4,0.2,1.9,2.1,3.1C186.1,140.7,185.5,139.8,185.2,138.9z M163.4,230.1c-0.2-0.2-0.3-0.3-0.5-0.5
		c-0.5,0.2-0.9,0.5-1.9,0.7c0.5,0.7,0.9,0.9,1.6,1.9C162.9,231.1,163.2,230.6,163.4,230.1z M152.6,224.5c0.7-1.9,0.7-1.9-0.9-2.8
		C152.1,222.9,152.2,223.6,152.6,224.5z M131.7,171.7c-0.3-0.3-0.7-0.7-0.7-0.9c-0.3,0.3-0.7,0.5-0.7,0.7c0,0.3,0.3,0.7,0.7,0.7
		C131,172.4,131.1,171.9,131.7,171.7z M145.3,223.3c0.2,0,0.3,0,0.5-0.2c0-0.7,0-1.4-0.2-2.6C144.7,221.9,145.1,222.8,145.3,223.3z
		 M131,177.1c-0.3,0.5-0.7,0.7-0.7,1c0,0.3,0.5,0.5,0.7,0.7c0.2-0.3,0.7-0.5,0.7-0.7C131.7,177.8,131.3,177.4,131,177.1z
		 M130.1,200.4c0-0.2,0.2-0.2,0.2-0.3c-0.3-0.3-0.7-0.7-1-0.7c-0.3,0-0.7,0.3-1.6,0.5C128.7,200.3,129.4,200.4,130.1,200.4z
		 M179.4,165.4c0,0.2,0,0.3-0.2,0.5c0.7,0.2,1.2,0.3,2.1,0.7c0-0.2,0.2-0.3,0.2-0.5C180.8,165.9,180.1,165.6,179.4,165.4z
		 M171.2,229.4c-0.2,0.2-0.2,0.3-0.3,0.5c0.3,0.3,0.7,0.7,1,0.9c0.2-0.3,0.3-0.5,0.5-0.7C171.9,229.7,171.6,229.4,171.2,229.4z
		 M131.5,165.6c-0.5-0.3-0.7-0.7-0.9-0.7c-0.3,0-0.5,0.3-0.7,0.5c0.3,0.2,0.5,0.7,0.7,0.7C131,166.3,131,165.8,131.5,165.6z
		 M172.8,215.6c0.2,0.7-0.3,1.2,0.3,2.1C173.5,216.7,173.5,216.7,172.8,215.6z M131.7,168.9c-0.2-0.2-0.2-0.3-0.3-0.5
		c-0.3-0.2-0.7-0.2-0.9-0.2c-0.2,0-0.3,0.3-0.3,0.5c0.3,0.2,0.7,0.3,0.9,0.3C131.1,169.1,131.3,168.9,131.7,168.9z M138.5,180.1
		c0.2-0.2,0.2-0.3,0.3-0.5c-0.7-0.3-1.2-0.7-2.1-1c0,0.2-0.2,0.2-0.2,0.3C137.2,179,137.8,179.5,138.5,180.1z M131.7,175.2
		c-0.2-0.3-0.3-0.7-0.5-0.7c-0.3,0-0.7,0.2-0.9,0.3c0.2,0.2,0.2,0.5,0.3,0.7C131,175.4,131.1,175.2,131.7,175.2z M160.1,229.9
		c0.2,0,0.3,0,0.7,0c0-0.3,0-0.7-0.2-1c0,0-0.3-0.2-0.7-0.2C159.9,229,160.1,229.4,160.1,229.9z M155.4,224.9c-0.2,0-0.3,0-0.5,0
		c0,0.5,0.2,1,0.2,1.6h0.2C155.4,225.9,155.4,225.4,155.4,224.9z M186.2,156c-0.2,0-0.3,0-0.5,0.2c0.2,0.5,0.2,0.9,0.3,1.4
		c0.2,0,0.2,0,0.3,0C186.4,156.9,186.2,156.4,186.2,156z M154.3,224.2C154.3,224.2,154.2,224.2,154.3,224.2
		c-0.2,0.7-0.2,1.2-0.2,2.1h0.2C154.3,225.5,154.3,224.9,154.3,224.2z M146.8,221.5c-0.2,0-0.3,0.2-0.5,0.2c0.2,0.5,0.3,0.9,0.5,1.4
		c0.2,0,0.3-0.2,0.3-0.2C147.2,222.6,147,222.1,146.8,221.5z M143.5,222.4L143.5,222.4c0.3-0.2,0.3-0.5,0.5-0.7c0-0.2,0-0.5-0.2-0.7
		c-0.2,0-0.2,0-0.3,0C143.7,221.5,143.7,221.9,143.5,222.4z M142.7,222.1c0.2,0,0.2,0,0.3,0c0-0.5,0-1,0.2-1.6c-0.2,0-0.2,0-0.3,0
		C142.8,220.8,142.7,221.5,142.7,222.1z M185.2,135.8c-0.2,0-0.2,0-0.3,0c0,0.3,0.2,0.7,0.2,1c0.2,0,0.3,0,0.3-0.2
		C185.5,136.7,185.4,136.3,185.2,135.8z M138.5,218.8c0.2-0.2,0.2-0.2,0.2-0.3c0-0.5,0-0.7-0.2-1.2c0,0-0.2,0-0.2-0.2
		c0,0.3-0.2,0.7-0.2,0.9C138.1,218.4,138.3,218.6,138.5,218.8z M173.8,214.7L173.8,214.7c0.2-0.5,0.2-0.9,0.2-1.4c0,0,0,0-0.2,0
		C173.8,213.7,173.8,214,173.8,214.7z M128,213.5c0-0.5,0-0.7-0.2-1.2C127,212.6,127.3,213,128,213.5z M123.5,212.3
		c0.2,0,0.3,0,0.5,0c0-0.5-0.2-0.7-0.2-1.2c-0.2,0-0.2,0-0.3,0C123.5,211.6,123.5,212,123.5,212.3z M137.1,186.3
		c-0.2,0.3-0.3,0.5-0.3,0.7c0,0.2,0.2,0.2,0.2,0.3c0.2-0.2,0.5-0.2,0.7-0.5C137.2,187,137.2,186.7,137.1,186.3z M128.2,174.1
		c0-0.2,0.2-0.2,0.2-0.3c-0.3-0.2-0.7-0.3-1-0.5c0,0.2,0,0.2-0.2,0.3C127.7,173.8,127.8,174,128.2,174.1z M181.2,235.1
		c-0.2,0.2-0.3,0.3-0.3,0.5l0.2,0.3c0.2,0,0.3-0.2,0.5-0.2C181.3,235.7,181.3,235.5,181.2,235.1z M157.1,227.3
		c-0.2-0.2-0.3-0.3-0.5-0.3l-0.3,0.3c0,0.2,0.2,0.3,0.3,0.3C156.8,227.8,156.9,227.5,157.1,227.3z M158,227.1
		C158,227.1,157.8,227.1,158,227.1c-0.2,0.5-0.2,0.7-0.2,1.2h0.2C158,227.8,158,227.6,158,227.1z M186.4,162.1
		c-0.2,0-0.3-0.2-0.3-0.2c-0.2,0-0.3,0.2-0.3,0.3c0.2,0.2,0.3,0.3,0.3,0.2C186.2,162.3,186.2,162.3,186.4,162.1z M175.9,231.1
		C175.9,231.1,175.8,231.1,175.9,231.1c-0.2,0.3-0.2,0.7-0.2,0.9c0,0,0,0,0.2,0C175.9,232,175.9,231.5,175.9,231.1z M161,220.7
		c-0.3,0.3-0.5,0.3-0.5,0.5c0,0.2,0.2,0.3,0.2,0.5C160.8,221.5,161,221.2,161,220.7z M141.3,219.8L141.3,219.8
		c0.2-0.3,0.2-0.7,0.2-0.9h-0.2C141.3,218.9,141.3,219.3,141.3,219.8z M135.7,217.5c0-0.2,0.2-0.2,0.2-0.3c-0.3-0.2-0.7-0.3-0.9-0.5
		c0,0.2,0,0.2-0.2,0.3C135,217.2,135.3,217.4,135.7,217.5z"/>
	<path fill="#3FDBB1" d="M121,185.8c0,0.2,0,0.2-0.2,0.3c1.9,0.2,3.7,0.3,5.6,0.3c0-0.2,0-0.3,0-0.5C124.9,186,123,186,121,185.8z
		 M120.5,189.3L120.5,189.3c2.3,0.2,4.4,0.2,6.8,0.2v-0.2C125.2,189.3,123,189.3,120.5,189.3z M120.3,174.7c0-0.2,0-0.2,0-0.3
		c-1,0-2.3,0-3.3,0c0,0.2,0,0.2,0,0.3C118.1,174.7,119.3,174.7,120.3,174.7z M121.9,179L121.9,179c1.4,0.2,3,0.2,4.4,0.2V179
		C124.7,179,123.3,179,121.9,179z M121.6,175.9c-1.6-0.3-1.6-0.3-3.1,0.5C119.8,176.2,120.5,176,121.6,175.9z M121.9,182.3
		L121.9,182.3c1,0.2,2.4,0.2,3.7,0.2v-0.2C124.2,182.3,123.1,182.3,121.9,182.3z M124.9,180.2L124.9,180.2c1,0.2,2.3,0.2,3.7,0.2
		v-0.2C127.5,180.2,126.4,180.2,124.9,180.2z M117.6,201.7c0,0.2,0,0.3,0.2,0.5c0.5-0.2,0.9-0.2,1.6-0.3c0-0.2,0-0.2,0-0.3
		C118.6,201.5,118.1,201.7,117.6,201.7z"/>
	<path fill="#3FDBB1" d="M190.9,214.7c0.3-0.2,0.7-0.7,0.7-0.5c0.7,0.3,1.6,0.7,2.4,0.9c-0.2,0.7-0.2,1-0.3,2.1
		c-1-0.3-2.3-0.5-2.8-2.1C191.1,215.1,190.9,214.9,190.9,214.7z"/>
	<path fill="#3FDBB1" d="M177.3,209.7c0.5,0.7,0.9,1.2,1.6,2.1c-0.2,0.2-0.2,0.2-0.3,0.3c-0.5-0.3-1-0.5-1.6-0.7
		c-0.3-0.2-0.5-0.3-0.7-0.5C176.3,210.4,176.8,210,177.3,209.7L177.3,209.7z"/>
	<path fill="#3FDBB1" d="M166.9,220.8c0-0.5,0-0.7,0-1.2c0.7-0.2,1.4-0.5,2.3-0.7c-0.5,0.7-0.7,1.6-1.2,2.4
		C167.4,221.2,167.2,221,166.9,220.8z"/>
	<path fill="#3FDBB1" d="M136.5,210.6c-0.9-0.5-2.1-0.7-2.8-1.2c0.7-0.7,0.7-2.3,2.3-2.3C136,208.5,136.4,209.3,136.5,210.6z"/>
	<path fill="#3FDBB1" d="M139.9,188.4c0.3,0,0.7,0,0.9,0c0.2,0.7,0.2,1.4,0.3,2.4c-0.7-0.5-1-0.7-1.9-1
		C139.5,189.1,139.7,188.8,139.9,188.4L139.9,188.4z"/>
	<path fill="#3FDBB1" d="M198.9,216.5c-0.3,0.7-0.5,1-0.7,1.6c-0.5-0.3-0.9-0.5-1.4-0.7C197,216,198.1,216.8,198.9,216.5z"/>
	<path fill="#3FDBB1" d="M189.7,216.3c-0.9,0.3-1.4,0.7-2.1,0.7c-0.3-0.5-0.7-0.9-0.9-1.6C187.6,215.8,188.5,216,189.7,216.3z"/>
	<path fill="#3FDBB1" d="M139.7,210c0.5,0.2,1,0.3,2.1,0.7c-1.4,0.5-1.4,0.5-2.3-0.3C139.7,210.2,139.7,210.2,139.7,210z"/>
	<path fill="#3FDBB1" d="M148.4,206c0.7,0,1,0,2.3,0c-0.7,0.7-1.4,1.2-2.3,2.3C148.4,207.1,148.4,206.4,148.4,206L148.4,206z"/>
	<path fill="#3FDBB1" d="M135.3,202.9c1.4-0.9,1.4-0.7,1.9,0.9C136.7,203.6,136.2,203.2,135.3,202.9z"/>
	<path fill="#3FDBB1" d="M171.2,223.1c0-0.9,0.5-1.4,1.2-1.9C172.6,222.6,172.6,222.6,171.2,223.1L171.2,223.1z"/>
	<path fill="#3FDBB1" d="M176.1,213.7c0.3,1.6,0.3,1.6-0.7,1.6C175.2,214.7,175.2,213.9,176.1,213.7z"/>
	<path fill="#3FDBB1" d="M194.9,216.1c0.7,0,1,0,1.9-0.2c-0.5,0.7-0.7,1-1.4,2.1C194.9,216.8,194.9,216.7,194.9,216.1z"/>
	<path fill="#3FDBB1" d="M146.5,207.2c0.3-1,0.5-1.6,0.7-2.6C147.4,206,147.4,206,146.5,207.2z"/>
	<path fill="#3FDBB1" d="M200,202.5c0.3,1.6-0.7,0.9-1.2,1.2C198.3,202.4,199.5,202.9,200,202.5z"/>
	<path fill="#3FDBB1" d="M200.7,204.3c1.2,0,1.4,0.5,1.2,1.9C201.6,205.3,201.2,204.8,200.7,204.3z"/>
	<path fill="#3FDBB1" d="M180.8,196.1c0.7,0.2,1,0.3,2.1,0.5c-0.7,0.2-1,0.3-1.9,0.5C180.8,196.6,180.8,196.4,180.8,196.1z"/>
	<path fill="#3FDBB1" d="M171.1,223.1c-0.2,0.7-0.3,0.9-1.2,0.7c0.2-0.3,0.3-0.7,0.5-1.2C170.7,222.8,170.9,222.9,171.1,223.1
		C171.2,223.1,171.1,223.1,171.1,223.1z"/>
	<path fill="#3FDBB1" d="M139,209c-0.7,0.7-1.2,0.5-1.6,0c-0.2-0.2,0-0.3,0-0.5c0.2,0,0.3,0.2,0.5,0.2
		C138.1,208.6,138.3,209,139,209z"/>
	<path fill="#3FDBB1" d="M193.9,218.9c0.2-0.3,0.3-0.5,0.5-0.7c0,0,0.3,0.2,0.5,0.2c-0.2,0.3-0.3,0.5-0.7,0.7
		C194.1,219.1,194.1,219.1,193.9,218.9z"/>
	<path fill="#3FDBB1" d="M177.2,213.5c0.3-0.2,0.7-0.3,1-0.3c0,0.2,0.2,0.3,0.2,0.3c-0.3,0.2-0.7,0.3-1,0.5
		C177.3,213.7,177.3,213.7,177.2,213.5z"/>
	<path fill="#3FDBB1" d="M149.6,213c-0.2,0.7-0.3,1-0.5,2.1C148.2,213.9,149.1,213.7,149.6,213C149.4,213,149.6,213,149.6,213z"/>
	<path fill="#3FDBB1" d="M143.7,211.6c-0.3,0-0.7,0-1,0v-0.2c0.3-0.2,0.5-0.3,0.7-0.3c0.2,0,0.3,0.2,0.7,0.3
		C143.9,211.4,143.9,211.4,143.7,211.6z"/>
	<path fill="#3FDBB1" d="M131.5,209c0.2-0.3,0.3-0.7,0.5-0.9C132.5,208.8,132.5,208.8,131.5,209z"/>
	<path fill="#3FDBB1" d="M143.5,206.7c-0.3,0-0.7,0.2-0.9,0.2c0-0.2,0-0.2,0-0.3c0.3,0,0.7-0.2,0.9-0.2
		C143.3,206.5,143.3,206.5,143.5,206.7z"/>
	<path fill="#3FDBB1" d="M145.1,206c-0.2,0.3-0.2,0.7-0.3,1c-0.2,0-0.2,0-0.3,0c0-0.5,0.2-0.7,0.2-1.2
		C144.9,206,145.1,206,145.1,206z"/>
	<path fill="#3FDBB1" d="M144.7,217c-0.3,0-0.7,0.2-0.9,0.2c0-0.3,0-0.7,0-0.7C144,216.7,144.4,216.8,144.7,217
		C144.7,216.8,144.7,216.8,144.7,217z"/>
	<path fill="#3FDBB1" d="M184.3,229.9c0-0.3,0-0.5,0-0.7c0.2,0,0.2,0,0.3,0c0,0.3,0,0.5,0.2,0.7
		C184.5,229.7,184.3,229.7,184.3,229.9z"/>
	<path fill="#3FDBB1" d="M193.4,204.5c0.3,0,0.7-0.2,0.7-0.2v0.2c-0.3,0.2-0.5,0.2-0.7,0.3C193.4,204.6,193.4,204.6,193.4,204.5z"/>
	<path fill="#3FDBB1" d="M148.4,206c-0.7-0.7-0.2-0.7,0.7-1C148.9,205.3,148.8,205.7,148.4,206L148.4,206z"/>
	<path fill="#3FDBB1" d="M199.5,206c0.2-0.5,0.2-0.7,0.3-0.9c0,0.2,0.2,0.3,0.2,0.5C199.8,205.7,199.6,205.9,199.5,206z"/>
	<path fill="#3FDBB1" d="M172.3,224.2c0.2,0.3,0.3,0.7,0.5,0.9c-0.2,0-0.2,0.2-0.3,0.2c-0.2-0.3-0.3-0.7-0.5-0.9
		C171.9,224.3,172.1,224.3,172.3,224.2z"/>
	<path fill="#3FDBB1" d="M182.4,218.6c0.2-0.3,0.3-0.5,0.5-0.7c0.2,0,0.2,0.2,0.3,0.2c-0.2,0.3-0.3,0.5-0.5,0.7
		C182.4,218.8,182.4,218.6,182.4,218.6z"/>
	<path fill="#3FDBB1" d="M147.7,218.4c0.2-0.3,0.2-0.7,0.3-0.9c0.2,0,0.3,0.2,0.3,0.2c0,0.3-0.2,0.7-0.3,0.9
		C148.1,218.4,147.9,218.4,147.7,218.4z"/>
	<path fill="#3FDBB1" d="M189.7,217c0.3-0.5,0.5-0.7,0.7-1C190.6,216.8,190.6,216.8,189.7,217z"/>
	<path fill="#3FDBB1" d="M146,216.7c-0.3-0.3-0.7-0.5-0.9-0.7c0-0.2,0.2-0.2,0.2-0.3c0.3,0.3,0.7,0.5,0.9,0.7
		C146.1,216.5,146.1,216.7,146,216.7z"/>
	<path fill="#3FDBB1" d="M147.4,238.6c5.4,0,10.5,0,15.3,0C161.1,239.5,150.1,239.7,147.4,238.6z"/>
	<path fill="#3FDBB1" d="M134.5,232.9c0.2,0,0.3-0.2,0.5-0.2c3.5,0.2,7,0.3,10.3,0.5C141.8,233.4,138.1,233.4,134.5,232.9z"/>
	<path fill="#3FDBB1" d="M162.2,234.1c-2.6,0-5.4,0-7.8,0c0-0.2,0-0.2,0-0.3c2.6,0,5.4,0,7.8,0C162.2,233.9,162.2,233.9,162.2,234.1
		z"/>
	<path fill="#3FDBB1" d="M168.4,235.8c2.1,0,4,0,6.1,0c0,0.2,0,0.3,0,0.5C172.5,236.4,170.4,236.5,168.4,235.8z"/>
	<path fill="#3FDBB1" d="M154,236c2.1,0,3.8,0,5.9,0v0.2C157.8,236.2,155.9,236.2,154,236L154,236z"/>
	<path fill="#3FDBB1" d="M142.8,225.5c-1.9,0-3.7,0-5.4,0v-0.2C139.2,225.4,140.9,225.4,142.8,225.5
		C142.8,225.4,142.8,225.4,142.8,225.5z"/>
	<path fill="#3FDBB1" d="M138.5,235.1c1.2,0,2.6,0,3.8,0v0.2C141.1,235.3,139.7,235.3,138.5,235.1L138.5,235.1z"/>
	<path fill="#3FDBB1" d="M121,185.8c1.9,0.2,3.7,0.2,5.4,0.3c0,0.2,0,0.3,0,0.5c-1.9-0.2-3.7-0.3-5.6-0.3C121,186,121,186,121,185.8
		z"/>
	<path fill="#3FDBB1" d="M120.5,189.3c2.3,0,4.4,0,6.8,0v0.2C124.9,189.5,123,189.5,120.5,189.3L120.5,189.3z"/>
	<path fill="#3FDBB1" d="M120.3,174.7c-1,0-2.3,0-3.3,0c0-0.2,0-0.2,0-0.3c1,0,2.3,0,3.3,0C120.3,174.3,120.3,174.5,120.3,174.7z"/>
	<path fill="#3FDBB1" d="M121.9,179c1.4,0,3,0,4.4,0v0.2C124.9,179.2,123.3,179.2,121.9,179L121.9,179z"/>
	<path fill="#3FDBB1" d="M121.6,175.9c-0.9,0.2-1.9,0.3-3.1,0.5C120,175.5,120,175.5,121.6,175.9z"/>
	<path fill="#3FDBB1" d="M121.9,182.3c1,0,2.4,0,3.7,0v0.2C124.5,182.5,123.1,182.5,121.9,182.3L121.9,182.3z"/>
	<path fill="#3FDBB1" d="M124.9,180.2c1,0,2.3,0,3.7,0v0.2C127.5,180.4,126.3,180.4,124.9,180.2
		C124.9,180.4,124.9,180.2,124.9,180.2z"/>
	<path fill="#3FDBB1" d="M117.6,201.7c0.5,0,1-0.2,1.6-0.2c0,0.2,0,0.2,0,0.3c-0.5,0.2-0.9,0.2-1.6,0.3
		C117.6,202,117.6,201.8,117.6,201.7z"/>
	<path fill="#3FDBB1" d="M164.8,193.3c0.9-0.3,2.1-0.7,3-0.9C167.6,193.5,166.4,194.2,164.8,193.3z"/>
	<path fill="#3FDBB1" d="M188.5,166.5c-0.2,0.7-0.3,1.2-0.7,2.4c-0.9-1-0.3-1.9,0-2.4C188,166.3,188.1,166.5,188.5,166.5z"/>
	<path fill="#3FDBB1" d="M161.5,224c-0.2,0.5-0.3,0.9-0.5,1.6c-0.7-0.7-0.2-1.2,0-1.9C161,224,161.3,224,161.5,224z"/>
	<path fill="#3FDBB1" d="M117.2,182.1c-0.3,0.2-0.7,0.2-0.9,0.3c0,0,0-0.2-0.2-0.2C116.5,182.1,116.9,182.1,117.2,182.1
		C117,181.8,117.2,182,117.2,182.1z"/>
	<path fill="#3FDBB1" d="M127.3,202.2c0.3,0,0.7-0.2,0.9-0.2C127.8,202.7,127.8,202.7,127.3,202.2L127.3,202.2z"/>
</g>
</svg>
