<?xml version="1.0" encoding="utf-8"?>
<!-- Generator: Adobe Illustrator 21.0.2, SVG Export Plug-In . SVG Version: 6.00 Build 0)  -->
<svg version="1.1" id="Capa_1" xmlns="http://www.w3.org/2000/svg" xmlns:xlink="http://www.w3.org/1999/xlink" x="0px" y="0px"
	 viewBox="0 0 316 316" enable-background="new 0 0 316 316" xml:space="preserve">
<g>
	<g>
		<g>
			<path fill="#3FDBB1" d="M39.8,201.4c4.1,0,7.4,3.4,7.4,7.4c0,4.1-3.4,7.4-7.4,7.4c-4.1,0-7.4-3.4-7.4-7.4
				C32.3,204.8,35.7,201.4,39.8,201.4"/>
			<path fill="#3FDBB1" d="M99.4,273.1L99.4,273.1L99.4,273.1 M99.1,272.7L99.1,272.7L99.1,272.7 M98.6,226.8L98.6,226.8L98.6,226.8
				 M105.9,247.1l-4.1-15c0,0-0.7-2.7-3-5l-2.1,7.4l0,0l-5,18.2l4.1,15c0,0,0.7,2.7,3,5l1.9-7.2l0,0L105.9,247.1z"/>
			<path fill="#3FDBB1" d="M141,227l1.9,6.8h15.6l-0.6-1.8c0,0-2.1-7.9-9.9-7.9C144.8,224.2,142.5,225.6,141,227"/>
			<path fill="#3FDBB1" d="M28.9,272.5l-1.9-6.8H11.5l0.6,1.9c0,0,2.1,7.9,9.9,7.9C25.1,275.4,27.1,274.1,28.9,272.5"/>
			<g>
				<path fill="#3FDBB1" d="M291,295.1c0,0.2-0.2,0.6-0.2,0.9c-0.2,0.4-0.4,0.7-0.6,1.1c-0.2,0.4-0.6,0.6-0.9,0.9
					c-0.4,0.2-0.9,0.4-1.8,0.4c-0.6,0-0.9-0.2-1.1-0.4c-0.4-0.2-0.4-0.6-0.2-1.1c0.2-0.6,0.4-0.9,0.7-1.1c0.4-0.4,0.7-0.6,1.1-0.6
					c0.4-0.2,0.9-0.2,1.5-0.4c0.6,0,0.9,0,1.5,0h0.4L291,295.1z M290.1,299.2h1.1c0-0.6,0.2-1.1,0.4-1.9l1.1-4
					c0.6-2.3-0.2-3.2-2.3-3.2c-0.9,0-1.9,0.2-2.9,0.6l-0.2,1.1c0.9-0.6,1.9-0.7,2.9-0.7c1.3,0,1.9,0.7,1.3,2.3l-0.2,0.4h-0.2
					c-0.6,0-1.1,0-1.9,0c-0.6,0-1.3,0.2-1.9,0.4c-0.6,0.2-1.1,0.6-1.5,0.9c-0.6,0.4-0.7,0.9-0.9,1.8c-0.2,0.4-0.2,0.9,0.2,1.5
					c0.2,0.2,0.4,0.4,0.7,0.6c0.4,0.2,0.7,0.2,1.3,0.2c0.6,0,1.1-0.2,1.8-0.4c0.6-0.2,1.1-0.7,1.5-1.1l0,0L290.1,299.2z
					 M285.4,286.5h-1.1l-0.4,1.5h1.1L285.4,286.5z M280.9,299.2h1.1l2.5-8.8h-1.1L280.9,299.2z M278.6,294.6
					c-0.2,0.4-0.2,0.7-0.4,1.3c-0.2,0.4-0.4,0.7-0.7,1.1c-0.4,0.4-0.6,0.6-0.9,0.7s-0.9,0.4-1.3,0.4c-0.6,0-0.9-0.2-1.1-0.4
					c-0.2-0.2-0.4-0.6-0.6-0.9c-0.2-0.7-0.2-1.5,0-2.5c0.2-0.9,0.6-1.8,1.3-2.5c0.4-0.4,0.7-0.7,1.1-0.9s0.7-0.4,1.3-0.4
					c0.6,0,0.9,0.2,1.1,0.4c0.4,0.2,0.6,0.6,0.6,0.9c0.2,0.4,0.2,0.7,0.2,1.1C279,293.8,278.8,294.2,278.6,294.6 M271.3,299.2h1.1
					l0.4-1.3l0,0c0.4,1.1,1.1,1.8,2.3,1.5c1.1,0,2.3-0.4,3-1.3c0.7-0.9,1.5-1.9,1.8-3.2c0.4-1.3,0.4-2.5,0-3.4
					c-0.4-0.9-1.1-1.3-2.5-1.3c-0.4,0-0.7,0-1.1,0.2c-0.4,0.2-0.7,0.2-0.9,0.6c-0.2,0.2-0.6,0.4-0.7,0.6l-0.4,0.6l0,0l1.5-5.7h-1.1
					L271.3,299.2z M268.6,299.2l1.8-6.1c0.2-0.9,0.2-1.5-0.2-2.1c-0.4-0.6-0.9-0.7-1.9-0.7c-0.7,0-1.3,0.2-1.9,0.6s-1.1,0.7-1.5,1.3
					l0,0c0-0.4,0-0.7-0.2-0.9l-0.4-0.6l-0.6-0.4h-0.6c-0.4,0-0.9,0-1.1,0.2c-0.4,0.2-0.6,0.2-0.9,0.4l-0.6,0.6l-0.4,0.6l0,0l0.2-1.8
					h-1.1c-0.2,0.7-0.4,1.3-0.6,2.1l-1.9,6.8h1.1l1.3-5c0.4-1.1,0.7-1.9,1.3-2.5c0.6-0.6,1.1-0.7,1.9-0.7c0.4,0,0.6,0,0.7,0.2
					l0.4,0.6c0.2,0.2,0.2,0.4,0.2,0.7c0,0.2,0,0.6-0.2,0.9l-1.5,5.9h1.1l1.3-5c0.4-1.1,0.7-1.9,1.3-2.5c0.6-0.6,1.1-0.7,1.9-0.7
					c0.4,0,0.6,0,0.9,0.2l0.4,0.6c0.2,0.2,0.2,0.4,0.2,0.7c0,0.2,0,0.6-0.2,0.9l-1.5,5.9L268.6,299.2L268.6,299.2L268.6,299.2z
					 M248.9,294.6c0.2-1.1,0.7-1.9,1.5-2.7s1.5-1.1,2.5-1.1c0.9,0,1.5,0.4,1.9,1.1s0.4,1.5,0,2.7c-0.2,1.1-0.7,1.9-1.5,2.7
					c-0.7,0.7-1.5,1.1-2.5,1.1c-0.9,0-1.5-0.4-1.9-1.1C248.5,296.5,248.5,295.7,248.9,294.6 M247.5,294.6c-0.4,1.1-0.4,2.3,0.2,3.2
					c0.4,0.9,1.3,1.3,2.7,1.3c1.5,0,2.7-0.6,3.6-1.3c0.9-0.9,1.5-1.9,1.9-3.2c0.4-1.3,0.4-2.3-0.2-3.2c-0.4-0.9-1.3-1.3-2.9-1.3
					c-1.5,0-2.7,0.6-3.6,1.3C248.7,292.3,248,293.5,247.5,294.6 M243.2,299.2h1.1l3.6-12.9h-1.1L243.2,299.2z M235.2,294.6
					c0.2-1.1,0.7-1.9,1.5-2.7c0.7-0.7,1.5-1.1,2.5-1.1c0.9,0,1.5,0.4,1.9,1.1s0.4,1.5,0,2.7c-0.2,1.1-0.7,1.9-1.5,2.7
					c-0.7,0.7-1.5,1.1-2.5,1.1c-0.9,0-1.5-0.4-1.9-1.1C235.1,296.5,235.1,295.7,235.2,294.6 M234,294.6c-0.4,1.1-0.4,2.3,0.2,3.2
					c0.4,0.9,1.3,1.3,2.7,1.3c1.5,0,2.7-0.6,3.6-1.3c0.9-0.9,1.5-1.9,1.9-3.2c0.4-1.3,0.4-2.3-0.2-3.2c-0.4-0.9-1.3-1.3-2.9-1.3
					c-1.5,0-2.7,0.6-3.6,1.3C235.1,292.3,234.4,293.5,234,294.6 M233.3,288.3l0.4-1.1c-0.4-0.2-0.7-0.4-1.3-0.4s-0.9,0-1.5,0
					c-1.9,0-3.6,0.6-5,1.8c-1.4,1.2-2.3,2.7-2.9,4.5c-0.6,1.9-0.4,3.4,0.4,4.5c0.7,1.1,2.1,1.8,4,1.8c0.4,0,0.9,0,1.5-0.2
					c0.6,0,0.9-0.2,1.5-0.4l0.2-0.9c-0.4,0.2-0.9,0.4-1.3,0.4c-0.6,0-0.9,0.2-1.5,0.2c-1.5,0-2.7-0.6-3.2-1.5s-0.7-2.3-0.2-3.8
					c0.4-1.5,1.1-2.9,2.3-3.8c1.1-0.9,2.5-1.5,4-1.5c0.4,0,0.9,0,1.3,0C232.6,287.9,232.9,288.1,233.3,288.3"/>
				<path fill="#3FDBB1" d="M163.9,255.5l-1.5,5.7c-0.7,2.9-0.4,5.2,1.1,7c1.5,1.9,3.6,2.9,6.3,2.9c3.4,0,6.4-1.1,8.9-3.6
					c2.7-2.5,4.5-5.7,5.5-9.7c0.9-3.6,0.7-6.6-0.6-9.1c-1.3-2.5-3.6-3.6-6.8-3.6c-2.1,0-4.1,0.6-6.3,1.8c-2.1,1.2-3.6,2.7-4.7,4.3
					C164.9,253,164.1,254.4,163.9,255.5 M148,289.9l10.2-37.8c1.3-4.7,2.3-8.6,2.9-11.4h6.1l-1.5,5.9h0.2c4.1-4.5,9.1-6.8,14.8-6.8
					c4.3,0,7.6,1.8,9.7,5c2.1,3.2,2.3,7.6,0.9,12.7c-1.5,5.7-4.3,10.2-8.4,13.6c-4,3.4-8.6,5.2-13.1,5.2c-2.5,0-4.3-0.6-6.1-1.5
					c-1.8-0.9-2.9-2.3-3.6-4.1h-0.5l-5.2,19.2L148,289.9L148,289.9L148,289.9L148,289.9z"/>
				<path fill="#3FDBB1" d="M231.8,240.5l-6.8,25.2c-1.1,4-1.9,7.2-2.3,9.7h-5.9l0.9-5.9c-4,4.5-8.6,6.6-13.8,6.6
					c-3.8,0-6.4-1.3-7.9-4c-1.5-2.7-1.8-6.4-0.2-11.6l5.5-20.3h6.6l-5.2,19.2c-1.9,7.4-0.4,11.1,5.2,11.1c2.5,0,4.7-0.9,7.2-2.7
					c2.3-1.8,3.8-3.8,4.5-6.4l5.7-21.3h6.4V240.5z"/>
				<polygon fill="#3FDBB1" points="228,275.4 241.7,224 248.5,224 234.6,275.4 				"/>
				<path fill="#3FDBB1" d="M240.5,273.9l3-5.2c2.5,1.8,5.2,2.7,8.2,2.7c2.1,0,4-0.4,5.3-1.3c1.5-0.9,2.3-2.1,2.9-3.6
					c0.4-1.5,0.2-2.7-0.6-3.6c-0.7-0.9-2.3-1.8-4.3-2.7c-5.9-2.3-8.2-5.5-7-9.9c0.7-2.9,2.7-5.5,5.3-7.4c2.9-2.1,6.1-3,9.9-3
					c3.6,0,6.3,0.7,8.4,2.1l-3,5c-2.1-1.3-4.3-2.1-7-2.1c-1.8,0-3.2,0.4-4.5,1.3c-1.3,0.9-2.1,2.1-2.5,3.4c-0.4,1.3-0.2,2.3,0.6,3
					c0.6,0.7,2.3,1.8,4.7,2.7c3,1.1,5.2,2.7,6.1,4.3c0.9,1.8,1.1,3.8,0.6,6.3c-0.9,3.2-2.7,5.7-5.7,7.7c-3,1.9-6.4,2.9-10.6,2.9
					C246.2,276.3,243.2,275.4,240.5,273.9"/>
				<path fill="#3FDBB1" d="M294.4,263.7l1.5-5.7c-5.7,0-9.7,0.7-12.3,2.1c-2.5,1.3-4.1,3.2-4.7,5.5c-0.6,1.9-0.4,3.2,0.6,4.3
					c0.7,1.1,2.1,1.5,4,1.5c2.5,0,5-0.7,7-2.3C292.5,267.3,293.8,265.5,294.4,263.7 M303.5,254.4l-3.4,12.7
					c-0.9,3.4-1.5,6.3-1.8,8.4h-6.1l0.4-4.5c-3.6,3.6-7.7,5.3-12.5,5.3c-3.4,0-5.7-0.9-7.2-3c-1.5-1.9-1.9-4.3-1.1-7
					c1.1-4.1,3.8-7.4,8.2-9.7c4.4-2.3,10-3.4,17-3.4l0.2-0.6c0.6-2.5,0.6-4.3-0.6-5.9c-0.9-1.3-2.9-2.1-5.5-2.1
					c-3.6,0-7,0.9-10.2,2.7l-0.4-4.3c4-2.1,8.2-3.2,12.9-3.2c4.5,0,7.6,1.3,9.3,3.8C304.6,246,304.8,249.6,303.5,254.4"/>
			</g>
			<path fill="#3FDBB1" d="M84.8,272.5l-1.9-7.2l-9.1-33.2c0,0-2.1-7.9-9.9-7.9c-3.2,0-5.5,1.3-7,2.9l2.1,7.4l9.1,33
				c0,0,2.1,7.9,9.9,7.9C81,275.4,83.3,274.1,84.8,272.5"/>
			<path fill="#3FDBB1" d="M113.1,227l2.1,7.4l9.1,33c0,0,2.1,7.9,9.9,7.9c3.2,0,5.5-1.3,7-2.9l-1.9-7.2l-9.1-33.2
				c0,0-2.1-7.9-9.9-7.9C116.7,224.2,114.5,225.6,113.1,227"/>
			<path fill="#3FDBB1" d="M42.9,272.5l1.9-7.2l0,0l9.1-33.2c0,0,2.1-7.9,9.9-7.9c3.2,0,5.5,1.3,7,2.9l-2.1,7.4l0,0l-9.1,33
				c0,0-2.1,7.9-9.9,7.9C46.6,275.4,44.4,274.1,42.9,272.5"/>
			<path fill="#3FDBB1" d="M71,272.5l10.4-38l0.6-2.5c0,0,2.1-7.9,9.9-7.9c3.2,0,5.5,1.3,7,2.9l-10.4,38.2l-0.6,2.3l0,0
				c0,0-2.1,7.9-9.9,7.9C74.7,275.4,72.4,274.1,71,272.5"/>
			<path fill="#3FDBB1" d="M99.1,272.5l10.4-38.1l0.6-2.5c0,0,2.1-7.9,9.9-7.9c3.2,0,5.5,1.3,7,2.9l-10.4,38.3l-0.6,2.3
				c0,0-2.1,7.9-9.9,7.9C102.7,275.4,100.5,274.1,99.1,272.5"/>
			<path fill="#3FDBB1" d="M126.9,272.5l10.4-38.1l0.7-2.5c0,0,2.1-7.9,9.9-7.9c3.2,0,5.5,1.3,7,2.9l-10.4,38.5l-0.6,2.3
				c0,0-2.1,7.9-9.9,7.9C130.7,275.4,128.5,274.1,126.9,272.5"/>
			<path fill="#3FDBB1" d="M14.9,272.5l1.9-7.2l0,0l9.1-33.2c0,0,2.1-7.9,9.9-7.9c3.2,0,5.5,1.3,7,2.9l-2.1,7.4l0,0l-9.1,33
				c0,0-2.1,7.9-9.9,7.9C18.6,275.4,16.3,274.1,14.9,272.5"/>
			<path fill="#3FDBB1" d="M43.4,273.1L43.4,273.1L43.4,273.1 M43.1,272.7L43.1,272.7L43.1,272.7 M42.5,226.8L42.5,226.8L42.5,226.8
				 M49.7,247.1l-4.1-15c0,0-0.7-2.7-3-5l-2.1,7.4l0,0l-5,18.2l4.1,15c0,0,0.7,2.7,3,5l1.9-7.2l0,0L49.7,247.1z"/>
		</g>
	</g>
</g>
</svg>
