<?xml version="1.0" encoding="utf-8"?>
<!-- Generator: Adobe Illustrator 21.0.2, SVG Export Plug-In . SVG Version: 6.00 Build 0)  -->
<svg version="1.1" id="Capa_1" xmlns="http://www.w3.org/2000/svg" xmlns:xlink="http://www.w3.org/1999/xlink" x="0px" y="0px"
	 viewBox="0 0 316 316" enable-background="new 0 0 316 316" xml:space="preserve">
<polyline fill="none" stroke="#FFFFFF" stroke-width="0.216" stroke-miterlimit="22.9256" points="-6.7,236.4 327,236.4 327,324.2 
	-6.7,324.2 "/>
<g>
	<path fill="#35C49B" d="M109,176.9h15.1l11.3,9.1l11.9-9.1h13.4v43.6h-14.4v-24.4l-11.5,12.8l-0.8,0.2l-10.1-12.4v23.7h-15
		L109,176.9L109,176.9z M160.1,176.8h21.1c4.1,0,7.6,0.6,10.1,1.6c2.6,1.1,4.7,2.6,6.3,4.6c1.6,2,2.9,4.3,3.6,7
		c0.8,2.7,1.1,5.4,1.1,8.4c0,4.7-0.6,8.3-1.7,10.8c-1.1,2.6-2.7,4.7-4.7,6.4c-2,1.7-4.1,2.9-6.4,3.4c-3.2,0.8-5.9,1.1-8.5,1.1H160
		L160.1,176.8L160.1,176.8z M174.3,186.7v23.8h3.4c3,0,5.1-0.3,6.3-1c1.2-0.6,2.2-1.7,3-3.2c0.7-1.5,1.1-4.1,1.1-7.6
		c0-4.6-0.8-7.7-2.4-9.5c-1.6-1.7-4.2-2.6-7.9-2.6L174.3,186.7L174.3,186.7z"/>
	<path fill="#3FDBB1" d="M111.2,174.6h15.1l11.3,9.1l11.9-9.1h13.4v43.6h-14.4v-24.4l-11.4,12.8l-0.8,0.2l-10.1-12.4v23.7h-15
		L111.2,174.6L111.2,174.6z M162.3,174.6h21.1c4.1,0,7.6,0.6,10.1,1.6c2.6,1.1,4.7,2.6,6.3,4.6c1.6,2,2.9,4.3,3.6,7s1.1,5.4,1.1,8.4
		c0,4.7-0.6,8.3-1.7,10.8c-1.1,2.6-2.7,4.7-4.7,6.4c-2,1.7-4.1,2.9-6.4,3.4c-3.2,0.8-5.9,1.1-8.5,1.1h-21.1L162.3,174.6L162.3,174.6
		z M176.5,184.4v23.8h3.4c3,0,5.1-0.3,6.3-1c1.2-0.6,2.2-1.7,3-3.3c0.7-1.5,1.1-4.1,1.1-7.6c0-4.6-0.8-7.7-2.4-9.5
		c-1.6-1.7-4.2-2.6-7.9-2.6L176.5,184.4L176.5,184.4z"/>
	<polygon fill="#35C49B" points="153.8,133.8 154.9,136.4 157.1,138.2 158.7,141.3 157.9,146.9 159.1,166.1 162.4,165.8 
		164.3,162.6 167.3,160.9 169.5,159.6 172.4,159.6 175.1,157.9 178.5,155.1 181.4,153 184.4,151.3 188.5,148.2 190.8,145.4 
		194.9,143.7 197.9,141.3 200.8,143.3 200.8,146.9 198.6,148.6 193,152 186.7,156.4 184,159.6 179.9,160.2 178.1,162.3 174.3,164.1 
		172.4,165.8 168.3,168.8 163.9,172 160.2,174.4 159.8,180.9 159.8,189.2 159.8,198.2 161.2,209.6 162.8,218.5 162,225.7 
		163.2,232.6 164.6,242.6 164.6,245 164.3,250.2 165,261.6 163.5,267.8 164.6,270.6 157.9,267.8 156.5,265 158.3,240.5 157.1,230.9 
		155.3,224.7 155.3,213.7 153.4,207.1 153.4,197.8 153,180.6 152,177.2 146.7,179.2 141.8,182.3 140,186 134.8,189.5 127.7,193 
		121.8,196.8 115.7,200.9 112.4,202.3 109.8,202.3 109.1,200.6 109.1,197.8 113.9,195 120.6,191.6 126.2,187.1 130.7,183.4 
		135.2,178.9 137.4,177.4 139.3,174.7 143.4,172.3 146.3,170.6 152,168.8 150.8,142.7 149.7,137.9 	"/>
	<polygon fill="#FFFFFF" stroke="#3FDBB1" stroke-width="0.574" stroke-miterlimit="22.9256" points="156.8,132.4 157.9,135.2 
		160.1,136.9 161.6,140 160.9,145.5 162,164.8 165.4,164.4 167.3,161.4 170.2,159.7 172.4,158.2 175.5,158.2 178.1,156.5 
		181.4,153.7 184.4,151.7 187.3,150 191.5,146.9 193.7,144.1 197.9,142.4 200.8,140 203.8,142.1 203.8,145.5 201.6,147.2 
		195.9,150.7 189.6,155.2 187.1,158.2 182.9,158.9 181,161 177.3,162.7 175.5,164.4 171.4,167.5 166.9,170.7 163.2,173 162.8,179.6 
		162.8,187.9 162.8,196.9 164.2,208.2 165.7,217.2 165,224.4 166.1,231.3 167.7,241.3 167.7,243.7 167.3,248.9 167.9,260.2 
		166.5,266.4 167.7,269.2 160.9,266.4 159.4,263.7 161.2,239.2 160.1,229.5 158.3,223.3 158.3,212.3 156.4,205.8 156.4,196.5 
		156.1,179.3 154.9,175.8 149.7,177.9 144.8,181 143,184.8 137.7,188.2 130.7,191.7 124.7,195.4 118.7,199.6 115.4,201 112.8,201 
		112,199.2 112,196.5 116.9,193.7 123.6,190.3 129.2,185.8 133.6,182 138.1,177.5 140.4,176.2 142.2,173.4 146.3,171 149.3,169.2 
		154.9,167.5 153.8,141.4 152.6,136.5 	"/>
</g>
<g>
	<path fill="#3FDBB1" d="M14,283.8c-0.9,0-1.6,0.4-2.1,1.1s-0.8,1.6-0.8,2.8c0,2.5,1,3.7,2.9,3.7c0.8,0,1.7-0.2,2.9-0.6v2
		c-1,0.4-1.9,0.6-3.1,0.6c-1.6,0-2.9-0.5-3.7-1.5c-0.9-1-1.3-2.4-1.3-4.3c0-1.1,0.2-2.2,0.7-3.1c0.5-0.9,1.1-1.5,1.8-2
		c0.8-0.5,1.7-0.7,2.8-0.7s2.2,0.3,3.3,0.8l-0.8,1.9c-0.4-0.2-0.9-0.4-1.2-0.5C14.9,283.9,14.4,283.8,14,283.8z"/>
	<path fill="#3FDBB1" d="M26.9,289c0,1.4-0.4,2.5-1.1,3.2c-0.8,0.8-1.7,1.1-3.1,1.1c-0.9,0-1.5-0.2-2.2-0.6s-1.1-0.9-1.4-1.5
		c-0.4-0.7-0.5-1.4-0.5-2.4c0-1.4,0.4-2.5,1.1-3.3c0.8-0.8,1.7-1.1,3.1-1.1c0.9,0,1.5,0.2,2.2,0.6c0.7,0.4,1.1,0.9,1.4,1.5
		C26.8,287.3,26.9,288,26.9,289z M21,289c0,0.9,0.1,1.5,0.4,1.9c0.3,0.5,0.8,0.7,1.3,0.7c0.7,0,1.1-0.2,1.3-0.7
		c0.3-0.5,0.4-1.1,0.4-1.9s-0.1-1.5-0.4-1.9c-0.3-0.4-0.8-0.7-1.3-0.7c-0.7,0-1.1,0.2-1.3,0.7C21.1,287.5,21,288.1,21,289z"/>
	<path fill="#3FDBB1" d="M33.6,284.5c0.3,0,0.6,0,0.8,0.1l-0.2,2.2c-0.2-0.1-0.4-0.1-0.7-0.1c-0.8,0-1.3,0.2-1.7,0.6s-0.7,1-0.7,1.6
		v4.4h-2.4v-8.6h1.8l0.4,1.4h0.1c0.3-0.5,0.7-0.9,1.1-1.1C32.5,284.7,33.2,284.5,33.6,284.5z"/>
	<path fill="#3FDBB1" d="M40.7,293.4c-1.1,0-1.8-0.4-2.4-1.1h-0.1c0.1,0.8,0.1,1.1,0.1,1.2v3.4h-2.4v-12.3h1.9l0.3,1.1h0.1
		c0.6-0.9,1.3-1.2,2.4-1.2c1.1,0,1.8,0.4,2.4,1.1c0.6,0.8,0.9,1.9,0.9,3.3c0,1-0.1,1.7-0.4,2.4c-0.3,0.7-0.7,1.1-1.1,1.5
		C42,293.3,41.4,293.4,40.7,293.4z M40,286.4c-0.6,0-1,0.2-1.2,0.6c-0.3,0.4-0.4,1-0.4,1.7v0.3c0,1,0.1,1.6,0.4,2
		c0.3,0.4,0.7,0.6,1.3,0.6c1.1,0,1.5-0.9,1.5-2.6c0-0.9-0.1-1.4-0.4-1.9S40.6,286.4,40,286.4z"/>
	<path fill="#3FDBB1" d="M53.8,289c0,1.4-0.4,2.5-1.1,3.2c-0.8,0.8-1.7,1.1-3.1,1.1c-0.9,0-1.5-0.2-2.2-0.6
		c-0.7-0.4-1.1-0.9-1.4-1.5c-0.4-0.7-0.5-1.4-0.5-2.4c0-1.4,0.4-2.5,1.1-3.3c0.8-0.8,1.7-1.1,3.1-1.1c0.9,0,1.5,0.2,2.2,0.6
		c0.7,0.4,1.1,0.9,1.4,1.5C53.6,287.3,53.8,288,53.8,289z M47.9,289c0,0.9,0.1,1.5,0.4,1.9c0.3,0.5,0.8,0.7,1.3,0.7
		c0.7,0,1.1-0.2,1.3-0.7s0.4-1.1,0.4-1.9s-0.1-1.5-0.4-1.9c-0.3-0.4-0.8-0.7-1.3-0.7c-0.7,0-1.1,0.2-1.3,0.7
		C48,287.5,47.9,288.1,47.9,289z"/>
	<path fill="#3FDBB1" d="M60.5,284.5c0.3,0,0.6,0,0.8,0.1l-0.2,2.2c-0.2-0.1-0.4-0.1-0.7-0.1c-0.8,0-1.3,0.2-1.7,0.6s-0.7,1-0.7,1.6
		v4.4h-2.4v-8.6h1.8l0.4,1.4h0.1c0.3-0.5,0.7-0.9,1.1-1.1C59.5,284.7,60,284.5,60.5,284.5z"/>
	<path fill="#3FDBB1" d="M68.3,293.3l-0.5-1.1h-0.1c-0.4,0.5-0.8,0.9-1.2,1.1c-0.4,0.2-1,0.3-1.6,0.3c-0.9,0-1.4-0.2-1.9-0.7
		s-0.7-1.1-0.7-2c0-1,0.3-1.6,1-2c0.7-0.5,1.6-0.7,2.9-0.8h1.5v-0.4c0-0.9-0.5-1.3-1.3-1.3c-0.7,0-1.5,0.2-2.4,0.7l-0.8-1.6
		c1-0.5,2.1-0.8,3.3-0.8c1.1,0,2,0.3,2.7,0.8c0.6,0.5,1,1.2,1,2.3v5.7L68.3,293.3L68.3,293.3z M67.7,289.3h-0.9
		c-0.7,0-1.1,0.2-1.5,0.4c-0.3,0.2-0.5,0.6-0.5,1.1c0,0.7,0.4,1,1.1,1c0.6,0,1-0.2,1.3-0.5c0.3-0.3,0.5-0.8,0.5-1.2L67.7,289.3
		L67.7,289.3z"/>
	<path fill="#3FDBB1" d="M75.9,293.4c-2.7,0-4-1.4-4-4.4c0-1.4,0.4-2.6,1.1-3.3c0.8-0.8,1.8-1.1,3.2-1.1c1,0,1.9,0.2,2.7,0.6
		l-0.7,1.8c-0.4-0.2-0.7-0.3-1.1-0.4c-0.3-0.1-0.7-0.1-1-0.1c-1.2,0-1.8,0.9-1.8,2.6c0,1.7,0.6,2.5,1.8,2.5c0.5,0,0.9-0.1,1.2-0.2
		c0.4-0.1,0.8-0.3,1.1-0.6v2c-0.4,0.3-0.8,0.4-1.1,0.5C76.9,293.4,76.5,293.4,75.9,293.4z"/>
	<path fill="#3FDBB1" d="M80.4,282.5c0-0.8,0.4-1.1,1.2-1.1s1.2,0.4,1.2,1.1c0,0.4-0.1,0.7-0.3,0.9c-0.2,0.2-0.6,0.3-1,0.3
		C80.8,283.6,80.4,283.3,80.4,282.5z M82.9,293.3h-2.4v-8.6h2.4V293.3z"/>
	<path fill="#3FDBB1" d="M93.1,289c0,1.4-0.4,2.5-1.1,3.2c-0.8,0.8-1.7,1.1-3.1,1.1c-0.9,0-1.5-0.2-2.2-0.6
		c-0.7-0.4-1.1-0.9-1.4-1.5c-0.4-0.7-0.5-1.4-0.5-2.4c0-1.4,0.4-2.5,1.1-3.3c0.8-0.8,1.7-1.1,3.1-1.1c0.9,0,1.5,0.2,2.2,0.6
		c0.7,0.4,1.1,0.9,1.4,1.5C92.9,287.3,93.1,288,93.1,289z M87.2,289c0,0.9,0.1,1.5,0.4,1.9c0.3,0.5,0.8,0.7,1.3,0.7
		c0.7,0,1.1-0.2,1.3-0.7c0.3-0.5,0.4-1.1,0.4-1.9s-0.1-1.5-0.4-1.9c-0.3-0.4-0.8-0.7-1.3-0.7c-0.7,0-1.1,0.2-1.3,0.7
		C87.3,287.5,87.2,288.1,87.2,289z M87.6,283.7v-0.2c0.9-1.1,1.5-1.8,1.8-2.3h2.7v0.2c-0.3,0.3-0.8,0.7-1.3,1.1
		c-0.7,0.5-1.1,1-1.5,1.1L87.6,283.7L87.6,283.7z"/>
	<path fill="#3FDBB1" d="M102.9,293.3h-2.4v-5.1c0-0.6-0.1-1.1-0.3-1.4c-0.2-0.3-0.6-0.5-1.1-0.5c-0.7,0-1.1,0.2-1.4,0.7
		c-0.3,0.5-0.5,1.1-0.5,2.2v4H95v-8.6h1.8l0.3,1.1h0.1c0.3-0.4,0.7-0.8,1.1-1c0.5-0.2,1-0.3,1.5-0.3c1,0,1.7,0.3,2.3,0.8
		c0.5,0.6,0.8,1.3,0.8,2.3L102.9,293.3L102.9,293.3z"/>
	<path fill="#3FDBB1" d="M109.6,293.3V282h2.4v11.3H109.6z"/>
	<path fill="#3FDBB1" d="M122.6,293.3h-2.4v-5.1c0-0.6-0.1-1.1-0.3-1.4c-0.2-0.3-0.6-0.5-1.1-0.5c-0.7,0-1.1,0.2-1.4,0.7
		c-0.3,0.5-0.5,1.1-0.5,2.2v4h-2.4v-8.6h1.8l0.3,1.1h0.1c0.3-0.4,0.7-0.8,1.1-1c0.5-0.2,1-0.3,1.5-0.3c1,0,1.7,0.3,2.3,0.8
		c0.5,0.6,0.8,1.3,0.8,2.3v5.7L122.6,293.3L122.6,293.3z"/>
	<path fill="#3FDBB1" d="M127.8,293.4c-1.1,0-1.8-0.4-2.4-1.1c-0.6-0.8-0.9-1.9-0.9-3.2c0-1.4,0.3-2.5,0.9-3.2
		c0.6-0.8,1.4-1.1,2.4-1.1c1.1,0,1.9,0.4,2.5,1.2h0.1c-0.1-0.7-0.2-1.2-0.2-1.7v-2.8h2.4v11.9h-1.8l-0.5-1.1h-0.1
		C129.7,293,128.8,293.4,127.8,293.4z M128.6,291.6c0.6,0,1.1-0.2,1.3-0.5c0.3-0.4,0.5-1,0.5-1.8V289c0-1-0.1-1.6-0.4-2
		c-0.3-0.4-0.8-0.6-1.4-0.6c-0.5,0-1,0.2-1.2,0.7c-0.3,0.5-0.5,1.1-0.5,1.9s0.2,1.4,0.5,1.9C127.6,291.4,128.1,291.6,128.6,291.6z"
		/>
	<path fill="#3FDBB1" d="M141.1,293.3l-0.3-1.1h-0.1c-0.3,0.4-0.6,0.7-1.1,1c-0.5,0.3-1,0.3-1.5,0.3c-1.1,0-1.8-0.3-2.3-0.8
		c-0.5-0.6-0.8-1.3-0.8-2.3v-5.6h2.4v5.1c0,0.6,0.1,1.1,0.3,1.4c0.2,0.3,0.6,0.5,1.1,0.5c0.7,0,1.1-0.2,1.4-0.7
		c0.3-0.5,0.5-1.1,0.5-2.2v-4h2.4v8.6L141.1,293.3L141.1,293.3z"/>
	<path fill="#3FDBB1" d="M151.3,290.7c0,0.9-0.3,1.5-1,2c-0.6,0.5-1.5,0.7-2.8,0.7c-0.7,0-1.1,0-1.6-0.1c-0.5-0.1-0.9-0.2-1.2-0.4
		V291c0.5,0.2,1,0.4,1.4,0.5c0.6,0.1,1.1,0.2,1.4,0.2c0.9,0,1.2-0.3,1.2-0.8c0-0.2-0.1-0.3-0.2-0.5s-0.3-0.3-0.6-0.4
		c-0.3-0.2-0.7-0.3-1.1-0.5c-0.7-0.3-1.1-0.6-1.4-0.8c-0.3-0.2-0.6-0.5-0.7-0.8c-0.1-0.3-0.2-0.7-0.2-1.1c0-0.8,0.3-1.3,0.9-1.8
		c0.6-0.4,1.4-0.7,2.5-0.7c1.1,0,2,0.2,3.1,0.7l-0.7,1.7c-0.5-0.2-0.9-0.4-1.2-0.5c-0.4-0.1-0.8-0.2-1.1-0.2c-0.7,0-1.1,0.2-1.1,0.6
		c0,0.2,0.1,0.4,0.3,0.6c0.2,0.2,0.7,0.4,1.4,0.7c0.7,0.3,1.1,0.5,1.4,0.8c0.3,0.2,0.6,0.5,0.7,0.9
		C151.3,290,151.3,290.3,151.3,290.7z"/>
	<path fill="#3FDBB1" d="M156.8,291.6c0.4,0,0.9-0.1,1.4-0.3v1.7c-0.6,0.3-1.3,0.4-2.2,0.4c-1,0-1.6-0.2-2-0.7
		c-0.4-0.5-0.7-1.1-0.7-2.1v-4.1h-1.1v-1l1.3-0.8l0.7-1.8h1.5v1.8h2.4v1.7h-2.4v4.1c0,0.3,0.1,0.6,0.3,0.8
		C156.3,291.5,156.5,291.6,156.8,291.6z"/>
	<path fill="#3FDBB1" d="M164.8,284.5c0.3,0,0.6,0,0.8,0.1l-0.2,2.2c-0.2-0.1-0.4-0.1-0.7-0.1c-0.8,0-1.3,0.2-1.7,0.6
		c-0.4,0.4-0.7,1-0.7,1.6v4.4H160v-8.6h1.8l0.4,1.4h0.1c0.3-0.5,0.7-0.9,1.1-1.1C163.8,284.7,164.3,284.5,164.8,284.5z"/>
	<path fill="#3FDBB1" d="M167.1,282.5c0-0.8,0.4-1.1,1.2-1.1s1.2,0.4,1.2,1.1c0,0.4-0.1,0.7-0.3,0.9c-0.2,0.2-0.6,0.3-1,0.3
		C167.5,283.6,167.1,283.3,167.1,282.5z M169.5,293.3h-2.4v-8.6h2.4V293.3z"/>
	<path fill="#3FDBB1" d="M177.4,293.3l-0.5-1.1h-0.1c-0.4,0.5-0.8,0.9-1.2,1.1c-0.4,0.2-1,0.3-1.6,0.3c-0.9,0-1.4-0.2-1.9-0.7
		c-0.5-0.5-0.7-1.1-0.7-2c0-1,0.3-1.6,1-2c0.7-0.4,1.6-0.7,2.9-0.8h1.5v-0.4c0-0.9-0.5-1.3-1.3-1.3c-0.7,0-1.5,0.2-2.4,0.7l-0.8-1.6
		c1-0.5,2.1-0.8,3.2-0.8s2,0.3,2.7,0.8c0.6,0.5,1,1.2,1,2.3v5.7L177.4,293.3L177.4,293.3z M176.7,289.3h-0.9c-0.7,0-1.1,0.2-1.5,0.4
		c-0.3,0.2-0.5,0.6-0.5,1.1c0,0.7,0.4,1,1.1,1c0.6,0,1-0.2,1.3-0.5c0.4-0.3,0.5-0.8,0.5-1.2L176.7,289.3L176.7,289.3z"/>
	<path fill="#3FDBB1" d="M183.8,293.3h-2.4v-11.9h2.4V293.3z"/>
	<path fill="#3FDBB1" d="M195.3,293.3l-2.7-8.8h-0.1c0.1,1.8,0.2,3,0.2,3.6v5.3h-2.1v-11.3h3.2l2.7,8.6l0,0l2.9-8.6h3.2v11.3h-2.2
		V288c0-0.3,0-0.6,0-0.9c0-0.3,0-1.2,0.1-2.6h-0.1l-2.9,8.8L195.3,293.3L195.3,293.3z"/>
	<path fill="#3FDBB1" d="M205.1,282.5c0-0.8,0.4-1.1,1.2-1.1s1.2,0.4,1.2,1.1c0,0.4-0.1,0.7-0.3,0.9c-0.2,0.2-0.6,0.3-1,0.3
		C205.5,283.6,205.1,283.3,205.1,282.5z M207.6,293.3h-2.4v-8.6h2.4V293.3z"/>
	<path fill="#3FDBB1" d="M217.9,293.3h-2.4v-5.1c0-0.6-0.1-1.1-0.3-1.4c-0.2-0.4-0.6-0.5-1.1-0.5c-0.7,0-1.1,0.2-1.4,0.7
		c-0.3,0.5-0.5,1.1-0.5,2.2v4h-2.4v-8.6h1.8l0.3,1.1h0.1c0.3-0.4,0.7-0.8,1.1-1c0.5-0.2,1-0.3,1.5-0.3c1,0,1.7,0.3,2.3,0.8
		c0.5,0.6,0.8,1.3,0.8,2.3v5.7L217.9,293.3L217.9,293.3z"/>
	<path fill="#3FDBB1" d="M226.4,293.3l-0.3-1.1h-0.1c-0.3,0.4-0.6,0.7-1.1,1c-0.5,0.2-1,0.3-1.5,0.3c-1.1,0-1.8-0.3-2.3-0.8
		c-0.5-0.6-0.8-1.3-0.8-2.3v-5.6h2.4v5.1c0,0.6,0.1,1.1,0.3,1.4c0.2,0.3,0.6,0.5,1.1,0.5c0.7,0,1.1-0.2,1.4-0.7
		c0.3-0.5,0.5-1.1,0.5-2.2v-4h2.4v8.6L226.4,293.3L226.4,293.3z"/>
	<path fill="#3FDBB1" d="M234.4,291.6c0.4,0,0.9-0.1,1.4-0.3v1.7c-0.6,0.3-1.3,0.4-2.2,0.4c-1,0-1.6-0.2-2-0.7
		c-0.4-0.5-0.7-1.1-0.7-2.1v-4.1h-1.1v-1l1.3-0.8l0.7-1.8h1.5v1.8h2.4v1.7h-2.4v4.1c0,0.3,0.1,0.6,0.3,0.8
		C233.8,291.5,234,291.6,234.4,291.6z"/>
	<path fill="#3FDBB1" d="M245.4,289c0,1.4-0.4,2.5-1.1,3.2c-0.8,0.8-1.7,1.1-3.1,1.1c-0.9,0-1.5-0.2-2.2-0.6
		c-0.7-0.4-1.1-0.9-1.4-1.5c-0.4-0.7-0.5-1.4-0.5-2.4c0-1.4,0.4-2.5,1.1-3.3c0.8-0.8,1.7-1.1,3.1-1.1c0.9,0,1.5,0.2,2.2,0.6
		c0.7,0.4,1.1,0.9,1.4,1.5C245.2,287.3,245.4,288,245.4,289z M239.4,289c0,0.9,0.1,1.5,0.4,1.9c0.3,0.5,0.8,0.7,1.3,0.7
		c0.7,0,1.1-0.2,1.3-0.7c0.3-0.5,0.4-1.1,0.4-1.9s-0.1-1.5-0.4-1.9c-0.3-0.4-0.8-0.7-1.3-0.7c-0.7,0-1.1,0.2-1.3,0.7
		C239.5,287.5,239.4,288.1,239.4,289z"/>
	<path fill="#3FDBB1" d="M254.2,293.4c-1.1,0-1.8-0.4-2.4-1.1c-0.6-0.8-0.9-1.9-0.9-3.2c0-1.4,0.3-2.5,0.9-3.2
		c0.6-0.8,1.4-1.1,2.4-1.1c1.1,0,1.9,0.4,2.5,1.2h0.1c-0.1-0.7-0.2-1.2-0.2-1.7v-2.8h2.4v11.9h-1.8l-0.5-1.1h-0.1
		C256,293,255.2,293.4,254.2,293.4z M254.9,291.6c0.6,0,1.1-0.2,1.3-0.5c0.3-0.4,0.5-1,0.5-1.8V289c0-1-0.1-1.6-0.4-2
		c-0.3-0.4-0.8-0.6-1.4-0.6c-0.5,0-1,0.2-1.2,0.7c-0.3,0.5-0.5,1.1-0.5,1.9s0.2,1.4,0.5,1.9C254,291.4,254.4,291.6,254.9,291.6z"/>
	<path fill="#3FDBB1" d="M265.2,293.4c-1.3,0-2.5-0.4-3.2-1.1c-0.8-0.8-1.1-1.8-1.1-3.2s0.4-2.6,1.1-3.3c0.7-0.8,1.7-1.1,3-1.1
		c1.2,0,2.2,0.4,2.9,1.1s1.1,1.6,1.1,2.9v1.1h-5.5c0,0.7,0.2,1.1,0.6,1.5s0.9,0.6,1.5,0.6c0.5,0,1.1-0.1,1.4-0.2
		c0.4-0.1,1-0.3,1.4-0.5v1.8c-0.4,0.2-0.9,0.4-1.3,0.5C266.5,293.4,265.9,293.4,265.2,293.4z M265,286.2c-0.5,0-0.9,0.2-1.1,0.5
		c-0.3,0.3-0.5,0.8-0.5,1.3h3.2c0-0.6-0.2-1.1-0.5-1.3C265.8,286.4,265.4,286.2,265,286.2z"/>
	<path fill="#3FDBB1" d="M284.3,287.6c0,1.8-0.6,3.3-1.6,4.2c-1.1,1-2.6,1.4-4.6,1.4h-3.2v-11.3h3.5c1.8,0,3.2,0.5,4.3,1.4
		C283.8,284.5,284.3,285.8,284.3,287.6z M281.8,287.7c0-2.4-1.1-3.6-3.2-3.6h-1.2v7.4h1.1C280.6,291.3,281.8,290.1,281.8,287.7z"/>
	<path fill="#3FDBB1" d="M286.3,282.5c0-0.8,0.4-1.1,1.2-1.1s1.2,0.4,1.2,1.1c0,0.4-0.1,0.7-0.3,0.9c-0.2,0.2-0.6,0.3-1,0.3
		C286.8,283.6,286.3,283.3,286.3,282.5z M288.8,293.3h-2.4v-8.6h2.4V293.3z"/>
	<path fill="#3FDBB1" d="M299,289c0,1.4-0.4,2.5-1.1,3.2c-0.8,0.8-1.7,1.1-3.1,1.1c-0.9,0-1.5-0.2-2.2-0.6s-1.1-0.9-1.4-1.5
		c-0.4-0.7-0.5-1.4-0.5-2.4c0-1.4,0.4-2.5,1.1-3.3c0.8-0.8,1.7-1.1,3.1-1.1c0.9,0,1.5,0.2,2.2,0.6c0.7,0.4,1.1,0.9,1.4,1.5
		C298.8,287.3,299,288,299,289z M293.1,289c0,0.9,0.1,1.5,0.4,1.9c0.3,0.5,0.8,0.7,1.3,0.7c0.7,0,1.1-0.2,1.3-0.7s0.4-1.1,0.4-1.9
		s-0.1-1.5-0.4-1.9s-0.8-0.7-1.3-0.7c-0.7,0-1.1,0.2-1.3,0.7C293.3,287.5,293.1,288.1,293.1,289z"/>
	<path fill="#3FDBB1" d="M306.9,290.7c0,0.9-0.3,1.5-1,2c-0.6,0.5-1.5,0.7-2.8,0.7c-0.7,0-1.1,0-1.6-0.1c-0.5-0.1-0.9-0.2-1.2-0.4
		V291c0.5,0.2,1,0.4,1.4,0.5c0.6,0.1,1.1,0.2,1.4,0.2c0.9,0,1.2-0.3,1.2-0.8c0-0.2-0.1-0.3-0.2-0.5c-0.1-0.1-0.3-0.3-0.6-0.4
		c-0.3-0.2-0.7-0.3-1.1-0.5c-0.7-0.3-1.1-0.6-1.4-0.8c-0.3-0.2-0.6-0.5-0.7-0.8c-0.1-0.3-0.2-0.7-0.2-1.1c0-0.8,0.3-1.3,0.9-1.8
		c0.6-0.4,1.4-0.7,2.5-0.7s2,0.2,3.1,0.7l-0.7,1.7c-0.5-0.2-0.9-0.4-1.2-0.5c-0.4-0.1-0.8-0.2-1.1-0.2c-0.7,0-1.1,0.2-1.1,0.6
		c0,0.2,0.1,0.4,0.3,0.6c0.2,0.2,0.7,0.4,1.4,0.7c0.7,0.3,1.1,0.5,1.4,0.8c0.3,0.3,0.6,0.5,0.7,0.9
		C306.9,290,306.9,290.3,306.9,290.7z"/>
</g>
</svg>
