<?xml version="1.0" encoding="utf-8"?>
<!-- Generator: Adobe Illustrator 21.0.2, SVG Export Plug-In . SVG Version: 6.00 Build 0)  -->
<svg version="1.1" id="Capa_1" xmlns="http://www.w3.org/2000/svg" xmlns:xlink="http://www.w3.org/1999/xlink" x="0px" y="0px"
	 viewBox="0 0 316 316" enable-background="new 0 0 316 316" xml:space="preserve">
<g>
	<path fill="#3FDBB1" d="M268,286.1c0.1,0,0.2,0.1,0.1,0.2c-1.1,1.2-2.8,2.6-5.2,4.1c-2.4,1.4-5,2.8-7.8,4c-3,1.2-5.7,2.2-8.4,3
		c-3.1,0.7-5.8,0.9-8,0.7c-1.8-0.1-3.3-0.6-4.5-1.4c-0.1,0-0.1-0.1-0.1-0.2s0.1-0.2,0.2-0.2c7-0.9,13.4-2.5,19.3-4.3
		C259.6,290.2,264.4,288.2,268,286.1"/>
	<path fill="#3FDBB1" d="M267.5,283.1c-3.8,1.9-11.5,4.7-18.2,6.4c-8,2-14.4,3-18.8,2.5c-3.8-0.5-5.7-2-6.3-2.5
		c-0.1-0.1-0.2-0.1-0.1-0.2c0-0.1,0.1-0.2,0.2-0.2l1.4-0.1c3.2-0.2,9-0.4,15.6-1.2c7.8-0.9,20.2-3,25.9-4.8
		C267.5,282.9,267.5,283,267.5,283.1"/>
	<path fill="#3FDBB1" d="M266.8,291.7c0.1,0,0.2,0.1,0.1,0.2c-1.4,2.8-3,5.1-6,6.4c-5.4,2.4-8.3,1.1-8.7,0.8c-0.1,0-0.2-0.1-0.2-0.2
		c0-0.1,0.1-0.2,0.2-0.2c2.4-0.6,9.6-3,14.4-7C266.7,291.7,266.8,291.7,266.8,291.7"/>
	<path fill="#3FDBB1" d="M302.7,247.3c0.1,0,0.1,0.1,0.1,0.1c0,0.1-0.1,0.1-0.2,0.1c-1.7-0.4-5.1-1.2-9.5-2.2
		c-10-2.4-47.9-10.9-48.6-11h-0.2c-2.2-0.6-4.1-1.5-5.6-2.8c-0.5-0.4-0.8-0.8-1.2-1.3c-1.3-1.7-1.5-4-1.7-4.5c0,0,0-0.1,0.1-0.2
		c0.1-0.1,0.1-0.1,0.4,0l6.1,2C257.3,232.3,296.5,245.2,302.7,247.3"/>
	<path fill="#3FDBB1" d="M296.5,242.2c0,0.2-0.1,0.2-0.2,0.2c-2.2-0.9-7.2-3-12.3-5.1c-4.3-1.8-33.6-13.5-35.6-14.3l-3.5-1.5
		c-0.5-0.2-0.9-0.5-1.4-0.7c-1.4-0.7-2.1-1.2-2.8-2c-0.6-0.7-1.1-1.5-1.5-2.4c-0.8-1.8-0.8-4.1-0.7-4.6c0-0.1,0-0.1,0.1-0.2
		c0.1,0,0.1,0,0.4,0l3.7,1.9l1.9,1.1l10.8,5.6C270,228,290.9,239.3,296.5,242.2"/>
	<path fill="#3FDBB1" d="M307.2,250.9c0.1,0,0.1,0.1,0.1,0.1c0,0.1-0.1,0.1-0.2,0.1c-5.8-0.4-57.7-3.3-57.7-3.3
		c-0.5,0-0.8-0.1-1.3-0.2c-4.1-1.1-6.5-3.8-7.6-6.5c0-0.1,0-0.2,0-0.4c0.1-0.1,0.2-0.1,0.4-0.1C241,240.7,302.1,250,307.2,250.9"/>
	<path fill="#3FDBB1" d="M304.6,253.8c0.1,0,0.2,0.1,0.2,0.2c0,0.1-0.1,0.1-0.2,0.1c-2.1,0.2-41.5,5.1-41.9,5.1
		c-0.2,0-0.5,0.1-0.7,0.1s-0.5,0-0.7,0c-1.9-0.1-3.7-0.9-5.3-2.5c-0.8-0.7-1.7-2-1.8-2.5c-0.1-0.1-0.1-0.1,0-0.2
		c0.1-0.1,0.2-0.1,0.2-0.1s13.2-0.1,21.5-0.1c6.3,0,12.9,0,18.2,0C299.1,253.8,302.8,253.8,304.6,253.8"/>
	<path fill="#3FDBB1" d="M301.7,257.2c0.1,0,0.2,0,0.2,0s0.1,0.1-0.1,0.2c-1.3,0.7-29.6,10.9-29.9,11c-1.5,0.5-3.3,0.7-4.6-1.2
		c-0.5-0.7-0.9-1.4-1.2-1.7c-0.1-0.1-0.4-0.4,0.5-0.6c0,0,8-1.9,15.1-3.4C290,260,299.3,257.8,301.7,257.2"/>
	<path fill="#3FDBB1" d="M289.2,274.2c0.1,0,0.2,0.1,0.1,0.2c-2.7,2.7-12.8,12.3-17.4,16.4c-0.5,0.5-0.7,0.2-0.6-0.2
		c0,0,0.8-1.9,1.2-3.3c0.2-0.8,0.5-1.5,1.1-2c5.9-4.3,11.6-8.6,15.4-11.2L289.2,274.2z"/>
	<path fill="#3FDBB1" d="M298.5,262c0.1,0,0.2,0.1,0.1,0.4c-2.7,2-15.4,11.1-22.2,16l-0.2,0.1c-2,1.3-3.3,1.7-3.5-1.2
		c-0.1-0.7-0.1-1.2-0.1-1.2c-0.1-0.6,0.1-0.6,0.4-0.7c2.2-1.2,6.5-3.2,9.8-5C288.8,267.2,295.7,263.4,298.5,262"/>
	<path fill="#3FDBB1" d="M41.2,253.9l-12.4-3c-3.4-0.8-6.5-2.1-6.5-5.7c0-3.8,2.6-5.6,8.2-5.6h11c4.8,0,10.8-1.4,10.8-8.3H31.3
		c-12.9,0-20.2,5.6-20.2,13.6c0,7.4,5.4,11.6,15.3,13.8l10.9,2.5c4.5,1.1,6,3.4,6,5.9c0,3.8-2.7,6-9.5,6l-20.7,0.2v8h21.2
		c12.9,0,20.2-5.9,20.2-13.7C54.3,260.1,50.8,256.2,41.2,253.9 M143.5,231.6c-12.6,0-21.3,6.3-21.3,19.2v30.9h10.2v-31.2
		c0-6.6,4.1-10.6,12.1-10.6h3.1c8.9,0,10.4-3.9,10.4-8.3L143.5,231.6L143.5,231.6z M98.1,231.6v34.8c0,5.1-4.8,7.6-11.3,7.6
		c-6.7,0-11.2-2.5-11.2-7.6l-0.1-26c0-7.4-5.4-8.7-10.2-8.7v36.9c0,9.3,9.7,13.8,21.2,13.8c11.1,0,21.9-4.6,21.9-13.8v-27
		C108.4,234.2,105.2,231.6,98.1,231.6 M187,231.6L187,231.6h-2.6c-13.6,0-26.2,8.6-26.8,25.2c-0.5,15.1,8.7,25.8,24.2,25.8
		c12.8,0,17.3-7.7,17.3-7.7c0.7,5.1,4,6.6,10.4,6.6v-42.9l0,0v-7.1H187L187,231.6L187,231.6z M198.6,261c0,7-4.6,13.5-14.7,13.5
		c-9,0-15.5-5.2-15-17.6c0.4-11.9,7.1-17.3,16-17.3c0.7,0,1.3,0,2-0.1l0,0h11.7V261z"/>
</g>
</svg>
