<?xml version="1.0" encoding="utf-8"?>
<!-- Generator: Adobe Illustrator 21.0.2, SVG Export Plug-In . SVG Version: 6.00 Build 0)  -->
<svg version="1.1" id="Capa_1" xmlns="http://www.w3.org/2000/svg" xmlns:xlink="http://www.w3.org/1999/xlink" x="0px" y="0px"
	 viewBox="0 0 316 316" enable-background="new 0 0 316 316" xml:space="preserve">
<g>
	<path fill="#3FDBB1" d="M255.6,234.4c0.9-9.2,5.7-15.5,14.2-19.1s18.3-1.8,24.9,4.7c3.2,3.2,5.3,7.1,6.4,11.5
		c0.1,0.2,0.2,0.4,0.3,0.6c0,0.8,0,1.5,0,2.3c-0.1-0.1-0.2-0.1-0.2-0.2c-1.1-2.7-3.3-4-6.1-4c-2.8,0-4.8,1.4-6,4
		c-0.1,0.3-0.2,0.5-0.6,0.5c-0.3-0.2-0.3-0.6-0.4-0.9c-2.3-7.4-11.5-9.6-16.9-4c-1.4,1.4-2,3.2-2.7,4.9c-0.4,0-0.5-0.4-0.6-0.7
		c-1.7-3.6-5.5-4.8-9.1-3.1C257.2,231.8,256.6,233.2,255.6,234.4z"/>
	<path fill="#3FDBB1" d="M301.3,241.3c-0.8,2-1.2,4-2.2,6c-6.7,13.5-25.2,16.8-36.2,6.6c-4.3-4-6.9-9-7.3-14.9
		c0.3,0.1,0.4,0.4,0.5,0.6c1.2,2.5,3.3,3.6,5.9,3.6s4.7-1.3,5.8-3.8c0.1-0.3,0.2-0.7,0.6-0.7c0.4,0.2,0.3,0.7,0.4,1
		c2.1,6.5,10,9.1,15.5,5.1c2.1-1.5,3.3-3.7,4.1-6.1c0.7,0.1,0.7,0.8,1,1.3c1.7,3.1,6,4.2,9.2,2.2c1.2-0.8,1.8-2,2.6-3.1
		C301.3,239.8,301.3,240.5,301.3,241.3z"/>
	<path fill="#35C49B" d="M301.3,239c-0.8,1.1-1.3,2.4-2.6,3.1c-3.3,2-7.5,1-9.2-2.2c-0.2-0.4-0.2-1.2-1-1.3c0-1.3,0-2.7,0-4
		c0.3,0,0.4-0.2,0.6-0.5c1.1-2.6,3.2-4,6-4s4.9,1.4,6.1,4c0,0.1,0.1,0.1,0.2,0.2C301.3,236,301.3,237.5,301.3,239z"/>
	<path fill="#3FDBB1" d="M195,241.6c-4.6-0.9-9.2-1.7-13.9-1.6c-2.1,0.1-4.2,0.3-6.2,0.6c-1,0.1-1,0.6-0.5,1.4
		c2.8,4.7,9.3,6.1,14.1,3c2.2-1.4,4.4-2.1,7-1c4,1.7,5.2,7.2,2,10.2c-3.3,3-7.3,4.7-11.7,5.1c-7.6,0.8-14.2-1.4-19.5-6.9
		c-3.1-3.1-5-6.9-5.9-11.2c-0.1-0.4,0-0.8-0.1-1.3c0.7,0.2,0.9,0.9,1.4,1.3c2,1.9,5.3,2.3,7.6,1c3.5-2,4-6,2.6-8.9
		c-1.6-3.2-5.4-4.2-8.7-2.6c-1.3,0.6-2,1.9-3,2.7c0.4-4.8,2.4-8.8,5.5-12.3c4.6-5.1,10.4-8,17.3-7.8c11.8,0.2,20.8,8.3,22.8,19.8
		c0,0.1,0,0.3-0.1,0.4c-0.5-0.1-0.6-0.5-0.9-0.8c-2-2.6-5.4-3.3-8.3-1.9c-2.8,1.4-4.3,5.4-3.1,8C193.9,239.8,194.7,240.6,195,241.6z
		 M181.7,233.7c3.3,0.2,6.5-0.3,9.7-0.6c1.8-0.2,1.9-0.5,1-2.1c-4.2-7-14.6-6.7-18.7,0.4c-0.9,1.5-0.8,1.9,1,2
		C177,233.6,179.3,233.9,181.7,233.7z"/>
	<path fill="#3FDBB1" d="M17,233.9c0.1-3.8,1.4-7.2,3.5-10.3c4.5-6.7,11.1-9.9,19-10.1c4.1-0.1,8.1,1,11.6,3.3
		c1.1,0.7,1.8,0.6,2.5-0.6c1.6-2.7,4.6-3.6,7.5-2.5c2.3,0.9,4.8,3.7,4,6.9c-1.2,4.6-2.3,9.2-2.5,13.9c-0.1-0.1-0.2-0.2-0.3-0.3
		c-1-2.8-3.2-4.1-6-4.2c-2.7-0.1-4.8,1.2-6,3.7c-0.1,0.3-0.3,0.6-0.6,0.8c-0.4-0.2-0.3-0.7-0.4-1c-1.6-5.4-7.4-8.4-12.8-6.5
		c-3.6,1.3-5.6,4-6.6,7.6c-0.5-0.1-0.5-0.5-0.7-0.8c-2.4-4.5-7.6-5.1-11-1.3C17.8,232.9,17.7,233.7,17,233.9z"/>
	<path fill="#3FDBB1" d="M62.5,238.4c0.2,2,0.4,4,0.7,6c0.3,2.4,1.2,4.6,1.7,6.9c0.6,2.5,0,4.8-2.1,6.5c-1.9,1.6-4.1,1.8-6.4,1
		c-1.3-0.4-2.3-1.3-2.9-2.6c-0.6-1.1-1.2-1.2-2.3-0.6c-3.8,2.3-8,3.4-12.5,3.1c-11.2-0.6-20.1-9.2-21.4-19.4
		c0.6,0.1,0.7,0.7,1.1,1.1c3,3.2,7.3,3.1,10.1-0.2c0.5-0.6,0.6-1.6,1.5-2c0.1,0.3,0.3,0.6,0.4,0.9c2.3,6.7,10.1,9,15.7,4.7
		c2-1.5,2.9-3.6,3.7-5.9c0.2,0.4,0.5,0.8,0.7,1.2c1.4,2.7,4,3.9,7,3.4C60,242.4,61.5,240.6,62.5,238.4z"/>
	<path fill="#3FDBB1" d="M71.2,233.9c0.3-4.4,2-8.3,4.7-11.7c4.8-6.1,11.1-9.1,18.8-9c4.8,0,9.1,1.5,13,4.4c2.3,1.7,3.3,4,2.7,6.8
		c-0.7,2.7-2.5,4.3-5.2,4.8c-1.9,0.3-3.6-0.3-5.1-1.4c-3.8-2.7-9.3-1.9-11.9,0.1c-2.3,1.7-3.4,4.1-4.1,6.8c-0.3-0.1-0.3-0.5-0.4-0.7
		c-1.9-4.5-7.3-5.5-10.7-2.1C72.2,232.6,71.7,233.3,71.2,233.9z"/>
	<path fill="#3FDBB1" d="M115.4,234c0.3-4.6,2.1-8.6,5-12.1c4.7-5.7,10.8-8.6,18.3-8.6c4.8,0,9.1,1.5,13,4.3c2.4,1.8,3.4,4.1,2.8,7
		c-0.6,2.7-2.5,4.3-5.2,4.8c-1.9,0.3-3.5-0.4-5.1-1.3c-3.9-2.5-7.9-2.5-11.8,0c-2.4,1.5-3.4,4-4.2,6.6c-0.4-0.1-0.5-0.5-0.7-0.9
		c-1.5-3.4-5.7-4.9-9.3-2.7C116.9,231.8,116.4,233.1,115.4,234z"/>
	<path fill="#3FDBB1" d="M83.9,238.2c0.7,2.4,1.8,4.6,3.8,6.2c3.8,2.9,8.1,3.1,12.3,0.4c2.3-1.5,4.7-1.9,7.2-0.5
		c3.6,2,4.4,7,1.5,9.8s-6.5,4.2-10.4,4.9c-7.2,1.3-13.7-0.4-19.3-5.1c-4.5-3.8-7.2-8.9-7.8-14.8c0.4,0.1,0.4,0.5,0.6,0.7
		c1.6,2.6,4.4,3.7,7.3,3C81.6,242.2,82.9,240.4,83.9,238.2z"/>
	<path fill="#3FDBB1" d="M128.1,238.5c0.9,2.6,2.1,4.9,4.4,6.4c3.9,2.5,7.8,2.4,11.6-0.1c2.6-1.7,5.2-2,7.8-0.2
		c3.1,2.1,3.6,6.7,1,9.3c-2.9,2.9-6.5,4.4-10.5,5.1c-7.3,1.3-13.9-0.5-19.5-5.3c-4-3.5-6.4-8-7.5-13.3c-0.1-0.3,0-0.6,0-0.8
		c0.7,0.1,0.9,0.8,1.3,1.2c2.1,2.1,4.4,2.7,7.2,1.7C126.1,241.8,127,240.1,128.1,238.5z"/>
	<path fill="#3FDBB1" d="M212.6,225.3c0.7-4.4,3.1-7.6,7.1-9.6c8.6-4.3,17.2-3.7,25.4,1.1c3,1.7,3.8,5.4,2.1,8.3
		c-1.7,3-5.3,4.2-8.3,2.4c-3.4-1.9-7-2.5-10.8-1.8c-1,0.2-1.9,0.5-2.7,1.2c-0.1-0.2-0.2-0.4-0.3-0.7c-0.5-2.6-2.3-4.1-4.6-4.7
		c-2.2-0.5-4.5-0.2-6.3,1.7C213.5,223.9,213.3,224.8,212.6,225.3z"/>
	<path fill="#3FDBB1" d="M248.8,248.9c-0.7,3.9-3.1,6.6-6.5,8.4c-8.9,4.7-17.5,3.9-26-1.1c-2.7-1.6-3.4-5.3-1.8-8
		c1.8-3.2,5.4-4.3,8.6-2.5c3.4,1.9,6.9,2.5,10.7,1.8c1-0.2,1.9-0.6,2.7-1.2c0.1,0.2,0.2,0.3,0.3,0.5c1.9,5.3,7.1,6.6,11.2,2.7
		C248.1,249.3,248.4,248.9,248.8,248.9z"/>
	<path fill="#3FDBB1" d="M236.4,244.3c-1.4-1.1-3.1-1.3-4.8-1.4c-4.1-0.3-8.2-0.8-11.9-2.9c-3.5-2-6.2-4.7-6.9-8.8
		c0.6,0.2,0.8,0.8,1.2,1.2c2.6,2.7,6.5,2.8,9.3,0.3c1.2-1.1,1.7-2.6,2.1-4.1c2,1.6,4.4,1.6,6.7,1.8c5.3,0.6,10.2,2,14,6.1
		c1.6,1.7,2.6,3.7,3.1,6c-0.3-0.1-0.5-0.3-0.6-0.6c-1.5-3-5.9-3.6-8.5-2.3C238,240.5,237,242.3,236.4,244.3z"/>
	<path fill="#35C49B" d="M195,241.6c-0.4-1-1.1-1.8-1.6-2.8c-1.2-2.6,0.3-6.6,3.1-8c2.9-1.4,6.2-0.8,8.3,1.9
		c0.3,0.3,0.4,0.8,0.9,0.8c0.1,1.5,0.6,3,0.2,4.6c-1.1,4.2-5.5,6.2-9.4,4.2C196.1,242.1,195.6,241.9,195,241.6z"/>
	<path fill="#35C49B" d="M268.5,238.7c-0.4,0-0.5,0.4-0.6,0.7c-1.1,2.5-3.2,3.8-5.8,3.8c-2.6,0-4.8-1.1-5.9-3.6
		c-0.1-0.3-0.2-0.5-0.5-0.6c-0.3-1.5-0.3-3,0-4.5c1-1.2,1.6-2.7,3.2-3.5c3.6-1.8,7.4-0.5,9.1,3.1c0.1,0.3,0.2,0.6,0.6,0.7
		C268.5,236,268.5,237.4,268.5,238.7z"/>
	<path fill="#35C49B" d="M128.1,238.5c-1.1,1.6-2,3.3-4.1,4.1c-2.8,1-5.1,0.4-7.2-1.7c-0.4-0.4-0.6-1.1-1.3-1.2
		c-0.4-1.9-0.5-3.8-0.1-5.6c1-0.9,1.5-2.2,2.8-3c3.6-2.2,7.9-0.7,9.3,2.7c0.1,0.3,0.2,0.7,0.7,0.9
		C128.2,235.9,128.1,237.2,128.1,238.5z"/>
	<path fill="#35C49B" d="M63,238.4c-1.1,2.2-2.5,3.9-5.1,4.3c-3,0.5-5.7-0.7-7-3.4c-0.2-0.4-0.5-0.8-0.7-1.2c0-1.2,0-2.5,0-3.7
		c0.3-0.2,0.5-0.5,0.6-0.8c1.2-2.6,3.3-3.8,6-3.7c2.8,0.1,5,1.4,6,4.2c0,0.1,0.2,0.2,0.3,0.3C63.2,235.8,63.2,237.1,63,238.4z"/>
	<path fill="#35C49B" d="M160.1,233.5c1.1-0.8,1.7-2.1,3-2.7c3.3-1.5,7.1-0.5,8.7,2.6c1.4,2.9,0.9,6.9-2.6,8.9
		c-2.3,1.3-5.7,0.9-7.6-1c-0.5-0.4-0.7-1.2-1.4-1.3C159.5,237.8,159.5,235.7,160.1,233.5z"/>
	<path fill="#35C49B" d="M225.3,228.6c-0.4,1.5-0.9,3-2.1,4.1c-2.8,2.5-6.6,2.4-9.3-0.3c-0.4-0.4-0.6-1-1.2-1.2
		c-0.6-2-0.8-3.9-0.2-5.9c0.7-0.5,1-1.3,1.6-1.9c1.8-1.8,4-2.2,6.3-1.7c2.3,0.6,4.1,2.1,4.6,4.7c0,0.2,0.2,0.4,0.3,0.7
		C225.3,227.5,225.3,228,225.3,228.6z"/>
	<path fill="#35C49B" d="M30.4,238.4c-0.9,0.4-0.9,1.4-1.5,2c-2.9,3.3-7.1,3.4-10.1,0.2c-0.3-0.4-0.5-0.9-1.1-1.1
		c-0.5-1.9-0.5-3.7-0.3-5.6c0.8-0.2,0.8-1,1.2-1.5c3.4-3.8,8.6-3.2,11,1.3c0.2,0.3,0.2,0.7,0.7,0.8
		C30.2,235.8,30.4,237.1,30.4,238.4z"/>
	<path fill="#35C49B" d="M236.4,244.3c0.6-2,1.6-3.8,3.6-4.8c2.6-1.3,6.9-0.6,8.5,2.3c0.1,0.3,0.3,0.5,0.6,0.6
		c0.6,2.2,0.4,4.4-0.3,6.5c-0.4,0-0.7,0.3-0.9,0.6c-4.1,3.9-9.4,2.7-11.2-2.7c-0.1-0.2-0.2-0.3-0.3-0.5
		C236.4,245.7,236.4,245,236.4,244.3z"/>
	<path fill="#35C49B" d="M84.4,238.2c-1,2.2-2.3,4-4.8,4.6c-2.9,0.7-5.7-0.5-7.3-3c-0.2-0.3-0.2-0.6-0.6-0.7c-0.3-1.7-0.3-3.4,0-5.1
		c0.5-0.6,1-1.3,1.6-1.9c3.4-3.5,8.8-2.4,10.7,2.1c0.1,0.3,0.1,0.6,0.4,0.7C84.4,235.9,84.4,237.1,84.4,238.2z"/>
	<path fill="#3FDBB1" d="M49.9,284.5c0,2.6,0,5.2,0,7.8c0,0.5,0.1,1.2-0.5,1.4c-0.8,0.3-1.6,0.2-1.6-0.9c0-3.5,0-7,0-10.5
		c0-0.7,0.4-1.3,1.2-1.4s1.2,0.3,1.6,0.9c2,2.9,4.1,5.8,6.2,8.7c0,0,0.1,0,0.3,0.2c0-2.1,0-4,0-6c0-0.8,0-1.6,0-2.4
		c0-0.7,0.2-1.4,1-1.4s1,0.6,1,1.3c0,0.9,0,1.9,0,2.8c0,2.3,0,4.7,0,7c0,0.7,0.3,1.5-0.7,1.8c-0.9,0.2-1.7,0-2.2-0.8
		c-1-1.5-2.1-3-3.1-4.4c-0.9-1.3-1.9-2.7-2.8-4C50,284.5,50,284.5,49.9,284.5z"/>
	<path fill="#3FDBB1" d="M151.1,290.4c0-2.5,0-4.8,0-7.1c0-0.4,0-0.8,0-1.1c0.1-0.6,0.2-1.3,1-1.3s1,0.6,1.1,1.3
		c0.1,1.9,0,3.9,0.1,5.8c0,1.4,0,2.8,0,4.3c0,0.6,0.1,1.4-0.8,1.6c-0.8,0.1-1.6,0.1-2.1-0.7c-1.7-2.5-3.4-4.9-5.1-7.4
		c-0.3-0.4-0.4-0.9-1.2-1c0,1.5,0,2.9,0,4.4c0,1.3,0,2.6,0,3.8c0,0.6-0.3,0.9-0.9,0.9c-0.6,0-1-0.2-1-0.9c0-3.6,0-7.2,0-10.8
		c0-0.6,0.4-1.1,1-1.3c0.7-0.2,1.3,0.2,1.7,0.8c1.7,2.5,3.5,5,5.2,7.4C150.2,289.5,150.4,290.1,151.1,290.4z"/>
	<path fill="#3FDBB1" d="M261.1,291c0-3.1,0-5.7,0-8.4c0-0.7,0-1.6,0.9-1.6c1.1,0,1.1,0.8,1.1,1.6c0,3.2,0,6.5,0,9.7
		c0,0.6,0.2,1.4-0.6,1.6c-0.8,0.2-1.6,0.2-2.2-0.6c-1.2-1.8-2.5-3.6-3.8-5.4c-0.8-1.1-1.5-2.2-2.3-3.3c-0.5,0.3-0.3,0.7-0.3,1
		c0,2.3,0,4.7,0,7c0,0.7-0.1,1.3-1.1,1.3c-0.9,0-0.9-0.6-0.9-1.2c0-3.4,0-6.7,0-10.1c0-0.7,0.1-1.3,0.9-1.6c0.8-0.3,1.3,0.2,1.8,0.8
		c1.8,2.6,3.6,5.1,5.4,7.7C260.3,290,260.5,290.3,261.1,291z"/>
	<path fill="#3FDBB1" d="M205.4,293.9c-4.1,0-6.1-2.1-6.1-6.4c0-3.9,2.1-6.5,6.2-6.6c3.8,0,6.3,2.5,6.3,6.6
		C211.6,291,209.9,294.3,205.4,293.9z M209.5,287.5c0-1-0.2-2-0.6-2.9c-1.2-2.5-4.5-2.9-6.3-0.9c-1.6,1.8-1.6,5.8,0.1,7.5
		c1.1,1.2,2.5,1.5,4,1C208.5,291.7,209.5,290,209.5,287.5z"/>
	<path fill="#3FDBB1" d="M121.1,293.8c-2.7,0.3-4.8-0.6-6-3.1c-1.2-2.6-1-5.2,0.6-7.6c1.8-2.6,6.9-3.1,9.2-1c0.3,0.3,0.6,0.6,0.8,1
		c0.3,0.6,0.5,1.3-0.2,1.8c-0.7,0.4-1.1-0.1-1.5-0.6c-1.3-1.8-2.7-2.2-4.5-1.7c-1.4,0.4-2.2,1.4-2.6,2.7c-0.4,1.4-0.4,2.8,0,4.2
		c0.8,2.9,5.3,4.1,7.4,2c0.6-0.6,0.3-1.4,0.2-2.2c-0.1-0.7-0.7-0.4-1.2-0.5c-0.6-0.1-1.1-0.1-1.7-0.2c-0.3,0-0.7-0.2-0.6-0.6
		c0-0.5,0.3-0.7,0.7-0.7c1.3,0,2.6,0,3.8,0c0.2,0,0.5,0.2,0.6,0.3c0.8,0.7,0.4,4.4-0.6,5C124.2,293.6,122.7,294,121.1,293.8z"/>
	<path fill="#3FDBB1" d="M232.3,287.5c0-1.7,0-3.4,0-5.1c0-0.7,0.2-1.4,1-1.4s1,0.7,1,1.4c0,0.1,0,0.3,0,0.4c0,3.5,0,3.5,3.6,3.5
		c2.7,0,2.7,0,2.7-2.7c0-0.6,0.1-1.1,0.1-1.7c0.1-0.6,0.5-1,1-1c0.7,0,1,0.5,1,1.2s0,1.4,0,2.1c0,2.8,0,5.5,0,8.3
		c0,0.7,0,1.4-0.9,1.4c-1,0.1-1.2-0.6-1.2-1.3c-0.1-1.2,0-2.5,0-3.7c0-0.7-0.2-0.9-0.9-0.9c-1.5,0-2.9,0-4.4,0c-0.8,0-1,0.3-1,1
		c0,1.2,0,2.4,0,3.6c0,0.7,0,1.4-1,1.4s-1-0.6-1-1.3C232.3,290.9,232.3,289.2,232.3,287.5z"/>
	<path fill="#3FDBB1" d="M129.5,287.4c0-1.6,0-3.2,0-4.8c0-1,0.5-1.6,1.6-1.6c2.2,0,4.4,0,6.5,0c0.6,0,1.4,0.1,1.3,0.9
		c0,0.7-0.8,0.7-1.3,0.7c-1.6,0-3.1,0-4.7,0c-0.9,0-1.3,0.2-1.2,1.2c0.1,3.2-0.4,2.5,2.5,2.6c1.1,0,2.2,0,3.3,0c0.5,0,1,0.1,1,0.7
		s-0.5,0.7-1,0.7c-1.6,0-3.1,0-4.7,0c-0.8,0-1,0.3-1.1,1.1c-0.1,3.3-0.1,3.3,3.1,3.3c1.1,0,2.2,0,3.3,0c0.6,0,1.1,0.1,1.1,0.8
		c0,0.7-0.6,0.8-1.1,0.8c-2.4,0-4.7,0-7.1,0c-0.9,0-1.4-0.5-1.4-1.4C129.5,290.7,129.5,289.1,129.5,287.4z"/>
	<path fill="#3FDBB1" d="M266.5,287.6c0-1.7,0-3.3,0-5c0-0.9,0.4-1.5,1.3-1.5c2.3,0,4.6,0,7,0c0.6,0,1.1,0.1,1.1,0.8
		c0,0.7-0.6,0.8-1.1,0.8c-1.6,0-3.2,0-4.8,0c-0.8,0-1.2,0.2-1.2,1.1c-0.1,2.7-0.1,2.7,2.6,2.7c0.9,0,1.8,0,2.7,0
		c0.6,0,1.4-0.2,1.4,0.7c0,0.9-0.8,0.6-1.3,0.7c-1.4,0-2.8,0-4.3,0c-0.8,0-1,0.3-1.1,1.1c-0.1,3.3-0.1,3.3,3.1,3.3
		c1.1,0,2.2,0,3.3,0c0.5,0,1.1,0.2,1,0.9c-0.1,0.6-0.5,0.7-1.1,0.7c-2.4,0-4.8,0-7.3,0c-1,0-1.3-0.6-1.3-1.5
		C266.5,290.9,266.5,289.3,266.5,287.6z"/>
	<path fill="#3FDBB1" d="M170.2,287.4c0-1.6,0-3.2,0-4.8c0-0.9,0.4-1.5,1.3-1.5c2.3,0,4.6,0,7,0c0.6,0,1.1,0.1,1.1,0.8
		c0,0.7-0.6,0.8-1.1,0.8c-1.6,0-3.2,0-4.8,0c-0.8,0-1.2,0.2-1.2,1.1c-0.1,2.7-0.1,2.7,2.6,2.7c0.9,0,1.7,0,2.6,0
		c0.6,0,1.5-0.3,1.5,0.7s-0.9,0.6-1.4,0.7c-1.4,0-2.8,0-4.1,0c-0.8,0-1,0.3-1.1,1.1c-0.1,3.3-0.1,3.3,3.1,3.3c1.1,0,2.2,0,3.3,0
		c0.5,0,1.1,0.2,1,0.9c-0.1,0.6-0.5,0.7-1,0.7c-2.4,0-4.8,0-7.3,0c-1,0-1.3-0.6-1.3-1.5C170.2,290.7,170.2,289,170.2,287.4z"/>
	<path fill="#3FDBB1" d="M224.8,293.9c-2,0.3-3.6-0.3-4.6-2.3c-0.3-0.6-0.7-1.4,0.2-1.9s1.2,0.3,1.5,1c0.8,1.8,2.4,2.4,4.2,1.7
		c0.9-0.3,1.6-0.9,1.6-1.9c0.1-1.1-0.7-1.6-1.6-2c-0.9-0.3-1.9-0.5-2.9-0.8c-2.3-0.7-3.4-1.9-3.2-3.6s1.4-2.7,3.7-3.1
		c1.2-0.2,2.4,0,3.5,0.4c0.8,0.3,1.5,0.9,1.8,1.7c0.2,0.6,0.4,1.3-0.3,1.6c-0.7,0.4-1.1-0.1-1.5-0.7c-1-1.6-2.3-2.1-3.9-1.5
		c-0.7,0.3-1.3,0.7-1.3,1.5s0.5,1.4,1.3,1.7c1.5,0.6,3,0.7,4.5,1.4c2.3,1.2,2.7,3.8,0.9,5.7C227.7,293.9,226.3,294,224.8,293.9z"/>
	<path fill="#3FDBB1" d="M74.4,287.3c0-1.7,0-3.3,0-5c0-1,0.5-1.4,1.4-1.4c2.3,0,4.6,0,7,0c0.5,0,1,0.1,1,0.7c0,0.7-0.5,0.8-1.1,0.9
		c-1.7,0-3.3,0.1-5,0c-1,0-1.3,0.3-1.3,1.3c0.1,3-0.4,2.4,2.5,2.5c1,0,2,0,3,0c0.5,0,1.3-0.1,1.3,0.7c0,0.9-0.8,0.7-1.4,0.7
		c-1.4,0-2.8,0.1-4.1,0c-1-0.1-1.3,0.3-1.3,1.3c0,3.1,0,3.1,3.1,3.1c1.1,0,2.3,0,3.4,0c0.6,0,1.1,0.2,1.1,0.9c0,0.7-0.6,0.7-1.1,0.7
		c-2.4,0-4.7,0-7.1,0c-0.9,0-1.4-0.4-1.4-1.4C74.4,290.7,74.4,289,74.4,287.3z"/>
	<path fill="#3FDBB1" d="M162.1,293.9c-3,0-4.6-1-5.5-3.6c-1-2.8-0.4-6.2,1.6-7.9c1.8-1.6,4.7-2,6.9-0.8c1,0.5,1.8,1.3,2.2,2.4
		c0.2,0.5,0.3,1.2-0.4,1.5c-0.7,0.4-1-0.2-1.3-0.7c-0.4-0.6-0.7-1.3-1.4-1.7c-2-1.2-4.4-0.3-5.3,1.9c-0.6,1.6-0.6,3.3-0.2,4.9
		c0.4,1.6,1.6,2.6,3.1,2.7c1.7,0.1,2.8-0.5,3.7-2.1c0.1-0.2,0.1-0.4,0.2-0.5c0.2-0.5,0.5-1,1.2-0.7c0.5,0.2,0.7,0.7,0.6,1.3
		c-0.4,1.8-2.2,3.4-4,3.4C163,293.9,162.5,293.9,162.1,293.9z"/>
	<path fill="#3FDBB1" d="M191.3,288.2c0-1.5,0-2.9,0-4.4c0-0.7-0.2-1-1-1c-0.7,0-1.4,0-2.1,0c-0.6,0-1.1-0.1-1.1-0.8
		c0-0.6,0.5-0.9,1.1-0.9c1.2,0,2.5,0,3.7,0c1.6,0,3.1,0,4.7,0c0.6,0,1.2,0.2,1.2,0.9c0,0.7-0.6,0.7-1.2,0.8c-1,0.1-2.3-0.4-2.9,0.2
		c-0.6,0.7-0.2,2-0.2,3c0,2.1,0,4.3,0,6.4c0,0.7,0,1.4-1.1,1.4s-1.1-0.7-1.1-1.5C191.3,291,191.3,289.6,191.3,288.2z"/>
	<path fill="#3FDBB1" d="M65.6,288c0-1.4,0-2.8,0-4.1c0-0.9-0.2-1.3-1.2-1.2c-0.7,0.1-1.4,0-2.1,0c-0.5,0-0.9-0.2-1-0.8
		c0-0.6,0.4-0.8,0.9-0.8c2.9,0,5.8,0,8.7,0c0.6,0,1.1,0.2,1,0.9c0,0.6-0.5,0.8-1,0.8c-0.1,0-0.2,0-0.3,0c-2.9,0.1-2.9,0.1-2.9,3
		c0,1.9,0,3.9,0,5.8c0,0.4,0,0.9-0.1,1.3c-0.1,0.6-0.4,1-1.1,1c-0.8,0-1-0.5-1-1.1C65.6,291.1,65.6,289.5,65.6,288L65.6,288z"/>
	<path fill="#3FDBB1" d="M98.1,287.2c0-1.6,0-3.2,0-4.8c0-0.8,0.2-1.6,1.2-1.6c0.9,0,1,0.8,1,1.6c0,2.8,0,5.7,0,8.5
		c0,0.9,0.3,1.2,1.2,1.2c1.5-0.1,2.9,0,4.4,0c0.6,0,1.2,0.1,1.2,0.9c0,0.7-0.6,0.8-1.2,0.8c-2.1,0-4.3,0-6.4,0
		c-1.1,0-1.4-0.7-1.4-1.6C98.1,290.5,98.1,288.9,98.1,287.2z"/>
	<path fill="#3FDBB1" d="M88.9,286.7c0,1.3,0.1,2.7,0,4c-0.1,1.2,0.4,1.5,1.5,1.4c1.4-0.1,2.7,0,4.1,0c0.6,0,1.2,0.1,1.2,0.8
		c0,0.8-0.6,0.8-1.2,0.8c-2.1,0-4.2,0-6.3,0c-1,0-1.5-0.5-1.5-1.5c0-3.3,0-6.6,0-9.9c0-0.8,0.2-1.5,1.1-1.5s1.1,0.7,1.1,1.5
		C88.9,283.8,88.9,285.3,88.9,286.7z"/>
	<path fill="#3FDBB1" d="M248.5,287.6c0,1.7,0,3.4,0,5.1c0,0.7-0.1,1.2-1,1.2s-1.2-0.5-1.2-1.2c0-3.5,0-6.9,0-10.4
		c0-0.7,0.3-1.4,1.1-1.4s1.1,0.6,1.1,1.4C248.5,284.1,248.5,285.9,248.5,287.6z"/>
	<path fill="#3FDBB1" d="M109.5,287.4c0-1.6,0-3.2,0-4.8c0-0.8,0-1.8,1.1-1.8c1,0,1.1,0.9,1.1,1.7c0,3.3,0,6.5,0,9.8
		c0,0.7,0,1.5-1.1,1.5c-1.2,0-1.1-0.8-1.1-1.5C109.5,290.7,109.5,289.1,109.5,287.4z"/>
	<path fill="#3FDBB1" d="M44.2,287.3c0,1.7,0,3.4,0,5.1c0,0.7-0.1,1.3-1,1.3s-1-0.6-1-1.2c0-3.5,0-6.9,0-10.4c0-0.7,0.2-1.2,1-1.3
		c0.9,0,1,0.6,1,1.3C44.2,283.9,44.2,285.6,44.2,287.3z"/>
</g>
</svg>
