<?xml version="1.0" encoding="utf-8"?>
<!-- Generator: Adobe Illustrator 21.0.2, SVG Export Plug-In . SVG Version: 6.00 Build 0)  -->
<svg version="1.1" id="Capa_1" xmlns="http://www.w3.org/2000/svg" xmlns:xlink="http://www.w3.org/1999/xlink" x="0px" y="0px"
	 viewBox="0 0 316 316" enable-background="new 0 0 316 316" xml:space="preserve">
<g id="Layer_x0020_1">
	<path fill="#3FDBB1" d="M119.1,242.8v3.8h5.3v-17.4c0-2.5-0.4-4.5-1.1-6.1c-0.8-1.7-1.8-2.9-3-3.9s-2.8-1.7-4.4-2.2
		c-1.7-0.4-3.4-0.7-5.2-0.6c-1.5,0-2.8,0.3-3.9,0.7c-1.2,0.5-2.2,1-2.9,1.7c-0.8,0.7-1.5,1.4-2.2,2.2c-0.6,0.7-1.1,1.4-1.5,1.9
		c0.7,0.3,1.4,0.6,2.1,0.9c0.7,0.3,1.4,0.6,2.1,0.9c0.7-1.2,1.5-2.1,2.3-2.7c0.8-0.6,1.7-1,2.5-1.2c0.8-0.2,1.7-0.3,2.4-0.3
		c1.6,0,2.8,0.2,4,0.7s2.1,1.3,2.7,2.5c0.7,1.2,1,2.8,1,4.7l-7.3,0.1c-2.9,0-5.3,0.5-7.2,1.3c-1.9,0.9-3.3,2.1-4.2,3.5
		c-0.9,1.6-1.4,3.4-1.4,5.5c0,1.7,0.5,3.1,1.4,4.4c0.9,1.2,2.1,2.2,3.6,2.8c1.6,0.7,3.2,1,5.2,1c1.4,0,2.8-0.1,4-0.3
		c1.3-0.2,2.5-0.7,3.4-1.3C117.6,244.7,118.5,243.8,119.1,242.8L119.1,242.8L119.1,242.8z M111,232.2c0.5,0,1.2,0,1.8-0.1
		c0.7,0,1.6,0,2.6,0s2.3,0,3.7,0c0,1.8,0,3.2-0.2,4.6c-0.1,1.3-0.4,2.4-0.9,3.1c-0.5,0.8-1.2,1.4-2.1,1.9s-1.8,0.9-2.8,1.1
		s-2,0.4-2.8,0.4c-2.1,0-3.6-0.5-4.6-1.4c-1-0.9-1.6-2.2-1.6-3.8c0-1,0.3-1.9,0.8-2.8c0.5-0.9,1.3-1.6,2.3-2.1
		C108.3,232.6,109.5,232.3,111,232.2z M129.7,217.3v29.3h5.3v-17c0-0.9,0.1-1.8,0.4-2.8c0.3-1.1,0.7-2.1,1.3-3s1.4-1.8,2.3-2.4
		c0.9-0.6,2.1-1,3.4-1c1.2,0,2.3,0.4,3.2,1.1s1.9,1.8,2.5,2.9c0.6,1.3,1,2.7,1,4.3v17.8h5.3v-18.6c0-1.7-0.3-3.2-0.9-4.6
		c-0.6-1.4-1.5-2.6-2.6-3.6c-1.1-1-2.4-1.8-3.7-2.4c-1.4-0.6-2.9-0.8-4.5-0.8c-0.9,0-1.8,0.1-2.8,0.4c-0.9,0.3-1.8,0.7-2.7,1.2
		c-0.9,0.6-1.7,1.3-2.4,2.3v-3H129.7L129.7,217.3z M154.1,257.1v4.5c2.4,0,4.5-0.3,6.3-1c1.9-0.6,3.4-1.6,4.9-2.8
		c1.4-1.2,2.8-2.7,3.9-4.4c1.2-1.8,2.5-3.6,3.6-5.8c1.7-2.9,3.2-6,4.6-9.1c1.4-3.1,2.7-6.5,3.8-9.9c1.2-3.4,2.3-7.3,3.2-11.2h-5.3
		c-1,3.2-1.9,6.3-2.8,9c-0.9,2.8-1.8,5.3-2.8,7.8c-1,2.5-2.1,4.8-3.2,7.1c-1.4-2.5-2.5-5-3.4-7.7c-1-2.7-1.9-5.4-2.7-8.2
		c-0.8-2.8-1.5-5.4-2.1-8h-5.4c0.6,3.6,1.5,7.2,2.5,10.6s2.2,6.8,3.5,9.9c1.4,3.1,2.8,6.3,4.4,9.1c-0.7,1.3-1.5,2.5-2.3,3.6
		c-0.8,1.2-1.8,2.3-2.8,3.2c-1.1,1-2.3,1.8-3.5,2.3C157.1,256.8,155.6,257.1,154.1,257.1L154.1,257.1z M187.8,237.7
		c0,1.7,0.2,3,0.6,4.2c0.4,1.2,0.9,2.2,1.6,2.9c0.7,0.8,1.5,1.5,2.4,2.1c0.9,0.6,1.9,1.1,2.8,1.7c0.3-0.6,0.7-1.2,1.3-1.9
		c0.5-0.7,1-1.5,1.5-2.2c-1.4-0.8-2.5-1.7-3.2-2.6c-0.8-1-1.3-2.2-1.4-3.5V228v-24.7h-5.5v25.9V237.7L187.8,237.7z M199.9,237.2
		c0,2,0.5,3.7,1.5,5.3s2.4,2.8,4.3,3.6c1.9,0.9,4.2,1.4,6.9,1.4c2.8,0,5.2-0.4,7.2-1.2c2-0.8,3.4-2,4.5-3.5c1-1.5,1.6-3.3,1.6-5.5
		v-8.8c0-1.5-0.2-2.9-0.7-4.3c-0.5-1.4-1.2-2.7-2.3-3.8c-1-1.2-2.4-2.1-3.9-2.7c-1.7-0.7-3.6-1-5.9-1c-2.7,0-5,0.4-7,1.3
		c-2,0.9-3.4,2.2-4.5,3.8c-1.1,1.8-1.6,3.9-1.6,6.6L199.9,237.2L199.9,237.2z M213,220.7h0.9c1.1,0,2.1,0.2,2.8,0.6
		c0.8,0.4,1.5,1,2,1.7c0.5,0.7,0.9,1.5,1.2,2.4s0.4,1.8,0.5,2.6v8.6c0,2.3-0.7,3.9-2,5c-1.3,1.1-3.1,1.7-5.5,1.7
		c-1.5,0-2.8-0.3-3.9-0.8c-1.2-0.5-2.1-1.3-2.7-2.3c-0.7-1-1-2.2-1-3.6v-7.7c0-2,0.3-3.5,0.9-4.8c0.6-1.3,1.5-2.2,2.6-2.7
		C210.1,221,211.4,220.7,213,220.7L213,220.7z M230.7,255.1c-0.3,0.7-0.5,1.4-0.8,2.1c-0.3,0.7-0.6,1.4-0.8,2.1
		c0.7,0.4,1.4,0.8,2.1,1.1c0.7,0.3,1.6,0.6,2.6,0.7c1,0.2,2.2,0.3,3.5,0.3h8.4c2.2,0,4-0.4,5.7-1.2c1.6-0.8,2.8-1.9,3.7-3.2
		c0.9-1.4,1.4-3,1.4-5c0-1.8-0.4-3.2-1-4.4c-0.7-1.3-1.6-2.3-2.8-3c-1.2-0.8-2.6-1.4-4-1.8c-1.5-0.4-3.1-0.6-4.8-0.6
		c-0.5,0-1,0-1.6,0c-0.6,0-1.2,0-1.7,0c-1,0-1.9,0-2.8-0.1c-0.9-0.1-1.6-0.3-2.2-0.6c-0.6-0.3-0.9-0.8-0.9-1.4
		c0-0.4,0.1-0.8,0.3-1.2c0.2-0.4,0.4-0.8,0.7-1.1c0.3-0.3,0.5-0.6,0.7-0.8c0.9,0.3,1.8,0.5,2.7,0.6c0.9,0.1,1.8,0.2,2.7,0.2
		c4.3,0,7.6-0.9,9.7-2.8c2.2-1.8,3.2-4.4,3.2-7.9c0-0.8-0.1-1.8-0.3-2.7c-0.2-1-0.6-1.9-1.3-2.8c-0.1,0,0.2,0,0.8-0.2
		c0.6-0.1,1.6-0.2,2.9-0.2v-4c-1.9,0-3.3,0.1-4.5,0.2c-1.2,0.2-2,0.4-2.5,0.7c-0.7-0.4-1.5-0.7-2.5-1c-0.9-0.3-2-0.5-3-0.6
		c-1.1-0.2-2.2-0.2-3.2-0.2c-4,0-7.1,1-9.1,2.8c-2.2,1.9-3.1,4.6-3.1,8.2c0,1.5,0.2,2.8,0.8,3.9c0.5,1.2,1.4,2.4,2.5,3.4
		c0.2,0.2,0.3,0.3,0.5,0.4c0.2,0.1,0.2,0.2,0.3,0.2c-0.4,0.3-0.8,0.6-1.2,1.1s-0.8,1-1.1,1.6c-0.3,0.6-0.5,1.4-0.5,2.2
		c0,1.1,0.3,2.1,0.8,3s1.3,1.8,2.4,2.4c1.1,0.6,2.4,1,4,1h7.1c1.4,0,2.6,0.2,3.6,0.6c1.1,0.4,2,1,2.7,1.8s1,1.9,1,3.1
		c0,1-0.3,1.8-0.8,2.6c-0.5,0.7-1.3,1.3-2.1,1.7c-0.9,0.4-1.9,0.6-2.8,0.6h-8.8c-1.4,0-2.6-0.2-3.6-0.5
		C232.4,256,231.5,255.6,230.7,255.1L230.7,255.1L230.7,255.1z M234.3,227.7c0-0.7,0.1-1.5,0.2-2.3c0.1-0.8,0.4-1.6,0.9-2.3
		c0.5-0.7,1.2-1.3,2.2-1.8s2.2-0.7,3.8-0.7c1.6,0,2.9,0.1,4.1,0.5c1.2,0.3,2.2,1,2.8,2c0.7,1,1,2.3,1,4.1c0,1.8-0.4,3.1-1,4
		c-0.7,0.9-1.6,1.5-2.8,1.8c-1.2,0.3-2.5,0.5-3.9,0.4c-1.5,0-2.8-0.2-3.8-0.7c-1.1-0.4-2-1.1-2.6-2
		C234.6,230.1,234.3,229,234.3,227.7L234.3,227.7z M261.6,217.5v29.1h5.2v-29.1H261.6z M261,210.2l0.1,1.1c0.3,0.7,0.7,1.3,1.3,1.6
		c0.5,0.4,1.2,0.5,1.9,0.5h0.9c0.4,0,0.9-0.2,1.2-0.5c0.4-0.3,0.7-0.7,0.9-1.2c0.2-0.5,0.3-1,0.3-1.4v-0.6c-0.1-0.6-0.3-1.2-0.8-1.7
		c-0.4-0.5-1-0.8-1.6-1h-1.1c-0.5,0-0.9,0.1-1.4,0.4c-0.5,0.2-0.9,0.5-1.2,0.9c-0.3,0.3-0.5,0.7-0.5,1.1L261,210.2L261,210.2z
		 M282,216.6c-2.2,0.2-4.1,0.9-5.7,1.9c-1.6,1-2.9,2.4-3.8,4c-0.9,1.7-1.5,3.7-1.6,6.1v2.8c0,2.1,0.2,4,0.5,5.9
		c0.4,1.9,1,3.6,1.9,5.1c0.9,1.5,2.2,2.7,3.8,3.6c1.7,0.9,3.7,1.4,6.3,1.4c2.5,0,4.6-0.3,6.4-0.9c1.8-0.6,3.2-1.4,4.3-2.3
		c-0.1-0.1-0.3-0.3-0.5-0.6c-0.3-0.3-0.6-0.6-0.9-0.9c-0.3-0.4-0.7-0.7-1-1c-0.3-0.3-0.5-0.5-0.7-0.6c-0.8,0.6-1.6,1-2.4,1.3
		c-0.8,0.3-1.6,0.5-2.4,0.6c-0.8,0.1-1.8,0.2-2.8,0.2c-1.6,0-2.8-0.4-3.7-1.1c-1-0.7-1.8-1.6-2.3-2.8c-0.5-1.1-0.9-2.4-1.1-3.6
		c-0.2-1.4-0.3-2.7-0.3-3.9c0-0.6,0-1.4,0.1-2.3c0.1-0.9,0.3-1.9,0.5-2.9c0.3-1,0.7-2,1.3-2.8c0.6-0.9,1.4-1.7,2.4-2.2
		c1-0.6,2.3-0.9,3.8-0.9c0.8,0,1.6,0.1,2.3,0.2c0.7,0.1,1.5,0.4,2.2,0.7c0.7,0.3,1.6,0.7,2.4,1.2c0.2-0.1,0.4-0.4,0.7-0.7
		c0.3-0.3,0.7-0.7,1-1c0.4-0.4,0.7-0.7,0.9-0.9c0.3-0.3,0.4-0.4,0.4-0.4c-1.5-1.1-3.1-1.9-4.9-2.4c-1.8-0.5-3.4-0.7-5.2-0.7
		c-0.4,0-0.7,0-1.1,0C282.5,216.6,282.2,216.6,282,216.6L282,216.6z"/>
	<path fill="#3FDBB1" d="M296.4,218.4c0,0.7,0.1,1.4,0.4,2s0.6,1.2,1.1,1.6s1.1,0.8,1.7,1.1c0.7,0.3,1.4,0.4,2.2,0.4h0.6
		c0.3-0.1,0.6-0.1,1-0.2c0.3-0.1,0.6-0.2,0.9-0.3s0.6-0.3,0.9-0.5c0.3-0.2,0.6-0.5,0.9-0.8c0.3-0.3,0.6-0.8,0.8-1.3
		c0.1-0.2,0.2-0.4,0.2-0.6c0.1-0.2,0.1-0.4,0.1-0.7v-1.4c-0.1-0.7-0.4-1.4-0.7-1.9c-0.3-0.5-0.7-1-1.2-1.3c-0.5-0.4-0.9-0.6-1.4-0.8
		c-0.5-0.2-1-0.3-1.5-0.3h-0.6c-0.3,0-0.6,0-1,0.1s-0.8,0.2-1.2,0.3c-0.4,0.2-0.8,0.4-1.2,0.6c-0.4,0.3-0.7,0.6-1.1,0.9
		c-0.3,0.4-0.6,0.8-0.7,1.3C296.5,217.2,296.4,217.7,296.4,218.4L296.4,218.4z M297.6,218.4c0-0.5,0.1-0.9,0.3-1.4s0.5-0.9,0.8-1.2
		c0.3-0.4,0.7-0.7,1.1-0.9c0.4-0.2,0.9-0.4,1.4-0.4c0.2,0,0.3,0,0.4,0c0.1,0,0.3,0,0.4,0c0.2,0,0.5,0,0.8,0.1s0.7,0.2,1,0.4
		c0.4,0.2,0.7,0.4,1,0.7c0.3,0.3,0.6,0.7,0.9,1.2c0.1,0.3,0.2,0.6,0.3,0.8c0,0.3,0.1,0.5,0.1,0.8c0,0.6-0.1,1.1-0.3,1.6
		c-0.2,0.5-0.5,0.9-0.9,1.3c-0.4,0.4-0.8,0.6-1.3,0.8c-0.5,0.2-1,0.3-1.6,0.3h-0.3c-0.6,0-1.2-0.1-1.7-0.4c-0.5-0.2-0.9-0.6-1.3-1
		c-0.3-0.4-0.6-0.8-0.8-1.3C297.7,219.3,297.6,218.8,297.6,218.4L297.6,218.4z M300,221.4h1.1v-2.2h0.4c0.2,0,0.4,0,0.5,0.1
		c0.1,0.1,0.2,0.1,0.3,0.1s0.1,0.1,0.1,0.1v1.9h1.1v-2.1c0-0.1,0-0.2-0.1-0.4c-0.1-0.1-0.1-0.2-0.2-0.3v-0.1c0,0,0,0,0.1-0.1
		l0.1-0.1c0.1-0.1,0.1-0.2,0.2-0.3c0.1-0.1,0.1-0.2,0.1-0.3v-1.3c0-0.2-0.1-0.4-0.3-0.6c-0.1-0.2-0.3-0.4-0.6-0.5
		c-0.3-0.2-0.6-0.2-1-0.2h-1.9L300,221.4L300,221.4z M301.2,216.3h0.4c0,0,0.1,0,0.2,0c0.1,0,0.2,0,0.3,0.1c0.1,0,0.2,0.1,0.3,0.1
		c0.1,0.1,0.1,0.1,0.1,0.2v0.9c0,0.1-0.1,0.1-0.2,0.1c-0.1,0-0.2,0.1-0.4,0.1c-0.2,0-0.3,0-0.5,0.1c-0.1,0-0.3,0-0.3,0
		C301.2,218,301.2,216.3,301.2,216.3z"/>
	<path fill="#35C49B" d="M27.8,268.4l-1.6-1.3c11.7-19.3,19.1-23.7,32.8-25.2c9.8-1.1,20.9,6.8,28,10c11,5.1,21.4,3,28.8,1.7
		l2.6,2.9c-6.5,1.8-15.9,5.3-30.5,2.2c-11.5-2.5-17.8-6.7-27.1-6.2C43.4,253.6,33.9,261.9,27.8,268.4L27.8,268.4z"/>
	<polygon fill="#3FDBB1" points="9.4,263.5 47.3,199.1 62.3,193.1 77,267.9 115.7,253.7 120.5,259.2 60.8,290.1 50.7,218.2 
		16.2,267 	"/>
</g>
</svg>
