<?xml version="1.0" encoding="utf-8"?>
<!-- Generator: Adobe Illustrator 21.0.2, SVG Export Plug-In . SVG Version: 6.00 Build 0)  -->
<svg version="1.1" id="Capa_1" xmlns="http://www.w3.org/2000/svg" xmlns:xlink="http://www.w3.org/1999/xlink" x="0px" y="0px"
	 viewBox="0 0 316 316" enable-background="new 0 0 316 316" xml:space="preserve">
<path fill="#3FDBB1" d="M56.5,202v5.8h41.1V202H56.5z M103.4,202v5.8h58.5c0,0-5.9-5.8-13.9-5.8H103.4z M173.4,202v5.8h35.4
	l-2.1-5.8H173.4z M234.2,202l-2.1,5.8h35.1V202H234.2z M56.5,213.3v5.8h41.1v-5.8H56.5z M103.4,213.3v5.8h65.3c0,0-0.8-4.5-2.1-5.8
	H103.4z M173.4,213.3v5.8h39.3l-2-5.8H173.4z M230,213.3l-2,5.8h39.2v-5.8H230z M68.3,224.4v5.8h17.8v-5.8H68.3z M115.2,224.4v5.8
	H133v-5.8H115.2z M150.3,224.4v5.8h17.8c0,0,1.1-3,1.1-5.8H150.3z M185.2,224.4v5.8h31.5l-2.1-5.8H185.2z M226.1,224.4l-2.1,5.8
	h31.7v-5.8H226.1z M68.3,235.7v5.8h17.8v-5.8H68.3z M115.2,235.7v5.8h45.4c0,0,3.8-3,5-5.8H115.2z M185.2,235.7v5.8H203v-3.2
	l1.1,3.2h32.6l1.3-3.2v3.2h17.8v-5.8h-33.4l-1.8,4.9l-1.8-4.9H185.2z M68.3,246.9v5.8h17.8v-5.8H68.3z M115.2,246.9v5.8h50.4
	c-1.2-2.8-5-5.8-5-5.8H115.2z M185.2,246.9v5.8H203v-5.8H185.2z M206.2,246.9l2.2,5.8h24.5l2-5.8H206.2z M237.9,246.9v5.8h17.8v-5.8
	H237.9z M68.3,258.2v5.8h17.8v-5.8H68.3z M115.2,258.2v5.8H133v-5.8H115.2z M150.3,258.2v5.8h18.9c0-2.7-1.1-5.8-1.1-5.8H150.3z
	 M185.2,258.2v5.8H203v-5.8H185.2z M210.3,258.2l2.1,5.8h16.4l2.1-5.8H210.3z M237.9,258.2v5.8h17.8v-5.8H237.9z M56.8,269.4v5.8
	h41.1v-5.8H56.8z M103.4,269.4v5.8h63.2c1.3-1.3,2.1-5.8,2.1-5.8H103.4z M173.7,269.4v5.8H203v-5.8H173.7z M214.3,269.4l2.1,5.8h8.4
	l2-5.8H214.3z M237.9,269.4v5.8h29.6v-5.8H237.9z M56.8,280.6v5.8h41.1v-5.8H56.8z M103.4,280.6v5.8H148c7.9,0,13.9-5.8,13.9-5.8
	H103.4z M173.7,280.6v5.8H203v-5.8H173.7z M218.3,280.6l2,5.8h0.4l2.1-5.8H218.3z M237.9,280.6v5.8h29.6v-5.8H237.9z"/>
</svg>
