<?xml version="1.0" encoding="utf-8"?>
<!-- Generator: Adobe Illustrator 21.0.2, SVG Export Plug-In . SVG Version: 6.00 Build 0)  -->
<svg version="1.1" id="Capa_1" xmlns="http://www.w3.org/2000/svg" xmlns:xlink="http://www.w3.org/1999/xlink" x="0px" y="0px"
	 viewBox="0 0 316 316" enable-background="new 0 0 316 316" xml:space="preserve">
<g>
	<path fill="#3FDBB1" d="M17,270v-8.5h8.7c2.2,0,3.8-0.4,4.6-1.3c0.8-0.9,1.3-2.5,1.3-5v-41h-5.4v-8.5h21v8.5h-5.3v43
		c0,3.9-1.2,7-3.5,9.3S32.9,270,29,270H17z"/>
	<path fill="#3FDBB1" d="M84.8,236.3v24.2c0,3.1-0.8,5.5-2.5,7.2c-1.6,1.7-3.9,2.6-6.7,2.6H61.9c-6.6,0-9.9-3.5-9.9-10.4v-23.1
		c0-2.8,0.8-5.1,2.5-6.7c1.7-1.6,4-2.5,6.9-2.5h14.1c2.8,0,5.1,0.8,6.8,2.4C84,231.6,84.8,233.7,84.8,236.3z M74.8,262.3v-26.7H61.9
		v26.7H74.8z"/>
	<path fill="#3FDBB1" d="M115.6,256.2h9.2v4.5c0,3-0.8,5.3-2.5,7c-1.6,1.7-3.9,2.6-6.8,2.6h-13.2c-3.1,0-5.5-0.8-7.3-2.5
		c-1.8-1.6-2.6-4.1-2.6-7.5v-23.1c0-6.4,3.4-9.6,10.2-9.6h12.9c6.2,0,9.2,3.4,9.2,10.2v13.6h-23v10.9h13.8v-6.1H115.6z M115.6,244.5
		V235h-13.8v9.5H115.6z"/>
	<path fill="#3FDBB1" d="M133.6,270v-18.3h9.7v9.8h13.3c2.2,0,3.7-0.4,4.5-1.3s1.3-2.5,1.3-4.9v-6c0-2.2-0.1-3.6-0.3-4.3
		c-0.2-0.7-0.7-1.3-1.4-1.8c-0.8-0.5-2.6-0.8-5.6-0.8h-7.7c-4.4,0-7.8-1.2-10.2-3.6s-3.6-5.7-3.6-10V219c0-4,1.2-7.3,3.7-9.8
		c2.2-2.3,5.7-3.5,10.4-3.5h23.9v17.7h-9.9v-9.2h-11.6c-2.4,0-4.1,0.4-4.9,1.3c-0.8,0.9-1.3,2.5-1.3,5v5.7c0,2.5,0.4,4.2,1.3,5.1
		c0.9,0.9,2.5,1.3,4.9,1.3h10.2c5.1,0,8.9,2.1,11.2,6.4c1,1.7,1.4,4.4,1.4,8.1v10.3c0,5.5-2.3,9.2-6.8,11.4
		c-1.8,0.8-4.6,1.3-8.5,1.3L133.6,270L133.6,270z"/>
	<path fill="#3FDBB1" d="M211.7,254.9V270h-21.2c-6.4,0-9.5-3.5-9.5-10.6v-20.6c0-7.3,3.2-10.9,9.5-10.9h21.2v14.8h-9.2v-6.8h-11.9
		V262h11.9v-7.1H211.7z"/>
	<path fill="#3FDBB1" d="M256.9,270h-28.6c-2.6,0-4.7-0.9-6.4-2.7c-1.7-1.8-2.6-4.1-2.6-6.8l-0.1-4.7c-0.1-6.2,3.7-9.4,11.6-9.4
		l11.7-0.1v-10.6l-13.6,0.1v6.2h-9.1l0.1-5.1c0.1-6.1,3.4-9.1,9.9-9.1h12.4c6.5,0,9.7,3.3,9.7,9.9v24.4h5L256.9,270L256.9,270z
		 M242.6,253.7H229v8.7h13.6V253.7z"/>
	<path fill="#3FDBB1" d="M304,270h-14.5v-34.1h-13.6V262h5.1v8h-19.6v-8h5v-26.1h-5v-8h28c6.4,0,9.5,3,9.5,9.1v25h5v8H304z"/>
</g>
</svg>
