<?xml version="1.0" encoding="utf-8"?>
<!-- Generator: Adobe Illustrator 21.0.2, SVG Export Plug-In . SVG Version: 6.00 Build 0)  -->
<svg version="1.1" id="Capa_1" xmlns="http://www.w3.org/2000/svg" xmlns:xlink="http://www.w3.org/1999/xlink" x="0px" y="0px"
	 viewBox="0 0 316 316" enable-background="new 0 0 316 316" xml:space="preserve">
<g>
	<path fill="#3FDBB1" d="M119.4,175.4c0.1,0.1,0.3,0.2,0.4,0.2c1.4,0.5,2,1.4,2,2.9c0,9.1,0,18.1,0,27.2c0,20.6,0,41.3,0,61.9
		c0,1-0.1,1.9-0.9,2.5c-0.5,0.4-1.1,0.5-1.7,0.7c-0.3,0.1-0.6,0-0.9,0c-29.4,0-58.9,0-88.3,0c-1.3,0-2.4-0.2-3.1-1.4
		c-0.2-0.3-0.3-0.6-0.5-0.9c0-30.2,0-60.4,0-90.7c0.4-1.2,1.3-2,2.5-2.5C59.1,175.4,89.3,175.4,119.4,175.4z M30.3,223.2
		c0,14.3,0,28.6,0,42.9c0,1.1,0,1.1,1.1,1.1c28.6,0,57.2,0,85.8,0c1.1,0,1.1,0,1.1-1.1c0-28.6,0-57.2,0-85.8c0-1.1,0-1.1-1.1-1.1
		c-28.6,0-57.2,0-85.8,0c-1.1,0-1.1,0-1.1,1.1C30.3,194.6,30.3,208.9,30.3,223.2z"/>
	<path fill="#3FDBB1" d="M294.7,253.1c-2,0-4.1,0-6.1-0.1c-1,0-2.1,0-3.1,0c-0.8,0-0.8-0.3-0.8-0.9c0-8.4,0.1-16.9,0-25.3
		c0-1.8-0.3-3.7-0.8-5.4c-0.7-2.4-2.5-3.6-5-3.9c-3.5-0.4-6.3,1.1-8.7,3.3c-4.3,3.8-8,8-11.6,12.4c-0.1,0.2-0.3,0.3-0.5,0.6
		c0-2.4,0-4.7,0-6.9c0-0.2,0.1-0.5,0.3-0.6c3.4-4.3,6.8-8.6,10.9-12.2c2.7-2.4,5.7-4.3,9.3-4.9c3.8-0.6,7.4-0.5,10.7,1.8
		c2.7,1.9,4.1,4.7,4.8,7.8c0.4,1.6,0.5,3.3,0.7,4.9c0,0.2,0.1,0.4,0.2,0.6C294.7,233.9,294.7,243.5,294.7,253.1z"/>
	<path fill="#3FDBB1" d="M26.4,280.2c2.3,0,4.6,0,6.9,0c0.5,0,0.9,0,1.4,0.1c3.1,0.6,4.5,3.7,2.8,6.3c-0.4,0.6-1.1,1-1.6,1.5
		c1.5,0.4,1.8,1.7,1.9,3.1c0.1,1.3,0.3,2.7,0.5,4.1c-0.3,0-0.8,0-1.2,0c-0.7,0.1-0.9-0.3-1-0.9c-0.1-0.8-0.1-1.7-0.2-2.5
		c0-0.4-0.1-0.8-0.2-1.2c-0.3-1.2-1-1.8-2.3-1.8c-1.6,0-3.2,0-5,0c0,1.1,0,2.1,0,3.2s0,2.1,0,3.2c-0.7,0-1.4,0-2,0
		C26.4,290.2,26.4,285.2,26.4,280.2z M28.5,287c1.9,0,3.8,0.1,5.7,0c1.3-0.1,2-1.2,2-2.5c0-1.4-0.8-2.4-2-2.5c-1.9-0.1-3.7,0-5.7,0
		C28.5,283.7,28.5,285.4,28.5,287z"/>
	<path fill="#3FDBB1" d="M57.3,295.6c-0.9-0.4-1.7-0.9-2.6-1.3c0,0.2-0.1,0.6-0.1,1c-0.6,0-1.1,0-1.7,0c0-5,0-9.9,0-15
		c0.5,0,1.1,0,1.7,0c0,1.7,0,3.5,0,5.1c0.8-0.4,1.6-1,2.5-1.1c3.2-0.7,5.8,1.3,6.1,4.5c0.1,1,0,2.1-0.2,3.1c-0.4,1.8-1.5,3-3.3,3.5
		c-0.1,0-0.2,0.1-0.3,0.2C58.6,295.6,58,295.6,57.3,295.6z M54.5,289.9c0.2,0.8,0.3,1.6,0.6,2.3c0.6,1.2,1.7,1.8,3,1.8
		c1.2,0,2.2-0.6,2.7-1.7c0.7-1.5,0.7-3.1,0-4.6c-0.6-1.3-1.6-1.9-2.9-1.9c-1.3,0-2.5,0.7-2.9,2C54.8,288.4,54.7,289.1,54.5,289.9z"
		/>
	<path fill="#3FDBB1" d="M252.9,295.6c-0.1-0.1-0.2-0.1-0.4-0.1c-1.5-0.4-2.3-1.3-2.3-2.8c-0.1-1.6,0.6-2.7,2.1-3.1
		c1-0.3,2-0.4,3-0.6c0.4-0.1,0.7-0.1,1.1-0.2c0.6-0.2,1.1-0.4,1.1-1.1c0.1-0.7-0.2-1.4-0.9-1.6c-1.2-0.5-2.4-0.5-3.5,0.2
		c-0.4,0.3-0.6,0.9-1,1.5c-0.4,0-0.9,0-1.5,0c0-1.6,0.7-2.7,2.2-3.2c1.4-0.5,2.9-0.5,4.4-0.2c1.4,0.4,2.1,1.3,2.1,2.9
		c0,1.9,0,3.8,0,5.7c0,0.7,0.2,1.2,1.1,1c0,0.6,0.3,1.2-0.4,1.6c-0.5,0-0.9,0-1.4,0c-0.4-0.5-0.8-0.9-1.1-1.3
		c-0.8,0.4-1.7,0.8-2.6,1.3C254.2,295.6,253.5,295.6,252.9,295.6z M257.5,289.9c-0.6,0.1-1.2,0.2-1.7,0.3c-0.9,0.2-1.7,0.3-2.6,0.6
		c-0.8,0.3-1.2,1-1.1,1.8c0.1,0.7,0.6,1.2,1.4,1.4C256.2,294.5,258,292.7,257.5,289.9z"/>
	<path fill="#3FDBB1" d="M153.5,295.6c-0.1-0.1-0.2-0.1-0.3-0.1c-2-0.5-3.1-1.7-3.6-3.7c-0.4-1.4-0.4-2.8,0.1-4.2
		c0.8-2.3,2.9-3.7,5.3-3.4c2.3,0.2,4,2,4.3,4.5c0.1,0.5,0.1,1.1,0.1,1.7c-2.8,0-5.4,0-8.1,0c-0.3,1.6,0.6,3,2.1,3.5
		c1.9,0.6,3.2-0.1,4.1-2c0.5,0,1.1,0,1.6,0c0,1.5-1.2,3-2.9,3.5c-0.2,0.1-0.4,0.1-0.6,0.2C155,295.6,154.3,295.6,153.5,295.6z
		 M157.5,288.7c-0.1-1.8-1.5-3.1-3.2-3s-3,1.4-2.9,3C153.4,288.7,155.5,288.7,157.5,288.7z"/>
	<path fill="#3FDBB1" d="M277.2,295.6c-0.1,0-0.2-0.1-0.3-0.1c-2.3-0.6-3.6-2.1-3.9-4.4c-0.3-2.2,0-4.3,1.9-5.8
		c1.7-1.4,3.7-1.5,5.7-0.6c2.1,0.9,2.8,2.7,2.9,4.8c0.1,2.3-0.5,4.4-2.7,5.6c-0.4,0.2-0.9,0.4-1.4,0.6
		C278.7,295.6,277.9,295.6,277.2,295.6z M274.8,289.8c0,0.3,0,0.7,0.1,1c0.3,1.8,1.5,3.1,3.2,3.2c1.6,0.1,3-1,3.4-2.8
		c0.3-1.4,0.2-2.8-0.6-4c-1.2-2-4.1-2-5.3-0.1C275.1,287.9,274.8,289.8,274.8,289.8z"/>
	<path fill="#3FDBB1" d="M69.1,295.6c-0.2-0.1-0.4-0.1-0.6-0.2c-1-0.3-1.8-0.8-2.5-1.6c-1.8-2.2-1.6-6.2,0.3-8.2
		c1.6-1.6,3.5-1.8,5.5-1.2c2,0.6,3.1,2,3.4,4c0.4,2.2,0.2,4.3-1.6,5.8c-0.7,0.6-1.7,0.9-2.6,1.3C70.4,295.6,69.7,295.6,69.1,295.6z
		 M73.5,289.7c0-0.1,0-0.5-0.1-0.8c-0.2-1.5-1.2-2.7-2.5-3.1c-1.3-0.3-2.6,0.1-3.4,1.2c-1.1,1.5-1.1,4.3,0,5.7
		c0.9,1.1,2,1.5,3.4,1.2C72.5,293.5,73.5,292,73.5,289.7z"/>
	<path fill="#3FDBB1" d="M130.1,295.6c-0.4-0.1-0.8-0.3-1.1-0.4c-2.3-1-3-2.9-3.1-5.2c-0.1-3,1.6-5.2,4.1-5.7
		c3.9-0.7,6.7,1.8,6.5,5.8c-0.1,2.9-1.4,4.8-4.2,5.5C131.6,295.6,130.9,295.6,130.1,295.6z M134.8,290.1c-0.2-0.9-0.3-1.6-0.5-2.3
		c-0.5-1.3-1.7-2.1-3-2.2c-1.3,0-2.5,0.8-3.1,2.1c-0.6,1.4-0.6,2.8,0.1,4.2c1,2.3,4.1,2.7,5.5,0.7
		C134.3,291.9,134.5,290.9,134.8,290.1z"/>
	<path fill="#3FDBB1" d="M224.2,295.6C224.2,295.5,224.2,295.5,224.2,295.6c-4.3-1-4.8-5.4-3.8-8.2c0.8-2.3,3-3.5,5.6-3.2
		c2.5,0.3,4.3,2.1,4.5,4.6c0.2,1.8,0,3.6-1.2,5.1c-0.8,1-1.8,1.4-2.9,1.7C225.7,295.6,224.9,295.6,224.2,295.6z M228.9,290
		c-0.3-1-0.4-1.8-0.8-2.6c-0.5-1.1-1.5-1.7-2.7-1.7s-2.2,0.5-2.8,1.6c-0.9,1.7-1,3.4,0,5.1c1.1,2,4,2.2,5.3,0.3
		C228.4,291.9,228.6,290.9,228.9,290z"/>
	<path fill="#3FDBB1" d="M44.3,295.6c-0.1,0-0.2-0.1-0.3-0.1c-2.3-0.6-3.7-2.2-3.9-4.6c-0.1-0.8,0-1.7,0.1-2.5
		c0.5-2.8,2.7-4.4,5.5-4.2c2.8,0.2,4.7,2,4.9,4.8c0.1,1.1,0,2.2-0.3,3.3c-0.5,1.7-1.7,2.7-3.4,3.2c-0.1,0-0.3,0.1-0.4,0.2
		C45.7,295.6,45,295.6,44.3,295.6z M48.9,289.9c-0.2-0.7-0.3-1.5-0.6-2.1c-0.5-1.3-1.7-2.1-3-2c-1.4,0.1-2.4,0.8-3,2.1
		c-0.6,1.4-0.5,2.8,0.1,4.2c0.7,1.5,2.2,2.2,3.8,1.8C47.8,293.5,48.8,292,48.9,289.9z"/>
	<path fill="#3FDBB1" d="M164.1,295.6c-0.4-0.1-0.7-0.2-1.1-0.4c-1.5-0.5-2.2-1.7-2.3-3.3c0.6,0,1.1,0,1.7,0c0.6,2,3.4,2.8,5.1,1.6
		c0.9-0.6,0.9-1.9-0.2-2.3c-0.9-0.4-2-0.6-2.9-0.9c-0.7-0.2-1.4-0.4-2-0.7c-1.8-0.9-2-3.4-0.4-4.6c1.5-1.1,4.6-1.2,6.1-0.1
		c0.9,0.6,1.3,1.5,1.3,2.6c-0.6,0-1.1,0-1.7,0c-0.6-1.7-2.9-2.4-4.4-1.4c-0.8,0.5-0.8,1.4,0,1.9c0.6,0.3,1.2,0.5,1.9,0.7
		c0.9,0.3,1.8,0.4,2.6,0.7c1.4,0.4,2.1,1.3,2.1,2.5c0.1,1.5-0.6,2.5-2,3.1c-0.5,0.2-1,0.3-1.4,0.5
		C165.7,295.6,164.9,295.6,164.1,295.6z"/>
	<path fill="#3FDBB1" d="M174.8,295.6c-0.2-0.1-0.4-0.1-0.6-0.2c-1.8-0.4-2.7-1.5-2.9-3.5c0.6,0,1.1,0,1.7,0c0.7,2,3.3,2.8,5.1,1.6
		c0.9-0.6,0.9-1.9-0.1-2.3c-0.9-0.4-2-0.6-3-1c-0.7-0.2-1.4-0.4-2-0.7c-1.9-0.9-2-3.4-0.3-4.7c1.5-1.1,4.5-1.1,6-0.1
		c0.9,0.6,1.3,1.5,1.4,2.7c-0.5,0-1,0-1.4,0c-0.1,0-0.4-0.2-0.4-0.4c-0.3-0.9-1-1.3-1.9-1.4c-0.7,0-1.5,0-2.2,0.3
		c-1,0.4-1.1,1.5-0.1,2c0.7,0.4,1.5,0.6,2.3,0.8c0.7,0.2,1.5,0.3,2.2,0.6c1.2,0.4,2,1.2,2,2.5c0,1.4-0.5,2.4-1.8,3
		c-0.5,0.3-1.1,0.4-1.7,0.6C176.3,295.6,175.5,295.6,174.8,295.6z"/>
	<path fill="#3FDBB1" d="M204.8,295.6c-2.2-0.6-2.7-2.2-2.7-4.2s0-4,0-6c0-0.3,0-0.6,0-0.9c0.6,0,1.1,0,1.7,0c0,0.3,0,0.5,0,0.8
		c0,2,0,3.9,0,5.9c0,1.9,0.7,2.8,2.2,2.9c1.8,0.1,3.2-1.1,3.3-2.8c0.1-1.9,0-3.7,0-5.6c0-0.4,0-0.8,0-1.2c0.6,0,1.1,0,1.7,0
		c0,3.6,0,7.1,0,10.8c-0.5,0-1,0-1.6,0c0-0.5,0-0.9-0.1-1.2c-0.9,0.5-1.7,1-2.6,1.5C206.2,295.6,205.5,295.6,204.8,295.6z"/>
	<path fill="#3FDBB1" d="M294.7,295.2c-0.6,0-1.1,0-1.8,0c0-0.3,0-0.6,0-0.8c0-2,0-4,0-6c0-1.5-0.5-2.3-1.5-2.6
		c-1.4-0.4-2.9,0.2-3.5,1.5c-0.3,0.6-0.4,1.3-0.5,2c-0.1,1.9,0,3.7,0,5.6c0,0.1,0,0.2-0.1,0.4c-0.5,0-1,0-1.6,0c0-3.6,0-7.2,0-10.8
		c0.5,0,0.9,0,1.5,0c0,0.5,0.1,0.9,0.1,1.6c1.2-1.7,2.7-2.1,4.4-1.9c1.6,0.2,2.4,1,2.8,2.6c0,0.1,0.1,0.2,0.1,0.3
		C294.7,289.8,294.7,292.5,294.7,295.2z"/>
	<path fill="#3FDBB1" d="M142.1,295.6C142,295.5,142,295.5,142.1,295.6c-1.9-0.5-3.2-1.5-3.7-3.4c-0.6-2.1-0.5-4.2,0.8-6.1
		c1.6-2.4,5.7-2.7,7.7-0.7c0.7,0.7,1,1.5,1.1,2.5c-0.5,0-0.9,0-1.3,0c-0.2,0-0.5-0.2-0.6-0.4c-0.4-1.2-1.3-1.7-2.5-1.8
		c-1.2,0-2.3,0.4-2.9,1.5c-0.9,1.7-0.9,3.5,0,5.3c0.6,1.1,1.6,1.5,2.8,1.5c1.2-0.1,2.2-0.5,2.5-1.7c0.3-0.9,0.8-1.1,1.5-1
		c0.2,0,0.3,0,0.4,0c0.1,1.5-1.1,3.3-2.6,3.8c-0.3,0.1-0.7,0.2-1,0.3C143.5,295.6,142.8,295.6,142.1,295.6z"/>
	<path fill="#3FDBB1" d="M92.3,295.6c-0.1,0-0.2-0.1-0.3-0.1c-2.1-0.5-3.2-1.8-3.6-3.9s-0.2-4.1,1.2-5.8c1.6-2,5.4-2.1,7.3-0.4
		c0.7,0.6,1,1.4,1.1,2.6c-0.5,0-1,0-1.5,0c-0.1,0-0.3-0.2-0.4-0.4c-0.4-1.2-1.2-1.7-2.4-1.8c-1.2-0.1-2.3,0.3-2.9,1.4
		c-1,1.8-1,3.7,0,5.5c0.6,1.1,1.7,1.5,3,1.4c1.2-0.1,2.1-0.8,2.4-2c0.1-0.2,0.1-0.4,0.2-0.6c0.6,0,1.2,0,1.7,0
		c-0.2,2.1-1.4,3.5-3.3,4c-0.1,0-0.2,0.1-0.3,0.2C93.8,295.6,93,295.6,92.3,295.6z"/>
	<path fill="#3FDBB1" d="M144.2,209.4c0,0.4,0,0.8,0,1.2c0,4.6,0,9.2,0,13.9c0,0.7,0.2,1.2,0.8,1.6c2.2,1.7,4.6,2.9,7.4,3
		c3.2,0.2,5.7-1.1,7.6-3.6c1.5-2,2.3-4.3,2.7-6.7c0.6-3.8,0.6-7.6-0.4-11.3c-0.6-2.3-1.6-4.3-3.7-5.6c-3-1.8-6.1-1.7-9.2-0.3
		c-2.1,1-3.8,2.4-5.4,4c-3.5,3.4-6.7,7.2-9.2,11.4c-0.1,0.1-0.2,0.3-0.4,0.6c0-0.4,0-0.6,0-0.8c0-1.8,0-3.5,0-5.3
		c0-0.8,0.2-1.4,0.6-2c2-2.7,3.9-5.5,6-8.1c2.2-2.7,4.8-4.9,7.7-6.7c6.9-4.3,17.8-2.7,22.1,7c1.2,2.8,1.9,5.7,2.2,8.7
		c0.4,4.2,0.2,8.3-1,12.3c-1.5,5.1-4.3,9.4-9,12.2c-2.6,1.6-5.5,2.3-8.5,2.2c-2.9-0.1-5.6-1.2-8-2.8c-0.8-0.6-1.6-1.2-2.6-1.8
		c0,1.1,0,2.2,0,3.2c0,1.4,0.1,2.8,0.1,4.3c0,4.1,0,8.1,0,12.2c0,0.7-0.2,0.9-0.9,0.9c-2.7,0-5.4,0-8.1,0c-0.6,0-0.8-0.2-0.8-0.8
		c0-9.8,0-19.6,0-29.4c0-0.3,0.1-0.7,0.3-1c3.1-4.2,6.2-8.4,9.3-12.5C144.1,209.4,144.1,209.4,144.2,209.4z"/>
	<path fill="#3FDBB1" d="M184.7,221.3c-1.2-2.2-2.4-4.3-3.6-6.6c1.6-0.8,3.1-1.7,4.6-2.4c4.7-2.2,9.6-3.4,14.8-2.9
		c6.9,0.6,11.6,4.1,13.2,11.7c0.4,2.1,0.6,4.3,0.6,6.4c0.1,8.2,0,16.3,0,24.5c0,0.8-0.2,1-1,1c-2.1-0.1-4.1,0-6.2,0
		c-0.6,0-0.9-0.1-0.9-0.8c-0.1-1-0.3-2.1-0.5-3.1c-0.2-0.9-0.3-0.9-1-0.4c-1.3,0.9-2.6,1.9-3.9,2.7c-2.8,1.7-5.8,2.7-9.1,2.6
		c-6-0.2-10.8-3.5-12-9.5c-1.1-5.5,0.4-10.2,5.6-13.5c3.2-2,6.7-3.1,10.3-3.8c2.8-0.6,5.6-0.9,8.4-1.4c0.2,0,0.5-0.3,0.6-0.4
		c0.6-3.4-2.2-7.3-5.6-7.9c-2.4-0.4-4.8-0.3-7,0.6c-2.2,0.8-4.2,1.9-6.3,2.9C185.3,221,185.1,221.1,184.7,221.3z M204.6,236.8
		c0-1.4,0-2.9,0-4.3c0-0.4-0.1-0.7-0.6-0.6c-2.6,0.5-5.2,1-7.8,1.7c-2.1,0.6-4.1,1.5-5.7,3.1c-2.2,2.3-2.2,6.2,0.1,8.2
		c1.8,1.6,4.1,1.7,6.4,1.3c3-0.5,5.2-2.4,7.3-4.4c0.2-0.2,0.2-0.6,0.2-0.8C204.6,239.5,204.6,238.1,204.6,236.8z"/>
	<path fill="#3FDBB1" d="M238.2,229.4c0,3.4,0,6.8,0,10.2c0,1,0.2,2.1,0.6,3c0.8,2.2,2.5,3.3,4.9,3.4c1.5,0,3-0.2,4.4-0.7
		c0.4-0.2,0.6,0,0.7,0.4c0.5,2.1,0.9,4.1,1.5,6.2c0.1,0.4-0.1,0.6-0.4,0.6c-2.1,0.4-4.2,0.9-6.3,1.3c-2.2,0.4-4.5,0.1-6.6-0.5
		c-4.4-1.3-6.9-4.4-7.9-8.7c-0.4-1.8-0.6-3.6-0.6-5.4c-0.1-6.7,0-13.4,0-20.1c0-1.1,0-1.1-1.1-1.1c-1.4,0-2.9,0-4.3,0
		c-0.5,0-0.7-0.2-0.7-0.7c0-2,0-4,0-6c0-0.6,0.2-0.7,0.7-0.7c1.7-0.1,3.4-0.2,5.1-0.3c0.6,0,0.8-0.3,0.8-0.8
		c0.2-2.2,0.4-4.4,0.7-6.6c0.1-1.3,0.3-2.6,0.4-3.8c0-0.4,0.2-0.6,0.7-0.6c2.3,0,4.6,0,7,0c0.6,0,0.7,0.3,0.7,0.8c0,3.3,0,6.7,0,10
		c0,0.8,0.2,1,1,1c3,0,6,0,9,0c0.7,0,0.9,0.2,0.9,0.9c0,2,0,3.9,0,5.9c0,0.7-0.2,0.9-0.9,0.9c-3,0-6.1,0-9.1,0
		c-0.7,0-0.9,0.2-0.9,0.9C238.3,222.4,238.2,225.9,238.2,229.4z"/>
	<path fill="#3FDBB1" d="M257.9,221c0-0.2,0-0.4,0-0.6c0-8.6,0-17.2,0-25.9c0-1,0-1,1-1c2.7,0,5.4,0,8.1,0c0.6,0,0.8,0.2,0.8,0.8
		c0,4.8,0,9.6,0,14.3c0,0.7-0.1,1.5-0.1,2.2c0,0.2-0.1,0.4-0.3,0.5C264.3,214.6,261.1,217.8,257.9,221z"/>
	<path fill="#3FDBB1" d="M267.9,227.5c0,0.4,0,0.6,0,0.8c0,7.9,0,15.9,0,23.8c0,0.8-0.2,1-1,1c-2.7,0-5.4,0-8.1,0
		c-0.6,0-0.9-0.1-0.9-0.8c0-4.5,0-9,0-13.6c0-0.3,0.1-0.7,0.3-1c3-3.2,6-6.4,8.9-9.7C267.4,227.9,267.6,227.7,267.9,227.5z"/>
	<path fill="#3FDBB1" d="M234.5,295.2c-0.6,0-1.2,0-1.8,0c0-3.6,0-7.2,0-10.8c0.5,0,1,0,1.6,0c0,0.4,0,0.9,0.1,1.4
		c2.7-2.3,5-2.3,6.6,0c1.2-1.6,2.8-2,4.7-1.6c1.3,0.3,2.3,1.2,2.3,2.5c0.1,2.8,0,5.6,0,8.4c-0.6,0-1.1,0-1.8,0c0-0.3,0-0.6,0-0.9
		c0-2.1,0-4.2,0-6.3c0-1.6-0.5-2.2-1.8-2.3c-1.5-0.2-2.7,0.6-3.1,1.9c-0.1,0.4-0.1,0.8-0.1,1.2c0,1.9,0,3.7,0,5.6c0,0.3,0,0.6,0,0.9
		c-0.6,0-1.1,0-1.7,0c0-0.3,0-0.6,0-0.8c0-1.9,0-3.8,0-5.7c0-0.1,0-0.2,0-0.2c0-1.9-0.6-2.7-2.1-2.7s-2.9,1.3-2.9,2.9
		c0,1.9,0,3.9,0,5.8C234.5,294.6,234.5,294.9,234.5,295.2z"/>
	<path fill="#3FDBB1" d="M108.4,289.1c0,2.1,0,4.1,0,6.1c-0.7,0-1.3,0-1.9,0c0-5,0-10,0-15c0.5,0,0.9,0,1.4,0c1.9,0,3.8,0,5.7,0
		c3.1,0.1,4.3,2.1,4.1,4.8c-0.2,2.7-1.7,4-4.5,4.1C111.6,289.2,110.1,289.1,108.4,289.1z M108.5,281.9c0,1.9,0,3.7,0,5.4
		c1.7,0,3.4,0.1,5.1,0c1-0.1,1.7-0.7,2-1.6c0.6-2-0.4-3.6-2.4-3.8C111.6,281.8,110,281.9,108.5,281.9z"/>
	<path fill="#3FDBB1" d="M200.9,295.2c-0.1,0.1-0.2,0.1-0.2,0.1c-1.9,0.1-1.9,0.1-2.6-1.7c-0.3-0.8-0.5-1.6-0.9-2.3
		c-0.1-0.2-0.5-0.5-0.7-0.5c-1.8,0-3.5,0-5.3,0c-0.4,0-0.6,0.1-0.8,0.5c-0.4,1.1-0.8,2.1-1.2,3.2c-0.2,0.6-0.5,0.9-1.2,0.8
		c-0.4,0-0.7,0-1.2,0c0.1-0.3,0.2-0.6,0.3-0.8c1.8-4.5,3.5-9.1,5.3-13.6c0.2-0.5,0.4-0.7,1-0.7c1.5,0,1.5,0,2.1,1.4
		c1.7,4.3,3.3,8.5,5,12.8C200.7,294.7,200.8,294.9,200.9,295.2z M193.9,282c-0.9,2.5-1.7,4.7-2.6,7.1c1.7,0,3.3,0,5.1,0
		C195.6,286.7,194.8,284.4,193.9,282z"/>
	<path fill="#3FDBB1" d="M134.4,205c0-3.8,0-7.3,0-10.8c0-0.5,0.2-0.7,0.7-0.6c2.2,0,4.5,0,6.7,0c0.6,0,0.7,0.3,0.8,0.8
		c0.3,1.1-0.1,1.7-0.9,2.5c-2.2,2.3-4.3,4.8-6.5,7.2C135,204.2,134.8,204.5,134.4,205z"/>
	<path fill="#3FDBB1" d="M78.2,286c-0.7,0-1.2,0-1.8,0c0-0.5,0-1,0-1.6c0.6,0,1.1,0,1.8,0c0-1.1,0-2.1,0-3.2c0.6,0,1.2,0,1.8,0
		c0,1,0,2.1,0,3.2c0.8,0,1.4,0,2.1,0c0,0.5,0,1,0,1.5c-0.7,0-1.3,0-2.1,0c0,1.1,0,2.1,0,3.1c0,1.2,0,2.4,0,3.6c0,0.9,0.2,1,1,1
		c0.4,0,0.7,0,1.1,0c0,0.3,0,0.5,0,0.7c0,0.3,0,0.5,0,0.9c-1,0-1.9,0-2.8-0.2c-0.8-0.1-1.2-0.8-1.2-1.9c0-2.1,0-4.3,0-6.4
		C78.2,286.6,78.2,286.3,78.2,286z"/>
	<path fill="#3FDBB1" d="M218.6,284.4c0,0.6,0,1,0,1.5c-0.7,0-1.4,0-2.2,0c0,0.7,0,1.4,0,2c0,1.5,0,3,0,4.5c0,1.2,0.1,1.3,1.3,1.3
		c0.3,0,0.5,0,0.8,0c0,0.5,0,1,0,1.5c-0.9,0-1.8,0.1-2.6,0c-0.6,0-1-0.5-1.2-1.1c-0.1-0.4-0.1-0.8-0.1-1.2c0-2.3,0-4.5,0-6.9
		c-0.6,0-1.2,0-1.8,0c0-0.6,0-1,0-1.6c0.6,0,1.1,0,1.8,0c0-1.1,0-2.2,0-3.1c0.1-0.1,0.1-0.1,0.1-0.1c1.7-0.3,1.7-0.2,1.7,1.4
		c0,0.6,0,1.2,0,1.9C217.2,284.4,217.8,284.4,218.6,284.4z"/>
	<path fill="#3FDBB1" d="M266.8,293.7c0,0.6,0,1,0,1.5c-0.9,0-1.8,0.1-2.6,0c-0.6-0.1-1.1-0.5-1.2-1.2c-0.1-0.4-0.1-0.8-0.1-1.2
		c0-2.2,0-4.5,0-6.8c-0.6,0-1.2,0-1.8,0c0-0.6,0-1,0-1.5c0.6,0,1.1,0,1.8,0c0-1.1,0-2.2,0-3.3c0.6,0,1.2,0,1.8,0c0,1,0,2.1,0,3.2
		c0.8,0,1.4,0,2.2,0c0,0.6,0,1,0,1.5c-0.7,0-1.3,0-2,0c-0.1,0.1-0.1,0.2-0.1,0.3c0,2.2,0,4.5,0,6.7c0,0.5,0.3,0.8,0.8,0.8
		C265.9,293.7,266.3,293.7,266.8,293.7z"/>
	<path fill="#3FDBB1" d="M125.5,284.1c0,0.6,0,1.2,0,1.8c-0.2,0-0.3,0.1-0.4,0.1c-2.2,0.2-3.4,1.4-3.5,3.6c-0.1,1.5,0,3.1,0,4.6
		c0,0.3,0,0.6,0,0.9c-0.6,0-1.1,0-1.7,0c0-3.6,0-7.1,0-10.8c0.5,0,1,0,1.6,0c0,0.6,0,1.3,0,2C123.7,284.2,123.9,284.1,125.5,284.1z"
		/>
	<path fill="#3FDBB1" d="M84.3,284.4c0.6,0,1.1,0,1.7,0c0,3.6,0,7.1,0,10.8c-0.6,0-1.1,0-1.7,0C84.3,291.6,84.3,288.1,84.3,284.4z"
		/>
	<path fill="#3FDBB1" d="M270.6,295.2c-0.5,0-1.1,0-1.6,0c0-3.6,0-7.2,0-10.8c0.5,0,1,0,1.6,0C270.6,288,270.6,291.6,270.6,295.2z"
		/>
	<path fill="#3FDBB1" d="M86,282.3c-0.6,0-1.1,0-1.7,0c0-0.7,0-1.4,0-2.1c0.6,0,1.1,0,1.7,0C86,281,86,281.7,86,282.3z"/>
	<path fill="#3FDBB1" d="M269,280.2c0.6,0,1.1,0,1.6,0c0,0.7,0,1.3,0,2.1c-0.5,0-1,0-1.6,0C269,281.7,269,281,269,280.2z"/>
	<path fill="#3FDBB1" d="M74.7,213.2c0-5.7,0-11.4,0-17c0-1,0-1,1-1c2.6,0,5.2,0,7.8,0c0.6,0,0.8,0.2,0.8,0.8
		c0,11,0.1,21.9-0.1,32.8c0,4.8-0.8,9.4-2.9,13.8c-2.7,5.6-7.1,8.8-13.1,9.9c-4,0.8-8,0.7-12-0.3c-6.2-1.5-10.4-5.3-12.7-11.2
		c-1.2-3-1.8-6.2-2-9.4c-0.1-2.4-0.2-4.8-0.2-7.3c0-9.4,0-18.7,0-28.1c0-1.1,0-1.1,1.1-1.1c2.6,0,5.2,0,7.8,0c0.8,0,1,0.2,1,1
		c0,10.7,0,21.5,0,32.2c0,3.5,0.4,6.9,1.8,10.1c1.7,3.6,4.5,5.5,8.5,5.9c1.7,0.1,3.4,0,5-0.4c3.7-1,5.8-3.7,6.9-7.2
		c0.8-2.3,1.1-4.7,1.1-7.1C74.7,224.2,74.7,218.7,74.7,213.2L74.7,213.2z"/>
	<path fill="#3FDBB1" d="M97.6,231.7c0-6.8,0-13.6,0-20.4c0-0.8,0.2-1,1-1c2.7,0,5.3,0,8,0c0.7,0,0.9,0.1,0.9,0.9
		c0,13.7,0,27.3,0,41c0,0.6-0.2,0.8-0.8,0.8c-2.7,0-5.4,0-8.1,0c-0.7,0-0.9-0.2-0.9-0.9C97.7,245.3,97.6,238.5,97.6,231.7z"/>
	<path fill="#3FDBB1" d="M102.7,191.6c3.1,0,5.3,1.6,5.9,4.4c0.7,3.2-1.4,6.2-4.6,6.7c-1.9,0.3-3.8,0-5.4-1.2
		c-1.8-1.4-2.5-3.8-1.8-6.1c0.7-2.1,2.7-3.7,4.9-3.8C102,191.6,102.3,191.6,102.7,191.6z"/>
</g>
</svg>
