<?xml version="1.0" encoding="utf-8"?>
<!-- Generator: Adobe Illustrator 21.0.2, SVG Export Plug-In . SVG Version: 6.00 Build 0)  -->
<svg version="1.1" id="Capa_1" xmlns="http://www.w3.org/2000/svg" xmlns:xlink="http://www.w3.org/1999/xlink" x="0px" y="0px"
	 viewBox="0 0 1176 296" style="enable-background:new 0 0 1176 296;" xml:space="preserve">
<style type="text/css">
	.st0{fill:#484E67;}
	.st1{fill:#2CBE80;}
	.st2{fill:#556FA0;}
	.st3{fill:#62729E;}
	.st4{fill:#444D64;}
	.st5{fill:#5DBD83;}
</style>
<path class="st0" d="M484.5,102.4h-85.7l-3.6,23.7h54.5l-3.3,21.7H392l-7.3,47.4h-30.9l17.3-114.5h116.6L484.5,102.4z"/>
<path class="st0" d="M573.3,178.9h-78.2c-3.5,0-7-0.7-10.6-2c-4.6-1.6-6.9-3.9-6.9-6.7c0-0.2,4.5-21.3,13.6-63.4
	c0.7-3.2,3.9-5.8,9.6-7.6c4.4-1.4,8.7-2.2,13.1-2.2h75.3c3.8,0,7.6,0.6,11.3,1.8c5.1,1.6,7.7,3.8,7.7,6.5c0,0.4-4.5,21.7-13.4,63.8
	c-0.7,3-3.6,5.5-9,7.3C581.3,178.1,577.2,178.9,573.3,178.9z M564.6,163.4l10.8-50.8h-54.2l-10.9,50.8H564.6z"/>
<path class="st0" d="M695.4,178.9h-78.2c-3.9,0-7.5-0.6-10.6-1.8c-4.4-1.6-6.5-4-6.5-7.2c0-0.4,0.1-0.9,0.2-1.5l14.2-67.3
	c0.5-2.3,2.5-4,4.9-4h21.1c3.2,0,5.6,3,4.9,6.1l-11.5,54.1c-0.7,3.1,1.7,6.1,4.9,6.1h44c2.4,0,4.4-1.7,4.9-4l12.4-58.3
	c0.5-2.3,2.6-4,4.9-4h20.7c3.2,0,5.6,2.9,4.9,6.1l-13.9,66.1c-0.7,3-3.6,5.5-9,7.3C703.5,178.1,699.4,178.9,695.4,178.9z"/>
<path class="st0" d="M826.9,137.2c11.3,0.5,17,3.3,17,8.3c0,0.3-2.3,11.4-7,33.2h-31l7.2-33.8h-54.7l-7.2,33.8h-30.9l17.3-81.7h95.9
	c3.9,0,7.7,0.5,11.3,1.6c5.1,1.5,7.7,3.8,7.7,6.7c0,2-0.7,5.6-2,11c-0.8,3-1.6,6.8-2.6,11.5c-0.7,2.8-3.6,5.2-8.8,7
	C835,136.4,830.9,137.1,826.9,137.2z M815.9,129.4l3.7-16.8h-54.2l-3.6,16.8H815.9z"/>
<path class="st1" d="M873.3,178.7h-30.9l17.3-81.7h31.1L873.3,178.7z"/>
<path class="st1" d="M994.1,178.7H884.2c-2.1,0-3.7-1.9-3.2-4l15.9-75.1c0.3-1.5,1.7-2.6,3.2-2.6h107.8c3.2,0,5.5,2.9,4.9,6
	l-1.4,6.9c-0.3,1.5-1.7,2.6-3.2,2.6h-80.3c-1.5,0-2.9,1.1-3.2,2.6l-2.3,10.4c-0.5,2.1,1.1,4,3.2,4h46.4c2.1,0,3.7,1.9,3.2,4
	l-1.9,8.9c-0.3,1.5-1.7,2.6-3.2,2.6h-49.2c-1.6,0-2.9,1.1-3.2,2.6l-2.3,11.5c-0.4,2,1.1,3.9,3.2,3.9H996c2.1,0,3.7,1.9,3.2,4
	l-1.9,8.9C997,177.6,995.6,178.7,994.1,178.7z"/>
<path class="st1" d="M1108.9,137.2c11.3,0.5,17,3.3,17,8.3c0,0.3-2.3,11.4-7,33.2h-31l7.2-33.8h-54.7l-7.2,33.8h-30.9l17.3-81.7
	h95.9c3.9,0,7.7,0.5,11.3,1.6c5.1,1.5,7.7,3.8,7.7,6.7c0,2-0.7,5.6-2,11c-0.8,3-1.6,6.8-2.6,11.5c-0.7,2.8-3.6,5.2-8.8,7
	C1117,136.4,1113,137.1,1108.9,137.2z M1098,129.4l3.7-16.8h-54.2l-3.6,16.8H1098z"/>
<g>
	<path class="st2" d="M512.8,202.7c0-1,0.3-1.3,1.5-1.3h0.4c1.2,0,1.5,0.3,1.5,1.3v22c0,1-0.3,1.3-1.5,1.3h-0.4
		c-1.2,0-1.5-0.3-1.5-1.3V202.7z"/>
	<path class="st2" d="M523,205.3c0-3,1.5-4.2,4.3-4.2c2.6,0,3.6,0.9,4.5,3.5l6.4,17.9c0.4,1.1,0.8,1.4,1.5,1.4c0.7,0,1-0.5,1-1.4
		v-19.7c0-1,0.3-1.3,1.5-1.3h0.4c1.2,0,1.5,0.3,1.5,1.3v19.4c0,3-1.3,4.2-4.2,4.2c-2.6,0-3.8-1-4.7-3.7l-6.3-17.6
		c-0.4-1.2-0.7-1.5-1.4-1.5c-0.7,0-1.1,0.5-1.1,1.5v19.6c0,1-0.3,1.3-1.5,1.3h-0.3c-1.2,0-1.5-0.3-1.5-1.3V205.3z"/>
	<path class="st2" d="M566.8,213.7c0-0.9,0.2-1.2,1.4-1.2h0.4c1.2,0,1.4,0.3,1.4,1.2v7.3c0,3.2-1,4.7-4.3,5.1
		c-1.3,0.2-2.6,0.3-3.7,0.3c-8.5,0-12.2-2.8-12.2-9.5v-6.1c0-6.5,4-9.7,12-9.7c2.3,0,4.4,0.3,6.4,1c1,0.3,1.4,0.5,1.4,1.4v0.5
		c0,0.9-0.4,1.2-1.3,0.9c-1.9-0.7-4.1-1.1-6.5-1.1c-6.1,0-8.5,2.2-8.5,7.2v6.1c0,4.4,2.3,6.6,8.6,6.6c1.3,0,2.3-0.1,3.1-0.2
		c1.4-0.2,1.9-0.8,1.9-2.2V213.7z"/>
	<path class="st2" d="M579,214.6v6.9c0,1.2,0.6,1.8,2,1.8h11.5c1.1,0,1.3,0.2,1.3,1.2v0.4c0,0.9-0.3,1.2-1.3,1.2h-12.3
		c-3.3,0-4.7-1.2-4.7-4.1v-16.4c0-2.8,1.4-4.1,4.7-4.1h12.3c1.1,0,1.3,0.2,1.3,1.2v0.4c0,0.9-0.3,1.2-1.3,1.2H581
		c-1.4,0-2,0.5-2,1.8v5.9h11.8c1.1,0,1.3,0.2,1.3,1.2v0.4c0,0.9-0.3,1.2-1.3,1.2H579z"/>
	<path class="st2" d="M599.1,205.3c0-3,1.5-4.2,4.3-4.2c2.6,0,3.6,0.9,4.5,3.5l6.4,17.9c0.4,1.1,0.8,1.4,1.5,1.4c0.7,0,1-0.5,1-1.4
		v-19.7c0-1,0.3-1.3,1.5-1.3h0.4c1.2,0,1.5,0.3,1.5,1.3v19.4c0,3-1.3,4.2-4.2,4.2c-2.6,0-3.8-1-4.7-3.7l-6.3-17.6
		c-0.4-1.2-0.7-1.5-1.4-1.5s-1.1,0.5-1.1,1.5v19.6c0,1-0.3,1.3-1.5,1.3h-0.3c-1.2,0-1.5-0.3-1.5-1.3V205.3z"/>
	<path class="st2" d="M626.9,202.7c0-1,0.3-1.3,1.5-1.3h0.4c1.2,0,1.5,0.3,1.5,1.3v22c0,1-0.3,1.3-1.5,1.3h-0.4
		c-1.2,0-1.5-0.3-1.5-1.3V202.7z"/>
	<path class="st2" d="M640.5,214.6v6.9c0,1.2,0.6,1.8,2,1.8h11.5c1.1,0,1.3,0.2,1.3,1.2v0.4c0,0.9-0.3,1.2-1.3,1.2h-12.3
		c-3.3,0-4.7-1.2-4.7-4.1v-16.4c0-2.8,1.4-4.1,4.7-4.1h12.3c1.1,0,1.3,0.2,1.3,1.2v0.4c0,0.9-0.3,1.2-1.3,1.2h-11.5
		c-1.4,0-2,0.5-2,1.8v5.9h11.8c1.1,0,1.3,0.2,1.3,1.2v0.4c0,0.9-0.3,1.2-1.3,1.2H640.5z"/>
	<path class="st2" d="M674.8,215.8l6.4,8.9c0.7,0.9,0.6,1.2-0.8,1.2h-0.5c-1.3,0-1.9-0.2-2.6-1.2l-6.2-8.7H664v8.7
		c0,1-0.3,1.3-1.5,1.3h-0.4c-1.2,0-1.5-0.3-1.5-1.3v-19.2c0-2.8,1.4-4.1,4.7-4.1h6.7c6.7,0,9.1,2.5,9.1,7.3
		C681.1,212.8,679.4,215.2,674.8,215.8z M666,204.2c-1.4,0-2,0.5-2,1.8v7.3h8c4.5,0,5.8-1.4,5.8-4.5c0-3.2-1.3-4.6-5.8-4.6H666z"/>
	<path class="st2" d="M687,202.7c0-1,0.3-1.3,1.5-1.3h0.4c1.2,0,1.5,0.3,1.5,1.3v22c0,1-0.3,1.3-1.5,1.3h-0.4
		c-1.2,0-1.5-0.3-1.5-1.3V202.7z"/>
	<path class="st2" d="M719.2,224.7c0.3,0.9,0.1,1.2-1.1,1.2h-0.4c-1.2,0-1.6-0.2-1.9-1.2l-2-6.4h-12.9l-2,6.4
		c-0.3,1-0.7,1.2-1.9,1.2h-0.5c-1.2,0-1.4-0.3-1.1-1.2l5.8-18.1c0.7-2.2,1.4-3.6,2.2-4.4c0.8-0.8,2.1-1.2,3.9-1.2
		c1.8,0,3.1,0.4,3.9,1.2c0.8,0.8,1.6,2.2,2.2,4.4L719.2,224.7z M701.6,215.7H713l-3-9.4c-0.7-2.1-1.2-2.6-2.6-2.6
		c-1.5,0-2,0.5-2.7,2.6L701.6,215.7z"/>
	<path class="st2" d="M735.4,202.7c0-1,0.3-1.3,1.5-1.3h0.4c1.2,0,1.5,0.3,1.5,1.3v22c0,1-0.3,1.3-1.5,1.3h-0.4
		c-1.2,0-1.5-0.3-1.5-1.3V202.7z"/>
	<path class="st2" d="M745.6,205.3c0-3,1.5-4.2,4.3-4.2c2.6,0,3.6,0.9,4.5,3.5l6.4,17.9c0.4,1.1,0.8,1.4,1.5,1.4c0.7,0,1-0.5,1-1.4
		v-19.7c0-1,0.3-1.3,1.5-1.3h0.4c1.2,0,1.5,0.3,1.5,1.3v19.4c0,3-1.3,4.2-4.2,4.2c-2.6,0-3.8-1-4.7-3.7l-6.3-17.6
		c-0.4-1.2-0.7-1.5-1.4-1.5c-0.7,0-1.1,0.5-1.1,1.5v19.6c0,1-0.3,1.3-1.5,1.3h-0.3c-1.2,0-1.5-0.3-1.5-1.3V205.3z"/>
	<path class="st2" d="M771.2,202.6c0-0.9,0.3-1.2,1.3-1.2h18.8c1.1,0,1.3,0.2,1.3,1.2v0.4c0,0.9-0.3,1.2-1.3,1.2h-7.7v20.5
		c0,1-0.3,1.3-1.5,1.3h-0.4c-1.2,0-1.5-0.3-1.5-1.3v-20.5h-7.7c-1.1,0-1.3-0.2-1.3-1.2V202.6z"/>
	<path class="st2" d="M800.6,214.6v6.9c0,1.2,0.6,1.8,2,1.8h11.5c1.1,0,1.3,0.2,1.3,1.2v0.4c0,0.9-0.3,1.2-1.3,1.2h-12.3
		c-3.3,0-4.7-1.2-4.7-4.1v-16.4c0-2.8,1.4-4.1,4.7-4.1h12.3c1.1,0,1.3,0.2,1.3,1.2v0.4c0,0.9-0.3,1.2-1.3,1.2h-11.5
		c-1.4,0-2,0.5-2,1.8v5.9h11.8c1.1,0,1.3,0.2,1.3,1.2v0.4c0,0.9-0.3,1.2-1.3,1.2H800.6z"/>
	<path class="st2" d="M820.7,202.7c0-1,0.3-1.3,1.5-1.3h0.4c1.2,0,1.5,0.3,1.5,1.3v18.8c0,1.2,0.6,1.8,2,1.8h9.8
		c1.1,0,1.3,0.2,1.3,1.2v0.4c0,0.9-0.3,1.2-1.3,1.2h-10.5c-3.3,0-4.7-1.2-4.7-4.1V202.7z"/>
	<path class="st2" d="M841.7,202.7c0-1,0.3-1.3,1.5-1.3h0.4c1.2,0,1.5,0.3,1.5,1.3v22c0,1-0.3,1.3-1.5,1.3h-0.4
		c-1.2,0-1.5-0.3-1.5-1.3V202.7z"/>
	<path class="st2" d="M868.1,213.7c0-0.9,0.2-1.2,1.4-1.2h0.4c1.2,0,1.4,0.3,1.4,1.2v7.3c0,3.2-1,4.7-4.3,5.1
		c-1.3,0.2-2.6,0.3-3.7,0.3c-8.5,0-12.2-2.8-12.2-9.5v-6.1c0-6.5,4-9.7,12-9.7c2.3,0,4.4,0.3,6.4,1c1,0.3,1.4,0.5,1.4,1.4v0.5
		c0,0.9-0.4,1.2-1.3,0.9c-1.9-0.7-4.1-1.1-6.5-1.1c-6.1,0-8.5,2.2-8.5,7.2v6.1c0,4.4,2.3,6.6,8.6,6.6c1.3,0,2.3-0.1,3.1-0.2
		c1.4-0.2,1.9-0.8,1.9-2.2V213.7z"/>
	<path class="st2" d="M880.3,214.6v6.9c0,1.2,0.6,1.8,2,1.8h11.5c1.1,0,1.3,0.2,1.3,1.2v0.4c0,0.9-0.3,1.2-1.3,1.2h-12.3
		c-3.3,0-4.7-1.2-4.7-4.1v-16.4c0-2.8,1.4-4.1,4.7-4.1h12.3c1.1,0,1.3,0.2,1.3,1.2v0.4c0,0.9-0.3,1.2-1.3,1.2h-11.5
		c-1.4,0-2,0.5-2,1.8v5.9h11.8c1.1,0,1.3,0.2,1.3,1.2v0.4c0,0.9-0.3,1.2-1.3,1.2H880.3z"/>
	<path class="st2" d="M900.4,205.3c0-3,1.5-4.2,4.3-4.2c2.6,0,3.6,0.9,4.5,3.5l6.4,17.9c0.4,1.1,0.8,1.4,1.5,1.4c0.7,0,1-0.5,1-1.4
		v-19.7c0-1,0.3-1.3,1.5-1.3h0.4c1.2,0,1.5,0.3,1.5,1.3v19.4c0,3-1.3,4.2-4.2,4.2c-2.6,0-3.8-1-4.7-3.7l-6.3-17.6
		c-0.4-1.2-0.7-1.5-1.4-1.5c-0.7,0-1.1,0.5-1.1,1.5v19.6c0,1-0.3,1.3-1.5,1.3h-0.3c-1.2,0-1.5-0.3-1.5-1.3V205.3z"/>
	<path class="st2" d="M925.9,202.6c0-0.9,0.3-1.2,1.3-1.2h18.8c1.1,0,1.3,0.2,1.3,1.2v0.4c0,0.9-0.3,1.2-1.3,1.2h-7.7v20.5
		c0,1-0.3,1.3-1.5,1.3h-0.4c-1.2,0-1.5-0.3-1.5-1.3v-20.5h-7.7c-1.1,0-1.3-0.2-1.3-1.2V202.6z"/>
	<path class="st2" d="M955.4,214.6v6.9c0,1.2,0.6,1.8,2,1.8h11.5c1.1,0,1.3,0.2,1.3,1.2v0.4c0,0.9-0.3,1.2-1.3,1.2h-12.3
		c-3.3,0-4.7-1.2-4.7-4.1v-16.4c0-2.8,1.4-4.1,4.7-4.1h12.3c1.1,0,1.3,0.2,1.3,1.2v0.4c0,0.9-0.3,1.2-1.3,1.2h-11.5
		c-1.4,0-2,0.5-2,1.8v5.9h11.8c1.1,0,1.3,0.2,1.3,1.2v0.4c0,0.9-0.3,1.2-1.3,1.2H955.4z"/>
</g>
<g>
	<path class="st3" d="M225.8,204.7c-0.1-1.8-0.3-3.7-0.3-5.5c0-36.8,0-73.6,0-110.4c0-7.7-3.9-12.8-10.1-13.2
		c-6.3-0.5-11,3.4-12.2,10.2c-0.4,2.6-0.5,5.2-0.5,7.9c0,37.7,0,75.4,0,113.2c0,18.1-10.7,33.9-26.4,38.6
		c-26.1,7.7-45.5-11.7-48.3-31.7c-0.6-4.1-1.2-8.2-0.2-12.4c0.4-0.4,0.9-0.8,1.2-1.3c5.5-9,15.3-9.8,22.2-1.7c0.7,0.8,1,2,2.3,2.1
		c0.1,2.8,0.1,5.5,0.3,8.3c0.4,7,5.8,12.4,12,12.2c6.2-0.2,10.6-5.4,10.6-12.8c0-40,0.1-80,0-120c0-19.3,16.8-37.6,34.8-38.8
		c23.6-1.6,40.4,18,40.5,35.8c0.3,39.6,0.1,79.1,0.1,118.7c0,0.4-0.2,0.9-0.4,1.3c-0.8-3-2.4-5.6-5-7.5
		C238.9,192,230.7,194.9,225.8,204.7z"/>
	<path class="st4" d="M153.4,200.3c-1.3-0.1-1.6-1.3-2.3-2.1c-6.9-8-16.7-7.2-22.2,1.7c-0.3,0.5-0.8,0.9-1.2,1.3
		c-0.1-27-0.1-54.1-0.2-81.1c0-11.1,0-22.3,0-33.4c0-5.1-2.4-9-6.6-11.4c-3.4-2-7.3-1.8-10.6,0.5c-4.3,3-6.3,7.3-6.3,12.7
		c0.1,16.8,0,33.7,0,50.5c0,22.6,0.1,45.1,0,67.7c-0.1,19.4-11.4,34.9-28.5,39.3c-24.1,6.2-49-15.5-46.3-40.3
		c0.7-6.6,5.8-11,12.6-11.1c7.2,0,12.3,4.2,12.9,11.2c0.4,4.2,0.9,8.2,4.1,11.4c3.1,3.1,6.8,4.5,10.9,3.1c4.1-1.4,7-4.5,7.8-9
		c0.4-2,0.3-4,0.3-6c0-39.3,0-78.5,0-117.8c0-16.3,10-31.4,24.6-37.2c23.2-9.2,50.4,8.1,50.8,33.5
		C154,122.7,153.5,161.5,153.4,200.3z"/>
	<path class="st5" d="M225.8,204.7c4.9-9.8,13.1-12.7,20.6-7.3c2.5,1.9,4.1,4.4,5,7.5c0.5,4.9,0.7,9.8,4.9,13.5
		c5.9,5.1,14.3,3.3,17.2-3.9c1.5-3.6,1.7-7.5,1.7-11.4c0-38.3-0.1-76.7,0-115c0-18.7,13-34.8,30.8-38.4
		c21.4-4.3,43.7,13.3,44.4,35.2c0.3,8.2-4.7,14.6-11.9,15.1c-8.1,0.6-13.7-4.5-14.6-13.2c-0.7-6.8-4.8-11-10.8-11.2
		c-6.1-0.2-10.8,4.1-11.8,10.8c-0.2,1.7-0.2,3.4-0.2,5.1c0,38,0,76.1,0,114.1c0,12.1-2.8,23.1-12.4,31.8c-11.1,10-23.8,12.9-37.4,8
		c-14-5-22.9-15.4-25.3-30.5C225.6,211.5,224.9,208.1,225.8,204.7z"/>
</g>
</svg>
