<?xml version="1.0" encoding="utf-8"?>
<!-- Generator: Adobe Illustrator 21.0.2, SVG Export Plug-In . SVG Version: 6.00 Build 0)  -->
<svg version="1.1" id="Capa_1" xmlns="http://www.w3.org/2000/svg" xmlns:xlink="http://www.w3.org/1999/xlink" x="0px" y="0px"
	 viewBox="0 0 377 344" enable-background="new 0 0 377 344" xml:space="preserve">
<g>
	<path fill="#62729E" d="M225.8,229.7c-0.1-1.8-0.3-3.7-0.3-5.5c0-36.8,0-73.6,0-110.4c0-7.7-3.9-12.8-10.1-13.2
		c-6.3-0.5-11,3.4-12.2,10.2c-0.4,2.6-0.5,5.2-0.5,7.9c0,37.7,0,75.4,0,113.2c0,18.1-10.7,33.9-26.4,38.6
		c-26.1,7.7-45.5-11.7-48.3-31.7c-0.6-4.1-1.2-8.2-0.2-12.4c0.4-0.4,0.9-0.8,1.2-1.3c5.5-9,15.3-9.8,22.2-1.7c0.7,0.8,1,2,2.3,2.1
		c0.1,2.8,0.1,5.5,0.3,8.3c0.4,7,5.8,12.4,12,12.2s10.6-5.4,10.6-12.8c0-40,0.1-80,0-120c0-19.3,16.8-37.6,34.8-38.8
		c23.6-1.6,40.4,18,40.5,35.8c0.3,39.6,0.1,79.1,0.1,118.7c0,0.4-0.2,0.9-0.4,1.3c-0.8-3-2.4-5.6-5-7.5
		C238.9,217,230.7,219.9,225.8,229.7z"/>
	<path fill="#444D64" d="M153.4,225.3c-1.3-0.1-1.6-1.3-2.3-2.1c-6.9-8-16.7-7.2-22.2,1.7c-0.3,0.5-0.8,0.9-1.2,1.3
		c-0.1-27-0.1-54.1-0.2-81.1c0-11.1,0-22.3,0-33.4c0-5.1-2.4-9-6.6-11.4c-3.4-2-7.3-1.8-10.6,0.5c-4.3,3-6.3,7.3-6.3,12.7
		c0.1,16.8,0,33.7,0,50.5c0,22.6,0.1,45.1,0,67.7c-0.1,19.4-11.4,34.9-28.5,39.3c-24.1,6.2-49-15.5-46.3-40.3
		c0.7-6.6,5.8-11,12.6-11.1c7.2,0,12.3,4.2,12.9,11.2c0.4,4.2,0.9,8.2,4.1,11.4c3.1,3.1,6.8,4.5,10.9,3.1s7-4.5,7.8-9
		c0.4-2,0.3-4,0.3-6c0-39.3,0-78.5,0-117.8c0-16.3,10-31.4,24.6-37.2c23.2-9.2,50.4,8.1,50.8,33.5
		C154,147.7,153.5,186.5,153.4,225.3z"/>
	<path fill="#5DBD83" d="M225.8,229.7c4.9-9.8,13.1-12.7,20.6-7.3c2.5,1.9,4.1,4.4,5,7.5c0.5,4.9,0.7,9.8,4.9,13.5
		c5.9,5.1,14.3,3.3,17.2-3.9c1.5-3.6,1.7-7.5,1.7-11.4c0-38.3-0.1-76.7,0-115c0-18.7,13-34.8,30.8-38.4
		c21.4-4.3,43.7,13.3,44.4,35.2c0.3,8.2-4.7,14.6-11.9,15.1c-8.1,0.6-13.7-4.5-14.6-13.2c-0.7-6.8-4.8-11-10.8-11.2
		c-6.1-0.2-10.8,4.1-11.8,10.8c-0.2,1.7-0.2,3.4-0.2,5.1c0,38,0,76.1,0,114.1c0,12.1-2.8,23.1-12.4,31.8c-11.1,10-23.8,12.9-37.4,8
		c-14-5-22.9-15.4-25.3-30.5C225.6,236.5,224.9,233.1,225.8,229.7z"/>
</g>
</svg>
