<?xml version="1.0" encoding="utf-8"?>
<!-- Generator: Adobe Illustrator 21.0.2, SVG Export Plug-In . SVG Version: 6.00 Build 0)  -->
<svg version="1.1" id="Capa_1" xmlns="http://www.w3.org/2000/svg" xmlns:xlink="http://www.w3.org/1999/xlink" x="0px" y="0px"
	 viewBox="0 0 90 92" enable-background="new 0 0 90 92" xml:space="preserve">
<g>
	<path fill="#E1A12E" d="M35.3,88.5c-1.8-0.3-2.8-1.4-3.6-3c-1.7-3.1-3.6-6.2-5.4-9.3c-0.1-0.4,0.1-0.7,0.3-0.9
		c3.5-5.5,7.1-10.9,10.6-16.4c1.4-2.2,2.8-4.3,4.2-6.4c1.2-1.8,2.4-3.5,3.5-5.3c0.2-0.3,0.3-0.7,0.7-0.8c0.5,0,0.9,0.3,1.2,0.6
		c3.2,2.1,6.4,4.2,9.6,6.3c2.4,1.5,4.7,3.1,7.1,4.6c2.2,1.5,4.4,2.8,6.5,4.3c1.6,1,3.1,2.1,4.7,3.1c0.2,0.1,0.5,0.3,0.5,0.6
		c-2,1.4-4.2,2.5-6.3,3.8c-5.1,3-10.2,5.9-15.2,8.9c-0.3,0.2-0.6,0.3-1.1,0.7c0.9-3.5,1.8-6.7,2.7-10.1c-1.9,1.1-3.6,2.1-5.3,3.1
		c-1.5,0.7-1.5,0.7-2-1.1c-1.3-4.5-2.6-9-3.9-13.5C44,57.5,44,57.2,43.8,57c-0.2,8.5-0.5,17-0.7,25.6c0.9-0.2,1.5-0.8,2.2-1.2
		c1-0.6,2-1.2,3-1.8c0.5-0.3,0.7-0.4,0.9,0.4c0.2,0.9-0.1,1.2-0.8,1.7c-3.4,1.9-6.8,3.9-10.1,5.9c-0.6,0.4-1.3,0.6-1.9,0.8
		C35.9,88.5,35.6,88.5,35.3,88.5z"/>
	<path fill="#658EC9" d="M86.9,53.5c-1-1.8-2.1-3.6-3.1-5.5c-0.3-0.6-0.6-0.6-1.1-0.2c-3.1,2.5-6,5.2-9,7.8
		c-0.6,0.5-0.8,0.4-1.1-0.2c-0.3-0.6-0.7-1.2-1-1.7c-0.1-0.3-0.3-0.6-0.2-1c0.7-2.8,1.4-5.6,2.1-8.4l0,0c0.1-0.1,0.1-0.3,0.2-0.4
		c0.3-1.3,0.3-1.3-0.9-1.6c-2.6-0.7-5.1-1.4-7.7-2c-1-0.2-1.7-0.7-2.2-1.7c-0.9-1.8-1-1.8,1-2.5c3.4-1.2,6.7-2.3,10-3.6
		c0.5-0.2,0.7-0.3,0.4-0.9c-3-5.1-6-10.1-9-15.2c-0.7,1-1.4,2.1-2,3.1c-2.1,3.3-4.3,6.5-6.4,9.8c-0.4,0.2-0.5,0.5-0.7,0.8
		c-2.9,4.5-5.8,8.9-8.7,13.4c-0.6,0.9-1.3,1.7-1.6,2.8v0.1c0.4,0.3,0.9,0.6,1.3,0.9c3.1,2,6.3,4.1,9.4,6.1l0,0
		c2.4,1.5,4.7,3.1,7.1,4.6c2.2,1.4,4.4,2.8,6.5,4.2c1.8,1.2,3.5,2.4,5.3,3.6c0.4,0,0.6-0.3,0.9-0.4c3-1.8,6.1-3.5,9.1-5.3
		C88.2,58.4,88.7,56,86.9,53.5z"/>
	<path fill="#C2142A" d="M45.8,46.1c-0.3-0.4-0.8-0.6-1.2-0.9c-2.8-1.8-5.7-3.6-8.4-5.5c-2-1.2-4-2.6-6-3.9
		c-4.5-2.9-8.9-5.8-13.4-8.7c-0.3-0.2-0.5-0.4-0.9-0.3c-3.1,1.8-6.2,3.6-9.3,5.3C5,33,3.8,34,3.5,35.8c0,0.2,0,0.5,0,0.7
		c0.2,1.3,0.9,2.3,1.5,3.3c0.8,1.4,0.8,1.3,1.9,0.2c0.2-0.2,0.4-0.4,0.6-0.6c1.3-1,2.7-1.3,4.2-0.5s2.3,1.9,2.2,3.6
		c0,0.4-0.2,0.8,0,1.2c2-1.4,3.9-2.7,5.8-4.1c1.3,2.1,2.5,4.3,3.7,6.4c0.2,0.4,0.2,0.5-0.2,0.7c-0.8,0.3-1.5,0.7-2.3,1
		c-1.8,0.8-3.6,1.6-5.4,2.4c0.3,0.6,0.6,1.1,0.9,1.6c0.3,0.4,0.5,0.9,1,1.2c4,1.9,8,3.8,12,5.6c-1,2.3-2.3,4.4-3.5,6.7
		c-0.3,0.5-0.5,0.1-0.7-0.1c-1.6-1.3-3.3-2.6-4.9-4c-1-0.8-2-1.6-3.2-2.6c0.2,1.6,0.4,2.8,1.1,4.1c2.7,4.5,5.3,9,8,13.6
		c2.9-4.4,5.8-8.9,8.6-13.3c2.2-3.4,4.5-6.9,6.7-10.3l0,0c1.4-2.1,2.7-4.1,4.1-6.2C45.8,46.3,45.8,46.2,45.8,46.1z"/>
	<path fill="#91B838" d="M59.1,5.8C58,4,55.6,3.5,53.6,4.6c-3.2,1.9-6.3,3.8-9.5,5.7c-0.6,0.4-1.2,0.8-1.7,1.5c-0.7,1-0.3,2,0.8,2.3
		c1.7,0.5,3.4,0.8,5,1.5c1.1,0.5,2.1,1.1,2.7,2.3c1.2,2.5,0.7,4.8-1,6.9c-1.8,2.3-4.3,3.7-7,4.8c-1.5,0.6-3,1.1-4.7,1
		c-2.5-0.1-5.5-2.1-4.9-5.6c0.3-2.1,0.9-4,1.4-6.1c0.2-1-0.2-1.5-1.2-1.6c-0.8-0.1-1.5,0.3-2.1,0.6c-1.8,0.8-3.4,1.8-5.1,2.8
		c-3.5,2-7,4.1-10.5,6.1c2.4,1.5,4.8,3.1,7.2,4.6c4.4,2.8,8.7,5.7,13.1,8.5l0,0l0,0c3.2,2.2,6.4,4.2,9.7,6.3
		c1.6-2.5,3.3-4.9,4.9-7.4c2-3.1,4-6.2,6-9.3l0,0c0.5-0.2,0.7-0.6,0.9-1c2.3-3.5,4.6-7,6.9-10.5c0.3-0.5,0.7-0.9,0.7-1.5
		C63.2,12.9,61.2,9.3,59.1,5.8z"/>
</g>
</svg>
